<svg width="41" height="40" viewBox="0 0 41 40" fill="none" xmlns="http://www.w3.org/2000/svg">
<path d="M12.9316 39.0627H28.4004C30.4707 39.0627 32.1504 37.383 32.1504 35.3127V15.2111C32.1504 14.883 31.8145 14.6564 31.5098 14.7736C31.0566 14.9533 30.5723 15.0783 30.0723 15.1252C29.8301 15.1486 29.6504 15.3517 29.6504 15.5939V35.3908C29.6504 36.0783 29.0879 36.6408 28.4004 36.6408H12.9316C12.2441 36.6408 11.6816 36.0783 11.6816 35.3908V15.5939C11.6816 15.3517 11.502 15.1564 11.2598 15.1252C10.7598 15.0705 10.2754 14.9533 9.82227 14.7736C9.51758 14.6486 9.18164 14.8752 9.18164 15.2111V35.3127C9.18164 37.383 10.8613 39.0627 12.9316 39.0627Z" fill="url(#paint0_linear_17710_72995)"/>
<path d="M15.915 0.9375H12.3603C10.6025 0.9375 9.08687 2.15625 8.70406 3.86719L7.71969 8.28125C7.65719 8.57812 7.87594 8.85156 8.18062 8.85156H15.3916C15.6337 8.85156 15.8447 8.66406 15.8603 8.41406L16.3916 1.4375C16.415 1.16406 16.1962 0.9375 15.9228 0.9375H15.915Z" fill="url(#paint1_linear_17710_72995)"/>
<path d="M7.41509 10.3125C7.6729 12.5078 9.54009 14.2188 11.8135 14.2188C14.087 14.2188 14.626 13.4766 15.4307 12.3438C15.5245 12.2031 15.587 12.0469 15.5948 11.875L15.712 10.2969C15.7354 10.0234 15.5166 9.79688 15.2432 9.79688H7.87602C7.59477 9.79688 7.37602 10.0391 7.40727 10.3203L7.41509 10.3125Z" fill="url(#paint2_linear_17710_72995)"/>
<path d="M17.2673 8.85156H24.0564C24.3298 8.85156 24.5408 8.61719 24.5252 8.35156L23.9939 1.375C23.9783 1.13281 23.7752 0.9375 23.5252 0.9375H17.7908C17.5486 0.9375 17.3377 1.125 17.322 1.375L16.7908 8.35156C16.7673 8.625 16.9861 8.85156 17.2595 8.85156H17.2673Z" fill="url(#paint3_linear_17710_72995)"/>
<path d="M16.5879 11.2266C16.5723 11.3906 16.6036 11.5469 16.6739 11.6953C17.3848 13.1875 18.9082 14.2188 20.6739 14.2188C22.4395 14.2188 23.9551 13.1875 24.6739 11.6953C24.7442 11.5469 24.7676 11.3906 24.7598 11.2266L24.6817 10.2188C24.6661 9.97656 24.4551 9.78906 24.2129 9.78906H17.1348C16.8926 9.78906 16.6895 9.97656 16.6661 10.2188L16.5879 11.2266Z" fill="url(#paint4_linear_17710_72995)"/>
<path d="M32.6258 3.86719C32.243 2.15625 30.7196 0.9375 28.9696 0.9375H25.4149C25.1414 0.9375 24.9305 1.17188 24.9461 1.44531L25.4774 8.42188C25.493 8.66406 25.6961 8.85938 25.9461 8.85938H33.1571C33.4539 8.85938 33.6805 8.57812 33.618 8.28906L32.6336 3.875H32.6258V3.86719Z" fill="url(#paint5_linear_17710_72995)"/>
<path d="M33.9149 10.3125C33.9461 10.0312 33.7274 9.78906 33.4461 9.78906H26.0789C25.8055 9.78906 25.5946 10.0234 25.6102 10.2969L25.7274 11.875C25.743 12.0391 25.7977 12.2031 25.8914 12.3438C26.6961 13.4766 28.0164 14.2188 29.5086 14.2188C31.7743 14.2188 33.6493 12.5156 33.9071 10.3125H33.9149Z" fill="url(#paint6_linear_17710_72995)"/>
<path d="M18.8922 31.3864C19.6287 31.3864 20.2258 30.7894 20.2258 30.0528C20.2258 29.3163 19.6287 28.7192 18.8922 28.7192C18.1557 28.7192 17.5586 29.3163 17.5586 30.0528C17.5586 30.7894 18.1557 31.3864 18.8922 31.3864Z" fill="url(#paint7_linear_17710_72995)"/>
<path d="M24.6266 31.3864C25.3631 31.3864 25.9602 30.7894 25.9602 30.0528C25.9602 29.3163 25.3631 28.7192 24.6266 28.7192C23.89 28.7192 23.293 29.3163 23.293 30.0528C23.293 30.7894 23.89 31.3864 24.6266 31.3864Z" fill="url(#paint8_linear_17710_72995)"/>
<path d="M25.2262 20.7202H18.998L19.5316 25.1007H25.5887L26.3316 22.139C26.5129 21.4155 25.9699 20.7202 25.227 20.7202H25.2262Z" fill="url(#paint9_linear_17710_72995)"/>
<path d="M14.1219 18.5303C13.8078 18.5303 13.5508 18.7873 13.5508 19.1014C13.5508 19.4154 13.8078 19.6725 14.1219 19.6725H16.0648C16.3508 19.6725 16.5984 19.8912 16.6359 20.1771L17.3406 25.8818C17.4453 26.7389 18.1789 27.3865 19.0453 27.3865H25.6828C25.9969 27.3865 26.2539 27.1295 26.2539 26.8154C26.2539 26.5014 25.9969 26.2443 25.6828 26.2443H19.0453C18.7594 26.2443 18.5117 26.0256 18.4742 25.7396L17.7695 20.035C17.6648 19.1779 16.9312 18.5303 16.0648 18.5303H14.1219Z" fill="url(#paint10_linear_17710_72995)"/>
<defs>
<linearGradient id="paint0_linear_17710_72995" x1="5.72132" y1="39.0627" x2="38.1331" y2="15.0915" gradientUnits="userSpaceOnUse">
<stop stop-color="#8B5CF6"/>
<stop offset="1" stop-color="#FACC15"/>
</linearGradient>
<linearGradient id="paint1_linear_17710_72995" x1="6.40066" y1="8.85156" x2="17.3044" y2="-0.519572" gradientUnits="userSpaceOnUse">
<stop stop-color="#8B5CF6"/>
<stop offset="1" stop-color="#FACC15"/>
</linearGradient>
<linearGradient id="paint2_linear_17710_72995" x1="6.15246" y1="14.2188" x2="11.8816" y2="5.78672" gradientUnits="userSpaceOnUse">
<stop stop-color="#8B5CF6"/>
<stop offset="1" stop-color="#FACC15"/>
</linearGradient>
<linearGradient id="paint3_linear_17710_72995" x1="15.6235" y1="8.85156" x2="26.2708" y2="0.699072" gradientUnits="userSpaceOnUse">
<stop stop-color="#8B5CF6"/>
<stop offset="1" stop-color="#FACC15"/>
</linearGradient>
<linearGradient id="paint4_linear_17710_72995" x1="15.3521" y1="14.2188" x2="21.1282" y2="5.86739" gradientUnits="userSpaceOnUse">
<stop stop-color="#8B5CF6"/>
<stop offset="1" stop-color="#FACC15"/>
</linearGradient>
<linearGradient id="paint5_linear_17710_72995" x1="23.6372" y1="8.85938" x2="34.5498" y2="-0.5089" gradientUnits="userSpaceOnUse">
<stop stop-color="#8B5CF6"/>
<stop offset="1" stop-color="#FACC15"/>
</linearGradient>
<linearGradient id="paint6_linear_17710_72995" x1="24.3577" y1="14.2188" x2="30.1009" y2="5.78183" gradientUnits="userSpaceOnUse">
<stop stop-color="#8B5CF6"/>
<stop offset="1" stop-color="#FACC15"/>
</linearGradient>
<linearGradient id="paint7_linear_17710_72995" x1="17.1568" y1="31.3864" x2="20.7655" y2="28.56" gradientUnits="userSpaceOnUse">
<stop stop-color="#8B5CF6"/>
<stop offset="1" stop-color="#FACC15"/>
</linearGradient>
<linearGradient id="paint8_linear_17710_72995" x1="22.8911" y1="31.3864" x2="26.4999" y2="28.56" gradientUnits="userSpaceOnUse">
<stop stop-color="#8B5CF6"/>
<stop offset="1" stop-color="#FACC15"/>
</linearGradient>
<linearGradient id="paint9_linear_17710_72995" x1="17.8879" y1="25.1007" x2="23.7676" y2="17.3542" gradientUnits="userSpaceOnUse">
<stop stop-color="#8B5CF6"/>
<stop offset="1" stop-color="#FACC15"/>
</linearGradient>
<linearGradient id="paint10_linear_17710_72995" x1="11.637" y1="27.3865" x2="23.896" y2="13.6145" gradientUnits="userSpaceOnUse">
<stop stop-color="#8B5CF6"/>
<stop offset="1" stop-color="#FACC15"/>
</linearGradient>
</defs>
</svg>
