<svg width="41" height="40" viewBox="0 0 41 40" fill="none" xmlns="http://www.w3.org/2000/svg">
<path d="M36.4437 19.6005C36.3943 19.2792 36.3318 18.9611 36.2637 18.6436C36.2374 18.5192 36.2112 18.3955 36.1818 18.2717C36.1162 17.9986 36.043 17.7274 35.963 17.458C35.9412 17.383 35.9255 17.3061 35.9024 17.2311C35.8949 17.2061 35.8749 17.1567 35.8512 17.0992C35.8055 16.9567 35.7668 16.8124 35.7174 16.6711C36.793 14.7005 37.3405 13.0067 37.3405 11.6374C37.3405 9.34861 35.4812 7.48736 33.1968 7.48736C31.9705 7.48736 30.8112 8.04049 30.0293 8.97236C28.5924 7.90424 27.0224 7.08986 25.3599 6.54861C25.3362 6.54049 25.3137 6.52986 25.2899 6.52236C25.278 6.51861 25.2655 6.51986 25.253 6.51736C23.6687 6.01361 22.0062 5.74549 20.2987 5.74549C18.453 5.74549 16.6655 6.05236 14.9562 6.64674C14.9537 6.64736 14.9505 6.64611 14.948 6.64736C14.8943 6.66549 14.8424 6.68549 14.7887 6.70424C14.7043 6.73486 14.6193 6.76236 14.5355 6.79424C14.3918 6.84799 14.2543 6.90299 14.1299 6.95611C14.0774 6.97111 13.9987 6.99799 13.9655 7.02111C13.8987 7.04674 13.8318 7.08049 13.7655 7.10924C13.7199 7.12924 13.6743 7.14861 13.6293 7.16924C13.5655 7.19799 13.5018 7.22361 13.4374 7.25361C13.5705 6.69674 13.6405 6.17736 13.6405 5.70674C13.6405 3.42174 11.7787 1.56299 9.49055 1.56299C7.20555 1.56299 5.34617 3.42174 5.34617 5.70674C5.34617 7.70299 6.53742 10.1017 7.58555 11.8305C7.38367 12.0805 7.1893 12.3361 7.00305 12.5974C6.93117 12.6874 6.87742 12.7567 6.86117 12.7799C6.5868 13.173 6.32617 13.5867 6.0868 14.0086C5.70242 14.6849 5.37867 15.4005 5.09305 16.1311C5.0343 16.2805 4.96742 16.4267 4.91305 16.5774C4.9043 16.6011 4.89305 16.6236 4.88492 16.6474C4.7943 16.903 4.71117 17.1605 4.6343 17.4192C4.61742 17.4761 4.59555 17.5386 4.57242 17.603C4.5018 17.8036 4.42117 18.0311 4.42117 18.2499C4.42117 18.2511 4.4218 18.2517 4.4218 18.253C4.1193 19.5036 3.95117 20.7899 3.95117 22.0911C3.95117 31.1042 11.2837 38.4374 20.2974 38.4374C25.5224 38.4374 30.1787 35.9705 33.173 32.143C33.2018 32.1124 33.2293 32.0817 33.248 32.0574C33.3093 31.9892 33.3624 31.9211 33.3962 31.8674C33.5099 31.7149 33.6143 31.5555 33.723 31.3992C33.7737 31.3261 33.8262 31.2542 33.8755 31.1805C33.9662 31.0449 34.053 30.9067 34.1399 30.7686C34.2299 30.6255 34.3174 30.4811 34.4037 30.3349C34.4624 30.2342 34.5218 30.1336 34.578 30.0317C35.8918 27.6786 36.6437 24.9717 36.6437 22.0905C36.6437 21.2855 36.5724 20.4899 36.4568 19.7017C36.4518 19.6686 36.4487 19.6342 36.4437 19.6005ZM5.97117 5.70611C5.97117 3.76611 7.54992 2.18736 9.49055 2.18736C11.4337 2.18736 13.0155 3.76549 13.0155 5.70611C13.0155 6.28924 12.8987 6.95986 12.6687 7.70049C12.6599 7.71611 12.6537 7.73236 12.6487 7.74924C11.8905 10.1555 10.1368 12.6749 9.48992 13.5555C9.21555 13.1824 8.74117 12.5155 8.23117 11.6917C7.19992 10.0217 5.97117 7.62799 5.97117 5.70611ZM4.57617 22.0911C4.57617 21.0942 4.6818 20.1074 4.86805 19.138C5.21055 19.6949 5.60242 20.2117 5.98867 20.7142C6.5168 21.4011 7.06242 22.1111 7.47305 22.9267C8.40617 24.798 9.74305 25.5811 10.6399 25.5811C10.6443 25.5811 10.648 25.5799 10.6524 25.5799C10.6612 25.7399 10.6943 25.9099 10.7549 26.088C10.7599 26.108 11.2518 28.093 11.2518 29.0561C11.2518 30.2161 11.3449 30.8211 13.4505 31.873C14.828 32.5605 15.7199 34.2686 16.5068 35.7767C16.8099 36.358 17.0962 36.908 17.3862 37.3424C17.4487 37.4355 17.523 37.5105 17.6024 37.5767C10.2143 36.2942 4.57617 29.8405 4.57617 22.0911ZM16.4274 21.7436C16.4274 19.7999 18.0055 18.2186 19.9462 18.2186C21.8893 18.2186 23.4712 19.7999 23.4712 21.7436C23.4712 23.0974 22.8624 24.8536 21.6624 26.963C20.988 28.133 20.3012 29.1049 19.9462 29.5867C19.8374 29.4386 19.6974 29.2442 19.5362 29.0124C19.0524 28.3161 18.3768 27.2786 17.7799 26.1261C16.883 24.383 16.4274 22.9086 16.4274 21.7436ZM32.9368 29.3842C32.8199 30.2617 32.7087 31.1055 32.633 31.8199C29.7518 35.4655 25.2949 37.8124 20.2974 37.8124C19.7605 37.8124 19.2299 37.7849 18.7062 37.7324C20.1743 37.2861 22.1174 34.9474 22.3649 34.6424C22.9362 33.8717 22.883 33.2836 22.8274 32.6605C22.7812 32.143 22.7287 31.5561 23.0174 30.6799C23.1318 30.3324 23.2118 30.0205 23.2693 29.7367C23.318 29.7224 23.3699 29.7117 23.4187 29.6974L23.3299 29.3961C23.5505 27.8755 22.9924 27.3567 22.893 27.2774C22.883 27.2705 22.6893 27.1455 22.3643 26.9811C23.5093 24.9049 24.0955 23.1417 24.0955 21.7449C24.0955 19.4561 22.2337 17.5949 19.9455 17.5949C17.6612 17.5949 15.8018 19.4567 15.8018 21.7449C15.8018 22.8467 16.1649 24.1792 16.8812 25.7142C16.6787 25.6324 16.4762 25.5449 16.2674 25.4549C15.6437 25.1842 14.9993 24.9042 14.1774 24.698C13.713 24.5817 13.3087 24.5017 12.9468 24.4499L13.4449 24.1067C13.2124 23.7692 12.9893 23.4217 12.783 23.0742L12.2462 23.393C12.4562 23.748 12.683 24.1017 12.9199 24.4461C12.2924 24.3586 11.8112 24.3686 11.4512 24.4774C11.3912 24.3249 11.3062 24.1542 11.2068 23.9555C10.758 23.0561 10.0449 21.6267 10.538 19.6199C10.5749 19.7286 10.6062 19.8417 10.6443 19.9492L11.2324 19.7399C11.1043 19.3786 10.9862 19.008 10.8749 18.6305C11.748 16.5924 13.9005 15.8499 15.8093 15.1992C16.438 14.9849 17.0149 14.7861 17.4993 14.5555C17.5918 14.5636 17.6855 14.5686 17.7774 14.578L17.7949 14.403C18.0393 14.2661 18.2555 14.118 18.4268 13.9467C18.9087 13.4649 19.1255 12.9424 19.0712 12.3942C18.978 11.4524 18.1449 10.5217 16.2862 9.28486C15.4774 8.74111 15.1555 8.03361 15.3162 7.18361C16.9118 6.64799 18.5768 6.37111 20.2949 6.37111C21.7274 6.37111 23.1255 6.57111 24.4712 6.94111C24.2018 7.20049 24.0099 7.51861 23.9418 7.88424C23.8555 8.34299 23.973 8.78486 24.2537 9.06611C24.4187 9.23111 24.6674 9.41736 24.9562 9.63299C25.4418 9.99674 26.2562 10.6049 26.2562 10.9392C26.2562 11.2392 26.0868 11.7486 25.9243 12.2405C25.738 12.8005 25.5624 13.3305 25.5624 13.7267C25.5624 14.2105 25.9874 14.6761 26.5505 14.808C26.6599 14.8336 26.768 14.8467 26.8743 14.8467C27.4318 14.8467 27.928 14.4974 28.2418 13.8667C28.4049 13.5411 28.7393 13.278 29.2218 13.0755C29.3499 13.643 29.5499 14.253 29.8193 14.8967C28.9968 15.0224 27.6499 15.4424 27.6499 17.2149C27.6499 17.6199 27.623 18.0517 27.5962 18.4899C27.4818 20.348 27.353 22.4536 29.2574 23.0861C31.3112 23.773 32.7693 23.1592 33.3137 23.7086C33.6343 24.1167 33.1974 27.4142 32.9368 29.3842ZM35.0868 16.5305C34.363 17.8424 33.5824 18.9524 33.1962 19.4799C33.1305 19.3905 33.053 19.2836 32.9668 19.1624C32.3618 18.3111 31.3055 16.7217 30.5568 15.028C30.1562 14.1411 29.8887 13.323 29.7605 12.5955C29.7018 12.2649 29.6718 11.943 29.6718 11.6374C29.6718 11.4517 29.6862 11.2686 29.7143 11.088C29.7993 10.5467 30.0105 10.0342 30.3374 9.58174C30.9968 8.66174 32.0655 8.11236 33.1962 8.11236C35.1362 8.11236 36.7149 9.69361 36.7149 11.6374C36.7149 12.9105 36.1574 14.5892 35.1043 16.4924C35.0974 16.5042 35.0918 16.5167 35.0868 16.5305ZM11.6805 20.8849C11.8424 21.2655 12.0137 21.6361 12.1962 21.9974L11.638 22.2792C11.4512 21.9099 11.2724 21.523 11.1049 21.1286L11.6805 20.8849ZM25.5355 28.2424L25.7955 28.8105C25.4174 28.9836 25.0224 29.1467 24.6212 29.2949L24.4037 28.7086C24.7905 28.5661 25.1712 28.4086 25.5355 28.2424ZM29.5637 25.5224L29.998 25.9717C29.6937 26.2661 29.3724 26.5499 29.0437 26.8161L28.6505 26.3299C28.9655 26.0755 29.2724 25.8036 29.5637 25.5224ZM27.6687 27.053L28.0168 27.5717C27.6662 27.8067 27.3005 28.0305 26.9305 28.2367L26.6268 27.6905C26.9818 27.493 27.3324 27.2786 27.6687 27.053ZM31.1562 23.6811L31.663 24.0467C31.4162 24.3892 31.1505 24.7255 30.8724 25.0461L30.3999 24.6374C30.6655 24.3299 30.9199 24.0086 31.1562 23.6811ZM27.323 17.0042C26.9424 16.8436 26.5599 16.6899 26.1755 16.5436L26.3974 15.9592C26.7893 16.108 27.1787 16.2642 27.5655 16.428L27.323 17.0042ZM21.5712 14.5361C21.9818 14.6236 22.3912 14.7192 22.7974 14.8224L22.6437 15.4286C22.2443 15.3274 21.8443 15.2336 21.4405 15.1474L21.5712 14.5361ZM25.013 16.1267C24.6224 15.9955 24.2293 15.8711 23.8343 15.7549L24.0112 15.1555C24.4137 15.2742 24.8137 15.4005 25.2118 15.5349L25.013 16.1267ZM19.0918 14.103C19.5087 14.1599 19.9237 14.2242 20.3355 14.2961L20.228 14.9117C19.8237 14.8411 19.4168 14.778 19.0074 14.7224L19.0918 14.103ZM34.9012 11.6342C34.9012 12.5755 34.1355 13.3411 33.1949 13.3411C32.2543 13.3411 31.488 12.5755 31.488 11.6342C31.488 10.6936 32.2543 9.92799 33.1949 9.92799C34.1355 9.92799 34.9012 10.6936 34.9012 11.6342ZM7.78555 5.70924C7.78555 4.76799 8.5518 4.00236 9.49242 4.00236C10.433 4.00236 11.1987 4.76799 11.1987 5.70924C11.1987 6.64986 10.433 7.41549 9.49242 7.41549C8.5518 7.41549 7.78555 6.64986 7.78555 5.70924ZM19.9493 23.4492C19.008 23.4492 18.243 22.6836 18.243 21.743C18.243 20.8017 19.0087 20.0361 19.9493 20.0361C20.8899 20.0361 21.6555 20.8017 21.6555 21.743C21.6555 22.6836 20.8905 23.4492 19.9493 23.4492Z" fill="url(#paint0_linear_17710_73015)"/>
<defs>
<linearGradient id="paint0_linear_17710_73015" x1="-1.07905" y1="38.4374" x2="47.4176" y2="4.04376" gradientUnits="userSpaceOnUse">
<stop stop-color="#8B5CF6"/>
<stop offset="1" stop-color="#FACC15"/>
</linearGradient>
</defs>
</svg>
