<svg width="32" height="32" viewBox="0 0 32 32" fill="none" xmlns="http://www.w3.org/2000/svg">
<path d="M28.9395 13.0359L28.9398 13.0358L28.9317 12.9674C28.9316 12.9662 28.9315 12.9653 28.9313 12.9642C28.9313 12.9632 28.9312 12.9623 28.931 12.9613L28.9008 12.7039C28.8948 12.6522 28.8879 12.5934 28.88 12.5262L28.8737 12.4727L28.8608 12.4743C28.5436 10.622 27.6724 8.86412 26.3231 7.36315C24.9801 5.86939 23.2352 4.68997 21.2772 3.95241C19.5996 3.32047 17.8196 3 15.9868 3C13.5124 3 11.1093 3.59763 9.03739 4.72824C5.04201 6.90833 2.68565 10.9155 3.03392 14.9371C3.2142 17.0182 4.00807 18.9991 5.32978 20.6659C6.5738 22.2348 8.25667 23.5008 10.1964 24.3272C11.389 24.8352 12.5682 25.0746 13.8168 25.3281L13.963 25.3578C14.3068 25.4277 14.3992 25.5237 14.423 25.5617C14.4672 25.6323 14.4441 25.7714 14.4264 25.848C14.4101 25.9187 14.3932 25.9892 14.3764 26.0598C14.2423 26.6213 14.1037 27.2019 14.2126 27.842C14.3378 28.5779 14.7853 28.9999 15.4402 29H15.4404C16.1449 29 16.9468 28.5147 17.4773 28.1936L17.5482 28.1508C18.814 27.3874 20.0064 26.5263 20.9038 25.8614C22.8676 24.4063 25.0935 22.7571 26.7623 20.6234C28.4427 18.4745 29.2343 15.7131 28.9395 13.0359ZM11.0968 17.1072H8.85369C8.51472 17.1072 8.23992 16.825 8.23992 16.4769V11.6418C8.23992 11.2937 8.51472 11.0115 8.85369 11.0115C9.19267 11.0115 9.46747 11.2937 9.46747 11.6418V15.8466H11.0967C11.4357 15.8466 11.7104 16.1288 11.7104 16.4769C11.7105 16.825 11.4357 17.1072 11.0968 17.1072ZM13.4367 16.4598C13.4367 16.8079 13.1619 17.0901 12.8229 17.0901C12.484 17.0901 12.2092 16.8079 12.2092 16.4598V11.6247C12.2092 11.2766 12.484 10.9944 12.8229 10.9944C13.1619 10.9944 13.4367 11.2766 13.4367 11.6247V16.4598ZM18.9847 16.4598C18.9847 16.7329 18.8134 16.975 18.5605 17.0593C18.498 17.0801 18.4341 17.0902 18.371 17.0902C18.1782 17.0902 17.9919 16.9967 17.8742 16.8302L15.664 13.7041V16.4599C15.664 16.808 15.3892 17.0902 15.0502 17.0902C14.7113 17.0902 14.4365 16.808 14.4365 16.4599V11.7631C14.4365 11.49 14.6077 11.248 14.8607 11.1636C15.1137 11.0793 15.3907 11.1717 15.5469 11.3928L17.7571 14.5189V11.6247C17.7571 11.2766 18.0319 10.9944 18.3709 10.9944C18.7099 10.9944 18.9847 11.2766 18.9847 11.6247V16.4598ZM23.457 16.9909H20.4193C20.0803 16.9909 19.8055 16.7087 19.8055 16.3606V13.9431V11.5255C19.8055 11.1774 20.0803 10.8952 20.4193 10.8952H23.3628C23.7018 10.8952 23.9766 11.1774 23.9766 11.5255C23.9766 11.8736 23.7018 12.1558 23.3628 12.1558H21.0331V13.3128H22.9237C23.2627 13.3128 23.5374 13.595 23.5374 13.9431C23.5374 14.2913 23.2627 14.5735 22.9237 14.5735H21.0331V15.7303H23.457C23.796 15.7303 24.0708 16.0125 24.0708 16.3606C24.0708 16.7087 23.796 16.9909 23.457 16.9909Z" fill="url(#paint0_linear_18994_395)"/>
<defs>
<linearGradient id="paint0_linear_18994_395" x1="3" y1="3" x2="26.6208" y2="11.9463" gradientUnits="userSpaceOnUse">
<stop stop-color="#58C6FF"/>
<stop offset="1" stop-color="#01B1F5"/>
</linearGradient>
</defs>
</svg>
