<svg width="33" height="32" viewBox="0 0 33 32" fill="none" xmlns="http://www.w3.org/2000/svg">
<path d="M11.668 25C11.668 26.1046 10.7725 27 9.66797 27C8.5634 27 7.66797 26.1046 7.66797 25M11.668 25C11.668 23.8954 10.7725 23 9.66797 23C8.5634 23 7.66797 23.8954 7.66797 25M11.668 25H19.668M7.66797 25H5.16797C4.33954 25 3.66797 24.3284 3.66797 23.5V19.0006M26.668 25C26.668 26.1046 25.7725 27 24.668 27C23.5634 27 22.668 26.1046 22.668 25M26.668 25C26.668 23.8954 25.7725 23 24.668 23C23.5634 23 22.668 23.8954 22.668 25M26.668 25L28.168 25C28.9964 25 29.6729 24.3276 29.6219 23.5008C29.3418 18.9573 27.7977 14.7558 25.3368 11.2438C24.8538 10.5546 24.0718 10.1437 23.2315 10.0975H19.668M22.668 25H19.668M19.668 10.0975V8.81972C19.668 8.06307 19.1046 7.42294 18.352 7.34484C16.1551 7.11685 13.9252 7 11.668 7C9.41076 7 7.18084 7.11685 4.98394 7.34484C4.23133 7.42294 3.66797 8.06307 3.66797 8.81972V19.0006M19.668 10.0975V19.0006M19.668 25V19.0006M19.668 19.0006H3.66797" stroke="#0B3252" stroke-width="1.5" stroke-linecap="round" stroke-linejoin="round"/>
</svg>
