<svg width="72" height="72" viewBox="0 0 72 72" fill="none" xmlns="http://www.w3.org/2000/svg">
<path d="M24.43 23.0002H47.5732C48.9907 22.997 50.1414 21.8463 50.1446 20.4287V7.57146C50.1414 6.15391 48.9907 5.00321 47.5732 5H24.43C23.0125 5.00321 21.8618 6.15391 21.8586 7.57146V20.4287C21.8618 21.8463 23.0125 22.997 24.43 23.0002ZM32.1444 10.1429H39.8588C40.5692 10.1429 41.1445 10.7183 41.1445 11.4286C41.1445 12.139 40.5692 12.7144 39.8588 12.7144H32.1444C31.434 12.7144 30.8587 12.139 30.8587 11.4286C30.8587 10.7183 31.434 10.1429 32.1444 10.1429ZM28.2872 15.2858H43.716C44.4263 15.2858 45.0017 15.8612 45.0017 16.5716C45.0017 17.2819 44.4263 17.8573 43.716 17.8573H28.2872C27.5769 17.8573 27.0015 17.2819 27.0015 16.5716C27.0015 15.8612 27.5769 15.2858 28.2872 15.2858Z" fill="white"/>
<path d="M69.4302 58.3579H66.8587V54.5007C66.8555 53.7904 66.2834 53.2182 65.573 53.215H56.5725V48.0721H60.4297C61.8472 48.0689 62.9979 46.9182 63.0011 45.5006V39.072C62.9979 37.6544 61.8472 36.5037 60.4297 36.5005H56.5725V31.3576C56.5693 30.6472 55.9971 30.0751 55.2868 30.0719H37.2866V25.5718H34.7151V30.0719H16.7149C16.0045 30.0751 15.4324 30.6472 15.4292 31.3576V36.5005H11.572C10.1544 36.5037 9.00372 37.6544 9.00051 39.072V45.5006C9.00373 46.9182 10.1544 48.0689 11.572 48.0721H15.4292V53.215H6.42864C5.71828 53.2182 5.14612 53.7904 5.14292 54.5007V58.3579H2.57146C1.15391 58.3611 0.00320918 59.5118 0 60.9294V64.7866C0.00321412 66.2041 1.15391 67.3548 2.57146 67.358H10.2858C11.7034 67.3548 12.8541 66.2041 12.8573 64.7866V60.9294C12.8541 59.5118 11.7034 58.3611 10.2858 58.3579H7.71437V55.7865H25.7146V58.3579H23.1431C21.7256 58.3611 20.5749 59.5118 20.5717 60.9294V64.7866C20.5749 66.2041 21.7256 67.3548 23.1431 67.358H30.8575C32.275 67.3548 33.4257 66.2041 33.429 64.7866V60.9294C33.4257 59.5118 32.275 58.3611 30.8575 58.3579H28.286V54.5007C28.2828 53.7904 27.7107 53.2182 27.0003 53.215H17.9998V48.0721H21.857C23.2745 48.0689 24.4252 46.9182 24.4284 45.5006V39.072C24.4252 37.6544 23.2745 36.5037 21.857 36.5005H17.9998V32.6433H54.0002V36.5005H50.143C48.7255 36.5037 47.5748 37.6544 47.5716 39.072V45.5006C47.5748 46.9182 48.7255 48.0689 50.143 48.0721H54.0002V53.215H44.9997C44.2893 53.2182 43.7172 53.7904 43.714 54.5007V58.3579H41.1425C39.725 58.3611 38.5743 59.5118 38.571 60.9294V64.7866C38.5743 66.2041 39.725 67.3548 41.1425 67.358H48.8569C50.2744 67.3548 51.4251 66.2041 51.4283 64.7866V60.9294C51.4251 59.5118 50.2744 58.3611 48.8569 58.3579H46.2854V55.7865H64.2856V58.3579H61.7142C60.2966 58.3611 59.1459 59.5118 59.1427 60.9294V64.7866C59.1459 66.2041 60.2966 67.3548 61.7142 67.358H69.4285C70.8461 67.3548 71.9968 66.2041 72 64.7866V60.9294C71.9968 59.5118 70.8461 58.3611 69.4285 58.3579H69.4302Z" fill="white"/>
</svg>
