<svg width="40" height="40" viewBox="0 0 40 40" fill="none" xmlns="http://www.w3.org/2000/svg">
<path d="M35.2166 25.5507L28.1803 21.8747C27.3192 21.4255 26.2167 21.5137 25.4595 22.063L20.7694 25.3231C18.237 23.3733 16.8541 21.9041 16.5638 21.5863C16.5579 21.5785 16.552 21.5726 16.5442 21.5647C16.5147 21.5314 16.4834 21.502 16.45 21.4745C16.2382 21.2784 14.9298 20.0485 13.5645 18.336L16.9051 13.5321C17.4896 12.7258 17.5661 11.6764 17.1052 10.7937L13.4311 3.75935C12.9799 2.89427 12.0933 2.35876 11.1184 2.35876C10.7045 2.35876 10.2926 2.45881 9.92378 2.64908L3.4132 6.00927C2.29116 6.58792 1.74586 7.8826 2.11465 9.08896C5.17078 19.0991 11.4007 24.9895 12.2775 25.7819C13.5702 27.1923 20.0786 33.8693 29.8884 36.8647C30.1317 36.9393 30.3867 36.9785 30.6476 36.9785H30.6515C31.6323 36.9785 32.5209 36.4371 32.9701 35.5662L36.3303 29.0556C36.9835 27.7865 36.4852 26.2113 35.2161 25.5502L35.2166 25.5507ZM34.585 28.1596L31.2248 34.6701C31.115 34.8859 30.8953 35.0193 30.652 35.0213C30.5853 35.0213 30.5206 35.0115 30.4618 34.9918C20.8538 32.0593 14.3985 25.1996 13.6939 24.4268C13.6704 24.4013 13.6469 24.3777 13.6233 24.3562C12.9485 23.752 6.94001 18.177 3.98978 8.51836C3.89955 8.2202 4.03294 7.89849 4.31148 7.75532L10.8221 4.39513C10.9143 4.34609 11.0143 4.32255 11.1183 4.32255C11.3615 4.32255 11.5812 4.45594 11.693 4.66975L15.367 11.7061C15.4808 11.9238 15.4632 12.1828 15.3062 12.3985L11.5419 17.8104C11.3007 18.1595 11.3085 18.6225 11.5655 18.9618C13.1328 21.0352 14.755 22.579 15.1042 22.9027L15.1277 22.9262C15.1375 22.936 15.1493 22.9458 15.1591 22.9557C15.575 23.4049 17.2403 25.1389 20.1572 27.3202C20.4946 27.5732 20.9576 27.5811 21.3048 27.3398L26.5951 23.6618C26.7893 23.5206 27.0619 23.501 27.2738 23.6128L34.3102 27.2888C34.624 27.4536 34.7478 27.8438 34.585 28.1596Z" fill="url(#paint0_linear_20633_5126)"/>
<path d="M37.5824 2.17839C37.1391 1.8665 36.5271 1.97438 36.2171 2.4177L29.5594 11.8961L23.1452 5.48342H28.2709C28.8122 5.48342 29.2516 5.04402 29.2516 4.50264C29.2516 3.96125 28.8122 3.52186 28.2709 3.52186H20.7775C20.5166 3.52186 20.2675 3.62582 20.0831 3.80825C19.8988 3.99264 19.7968 4.24176 19.7968 4.50264V11.996C19.7968 12.5373 20.2361 12.9767 20.7775 12.9767C21.3189 12.9767 21.7583 12.5373 21.7583 11.996V6.87036L28.9985 14.1086C29.1829 14.293 29.432 14.395 29.6929 14.395C29.7204 14.395 29.7498 14.393 29.7773 14.391C30.0656 14.3655 30.3285 14.2145 30.4952 13.9771L37.8218 3.54365C38.1337 3.10229 38.0257 2.49028 37.5824 2.17839Z" fill="url(#paint1_linear_20633_5126)"/>
<defs>
<linearGradient id="paint0_linear_20633_5126" x1="-3.21512" y1="36.9785" x2="43.625" y2="0.295032" gradientUnits="userSpaceOnUse">
<stop stop-color="#8B5CF6"/>
<stop offset="1" stop-color="#FACC15"/>
</linearGradient>
<linearGradient id="paint1_linear_20633_5126" x1="17.0543" y1="14.395" x2="34.1601" y2="-5.28089" gradientUnits="userSpaceOnUse">
<stop stop-color="#8B5CF6"/>
<stop offset="1" stop-color="#FACC15"/>
</linearGradient>
</defs>
</svg>
