<svg width="72" height="72" viewBox="0 0 72 72" fill="none" xmlns="http://www.w3.org/2000/svg">
<g clip-path="url(#clip0_20634_5195)">
<path d="M49.9657 50.6C49.7371 50.3829 49.3828 50.3829 49.1542 50.6L47.8742 51.88L47.3828 51.3771C47.1542 51.16 46.7999 51.16 46.5714 51.3771C46.3428 51.6057 46.3428 51.9714 46.5714 52.1886L47.4742 53.0914C47.5771 53.2057 47.7257 53.2629 47.8742 53.2629C48.0342 53.2629 48.1714 53.2057 48.2857 53.0914L49.9657 51.4114C50.1942 51.1943 50.1942 50.8286 49.9657 50.6ZM61.2914 51.7886L61.8742 51.2057C62.0914 50.9886 62.0914 50.6229 61.8742 50.4057C61.6457 50.1771 61.2799 50.1771 61.0628 50.4057L60.4799 50.9771L59.9085 50.4057C59.6799 50.1771 59.3257 50.1771 59.0971 50.4057C58.8799 50.6229 58.8799 50.9886 59.0971 51.2057L59.6799 51.7886L59.0971 52.36C58.8799 52.5886 58.8799 52.9543 59.0971 53.1714C59.2114 53.2857 59.3599 53.3429 59.5085 53.3429C59.6457 53.3429 59.7942 53.2857 59.9085 53.1714L60.4799 52.6L61.0628 53.1714C61.1771 53.2857 61.3142 53.3429 61.4628 53.3429C61.6114 53.3429 61.7599 53.2857 61.8742 53.1714C62.0914 52.9543 62.0914 52.5886 61.8742 52.36L61.2914 51.7886ZM61.2914 51.7886L61.8742 51.2057C62.0914 50.9886 62.0914 50.6229 61.8742 50.4057C61.6457 50.1771 61.2799 50.1771 61.0628 50.4057L60.4799 50.9771L59.9085 50.4057C59.6799 50.1771 59.3257 50.1771 59.0971 50.4057C58.8799 50.6229 58.8799 50.9886 59.0971 51.2057L59.6799 51.7886L59.0971 52.36C58.8799 52.5886 58.8799 52.9543 59.0971 53.1714C59.2114 53.2857 59.3599 53.3429 59.5085 53.3429C59.6457 53.3429 59.7942 53.2857 59.9085 53.1714L60.4799 52.6L61.0628 53.1714C61.1771 53.2857 61.3142 53.3429 61.4628 53.3429C61.6114 53.3429 61.7599 53.2857 61.8742 53.1714C62.0914 52.9543 62.0914 52.5886 61.8742 52.36L61.2914 51.7886ZM49.9657 50.6C49.7371 50.3829 49.3828 50.3829 49.1542 50.6L47.8742 51.88L47.3828 51.3771C47.1542 51.16 46.7999 51.16 46.5714 51.3771C46.3428 51.6057 46.3428 51.9714 46.5714 52.1886L47.4742 53.0914C47.5771 53.2057 47.7257 53.2629 47.8742 53.2629C48.0342 53.2629 48.1714 53.2057 48.2857 53.0914L49.9657 51.4114C50.1942 51.1943 50.1942 50.8286 49.9657 50.6ZM68.4114 8.42857H63.1199C62.8342 5.38857 60.2857 3 57.1771 3C54.0571 3 51.5199 5.38857 51.2228 8.42857H47.9428C47.6457 5.38857 45.1085 3 41.9885 3C38.8799 3 36.3314 5.38857 36.0457 8.42857H32.7542C32.4685 5.38857 29.9314 3 26.8114 3C23.6914 3 21.1542 5.38857 20.8685 8.42857H15.5771C13.5999 8.42857 11.9885 10.04 11.9885 12.0171V17.1371H7.63423C6.43423 17.1371 5.4628 18.12 5.4628 19.32V29.9371C5.4628 31.1486 6.43423 32.12 7.63423 32.12H11.9885V50.5771H9.87423C9.18851 50.5771 8.63994 51.1257 8.63994 51.8114V52.8057C8.53708 52.8057 8.44565 52.7943 8.3428 52.7943C3.74851 52.7943 -6.10352e-05 56.5314 -6.10352e-05 61.1371C-6.10352e-05 65.7429 3.74851 69.4914 8.3428 69.4914C8.71994 69.4914 9.08565 69.4571 9.45137 69.4114C9.58851 69.4571 9.72565 69.4914 9.87423 69.4914H25.8857C26.5599 69.4914 27.1085 68.9429 27.1085 68.2571V65.9829H68.4114C70.3885 65.9829 71.9999 64.3714 71.9999 62.3943V12.0171C71.9999 10.04 70.3885 8.42857 68.4114 8.42857ZM57.1771 4.14286C59.6571 4.14286 61.6914 6.01714 61.9771 8.42857H52.3657C52.6514 6.01714 54.6857 4.14286 57.1771 4.14286ZM41.9885 4.14286C44.4799 4.14286 46.5142 6.01714 46.7999 8.42857H37.1885C37.4742 6.01714 39.5085 4.14286 41.9885 4.14286ZM26.8114 4.14286C29.3028 4.14286 31.3257 6.01714 31.6114 8.42857H22.0114C22.2971 6.01714 24.3199 4.14286 26.8114 4.14286ZM7.63423 30.9771C7.0628 30.9771 6.60565 30.52 6.60565 29.9371V19.32C6.60565 18.7486 7.0628 18.28 7.63423 18.28H23.1199C23.6914 18.28 24.1485 18.7486 24.1485 19.32V29.9371C24.1485 30.52 23.6914 30.9771 23.1199 30.9771H20.2857C19.9771 30.9771 19.7142 31.24 19.7142 31.5486V33.2171L17.6457 31.1486C17.5428 31.0457 17.3942 30.9771 17.2457 30.9771H7.63423ZM15.5657 32.12V50.5771H13.1314V32.12H15.5657ZM8.91423 64.5086V65.0571C8.91423 65.3657 8.6628 65.6286 8.3428 65.6286C8.03423 65.6286 7.77137 65.3657 7.77137 65.0571V64.5086C7.03994 64.3029 6.47994 63.6857 6.35423 62.8971C6.30851 62.5771 6.51422 62.2914 6.83422 62.2457C7.1428 62.1886 7.43994 62.4057 7.48565 62.7143C7.5428 63.1371 7.91994 63.4571 8.3428 63.4571C8.83423 63.4571 9.2228 63.0686 9.2228 62.5886C9.2228 62.1086 8.83423 61.7086 8.3428 61.7086C7.23423 61.7086 6.33137 60.8057 6.33137 59.6971C6.33137 58.7829 6.93708 58.0171 7.77137 57.7657V57.2286C7.77137 56.9086 8.03423 56.6571 8.3428 56.6571C8.6628 56.6571 8.91423 56.9086 8.91423 57.2286V57.7771C9.59994 57.9714 10.1485 58.52 10.3199 59.2514C10.3885 59.56 10.1942 59.8686 9.88565 59.9371C9.57708 60.0057 9.26851 59.8114 9.19994 59.5029C9.10851 59.1029 8.75423 58.8171 8.3428 58.8171C7.8628 58.8171 7.47423 59.2171 7.47423 59.6971C7.47423 60.1771 7.8628 60.5657 8.3428 60.5657C9.4628 60.5657 10.3657 61.4686 10.3657 62.5886C10.3657 63.4914 9.74851 64.2571 8.91423 64.5086ZM25.9657 65.3886C25.9657 65.4 25.9657 65.4 25.9657 65.4114C25.9657 65.4229 25.9657 65.4229 25.9657 65.4343V68.2571C25.9657 68.3029 25.9314 68.3486 25.8857 68.3486H12.5371C13.8857 67.56 14.9828 66.4171 15.7142 65.0457H25.8857C25.9314 65.0457 25.9657 65.0914 25.9657 65.1371V65.3886ZM25.9657 61.3657C25.9657 61.3771 25.9657 61.3886 25.9657 61.3886C25.9657 61.4 25.9657 61.4114 25.9657 61.4114V63.8114C25.9657 63.8571 25.9314 63.9029 25.8857 63.9029H16.2171C16.5142 63.0343 16.6971 62.1086 16.6971 61.1371C16.6971 60.9543 16.6742 60.7829 16.6628 60.6H25.8857C25.9314 60.6 25.9657 60.6343 25.9657 60.6914V61.3657ZM25.9657 59.3657C25.9657 59.4114 25.9314 59.4571 25.8857 59.4571H16.5257C16.2742 58.2343 15.7485 57.1143 15.0285 56.1543H25.8857C25.9314 56.1543 25.9657 56.2 25.9657 56.2457V59.3657ZM25.9657 54.92C25.9657 54.9657 25.9314 55.0114 25.8857 55.0114H13.9999C12.8457 53.9486 11.3942 53.2057 9.7828 52.92V51.8114C9.7828 51.7543 9.81708 51.72 9.87423 51.72H25.8857C25.9314 51.72 25.9657 51.7543 25.9657 51.8114V54.92ZM20.3542 44.52C20.0457 44.52 19.7828 44.2571 19.7828 43.9486V37.3086C19.7828 37 20.0457 36.7371 20.3542 36.7371H26.9828C27.3028 36.7371 27.5542 37 27.5542 37.3086V43.9486C27.5542 44.2571 27.3028 44.52 26.9828 44.52H20.3542ZM70.8571 62.3943C70.8571 63.7429 69.7599 64.84 68.4114 64.84H27.0514C27.0171 64.7029 26.9714 64.5886 26.8914 64.4743C27.0171 64.28 27.1085 64.0629 27.1085 63.8114V61.96H67.8514C68.1714 61.96 68.4228 61.7086 68.4228 61.3886V19.8686C68.4228 19.5486 68.1714 19.2971 67.8514 19.2971H25.2914C25.2799 18.1086 24.3085 17.1371 23.1199 17.1371H13.1314V12.0171C13.1314 10.6686 14.2285 9.57143 15.5771 9.57143H20.8685C21.0742 11.7429 22.4228 13.5829 24.3314 14.4514C24.3428 15.9714 25.5771 17.2171 27.1085 17.2171C28.6399 17.2171 29.8857 15.9714 29.8857 14.4286C29.8857 12.8971 28.6399 11.6514 27.1085 11.6514C25.9771 11.6514 25.0171 12.3257 24.5828 13.2971C23.1885 12.5657 22.2057 11.1943 22.0114 9.57143H36.0457C36.2514 11.7086 37.5542 13.5029 39.4057 14.3943V14.4286C39.4057 15.9943 40.6742 17.2629 42.2285 17.2629C43.7942 17.2629 45.0628 15.9943 45.0628 14.4286C45.0628 12.8743 43.7942 11.6057 42.2285 11.6057C41.0971 11.6057 40.1257 12.28 39.6685 13.2514C38.3314 12.5086 37.3828 11.16 37.1885 9.57143H51.2228C51.4285 11.6971 52.7314 13.4914 54.5714 14.3829V14.4286C54.5714 15.9257 55.7714 17.1257 57.2685 17.1257C58.7542 17.1257 59.9657 15.9257 59.9657 14.4286C59.9657 12.9429 58.7542 11.7314 57.2685 11.7314C56.2057 11.7314 55.2914 12.36 54.8571 13.2514C53.5085 12.5086 52.5599 11.1714 52.3657 9.57143H68.4114C69.7599 9.57143 70.8571 10.6686 70.8571 12.0171V62.3943ZM32.5714 36.7371H39.1999C39.5199 36.7371 39.7714 37 39.7714 37.3086V43.9486C39.7714 44.2571 39.5199 44.52 39.1999 44.52H32.5714C32.2514 44.52 31.9999 44.2571 31.9999 43.9486V37.3086C31.9999 37 32.2514 36.7371 32.5714 36.7371ZM31.9999 32.7829V26.1543C31.9999 25.8457 32.2514 25.5829 32.5714 25.5829H39.1999C39.5199 25.5829 39.7714 25.8457 39.7714 26.1543V32.7829C39.7714 33.1029 39.5199 33.3543 39.1999 33.3543H32.5714C32.2514 33.3543 31.9999 33.1029 31.9999 32.7829ZM32.5714 47.9029H39.1999C39.5199 47.9029 39.7714 48.1543 39.7714 48.4743V55.1029C39.7714 55.4229 39.5199 55.6743 39.1999 55.6743H32.5714C32.2514 55.6743 31.9999 55.4229 31.9999 55.1029V48.4743C31.9999 48.1543 32.2514 47.9029 32.5714 47.9029ZM44.7885 36.7371H51.4171C51.7257 36.7371 51.9885 37 51.9885 37.3086V43.9486C51.9885 44.2571 51.7257 44.52 51.4171 44.52H44.7885C44.4685 44.52 44.2171 44.2571 44.2171 43.9486V37.3086C44.2171 37 44.4685 36.7371 44.7885 36.7371ZM44.2171 32.7829V26.1543C44.2171 25.8457 44.4685 25.5829 44.7885 25.5829H51.4171C51.7257 25.5829 51.9885 25.8457 51.9885 26.1543V32.7829C51.9885 33.1029 51.7257 33.3543 51.4171 33.3543H44.7885C44.4685 33.3543 44.2171 33.1029 44.2171 32.7829ZM44.7885 47.9029H51.4171C51.7257 47.9029 51.9885 48.1543 51.9885 48.4743V55.1029C51.9885 55.4229 51.7257 55.6743 51.4171 55.6743H44.7885C44.4685 55.6743 44.2171 55.4229 44.2171 55.1029V48.4743C44.2171 48.1543 44.4685 47.9029 44.7885 47.9029ZM57.0057 47.9029H63.6342C63.9428 47.9029 64.2057 48.1543 64.2057 48.4743V55.1029C64.2057 55.4229 63.9428 55.6743 63.6342 55.6743H57.0057C56.6857 55.6743 56.4342 55.4229 56.4342 55.1029V48.4743C56.4342 48.1543 56.6857 47.9029 57.0057 47.9029ZM56.4342 43.9486V37.3086C56.4342 37 56.6857 36.7371 57.0057 36.7371H63.6342C63.9428 36.7371 64.2057 37 64.2057 37.3086V43.9486C64.2057 44.2571 63.9428 44.52 63.6342 44.52H57.0057C56.6857 44.52 56.4342 44.2571 56.4342 43.9486ZM26.8114 13.8571C26.4114 13.8571 26.0228 13.8 25.6457 13.7086C25.9199 13.1714 26.4685 12.7943 27.1085 12.7943C28.0114 12.7943 28.7428 13.5371 28.7428 14.4286C28.7428 15.3314 28.0114 16.0743 27.1085 16.0743C26.3542 16.0743 25.7257 15.56 25.5314 14.8629C25.9428 14.9543 26.3771 15 26.8114 15C27.1314 15 27.3828 14.7486 27.3828 14.4286C27.3828 14.12 27.1314 13.8571 26.8114 13.8571ZM41.9885 13.8571C41.5542 13.8571 41.1428 13.7886 40.7314 13.6743C41.0171 13.1257 41.5771 12.7486 42.2285 12.7486C43.1657 12.7486 43.9199 13.5029 43.9199 14.4286C43.9199 15.3657 43.1657 16.12 42.2285 16.12C41.4399 16.12 40.7771 15.56 40.5942 14.8286C41.0399 14.9314 41.5085 15 41.9885 15C42.3085 15 42.5599 14.7486 42.5599 14.4286C42.5599 14.12 42.3085 13.8571 41.9885 13.8571ZM57.1771 13.8571C56.7314 13.8571 56.3199 13.7886 55.9199 13.6743C56.1828 13.2057 56.6857 12.8743 57.2685 12.8743C58.1257 12.8743 58.8228 13.5714 58.8228 14.4286C58.8228 15.2857 58.1257 15.9829 57.2685 15.9829C56.5371 15.9829 55.9428 15.4914 55.7599 14.8171C56.2171 14.9314 56.6857 15 57.1771 15C57.4857 15 57.7485 14.7486 57.7485 14.4286C57.7485 14.12 57.4857 13.8571 57.1771 13.8571ZM59.0971 53.1714C59.2114 53.2857 59.3599 53.3429 59.5085 53.3429C59.6457 53.3429 59.7942 53.2857 59.9085 53.1714L60.4799 52.6L61.0628 53.1714C61.1771 53.2857 61.3142 53.3429 61.4628 53.3429C61.6114 53.3429 61.7599 53.2857 61.8742 53.1714C62.0914 52.9543 62.0914 52.5886 61.8742 52.36L61.2914 51.7886L61.8742 51.2057C62.0914 50.9886 62.0914 50.6229 61.8742 50.4057C61.6457 50.1771 61.2799 50.1771 61.0628 50.4057L60.4799 50.9771L59.9085 50.4057C59.6799 50.1771 59.3257 50.1771 59.0971 50.4057C58.8799 50.6229 58.8799 50.9886 59.0971 51.2057L59.6799 51.7886L59.0971 52.36C58.8799 52.5886 58.8799 52.9543 59.0971 53.1714ZM47.4742 53.0914C47.5771 53.2057 47.7257 53.2629 47.8742 53.2629C48.0342 53.2629 48.1714 53.2057 48.2857 53.0914L49.9657 51.4114C50.1942 51.1943 50.1942 50.8286 49.9657 50.6C49.7371 50.3829 49.3828 50.3829 49.1542 50.6L47.8742 51.88L47.3828 51.3771C47.1542 51.16 46.7999 51.16 46.5714 51.3771C46.3428 51.6057 46.3428 51.9714 46.5714 52.1886L47.4742 53.0914ZM49.9657 50.6C49.7371 50.3829 49.3828 50.3829 49.1542 50.6L47.8742 51.88L47.3828 51.3771C47.1542 51.16 46.7999 51.16 46.5714 51.3771C46.3428 51.6057 46.3428 51.9714 46.5714 52.1886L47.4742 53.0914C47.5771 53.2057 47.7257 53.2629 47.8742 53.2629C48.0342 53.2629 48.1714 53.2057 48.2857 53.0914L49.9657 51.4114C50.1942 51.1943 50.1942 50.8286 49.9657 50.6ZM49.9657 50.6C49.7371 50.3829 49.3828 50.3829 49.1542 50.6L47.8742 51.88L47.3828 51.3771C47.1542 51.16 46.7999 51.16 46.5714 51.3771C46.3428 51.6057 46.3428 51.9714 46.5714 52.1886L47.4742 53.0914C47.5771 53.2057 47.7257 53.2629 47.8742 53.2629C48.0342 53.2629 48.1714 53.2057 48.2857 53.0914L49.9657 51.4114C50.1942 51.1943 50.1942 50.8286 49.9657 50.6Z" fill="white"/>
<path d="M13.9885 23.2515H20.7085C21.0285 23.2515 21.2799 23.0001 21.2799 22.6801C21.2799 22.3601 21.0285 22.1086 20.7085 22.1086H13.9885C13.6685 22.1086 13.4171 22.3601 13.4171 22.6801C13.4171 23.0001 13.6685 23.2515 13.9885 23.2515Z" fill="white"/>
<path d="M10.0457 23.2515H11.8857C12.2057 23.2515 12.4571 23.0001 12.4571 22.6801C12.4571 22.3601 12.2057 22.1086 11.8857 22.1086H10.0457C9.72567 22.1086 9.47424 22.3601 9.47424 22.6801C9.47424 23.0001 9.72567 23.2515 10.0457 23.2515Z" fill="white"/>
<path d="M21.28 26.1542C21.28 25.8342 21.0285 25.5828 20.7085 25.5828H10.0457C9.72567 25.5828 9.47424 25.8342 9.47424 26.1542C9.47424 26.4742 9.72567 26.7256 10.0457 26.7256H20.7085C21.0285 26.7256 21.28 26.4742 21.28 26.1542Z" fill="white"/>
<path d="M67.8513 68.3486H64.777C64.457 68.3486 64.2056 68.6001 64.2056 68.9201C64.2056 69.2401 64.457 69.4915 64.777 69.4915H67.8513C68.1713 69.4915 68.4227 69.2401 68.4227 68.9201C68.4227 68.6001 68.1713 68.3486 67.8513 68.3486Z" fill="white"/>
<path d="M60.7999 68.3486H32.2399C31.9199 68.3486 31.6685 68.6001 31.6685 68.9201C31.6685 69.2401 31.9199 69.4915 32.2399 69.4915H60.7999C61.1199 69.4915 61.3713 69.2401 61.3713 68.9201C61.3713 68.6001 61.1085 68.3486 60.7999 68.3486Z" fill="white"/>
</g>
<defs>
<clipPath id="clip0_20634_5195">
<rect width="72" height="72" fill="white"/>
</clipPath>
</defs>
</svg>
