<svg width="40" height="40" viewBox="0 0 40 40" fill="none" xmlns="http://www.w3.org/2000/svg">
<path d="M38 9.29669C38 5.27246 34.8044 2 30.8746 2C27.4238 2 24.5383 4.52872 23.8905 7.86952H3.92759C2.86369 7.86952 2 8.75396 2 9.84344V29.2651C2 30.3546 2.86369 31.239 3.92759 31.239H11.7243V33.221H6.40872C5.78451 33.221 5.28201 33.7396 5.28201 34.3788V35.8422C5.28201 36.4814 5.78844 37 6.40872 37H27.1568C27.781 37 28.2835 36.4814 28.2835 35.8422V34.3788C28.2835 33.7396 27.7771 33.221 27.1568 33.221H21.8412V31.239H29.6419C30.7058 31.239 31.5695 30.3546 31.5695 29.2651V23.677H34.3215C34.8907 23.677 35.3501 23.2026 35.3501 22.6237V19.9744C35.3501 19.3915 34.8868 18.9211 34.3215 18.9211H31.5695V16.5572C35.1734 16.1994 38 13.0797 38 9.30071V9.29669ZM30.8746 11.8214C31.3928 11.8214 31.8168 11.3872 31.8168 10.8565C31.8168 10.1691 31.5577 10.0766 30.7411 9.8756C29.9559 9.68263 28.7743 9.3972 28.7743 7.73685C28.7743 6.75592 29.4181 5.92373 30.2975 5.66644V4.5448C30.2975 4.21514 30.5566 3.9498 30.8785 3.9498C31.2004 3.9498 31.4595 4.21514 31.4595 4.5448V5.66644C32.3389 5.92373 32.9828 6.75592 32.9828 7.73685C32.9828 7.78509 32.9828 7.83333 32.9828 7.87756C32.9631 8.20721 32.6883 8.45647 32.3664 8.43637C32.0445 8.41627 31.8011 8.13485 31.8207 7.80519C31.8207 7.78107 31.8207 7.75695 31.8207 7.73283C31.8207 7.19814 31.3967 6.76798 30.8785 6.76798C30.3603 6.76798 29.9363 7.20216 29.9363 7.73283C29.9363 8.41627 30.1954 8.51275 31.012 8.71376C31.7972 8.90673 32.9828 9.19217 32.9828 10.8525C32.9828 11.8334 32.3389 12.6616 31.4595 12.9229V14.0446C31.4595 14.3742 31.2004 14.6396 30.8785 14.6396C30.5566 14.6396 30.2975 14.3742 30.2975 14.0446V12.9229C29.4181 12.6656 28.7743 11.8334 28.7743 10.8525C28.7743 10.8043 28.7743 10.756 28.7782 10.7078C28.7978 10.3781 29.0726 10.1289 29.3906 10.149C29.7125 10.1691 29.9559 10.4505 29.9363 10.7761C29.9363 10.8003 29.9363 10.8244 29.9363 10.8525C29.9363 11.3832 30.3603 11.8174 30.8785 11.8174L30.8746 11.8214ZM20.6792 33.221H12.8903V31.239H20.6831V33.221H20.6792ZM18.041 29.3616H15.5206C15.1987 29.3616 14.9396 29.0963 14.9396 28.7666C14.9396 28.4369 15.1987 28.1716 15.5206 28.1716H18.041C18.3629 28.1716 18.622 28.4369 18.622 28.7666C18.622 29.0963 18.3629 29.3616 18.041 29.3616ZM30.4035 26.0007V26.0972H3.16205V9.84344C3.16205 9.41328 3.50752 9.0595 3.92759 9.0595H23.761C23.761 9.13588 23.757 9.21629 23.757 9.29267C23.757 13.1521 26.7014 16.32 30.4113 16.5693V18.9171H27.6593C27.0901 18.9171 26.6308 19.3915 26.6308 19.9704V22.6197C26.6308 23.2026 27.094 23.673 27.6593 23.673H30.4113V25.9967L30.4035 26.0007ZM34.1841 20.1071V22.487H27.781V20.1071H34.1841ZM24.7738 17.5783C24.7738 17.908 24.5147 18.1733 24.1928 18.1733H21.9433C21.6214 18.1733 21.3623 17.908 21.3623 17.5783C21.3623 17.2487 21.6214 16.9833 21.9433 16.9833H24.1928C24.5147 16.9833 24.7738 17.2487 24.7738 17.5783ZM17.8369 14.9853V11.9902C17.8369 11.2505 17.1773 10.7118 16.2704 10.7118C15.3636 10.7118 14.704 11.2505 14.704 11.9902V12.4284L8.65038 15.4677H6.68353C5.54504 15.4677 4.61854 16.4165 4.61854 17.5824C4.61854 18.6558 5.39978 19.5442 6.41265 19.6809V22.3544C6.41265 23.1262 7.04864 23.7092 7.89269 23.7092C8.73675 23.7092 9.37274 23.1262 9.37274 22.3544V20.0588L14.708 22.7403V23.1745C14.708 23.9142 15.3675 24.4529 16.2744 24.4529C17.1812 24.4529 17.8408 23.9142 17.8408 23.1745V20.1754C19.3876 20.0789 20.2002 18.8166 20.2002 17.5703C20.2002 16.8989 19.9725 16.2718 19.5603 15.8014C19.2541 15.4516 18.7123 15.0416 17.8408 14.9853H17.8369ZM8.20676 22.3544C8.20676 22.5152 7.89269 22.5192 7.89269 22.5192C7.89269 22.5192 7.57863 22.5152 7.57863 22.3544V19.697H8.21069V22.3544H8.20676ZM8.20676 18.507H6.68353C6.18495 18.507 5.78059 18.0929 5.78059 17.5824C5.78059 17.0718 6.18495 16.6577 6.68353 16.6577H8.20676V18.511V18.507ZM16.6748 23.1584C16.6316 23.1986 16.4824 23.2629 16.2744 23.2629C16.0663 23.2629 15.9171 23.1986 15.8739 23.1584V12.0063C15.9171 11.9661 16.0663 11.9018 16.2744 11.9018C16.4824 11.9018 16.6316 11.9661 16.6748 12.0063V23.1624V23.1584ZM22.9719 21.1242C23.1996 21.3533 23.2035 21.7312 22.9797 21.9644C22.8659 22.081 22.7167 22.1413 22.5675 22.1413C22.4183 22.1413 22.2731 22.085 22.1592 21.9684L20.5653 20.3643C20.3376 20.1352 20.3337 19.7573 20.5575 19.5241C20.7812 19.2909 21.1503 19.2869 21.378 19.5161L22.9719 21.1201V21.1242ZM20.5575 15.6406C20.3337 15.4074 20.3337 15.0295 20.5653 14.8004L22.1592 13.1963C22.3869 12.9671 22.7559 12.9671 22.9797 13.2043C23.2035 13.4375 23.2035 13.8154 22.9719 14.0446L21.378 15.6486C21.2641 15.7612 21.1189 15.8175 20.9697 15.8175C20.8205 15.8175 20.6674 15.7572 20.5535 15.6406H20.5575Z" fill="url(#paint0_linear_20633_5123)"/>
<defs>
<linearGradient id="paint0_linear_20633_5123" x1="-3.42353" y1="37" x2="44.2346" y2="-1.39312" gradientUnits="userSpaceOnUse">
<stop stop-color="#8B5CF6"/>
<stop offset="1" stop-color="#FACC15"/>
</linearGradient>
</defs>
</svg>
