<svg width="72" height="72" viewBox="0 0 72 72" fill="none" xmlns="http://www.w3.org/2000/svg">
<path fill-rule="evenodd" clip-rule="evenodd" d="M11.8351 5.47401C11.5543 5.47401 11.285 5.36284 11.0864 5.16495C10.8878 4.96706 10.7763 4.69867 10.7763 4.41882C10.7763 4.13896 10.8878 3.87057 11.0864 3.67269C11.285 3.4748 11.5543 3.36363 11.8351 3.36363H13.9451C14.2259 3.36363 14.4953 3.4748 14.6938 3.67269C14.8924 3.87057 15.004 4.13896 15.004 4.41882C15.004 4.69867 14.8924 4.96706 14.6938 5.16495C14.4953 5.36284 14.2259 5.47401 13.9451 5.47401H11.8351ZM5.47624 5.47401C5.19542 5.47401 4.9261 5.36284 4.72753 5.16495C4.52897 4.96706 4.41741 4.69867 4.41741 4.41882C4.41741 4.13896 4.52897 3.87057 4.72753 3.67269C4.9261 3.4748 5.19542 3.36363 5.47624 3.36363H7.58626C7.86708 3.36363 8.13639 3.4748 8.33496 3.67269C8.53353 3.87057 8.64508 4.13896 8.64508 4.41882C8.64508 4.69867 8.53353 4.96706 8.33496 5.16495C8.13639 5.36284 7.86708 5.47401 7.58626 5.47401H5.47624ZM0 9.94802V72H72V9.94802H0ZM72 1H0V7.83764H72V1ZM17.6612 44.1818C17.942 44.1818 18.2113 44.293 18.4099 44.4908C18.6084 44.6887 18.72 44.9571 18.72 45.237C18.72 45.5168 18.6084 45.7852 18.4099 45.9831C18.2113 46.181 17.942 46.2922 17.6612 46.2922H7.5024C7.22158 46.2922 6.95227 46.181 6.7537 45.9831C6.55513 45.7852 6.44358 45.5168 6.44358 45.237C6.44358 44.9571 6.55513 44.6887 6.7537 44.4908C6.95227 44.293 7.22158 44.1818 7.5024 44.1818H17.6612ZM27.028 44.1818C27.3088 44.1818 27.5781 44.293 27.7767 44.4908C27.9752 44.6887 28.0868 44.9571 28.0868 45.237C28.0868 45.5168 27.9752 45.7852 27.7767 45.9831C27.5781 46.181 27.3088 46.2922 27.028 46.2922H22.4335C22.1527 46.2922 21.8834 46.181 21.6848 45.9831C21.4862 45.7852 21.3747 45.5168 21.3747 45.237C21.3747 44.9571 21.4862 44.6887 21.6848 44.4908C21.8834 44.293 22.1527 44.1818 22.4335 44.1818H27.028ZM16.8692 40.1138C16.5884 40.1138 16.319 40.0026 16.1205 39.8048C15.9219 39.6069 15.8104 39.3385 15.8104 39.0586C15.8104 38.7788 15.9219 38.5104 16.1205 38.3125C16.319 38.1146 16.5884 38.0034 16.8692 38.0034H27.028C27.3088 38.0034 27.5781 38.1146 27.7767 38.3125C27.9752 38.5104 28.0868 38.7788 28.0868 39.0586C28.0868 39.3385 27.9752 39.6069 27.7767 39.8048C27.5781 40.0026 27.3088 40.1138 27.028 40.1138H16.8692ZM7.5024 40.1138C7.22158 40.1138 6.95227 40.0026 6.7537 39.8048C6.55513 39.6069 6.44358 39.3385 6.44358 39.0586C6.44358 38.7788 6.55513 38.5104 6.7537 38.3125C6.95227 38.1146 7.22158 38.0034 7.5024 38.0034H12.0977C12.3785 38.0034 12.6478 38.1146 12.8464 38.3125C13.045 38.5104 13.1565 38.7788 13.1565 39.0586C13.1565 39.3385 13.045 39.6069 12.8464 39.8048C12.6478 40.0026 12.3785 40.1138 12.0977 40.1138H7.5024ZM64.4976 67.8864H57.24C56.9592 67.8864 56.6899 67.7753 56.4913 67.5774C56.2927 67.3795 56.1812 67.1111 56.1812 66.8313V25.7919C56.1812 25.5121 56.2927 25.2437 56.4913 25.0458C56.6899 24.8479 56.9592 24.7367 57.24 24.7367H64.4976C64.7784 24.7367 65.0477 24.8479 65.2463 25.0458C65.4449 25.2437 65.5564 25.5121 65.5564 25.7919V66.8346C65.5564 67.1145 65.4449 67.3829 65.2463 67.5808C65.0477 67.7786 64.7784 67.8898 64.4976 67.8898V67.8864ZM58.2988 65.7761V26.8471H63.4388V65.7794L58.2988 65.7761ZM46.8635 39.0164V65.7761H41.7193V39.0164H46.8635ZM40.6639 36.906H47.9224C48.2032 36.906 48.4725 37.0172 48.6711 37.2151C48.8696 37.413 48.9812 37.6814 48.9812 37.9612V66.8313C48.9812 67.1111 48.8696 67.3795 48.6711 67.5774C48.4725 67.7753 48.2032 67.8864 47.9224 67.8864H40.6588C40.378 67.8864 40.1087 67.7753 39.9101 67.5774C39.7116 67.3795 39.6 67.1111 39.6 66.8313V37.9612C39.6 37.6814 39.7116 37.413 39.9101 37.2151C40.1087 37.0172 40.378 36.906 40.6588 36.906H40.6639ZM30.2807 52.0214V65.7811H25.1399V52.0214H30.2807ZM24.081 49.9111H31.3412C31.622 49.9111 31.8913 50.0222 32.0899 50.2201C32.2884 50.418 32.4 50.6864 32.4 50.9662V66.8363C32.4 67.1162 32.2884 67.3846 32.0899 67.5825C31.8913 67.7803 31.622 67.8915 31.3412 67.8915H24.081C23.8002 67.8915 23.5309 67.7803 23.3323 67.5825C23.1338 67.3846 23.0222 67.1162 23.0222 66.8363V50.9662C23.0222 50.6864 23.1338 50.418 23.3323 50.2201C23.5309 50.0222 23.8002 49.9111 24.081 49.9111ZM13.7012 57.1286V65.7794H8.56122V57.1286H13.7012ZM7.5024 55.0182H14.76C15.0408 55.0182 15.3101 55.1293 15.5087 55.3272C15.7073 55.5251 15.8188 55.7935 15.8188 56.0734V66.8346C15.8188 67.1145 15.7073 67.3829 15.5087 67.5808C15.3101 67.7786 15.0408 67.8898 14.76 67.8898H7.5024C7.22158 67.8898 6.95227 67.7786 6.7537 67.5808C6.55513 67.3829 6.44358 67.1145 6.44358 66.8346V56.0734C6.44358 55.7935 6.55513 55.5251 6.7537 55.3272C6.95227 55.1293 7.22158 55.0182 7.5024 55.0182ZM9.25242 21.4488L16.6727 25.7176C16.8476 25.8358 17.0542 25.8988 17.2656 25.8983H25.9056C25.7535 27.1302 25.3379 28.3152 24.6869 29.3733C24.0359 30.4314 23.1646 31.338 22.1319 32.0319C21.0992 32.7257 19.9292 33.1907 18.7008 33.3953C17.4724 33.5999 16.2142 33.5395 15.0112 33.2181C13.8083 32.8966 12.6885 32.3217 11.7276 31.5321C10.7666 30.7425 9.98691 29.7566 9.44104 28.641C8.89516 27.5254 8.59584 26.3061 8.5633 25.0653C8.53077 23.8245 8.76576 22.5913 9.25242 21.4488ZM16.2068 16.2327V23.0189L10.3104 19.6262C11.0142 18.695 11.8991 17.9146 12.9121 17.3316C13.9252 16.7485 15.0457 16.3748 16.2068 16.2327ZM23.4203 18.7095C24.7958 20.0774 25.6709 21.8656 25.9056 23.7879H18.3236V16.2327C20.2529 16.4661 22.0477 17.3383 23.4203 18.7095ZM17.2648 14.0582C19.7685 14.058 22.1949 14.923 24.1304 16.5058C26.066 18.0886 27.3909 20.2912 27.8796 22.7384C28.3682 25.1857 27.9902 27.726 26.81 29.9266C25.6299 32.1272 23.7205 33.8519 21.4074 34.8069C19.0942 35.7618 16.5204 35.8879 14.1244 35.1637C11.7284 34.4394 9.65858 32.9097 8.26753 30.835C6.87647 28.7604 6.25028 26.2693 6.49567 23.7861C6.74106 21.3029 7.84284 18.9814 9.61327 17.217C10.617 16.2142 11.8096 15.4188 13.1227 14.8767C14.4358 14.3346 15.8435 14.0565 17.2648 14.0582ZM18.1965 5.47401C17.9157 5.47401 17.6464 5.36284 17.4478 5.16495C17.2492 4.96706 17.1377 4.69867 17.1377 4.41882C17.1377 4.13896 17.2492 3.87057 17.4478 3.67269C17.6464 3.4748 17.9157 3.36363 18.1965 3.36363H35.1817C35.4626 3.36363 35.7319 3.4748 35.9304 3.67269C36.129 3.87057 36.2406 4.13896 36.2406 4.41882C36.2406 4.69867 36.129 4.96706 35.9304 5.16495C35.7319 5.36284 35.4626 5.47401 35.1817 5.47401H18.1965Z" fill="white"/>
</svg>
