<svg width="40" height="40" viewBox="0 0 40 40" fill="none" xmlns="http://www.w3.org/2000/svg">
<path d="M19.9999 15.8574C17.8144 15.8574 16.0331 17.6387 16.0331 19.8242C16.0331 22.0098 17.8144 23.791 19.9999 23.791C22.1855 23.791 23.9667 22.0098 23.9667 19.8242C23.9667 17.6387 22.1855 15.8574 19.9999 15.8574ZM19.9999 18.957C19.5253 18.957 19.1327 19.3437 19.1327 19.8242C19.1327 20.1406 18.8808 20.3926 18.5644 20.3926C18.248 20.3926 17.996 20.1406 17.996 19.8242C17.996 18.7227 18.8925 17.8203 19.9999 17.8203C20.3163 17.8203 20.5683 18.0723 20.5683 18.3887C20.5683 18.7051 20.3163 18.957 19.9999 18.957Z" fill="url(#paint0_linear_20633_5165)"/>
<path d="M16.4199 27.9511H14.0176V25.1679C14.0176 24.9218 13.7422 24.7812 13.5371 24.9218L9.23632 27.957H2.43359C2.19336 27.957 2 28.1503 2 28.3906V37.2206C2 37.4609 2.19336 37.6542 2.43359 37.6542H16.4199C16.6601 37.6542 16.8535 37.4609 16.8535 37.2206V28.3847C16.8535 28.1445 16.6601 27.9511 16.4199 27.9511ZM11.5976 33.1835L11.5683 33.2128C11.5566 33.2246 11.5508 33.2304 11.539 33.2421L9.60546 35.1699C9.49999 35.2753 9.33593 35.2753 9.23046 35.1699L7.29101 33.2304C7.28515 33.2246 7.27929 33.2187 7.27343 33.2128C7.26757 33.207 7.26171 33.2011 7.25585 33.1953C6.69921 32.621 6.70507 31.7011 7.27343 31.1328C7.84765 30.5585 8.77929 30.5585 9.3535 31.1328C9.37694 31.1562 9.40038 31.1796 9.41796 31.2031C9.49999 31.0917 9.64647 30.9863 9.85155 30.8749C10.4082 30.5761 11.0996 30.6757 11.5508 31.1269L11.5625 31.1386C11.5683 31.1445 11.5683 31.1445 11.5742 31.1503C12.1367 31.707 12.1426 32.6093 11.5976 33.1835Z" fill="url(#paint1_linear_20633_5165)"/>
<path d="M37.5664 2H23.5801C23.3398 2 23.1465 2.19336 23.1465 2.43359V11.2637C23.1465 11.5039 23.3398 11.6973 23.5801 11.6973H25.9824V14.5801C25.9824 14.7851 26.2109 14.9023 26.3809 14.7851L30.7578 11.6973H37.5664C37.8066 11.6973 38 11.5039 38 11.2637V2.43359C38 2.19336 37.8066 2 37.5664 2ZM35.2168 8.36913H25.9297C25.6133 8.36913 25.3613 8.11718 25.3613 7.80077C25.3613 7.48437 25.6133 7.23241 25.9297 7.23241H35.2168C35.5332 7.23241 35.7851 7.48437 35.7851 7.80077C35.7851 8.11718 35.5273 8.36913 35.2168 8.36913ZM35.2168 6.13085H25.9297C25.6133 6.13085 25.3613 5.8789 25.3613 5.56249C25.3613 5.24609 25.6133 4.99414 25.9297 4.99414H35.2168C35.5332 4.99414 35.7851 5.24609 35.7851 5.56249C35.7851 5.8789 35.5273 6.13085 35.2168 6.13085Z" fill="url(#paint2_linear_20633_5165)"/>
<path d="M30.7636 13.086L27.0371 15.711C26.8027 15.875 26.5273 15.9629 26.2402 15.9629C25.8828 15.9629 25.5429 15.8281 25.2793 15.5821C25.0039 15.3242 24.8515 14.9551 24.8515 14.5742V12.8282H23.5859C22.7187 12.8282 22.0156 12.125 22.0156 11.2578V9.89261C16.4492 9.31253 10.6777 11.1524 6.4121 15.418L2 19.8242L6.40624 24.2305C7.29101 25.1152 8.24023 25.8887 9.24218 26.5684L12.8926 23.9961C13.1328 23.8262 13.4199 23.7324 13.7187 23.7324C14.5156 23.7324 15.1601 24.377 15.1601 25.1738V26.8203H16.4258C17.2929 26.8203 17.9961 27.5234 17.9961 28.3906V29.7559C23.5625 30.3359 29.3339 28.4961 33.5996 24.2305L38 19.8242L33.5937 15.418C32.7089 14.5391 31.7597 13.7598 30.7636 13.086ZM20 26.3457C16.3965 26.3457 13.4785 23.4277 13.4785 19.8242C13.4785 16.2266 16.3906 13.3028 20 13.3028C23.5976 13.3028 26.5215 16.2207 26.5215 19.8242C26.5215 23.4219 23.5976 26.3457 20 26.3457Z" fill="url(#paint3_linear_20633_5165)"/>
<defs>
<linearGradient id="paint0_linear_20633_5165" x1="14.8379" y1="23.791" x2="25.5721" y2="15.3838" gradientUnits="userSpaceOnUse">
<stop stop-color="#8B5CF6"/>
<stop offset="1" stop-color="#FACC15"/>
</linearGradient>
<linearGradient id="paint1_linear_20633_5165" x1="-0.237731" y1="37.6542" x2="17.5045" y2="21.5141" gradientUnits="userSpaceOnUse">
<stop stop-color="#8B5CF6"/>
<stop offset="1" stop-color="#FACC15"/>
</linearGradient>
<linearGradient id="paint2_linear_20633_5165" x1="20.9088" y1="14.8317" x2="38.7054" y2="-1.30319" gradientUnits="userSpaceOnUse">
<stop stop-color="#8B5CF6"/>
<stop offset="1" stop-color="#FACC15"/>
</linearGradient>
<linearGradient id="paint3_linear_20633_5165" x1="-3.42352" y1="29.8601" x2="23.0074" y2="-7.26858" gradientUnits="userSpaceOnUse">
<stop stop-color="#8B5CF6"/>
<stop offset="1" stop-color="#FACC15"/>
</linearGradient>
</defs>
</svg>
