<svg width="33" height="32" viewBox="0 0 33 32" fill="none" xmlns="http://www.w3.org/2000/svg">
<path d="M27.668 11.348C28.8467 11.7273 29.668 12.8523 29.668 14.1443V19.8584C29.668 21.3739 28.5381 22.659 27.0276 22.7823C26.5757 22.8192 26.1225 22.8514 25.668 22.879V27L21.668 23C19.863 23 18.0754 22.9264 16.3083 22.7822C15.9105 22.7497 15.5392 22.6367 15.2079 22.4601M27.668 11.348C27.4661 11.2831 27.2537 11.24 27.0332 11.2217C25.2642 11.0749 23.4748 11 21.6679 11C19.8611 11 18.0717 11.0749 16.3028 11.2217C14.7946 11.3469 13.668 12.631 13.668 14.1443V19.8583C13.668 20.9747 14.2811 21.9661 15.2079 22.4601M27.668 11.348V8.84974C27.668 6.68786 26.1323 4.8142 23.9884 4.53588C21.2651 4.18234 18.488 4 15.6684 4C12.8484 4 10.0711 4.18238 7.34748 4.53599C5.20361 4.81433 3.66797 6.68797 3.66797 8.84984V17.1502C3.66797 19.3121 5.20361 21.1857 7.34749 21.464C8.11678 21.5639 8.89036 21.6501 9.66797 21.7224V28L15.2079 22.4601" stroke="#22C55E" stroke-width="1.5" stroke-linecap="round" stroke-linejoin="round"/>
</svg>
