<svg width="33" height="32" viewBox="0 0 33 32" fill="none" xmlns="http://www.w3.org/2000/svg">
<path d="M26.668 19V15.5C26.668 13.0147 24.6532 11 22.168 11H20.168C19.3395 11 18.668 10.3284 18.668 9.5V7.5C18.668 5.01472 16.6533 3 14.168 3H11.668M11.668 20H21.668M11.668 24H16.668M14.668 3H8.16797C7.33954 3 6.66797 3.67157 6.66797 4.5V27.5C6.66797 28.3284 7.33954 29 8.16797 29H25.168C25.9964 29 26.668 28.3284 26.668 27.5V15C26.668 8.37258 21.2954 3 14.668 3Z" stroke="#22C55E" stroke-width="1.5" stroke-linecap="round" stroke-linejoin="round"/>
</svg>
