<svg width="33" height="32" viewBox="0 0 33 32" fill="none" xmlns="http://www.w3.org/2000/svg">
<path d="M16.668 28C22.2581 28 26.9554 24.1776 28.2889 19.0039M16.668 28C11.0779 28 6.38053 24.1776 5.04703 19.0039M16.668 28C19.9817 28 22.668 22.6274 22.668 16C22.668 9.37258 19.9817 4 16.668 4M16.668 28C13.3543 28 10.668 22.6274 10.668 16C10.668 9.37258 13.3543 4 16.668 4M16.668 4C21.1549 4 25.0666 6.46259 27.1254 10.1099M16.668 4C12.181 4 8.26929 6.46259 6.21054 10.1099M27.1254 10.1099C24.3209 12.5339 20.6657 14 16.668 14C12.6703 14 9.01499 12.5339 6.21054 10.1099M27.1254 10.1099C28.1075 11.8499 28.668 13.8595 28.668 16C28.668 17.0373 28.5363 18.0439 28.2889 19.0039M28.2889 19.0039C24.8458 20.913 20.8838 22 16.668 22C12.4521 22 8.49013 20.913 5.04703 19.0039M5.04703 19.0039C4.79959 18.0439 4.66797 17.0373 4.66797 16C4.66797 13.8595 5.2284 11.8499 6.21054 10.1099" stroke="#22C55E" stroke-width="1.5" stroke-linecap="round" stroke-linejoin="round"/>
</svg>
