<svg width="33" height="32" viewBox="0 0 33 32" fill="none" xmlns="http://www.w3.org/2000/svg">
<path d="M14.4552 21.1197C13.5367 21.0404 12.607 21 11.668 21H10.668C7.35426 21 4.66797 18.3137 4.66797 15C4.66797 11.6863 7.35426 9 10.668 9H11.668C12.607 9 13.5367 8.95955 14.4552 8.88029M14.4552 21.1197C14.7924 22.402 15.2329 23.6423 15.7675 24.8312C16.0974 25.5651 15.8469 26.4437 15.1501 26.846L14.275 27.3512C13.5398 27.7757 12.5954 27.5074 12.2392 26.7369C11.4037 24.9298 10.7552 23.0185 10.3184 21.0279M14.4552 21.1197C13.9415 19.166 13.668 17.1149 13.668 15C13.668 12.885 13.9415 10.834 14.4552 8.88029M14.4552 21.1197C18.6679 21.4832 22.6472 22.6629 26.2343 24.4999M14.4552 8.88029C18.6679 8.5168 22.6472 7.3371 26.2343 5.50012M26.2343 5.50012C26.0773 4.99459 25.9082 4.49444 25.7272 4M26.2343 5.50012C26.9476 7.7977 27.4089 10.2062 27.5861 12.6932M26.2343 24.4999C26.0773 25.0054 25.9082 25.5056 25.7272 26M26.2343 24.4999C26.9476 22.2023 27.4089 19.7938 27.5861 17.3068M27.5861 12.6932C28.2472 13.2435 28.668 14.0726 28.668 15C28.668 15.9274 28.2472 16.7565 27.5861 17.3068M27.5861 12.6932C27.6404 13.4551 27.668 14.2243 27.668 15C27.668 15.7757 27.6404 16.5449 27.5861 17.3068" stroke="#22C55E" stroke-width="1.5" stroke-linecap="round" stroke-linejoin="round"/>
</svg>
