<svg width="33" height="32" viewBox="0 0 33 32" fill="none" xmlns="http://www.w3.org/2000/svg">
<path d="M5.66797 4V19C5.66797 20.6569 7.01111 22 8.66797 22H11.668M5.66797 4H3.66797M5.66797 4H27.668M27.668 4H29.668M27.668 4V19C27.668 20.6569 26.3248 22 24.668 22H21.668M11.668 22H21.668M11.668 22L10.3346 26M21.668 22L23.0013 26M23.0013 26L23.668 28M23.0013 26H10.3346M10.3346 26L9.66797 28M10.668 16L14.668 12L17.5314 14.8635C18.8736 12.9373 20.6285 11.3203 22.668 10.1405" stroke="#6B7280" stroke-width="1.5" stroke-linecap="round" stroke-linejoin="round"/>
</svg>
