<svg width="33" height="32" viewBox="0 0 33 32" fill="none" xmlns="http://www.w3.org/2000/svg">
<path d="M5.97353 10.9634C4.74272 12.4184 3.80351 14.128 3.24609 16.002C4.96782 21.7839 10.3244 26 16.6657 26C17.9892 26 19.2697 25.8164 20.4833 25.4732M8.97046 8.3035C11.1788 6.84744 13.8239 6 16.6669 6C23.0082 6 28.3648 10.2161 30.0866 15.998C29.1374 19.1892 27.081 21.9036 24.363 23.696M8.97046 8.3035L4.66695 4M8.97046 8.3035L13.8385 13.1716M24.363 23.696L28.667 28M24.363 23.696L19.4954 18.8284M19.4954 18.8284C20.2192 18.1046 20.667 17.1046 20.667 16C20.667 13.7909 18.8761 12 16.667 12C15.5624 12 14.5624 12.4477 13.8385 13.1716M19.4954 18.8284L13.8385 13.1716" stroke="white" stroke-width="2" stroke-linecap="round" stroke-linejoin="round"/>
</svg>
