<svg width="33" height="32" viewBox="0 0 33 32" fill="none" xmlns="http://www.w3.org/2000/svg">
<g clip-path="url(#clip0_18423_11528)">
<path d="M31.1909 15.8626C31.193 15.5453 31.1291 15.2311 31.0032 14.9399C30.8773 14.6487 30.6921 14.3869 30.4595 14.1711L16.3338 1.14258L2.20804 14.1711C1.97541 14.3869 1.79024 14.6487 1.66432 14.9399C1.53839 15.2311 1.47447 15.5453 1.47661 15.8626V28.5711C1.47661 29.1774 1.71743 29.7587 2.14609 30.1874C2.57474 30.616 3.15612 30.8569 3.76233 30.8569H28.9052C29.5114 30.8569 30.0928 30.616 30.5214 30.1874C30.9501 29.7587 31.1909 29.1774 31.1909 28.5711V15.8626Z" stroke="white" stroke-width="2" stroke-linecap="round" stroke-linejoin="round"/>
<path d="M15.9938 30.4263C15.9938 30.9977 16.5652 30.9977 16.5652 30.9977H23.4201C23.9915 30.9977 23.9915 30.4263 23.9915 30.4263V23.5714C23.9915 23 23.4201 23 23.4201 23H16.5652C15.9938 23 15.9938 23.5714 15.9938 23.5714M15.9938 30.4263V23.5714M15.9938 30.4263C15.9938 30.4263 15.9938 30.9977 15.4224 30.9977H8.56752C8.56752 30.9977 7.99609 30.9977 7.99609 30.4263V23.5714C7.99609 23.5714 7.99609 23 8.56752 23H15.4224C15.4224 23 15.9938 23 15.9938 23.5714M12.5652 15H19.4201C19.4201 15 19.9915 15 19.9915 15.5714V22.4263C19.9915 22.4263 19.9915 22.9977 19.4201 22.9977H12.5652C12.5652 22.9977 11.9938 22.9977 11.9938 22.4263V15.5714C11.9938 15.5714 11.9938 15 12.5652 15Z" stroke="white" stroke-width="2" stroke-linecap="round" stroke-linejoin="round"/>
</g>
<defs>
<clipPath id="clip0_18423_11528">
<rect width="32" height="32" fill="white" transform="translate(0.332031)"/>
</clipPath>
</defs>
</svg>
