<svg width="26" height="32" viewBox="0 0 26 32" fill="none" xmlns="http://www.w3.org/2000/svg">
<path d="M24.7236 3.46582H24.7217C24.7224 3.46608 24.7251 3.46693 24.7295 3.46875C24.74 3.47309 24.76 3.48167 24.7852 3.49512C24.836 3.52238 24.9063 3.56738 24.9766 3.63477C25.1076 3.76044 25.2617 3.98416 25.2617 4.39355V18.4463C25.2618 18.4475 25.2626 18.4506 25.2627 18.4551C25.2628 18.4643 25.2621 18.4806 25.2617 18.5029C25.261 18.548 25.2593 18.6194 25.252 18.7139C25.2371 18.9029 25.2022 19.1861 25.1221 19.5439C24.9619 20.2594 24.6194 21.2774 23.8877 22.4453C22.4411 24.754 19.4435 27.6945 13.2139 30.041C13.1268 30.0085 13.0073 29.9642 12.8604 29.9062C12.5233 29.7734 12.0397 29.5743 11.459 29.3115C10.2959 28.7852 8.74845 28.0054 7.20508 26.9912C4.07718 24.9357 1.14464 22.0363 1.14453 18.4551V4.28125C1.14611 4.27093 1.14887 4.25503 1.15332 4.23438C1.1642 4.18394 1.18461 4.1069 1.22266 4.01562C1.29345 3.84584 1.42361 3.62774 1.66406 3.43066C1.69812 3.41776 1.74517 3.40046 1.80469 3.37891C1.94605 3.32771 2.15842 3.25426 2.43652 3.16504C2.99283 2.98656 3.8127 2.74658 4.8584 2.50684C6.95032 2.02724 9.94234 1.54688 13.5312 1.54688C17.1192 1.54688 19.916 2.02763 21.8096 2.50488C22.7564 2.74354 23.4778 2.98147 23.959 3.1582C24.1994 3.24652 24.3802 3.31894 24.499 3.36914C24.5584 3.39424 24.6026 3.41403 24.6309 3.42676C24.6447 3.43298 24.6548 3.43751 24.6611 3.44043C24.6642 3.44184 24.6668 3.4428 24.668 3.44336L24.6689 3.44434L24.6982 3.45801L24.7236 3.46582ZM24.7236 3.46582L24.7275 3.46777H24.7295L24.7236 3.46582Z" fill="white" stroke="white"/>
<path d="M16.6139 17.2593H11.7513V8.36913C11.7513 8.09451 11.5295 7.87109 11.2568 7.87109H9.46795C9.19524 7.87109 8.96875 8.09451 8.96875 8.36913V19.5633C8.96875 19.6983 9.0196 19.8193 9.10742 19.9077C9.10742 19.9077 9.10742 19.9124 9.11204 19.9171C9.11204 19.9171 9.11666 19.9171 9.12128 19.9217C9.20911 20.0101 9.32928 20.0613 9.46333 20.0613H16.6139C16.8866 20.0613 17.1085 19.8379 17.1085 19.5587V17.7573C17.1085 17.4827 16.8866 17.2547 16.6139 17.2547" fill="#464B4D"/>
</svg>
