<svg width="33" height="32" viewBox="0 0 33 32" fill="none" xmlns="http://www.w3.org/2000/svg">
<g clip-path="url(#clip0_18423_11179)">
<path d="M17.2178 1.56543V1.7627C17.2178 2.24227 17.5521 2.66061 18.0225 2.7627V2.76367C18.7487 2.92374 19.4419 3.21087 20.0664 3.61328C20.4699 3.87403 21.0033 3.8213 21.3447 3.47656L21.4873 3.33398L22.2617 4.1084L22.1191 4.25098C21.7828 4.58735 21.7181 5.11843 21.9814 5.52734V5.52832C22.3841 6.15308 22.6719 6.8467 22.832 7.57324L22.833 7.57617C22.9378 8.03824 23.3474 8.37793 23.833 8.37793H24.0303V9.47461H23.833C23.3534 9.47461 22.934 9.80879 22.832 10.2793C22.672 11.0055 22.3848 11.6987 21.9824 12.3232C21.7218 12.7266 21.7748 13.2592 22.1191 13.6006V13.6016L22.2617 13.7441L21.4873 14.5186L21.3447 14.376C21.0082 14.0394 20.4764 13.9745 20.0674 14.2383C19.4426 14.641 18.749 14.9287 18.0225 15.0889C17.552 15.1909 17.2178 15.6102 17.2178 16.0898V16.2871H16.1211V16.0898C16.1211 15.6096 15.7859 15.1902 15.3145 15.0889H15.3154C14.5865 14.9288 13.8955 14.6411 13.2705 14.2383C12.8671 13.9785 12.3351 14.0316 11.9941 14.376L11.8516 14.5186L11.0771 13.7441L11.2197 13.6016C11.5565 13.2648 11.6208 12.7323 11.3564 12.3232H11.3555C10.9532 11.6988 10.6669 11.0053 10.5068 10.2793L10.5059 10.2764L10.4531 10.1094C10.298 9.73456 9.93087 9.47461 9.50586 9.47461H9.30859V8.37793H9.50586C9.98573 8.37793 10.4041 8.04313 10.5059 7.57227L10.5068 7.57324C10.647 6.93753 10.884 6.32681 11.2109 5.76562L11.3564 5.52832C11.6014 5.149 11.5694 4.6558 11.2783 4.31445L11.2168 4.24805L11.0771 4.1084L11.8516 3.33398L11.9941 3.47656C12.3099 3.79235 12.7975 3.86889 13.1943 3.65918L13.2715 3.61328C13.8962 3.21066 14.5899 2.92379 15.3164 2.76367L15.3193 2.7627C15.7814 2.65786 16.1211 2.24828 16.1211 1.7627V1.56543H17.2178ZM16.667 2.66797C13.2113 2.67492 10.4078 5.47366 10.4043 8.93066L10.4131 9.25391C10.581 12.5639 13.3161 15.1943 16.668 15.1943C20.128 15.1942 22.9307 12.3907 22.9307 8.93066C22.9305 5.47057 20.1245 2.66806 16.668 2.66797H16.667Z" fill="white" stroke="white"/>
<path d="M13.3994 6.26172C14.8699 4.4566 17.5241 4.18501 19.3291 5.65527C20.8182 6.86827 21.2628 8.88636 20.5479 10.5693C20.3291 10.0039 19.9875 9.49009 19.5449 9.06543C19.7018 8.69396 19.7871 8.29195 19.7871 7.88184C19.7871 6.15929 18.3915 4.76465 16.6689 4.76465C14.9465 4.76475 13.5518 6.15935 13.5518 7.88184V7.88574C13.5546 8.2927 13.6365 8.69141 13.792 9.0625C13.3484 9.4874 13.0062 10.0022 12.7871 10.5684C12.1902 9.15938 12.3942 7.49731 13.3994 6.26172Z" fill="white" stroke="white"/>
<path d="M16.6689 6.81055C17.2605 6.8106 17.7402 7.29026 17.7402 7.88184C17.7402 8.47337 17.2605 8.95308 16.6689 8.95312C16.0774 8.95312 15.5977 8.4734 15.5977 7.88184C15.5977 7.29023 16.0773 6.81055 16.6689 6.81055Z" fill="white" stroke="white"/>
<path d="M29.2158 9.66895L29.1514 9.63574C29.0109 9.23492 28.6292 8.9502 28.1846 8.9502H26.0674V8.90332H29.2344C29.2388 8.90333 29.242 8.90437 29.2441 8.90527C29.2465 8.90635 29.2495 8.90767 29.252 8.91016C29.2572 8.91544 29.2587 8.92153 29.2588 8.92773V26.7637H4.07031V8.93164C4.07031 8.92721 4.07136 8.924 4.07227 8.92188C4.0733 8.9195 4.07465 8.9166 4.07715 8.91406C4.08243 8.9088 4.08852 8.90633 4.09473 8.90625H7.2627V8.95312H5.14453C4.57535 8.95322 4.12022 9.41553 4.12012 9.97754V25.6934C4.12036 26.2624 4.5826 26.7177 5.14453 26.7178H28.1914C28.7604 26.7176 29.2156 26.2552 29.2158 25.6934V9.66895Z" fill="white" stroke="white"/>
<path d="M18.7852 28.8076V28.832C18.7852 28.8365 18.7841 28.8397 18.7832 28.8418C18.7822 28.8442 18.7808 28.8471 18.7783 28.8496C18.773 28.8549 18.767 28.8574 18.7607 28.8574H14.5713C14.5672 28.8574 14.5645 28.8563 14.5625 28.8555C14.56 28.8544 14.5574 28.8523 14.5547 28.8496C14.5494 28.8442 14.5469 28.8384 14.5469 28.832V28.8076H18.7852Z" fill="white" stroke="white"/>
<path d="M18.1826 10.5977C18.5653 10.9909 18.7852 11.5172 18.7852 12.0742V12.5703C17.4767 13.3352 15.8553 13.3352 14.5469 12.5703V12.0742C14.5469 11.5167 14.7671 10.989 15.1484 10.5977C16.0881 11.1336 17.2428 11.1333 18.1826 10.5977Z" fill="white" stroke="white"/>
<path d="M7.39746 10.999C7.57348 11.313 7.90962 11.5234 8.29199 11.5234H8.73242C8.8655 11.9285 9.02862 12.3248 9.22363 12.7061L8.91406 13.0166C8.50895 13.4155 8.51297 14.0663 8.91113 14.4648L11.1289 16.6855V16.6865C11.5279 17.0918 12.1796 17.0878 12.5781 16.6895L12.8916 16.375C13.272 16.5685 13.6669 16.732 14.0732 16.8652V17.3057C14.0734 17.8749 14.5366 18.3301 15.0986 18.3301H18.2412C18.8102 18.3298 19.2655 17.8676 19.2656 17.3057V16.8643C19.6711 16.7303 20.0657 16.5656 20.4463 16.3721L20.7607 16.6865C21.1351 17.0638 21.7295 17.0827 22.1299 16.7559L22.207 16.6865L24.4307 14.4658L24.4297 14.4648C24.8327 14.0656 24.8284 13.4173 24.4307 13.0195L24.1172 12.7051C24.3106 12.3247 24.4743 11.9298 24.6074 11.5234H25.0469C25.4326 11.5234 25.7655 11.3109 25.9404 10.999H27.168V24.665H6.16797V10.999H7.39746ZM19.2812 18.373L19.2695 18.374C18.7931 18.3846 18.3967 18.7163 18.291 19.1621C17.9114 18.6845 17.3267 18.3781 16.6699 18.3799H14.5732C14.0851 18.38 13.6814 18.7204 13.5762 19.1719C13.1968 18.6903 12.6094 18.3799 11.9492 18.3799H10.9033C9.75998 18.3799 8.83203 19.3078 8.83203 20.4512V22.5469C8.83203 23.6902 9.75998 24.6182 10.9033 24.6182H11.9492C12.5949 24.6182 13.1718 24.3219 13.5518 23.8584V24.6211H15.5986V22.5254H15.8379L15.8438 22.5293C16.3745 22.8809 16.6943 23.4786 16.6943 24.1182V24.6182H18.7412V24.6152H20.3086V23.7334L20.4727 24.0615L20.4805 24.0762C20.5732 24.2352 20.7045 24.3538 20.8369 24.4365L20.8467 24.4424C21.3394 24.7344 21.9835 24.5794 22.2803 24.0791L22.29 24.0635L22.2979 24.0469L22.4512 23.7393V24.6152H24.498V19.4014H24.4971C24.5003 19.0058 24.2742 18.6477 23.9238 18.4756L23.918 18.4727L23.8223 18.4336C23.3386 18.2601 22.7875 18.4692 22.5547 18.9443L21.3799 21.3008L20.2051 18.9443H20.2031C20.0267 18.5824 19.6596 18.3732 19.2812 18.373ZM10.9033 20.4258H11.9492C11.9536 20.4258 11.9569 20.4268 11.959 20.4277C11.9615 20.4288 11.9641 20.4309 11.9668 20.4336C11.9721 20.439 11.9746 20.4448 11.9746 20.4512V20.9512H13.5518V22.0469H11.9746V22.5469C11.9746 22.5513 11.9736 22.5545 11.9727 22.5566C11.9716 22.5591 11.9694 22.5619 11.9668 22.5645C11.9615 22.5696 11.9555 22.5723 11.9492 22.5723H10.9033C10.8989 22.5723 10.8957 22.5712 10.8936 22.5703C10.8911 22.5693 10.8884 22.5671 10.8857 22.5645C10.8805 22.5591 10.8779 22.5532 10.8779 22.5469V20.4512C10.8779 20.4467 10.879 20.4435 10.8799 20.4414C10.8809 20.439 10.8831 20.4362 10.8857 20.4336C10.8911 20.4283 10.897 20.4258 10.9033 20.4258ZM18.2627 22.2354C18.2098 22.138 18.152 22.0432 18.0908 21.9502C18.1521 21.8924 18.2093 21.831 18.2627 21.7666V22.2354Z" fill="white" stroke="white"/>
<path d="M2.00098 28.8105H12.5029V28.835C12.5029 29.9783 13.4309 30.9062 14.5742 30.9062H18.7627C19.906 30.9062 20.834 29.9783 20.834 28.835V28.8105H31.333C31.3372 28.8106 31.3397 28.8116 31.3418 28.8125C31.3442 28.8135 31.347 28.8149 31.3496 28.8174C31.3549 28.8227 31.3573 28.8288 31.3574 28.835V29.8818C31.3574 30.4729 30.8772 30.9531 30.2861 30.9531H3.04785C2.45682 30.9531 1.97661 30.4729 1.97656 29.8818V28.835C1.97661 28.8308 1.97765 28.8282 1.97852 28.8262C1.97952 28.8238 1.98091 28.8209 1.9834 28.8184C1.98868 28.8131 1.99477 28.8106 2.00098 28.8105Z" fill="white" stroke="white"/>
<path d="M16.6689 20.4268C16.6731 20.4268 16.6757 20.4279 16.6777 20.4287C16.6802 20.4298 16.6839 20.4309 16.6865 20.4336C16.6918 20.4389 16.6933 20.445 16.6934 20.4512C16.6931 20.454 16.6931 20.4564 16.6924 20.458C16.6913 20.4605 16.6892 20.4632 16.6865 20.4658C16.6812 20.4711 16.6753 20.4736 16.6689 20.4736H15.5977V20.4268H16.6689Z" fill="white" stroke="white"/>
<path d="M7.05566 3.16699L5.64551 4.57812V4.23926H1.45312V2.09668H5.64551V1.75488L7.05566 3.16699Z" fill="white" stroke="white"/>
<path d="M27.6914 2.09668H31.8838V4.23926H27.6914V4.57812L26.2803 3.16699L27.6914 1.75488V2.09668Z" fill="white" stroke="white"/>
</g>
<defs>
<clipPath id="clip0_18423_11179">
<rect width="32" height="32" fill="white" transform="translate(0.667969)"/>
</clipPath>
</defs>
</svg>
