<svg width="32" height="22" viewBox="0 0 32 22" fill="none" xmlns="http://www.w3.org/2000/svg">
<path d="M6.4668 17.084C6.71052 17.0353 6.96411 17.0848 7.1709 17.2227L10.0264 19.127L10.0352 19.1328L10.0459 19.1357L13.8779 20.0938L13.8789 20.0947C13.9987 20.1238 14.1114 20.1762 14.2109 20.249C14.3106 20.322 14.395 20.4139 14.459 20.5195C14.523 20.6251 14.5654 20.7422 14.584 20.8643C14.6025 20.9862 14.597 21.1107 14.5674 21.2305C14.5167 21.4332 14.4 21.6135 14.2354 21.7422C14.0706 21.8709 13.8673 21.9414 13.6582 21.9414L13.54 21.9346C13.5009 21.9299 13.4621 21.9226 13.4238 21.9131L9.42383 20.9131C9.37164 20.9 9.32048 20.8821 9.27148 20.8604L9.13086 20.7832L6.13086 18.7832C5.92404 18.6452 5.78014 18.4303 5.73145 18.1865C5.68277 17.9427 5.7331 17.6893 5.87109 17.4824C6.00901 17.2758 6.22325 17.1327 6.4668 17.084ZM15.3994 0.0986328C15.5678 0.0505068 15.7466 0.050461 15.915 0.0986328L22.54 1.99121L22.5635 1.99805L22.585 1.9873L25.3428 0.612305C25.8023 0.382855 26.334 0.345243 26.8213 0.507812C27.3084 0.670394 27.7117 1.01918 27.9414 1.47852V1.47949L31.0469 7.69043H31.0479C31.1626 7.91746 31.2305 8.16525 31.249 8.41895C31.2629 8.60921 31.2482 8.80001 31.2061 8.98535L31.1553 9.16895C31.0758 9.41033 30.9494 9.63396 30.7832 9.82617C30.6586 9.97022 30.5131 10.0942 30.3525 10.1953L30.1865 10.2891L27.2266 11.7686L27.2178 11.7734L27.21 11.7803L20.3252 18.667C20.2107 18.7814 20.0681 18.8641 19.9121 18.9072C19.7561 18.9503 19.5915 18.9525 19.4346 18.9131L11.4346 16.9131C11.3206 16.8845 11.213 16.8347 11.1172 16.7666L4.17676 11.8115L4.17773 11.8105L4.16895 11.8066L1.13379 10.2891C0.674282 10.0594 0.324699 9.65626 0.162109 9.16895C-0.000413597 8.68172 0.0371731 8.14995 0.266602 7.69043L3.37305 1.47949V1.47852C3.60279 1.01923 4.00601 0.670348 4.49316 0.507812C4.9804 0.345342 5.51218 0.382829 5.97168 0.612305L8.72949 1.9873L8.75098 1.99805L8.77441 1.99121L15.3994 0.0986328ZM15.6406 1.9834L9.33887 3.78516L9.3125 3.79199L9.2998 3.81641L5.87891 10.6582L5.85449 10.7061L5.89844 10.7373L12.0479 15.1309L12.0576 15.1377L12.0693 15.1406L19.3369 16.957L19.3711 16.9648L19.3965 16.9404L23.2021 13.1299L23.252 13.0811L23.1973 13.0371L19.7334 10.2637L19.6943 10.2314L19.6553 10.2637C17.2321 12.2479 14.1598 12.5079 11.6143 10.8848C11.3694 10.729 11.1622 10.5199 11.0088 10.2734C10.8555 10.0271 10.7601 9.74932 10.7285 9.46094C10.6969 9.17241 10.7298 8.88024 10.8262 8.60645C10.9225 8.33266 11.0798 8.08403 11.2852 7.87891L11.2939 7.87012L16.9014 2.43066L16.9795 2.35547L16.875 2.32617L15.6758 1.9834L15.6582 1.97852L15.6406 1.9834ZM18.0195 3.95898L12.6143 9.20898L12.5576 9.26367L12.625 9.30664C13.4261 9.8184 14.4551 10.145 15.5664 10.0596C16.679 9.97395 17.8694 9.47525 18.9922 8.34375C19.1551 8.1795 19.3735 8.0816 19.6045 8.06836C19.8066 8.05682 20.0061 8.11112 20.1738 8.22168L20.2441 8.27246L24.5449 11.7188L24.5889 11.7539L24.6289 11.7139L25.4863 10.8496L25.5176 10.8184L25.498 10.7783L22.0967 3.97559L22.0791 3.94141H18.0381L18.0195 3.95898ZM5.0498 2.31641L1.94336 8.52832L1.91602 8.58398L1.97168 8.6123L4.18262 9.71777L4.23828 9.74609L4.2666 9.69043L7.37305 3.47949L7.40039 3.42285L7.34473 3.39551L5.13379 2.28906L5.07812 2.26074L5.0498 2.31641ZM26.1826 2.28906L23.9717 3.39551L23.916 3.42285L23.9434 3.47949L27.0498 9.69043L27.0781 9.74609L27.1338 9.71777L29.3408 8.6123L29.3975 8.58398L29.3691 8.52832L26.2666 2.31641L26.2383 2.26074L26.1826 2.28906Z" fill="#32A9FF" stroke="#32A9FF" stroke-width="0.125"/>
</svg>
