<svg width="32" height="32" viewBox="0 0 32 32" fill="none" xmlns="http://www.w3.org/2000/svg">
<path fill-rule="evenodd" clip-rule="evenodd" d="M16.8001 4.54816L20.6362 8.84453C20.8814 9.11918 21.3028 9.14303 21.5775 8.89781C21.8521 8.65259 21.876 8.23116 21.6308 7.95651L16.8297 2.5793C16.4586 2.16367 15.8084 2.16367 15.4373 2.5793L10.6362 7.95651C10.391 8.23116 10.4148 8.65259 10.6895 8.89781C10.9641 9.14303 11.3855 9.11918 11.6308 8.84453L15.4668 4.54817V13.3339C15.4668 16.2794 17.8546 18.6672 20.8001 18.6672H21.3975C21.7083 20.2628 23.1136 21.4672 24.8001 21.4672C26.7147 21.4672 28.2668 19.9151 28.2668 18.0005C28.2668 16.0859 26.7147 14.5339 24.8001 14.5339C23.1136 14.5339 21.7083 15.7382 21.3975 17.3339H20.8001C18.591 17.3339 16.8001 15.543 16.8001 13.3339V4.54816ZM24.8001 20.1339C25.9783 20.1339 26.9335 19.1787 26.9335 18.0005C26.9335 16.8223 25.9783 15.8672 24.8001 15.8672C23.6219 15.8672 22.6668 16.8223 22.6668 18.0005C22.6668 19.1787 23.6219 20.1339 24.8001 20.1339Z" fill="#32A9FF"/>
<path fill-rule="evenodd" clip-rule="evenodd" d="M14.5231 15.9137C13.7894 16.7819 12.6924 17.3332 11.4667 17.3332H10.8693C10.5585 15.7376 9.15322 14.5332 7.46667 14.5332C5.55208 14.5332 4 16.0853 4 17.9999C4 19.9145 5.55208 21.4665 7.46667 21.4665C9.15322 21.4665 10.5585 20.2622 10.8693 18.6665H11.4667C12.902 18.6665 14.205 18.0995 15.1637 17.1772C14.905 16.7846 14.6892 16.3612 14.5231 15.9137ZM5.33333 17.9999C5.33333 19.1781 6.28846 20.1332 7.46667 20.1332C8.64487 20.1332 9.6 19.1781 9.6 17.9999C9.6 16.8217 8.64487 15.8665 7.46667 15.8665C6.28846 15.8665 5.33333 16.8217 5.33333 17.9999Z" fill="#32A9FF"/>
<path fill-rule="evenodd" clip-rule="evenodd" d="M15.4667 17.598V22.3306C13.871 22.6414 12.6667 24.0467 12.6667 25.7332C12.6667 27.6478 14.2187 29.1999 16.1333 29.1999C18.0479 29.1999 19.6 27.6478 19.6 25.7332C19.6 24.0467 18.3956 22.6414 16.8 22.3306V18.8633C16.2959 18.5089 15.8464 18.0821 15.4667 17.598ZM14 25.7332C14 26.9114 14.9551 27.8665 16.1333 27.8665C17.3115 27.8665 18.2667 26.9114 18.2667 25.7332C18.2667 24.555 17.3115 23.5999 16.1333 23.5999C14.9551 23.5999 14 24.555 14 25.7332Z" fill="#32A9FF"/>
</svg>
