<svg width="26" height="25" viewBox="0 0 26 25" fill="none" xmlns="http://www.w3.org/2000/svg">
<path d="M12.2679 1.21198C12.5241 0.596008 13.3967 0.596008 13.6529 1.21198L16.4875 8.02725C16.5955 8.28693 16.8398 8.46436 17.1201 8.48683L24.4778 9.07669C25.1428 9.13 25.4124 9.95988 24.9057 10.3939L19.3 15.1958C19.0864 15.3788 18.9931 15.6659 19.0584 15.9394L20.771 23.1193C20.9258 23.7682 20.2199 24.2811 19.6505 23.9333L13.3514 20.0858C13.1113 19.9392 12.8095 19.9392 12.5695 20.0858L6.2703 23.9333C5.70097 24.2811 4.99503 23.7682 5.14982 23.1193L6.86247 15.9394C6.92773 15.6659 6.83445 15.3788 6.62086 15.1958L1.0151 10.3939C0.508445 9.95988 0.778089 9.13 1.44308 9.07669L8.80074 8.48683C9.08108 8.46436 9.32529 8.28693 9.4333 8.02725L12.2679 1.21198Z" stroke="#32A9FF" stroke-width="1.5" stroke-linecap="round" stroke-linejoin="round"/>
</svg>
