<svg width="26" height="26" viewBox="0 0 26 26" fill="none" xmlns="http://www.w3.org/2000/svg">
<path d="M13.9391 0.883333V4.3383C13.9391 4.43031 13.8479 4.49485 13.7583 4.47359C13.6256 4.44206 13.4871 4.42537 13.3446 4.42537C12.3595 4.42537 11.5609 5.224 11.5609 6.20915C11.5609 7.19431 12.3595 7.99294 13.3446 7.99294C13.4871 7.99294 13.6256 7.97625 13.7583 7.94472C13.8479 7.92346 13.9391 7.988 13.9391 8.08001V11.4275M13.9391 0.883333C13.9391 0.809695 13.8794 0.75 13.8058 0.75H10.3503C10.2583 0.75 10.1938 0.841248 10.215 0.930777C10.2466 1.0636 10.2633 1.20217 10.2633 1.34464C10.2633 2.3298 9.46466 3.12842 8.47951 3.12842C7.49435 3.12842 6.69572 2.3298 6.69572 1.34464C6.69572 1.20217 6.71243 1.0636 6.74398 0.930777C6.76525 0.841248 6.70071 0.75 6.60869 0.75H3.26162C3.18799 0.75 3.12829 0.809695 3.12829 0.883333V4.33831C3.12829 4.43032 3.03705 4.49486 2.94752 4.4736C2.81474 4.44206 2.67621 4.42537 2.53378 4.42537C1.54863 4.42537 0.75 5.224 0.75 6.20915C0.75 7.19431 1.54863 7.99294 2.53378 7.99294C2.67621 7.99294 2.81474 7.97625 2.94752 7.94471C3.03705 7.92345 3.12829 7.98799 3.12829 8.08V11.4275C3.12829 11.5011 3.18799 11.5608 3.26162 11.5608M13.9391 0.883333C13.9391 0.809695 13.9979 0.75 14.0715 0.75H17.4189C17.511 0.75 17.5755 0.841248 17.5542 0.930777C17.5227 1.0636 17.506 1.20217 17.506 1.34464C17.506 2.3298 18.3046 3.12842 19.2897 3.12842C20.2749 3.12842 21.0735 2.3298 21.0735 1.34464C21.0735 1.20217 21.0568 1.0636 21.0253 0.930777C21.004 0.841248 21.0685 0.75 21.1606 0.75H24.6157C24.6893 0.75 24.749 0.809695 24.749 0.883333V4.33822C24.749 4.43022 24.6578 4.49476 24.5683 4.47351C24.4356 4.44203 24.2972 4.42537 24.1549 4.42537C23.1697 4.42537 22.3711 5.224 22.3711 6.20915C22.3711 7.19431 23.1697 7.99294 24.1549 7.99294C24.2972 7.99294 24.4356 7.97628 24.5683 7.94479C24.6578 7.92355 24.749 7.98809 24.749 8.08009V11.4275C24.749 11.5011 24.6893 11.5608 24.6157 11.5608H21.1602C21.0682 11.5608 21.0036 11.6521 21.0249 11.7416C21.0565 11.8744 21.0732 12.013 21.0732 12.1555C21.0732 13.1407 20.2746 13.9393 19.2894 13.9393C18.3042 13.9393 17.5056 13.1407 17.5056 12.1555C17.5056 12.013 17.5223 11.8744 17.5539 11.7416C17.5752 11.6521 17.5106 11.5608 17.4186 11.5608H14.0715C13.9979 11.5608 13.9391 11.5011 13.9391 11.4275M3.26162 11.5608H6.6087C6.70072 11.5608 6.76526 11.6521 6.74399 11.7416C6.71243 11.8744 6.69572 12.013 6.69572 12.1555C6.69572 13.1407 7.49435 13.9393 8.47951 13.9393C9.46466 13.9393 10.2633 13.1407 10.2633 12.1555C10.2633 12.013 10.2466 11.8744 10.215 11.7416C10.1938 11.6521 10.2583 11.5608 10.3503 11.5608H13.8058M3.26162 11.5608C3.18799 11.5608 3.12829 11.6196 3.12829 11.6932V15.1482C3.12829 15.2402 3.03705 15.3048 2.94752 15.2835C2.81474 15.252 2.67621 15.2353 2.53378 15.2353C1.54863 15.2353 0.75 16.0339 0.75 17.0191C0.75 18.0042 1.54863 18.8028 2.53378 18.8028C2.67621 18.8028 2.81474 18.7861 2.94752 18.7546C3.03705 18.7333 3.12829 18.7979 3.12829 18.8899V22.2374C3.12829 22.311 3.18799 22.3707 3.26162 22.3707H6.6087C6.70072 22.3707 6.76526 22.462 6.74399 22.5515C6.71243 22.6843 6.69572 22.8229 6.69572 22.9654C6.69572 23.9505 7.49435 24.7492 8.47951 24.7492C9.46466 24.7492 10.2633 23.9505 10.2633 22.9654C10.2633 22.8229 10.2466 22.6843 10.215 22.5515C10.1938 22.462 10.2583 22.3707 10.3503 22.3707H13.8058C13.8794 22.3707 13.9391 22.311 13.9391 22.2374V18.8903C13.9391 18.7982 13.8479 18.7337 13.7583 18.755C13.6256 18.7865 13.4871 18.8032 13.3446 18.8032C12.3595 18.8032 11.5609 18.0045 11.5609 17.0194C11.5609 16.0342 12.3595 15.2356 13.3446 15.2356C13.4871 15.2356 13.6256 15.2523 13.7583 15.2838C13.8479 15.3051 13.9391 15.2405 13.9391 15.1485V11.6932C13.9391 11.6196 13.8794 11.5608 13.8058 11.5608M13.8058 11.5608C13.8794 11.5608 13.9391 11.5011 13.9391 11.4275" stroke="#32A9FF" stroke-width="1.5"/>
</svg>
