<svg width="24" height="24" viewBox="0 0 24 24" fill="none" xmlns="http://www.w3.org/2000/svg">
<path d="M17.5081 10.7502C17.3649 10.7502 17.2299 10.6875 17.1288 10.5861C16.8114 10.2678 16.4462 10.0165 16.033 9.83222C15.5512 9.61738 15.0402 9.5067 14.4998 9.50019C13.979 9.50019 13.494 9.59785 13.0448 9.79316C12.5955 9.98846 12.1984 10.2554 11.8534 10.5939C11.5083 10.9325 11.2381 11.3328 11.0428 11.7951C10.8475 12.2573 10.7499 12.7423 10.7499 13.2501C10.7499 13.8491 10.6164 14.4122 10.3495 14.9396C10.0826 15.4669 9.70496 15.9096 9.21669 16.2677C9.50965 16.4174 9.78308 16.5899 10.037 16.7852C10.2909 16.9805 10.5285 17.2019 10.7499 17.4493V20.75C10.7499 20.2357 10.6522 19.7507 10.4569 19.295C10.2616 18.8392 9.99467 18.4421 9.65613 18.1036C9.3176 17.765 8.91721 17.4949 8.45498 17.293C7.99275 17.0912 7.50773 16.9936 6.99992 17.0001C6.4791 17.0001 5.99408 17.0977 5.54487 17.293C5.09566 17.4883 4.69853 17.7553 4.35348 18.0938C4.00843 18.4323 3.73825 18.8327 3.54295 19.295C3.41253 19.6036 3.32565 19.9224 3.28232 20.2514C3.24626 20.5252 3.02612 20.75 2.74998 20.75H2.5C2.22386 20.75 1.99719 20.5256 2.02454 20.2508C2.05433 19.9515 2.11125 19.6589 2.19531 19.3731C2.32552 18.9304 2.51106 18.5105 2.75194 18.1133C2.99282 17.7162 3.28579 17.3647 3.63083 17.0587C3.97588 16.7527 4.35999 16.489 4.78316 16.2677C4.3014 15.9161 3.92705 15.4767 3.66013 14.9493C3.39321 14.422 3.25649 13.8556 3.24998 13.2501C3.24998 12.7358 3.34764 12.2508 3.54295 11.7951C3.73825 11.3394 4.00518 10.9422 4.34371 10.6037C4.68225 10.2652 5.07938 9.99498 5.5351 9.79316C5.99082 9.59134 6.4791 9.49368 6.99992 9.50019C7.59887 9.50019 8.16202 9.63365 8.68935 9.90058C9.21669 10.1675 9.65939 10.5451 10.0175 11.0334C10.2648 10.5451 10.5806 10.1089 10.9647 9.7248C11.3488 9.34069 11.7883 9.02168 12.283 8.76778C11.8013 8.41622 11.4269 7.97678 11.16 7.44944C10.8931 6.92211 10.7564 6.35571 10.7499 5.75025C10.7499 5.23593 10.8475 4.75091 11.0428 4.29519C11.2381 3.83947 11.5051 3.44234 11.8436 3.1038C12.1821 2.76527 12.5793 2.49509 13.035 2.29327C13.4907 2.09145 13.979 1.99379 14.4998 2.00031C15.0141 2.00031 15.4991 2.09796 15.9549 2.29327C16.4106 2.48858 16.8077 2.7555 17.1463 3.09404C17.4848 3.43257 17.755 3.83296 17.9568 4.29519C18.1586 4.75742 18.2563 5.24244 18.2498 5.75025C18.2498 6.3492 18.1163 6.91234 17.8494 7.43968C17.5824 7.96701 17.2048 8.40971 16.7166 8.76778C17.1593 8.98913 17.5597 9.26582 17.9177 9.59785C18.0682 9.73737 18.2089 9.88609 18.3398 10.044C18.5844 10.339 18.3507 10.7502 17.9675 10.7502H17.5081ZM6.99992 15.7501C7.34497 15.7501 7.66723 15.685 7.96671 15.5548C8.26618 15.4246 8.5331 15.2455 8.76747 15.0177C9.00185 14.7898 9.18088 14.5262 9.30458 14.2267C9.42827 13.9272 9.49338 13.6017 9.49989 13.2501C9.49989 12.9051 9.43478 12.5828 9.30458 12.2834C9.17437 11.9839 8.99534 11.717 8.76747 11.4826C8.53961 11.2482 8.27595 11.0692 7.97647 10.9455C7.677 10.8218 7.35148 10.7567 6.99992 10.7502C6.65488 10.7502 6.33262 10.8153 6.03314 10.9455C5.73367 11.0757 5.46674 11.2547 5.23237 11.4826C4.998 11.7104 4.81897 11.9741 4.69527 12.2736C4.57158 12.5731 4.50647 12.8986 4.49996 13.2501C4.49996 13.5952 4.56507 13.9174 4.69527 14.2169C4.82548 14.5164 5.00451 14.7833 5.23237 15.0177C5.46023 15.2521 5.7239 15.4311 6.02338 15.5548C6.32285 15.6785 6.64837 15.7436 6.99992 15.7501ZM11.9998 5.75025C11.9998 6.09529 12.065 6.41756 12.1952 6.71703C12.3254 7.0165 12.5044 7.28343 12.7323 7.5178C12.9601 7.75217 13.2238 7.9312 13.5233 8.0549C13.8227 8.1786 14.1483 8.2437 14.4998 8.25021C14.8449 8.25021 15.1671 8.18511 15.4666 8.0549C15.7661 7.92469 16.033 7.74566 16.2674 7.5178C16.5017 7.28994 16.6808 7.02627 16.8045 6.7268C16.9282 6.42732 16.9933 6.10181 16.9998 5.75025C16.9998 5.4052 16.9347 5.08294 16.8045 4.78347C16.6743 4.48399 16.4952 4.21707 16.2674 3.9827C16.0395 3.74833 15.7758 3.56929 15.4764 3.4456C15.1769 3.3219 14.8514 3.2568 14.4998 3.25029C14.1548 3.25029 13.8325 3.31539 13.533 3.4456C13.2336 3.5758 12.9666 3.75484 12.7323 3.9827C12.4979 4.21056 12.3189 4.47423 12.1952 4.7737C12.0715 5.07317 12.0064 5.39869 11.9998 5.75025Z" fill="#22C55E"/>
<path d="M12 14.4545V19.7727C12 20.4505 12.5596 21 13.25 21H20.75C21.4404 21 22 20.4505 22 19.7727V14.4545M12 14.4545V13.2273C12 12.5495 12.5596 12 13.25 12H20.75C21.4404 12 22 12.5495 22 13.2273V14.4545M12 14.4545H22M13.25 13.2273H13.2542V13.2314H13.25V13.2273ZM14.5 13.2273H14.5042V13.2314H14.5V13.2273ZM15.75 13.2273H15.7542V13.2314H15.75V13.2273Z" stroke="#22C55E" stroke-linecap="round" stroke-linejoin="round"/>
</svg>
