<svg width="40" height="40" viewBox="0 0 40 40" fill="none" xmlns="http://www.w3.org/2000/svg">
<path fill-rule="evenodd" clip-rule="evenodd" d="M4.97888 26.7622L2.83672 27.7948C2.62263 27.8989 2.45882 28.083 2.38117 28.3068C2.30352 28.5306 2.31836 28.7758 2.42244 28.9887L6.56331 37.4581C6.82342 37.9668 7.30422 38.1317 7.82569 37.8916L9.92804 36.8783C10.1421 36.7742 10.306 36.5901 10.3836 36.3663C10.4613 36.1425 10.4465 35.8973 10.3424 35.6844L6.18127 27.1735C6.07645 26.9609 5.89104 26.7983 5.66567 26.7212C5.44029 26.6441 5.19333 26.6588 4.97888 26.7622ZM14.4651 16.2341H17.7874V20.5463H14.4651V16.2341ZM31.4367 8.20774H34.759V20.546H31.4367V8.20774ZM27.4405 6.40655C27.6898 6.40653 27.9335 6.47992 28.1408 6.61743C28.3481 6.75495 28.5097 6.95041 28.6051 7.1791C28.7005 7.40779 28.7255 7.65944 28.6769 7.90223C28.6282 8.14501 28.5082 8.36802 28.3319 8.54307C28.1556 8.71811 27.931 8.83731 27.6865 8.88561C27.442 8.93391 27.1886 8.90913 26.9582 8.8144C26.7279 8.71968 26.531 8.55926 26.3925 8.35344C26.254 8.14762 26.1801 7.90565 26.1801 7.65811C26.1801 7.32617 26.3129 7.00783 26.5493 6.77312C26.7857 6.53841 27.1063 6.40655 27.4406 6.40655H27.4405ZM16.1262 8.15843C16.3755 8.15834 16.6193 8.23166 16.8266 8.36913C17.0339 8.5066 17.1956 8.70203 17.2911 8.93072C17.3865 9.1594 17.4116 9.41106 17.363 9.65387C17.3144 9.89668 17.1944 10.1197 17.0181 10.2948C16.8419 10.4699 16.6173 10.5891 16.3727 10.6375C16.1282 10.6858 15.8748 10.661 15.6444 10.5663C15.4141 10.4716 15.2172 10.3112 15.0786 10.1054C14.9401 9.89954 14.8662 9.65755 14.8662 9.40999C14.8662 9.07807 14.999 8.75975 15.2353 8.52503C15.4717 8.29032 15.7923 8.15845 16.1266 8.15843H16.1262ZM21.7834 4.58188C22.0327 4.58188 22.2764 4.65528 22.4837 4.7928C22.691 4.93033 22.8525 5.12579 22.9479 5.35449C23.0433 5.58318 23.0683 5.83483 23.0196 6.0776C22.971 6.32038 22.851 6.54339 22.6747 6.71842C22.4984 6.89346 22.2738 7.01266 22.0293 7.06095C21.7848 7.10924 21.5313 7.08446 21.301 6.98973C21.0707 6.895 20.8738 6.73458 20.7353 6.52877C20.5968 6.32295 20.5229 6.08097 20.5229 5.83344C20.5229 5.66907 20.5555 5.50632 20.6188 5.35446C20.6822 5.20261 20.775 5.06463 20.8921 4.9484C21.0091 4.83217 21.1481 4.73998 21.301 4.67708C21.4539 4.61417 21.6179 4.58188 21.7834 4.58188ZM31.4374 3.24814L31.8248 3.26841L28.419 6.051C28.7876 6.27273 29.0692 6.61241 29.2175 7.01417L32.5752 4.27118L32.5214 4.58986C32.5069 4.67117 32.5088 4.75451 32.527 4.83508C32.5452 4.91565 32.5792 4.99184 32.6272 5.05926C32.6752 5.12668 32.7362 5.18398 32.8067 5.22786C32.8771 5.27173 32.9556 5.30131 33.0376 5.31488C33.1196 5.32846 33.2036 5.32576 33.2845 5.30694C33.3655 5.28812 33.4419 5.25355 33.5093 5.20524C33.5768 5.15692 33.6339 5.09582 33.6774 5.02545C33.7209 4.95509 33.7499 4.87687 33.7628 4.7953L34.0938 2.83218C34.1082 2.74538 34.1041 2.65654 34.0815 2.57146C34.059 2.48638 34.0187 2.40697 33.9631 2.33842C33.9076 2.26988 33.8381 2.21373 33.7593 2.17365C33.6804 2.13357 33.5939 2.11047 33.5054 2.10584L31.5017 2.00081C31.4192 1.99664 31.3367 2.00864 31.2589 2.03612C31.1811 2.06361 31.1095 2.10605 31.0482 2.16101C30.9869 2.21597 30.9371 2.28238 30.9016 2.35645C30.8662 2.43052 30.8458 2.5108 30.8416 2.5927C30.8374 2.6746 30.8495 2.75652 30.8771 2.83379C30.9048 2.91105 30.9476 2.98214 31.0029 3.04301C31.0583 3.10387 31.1252 3.15331 31.1998 3.18851C31.2744 3.22371 31.3552 3.24397 31.4377 3.24814H31.4374ZM25.5502 7.70506L23.285 6.97441C23.548 6.63417 23.6854 6.21449 23.6739 5.7857L25.9391 6.51635C25.676 6.85659 25.5387 7.27627 25.5502 7.70506ZM20.6161 7.31023C20.2771 7.04621 20.039 6.67519 19.9412 6.25855L17.2938 7.93281C17.6328 8.19681 17.8709 8.5678 17.9687 8.98441L20.6161 7.31055V7.31023ZM25.7795 12.2552H29.1018V20.546H25.7795V12.2555V12.2552ZM20.1223 10.0394H23.4446V20.546H20.1223V10.0397V10.0394ZM4.90108 28.1997C5.1131 28.1997 5.32035 28.2621 5.49663 28.379C5.67291 28.496 5.8103 28.6622 5.89144 28.8567C5.97257 29.0512 5.9938 29.2652 5.95244 29.4717C5.91107 29.6781 5.80898 29.8678 5.65907 30.0166C5.50915 30.1655 5.31815 30.2669 5.11021 30.3079C4.90227 30.349 4.68674 30.3279 4.49087 30.2474C4.295 30.1668 4.12758 30.0304 4.00979 29.8554C3.89201 29.6803 3.82914 29.4745 3.82914 29.264C3.82914 28.9817 3.94208 28.711 4.1431 28.5114C4.34413 28.3118 4.61679 28.1997 4.90108 28.1997ZM22.1784 29.4864V29.4875C25.3959 30.2309 28.412 27.9788 31.2532 25.8575C32.3714 25.0225 33.4609 24.209 34.5016 23.6348C34.7977 23.4998 35.1197 23.4296 35.4456 23.4291C35.7715 23.4286 36.0937 23.4977 36.3902 23.6319C36.6533 23.7492 36.8841 23.9275 37.0633 24.1519C37.5621 24.7988 37.3322 25.5457 36.6564 26.224L36.6554 26.225C36.2984 26.5284 33.2177 29.0951 26.662 33.0134C24.4078 34.3615 23.4225 35.0435 20.8277 34.6865C18.4536 34.36 14.2219 32.7473 12.2751 33.6231L11.0173 34.203L7.66442 27.3465L13.222 24.2881C14.0081 23.8428 14.7077 23.5927 15.3603 23.4843C15.9677 23.3868 16.5879 23.398 17.1914 23.5173L21.5208 24.659C22.7078 25.0253 23.3501 25.5815 23.6074 26.1558C23.7183 26.3992 23.7611 26.6677 23.7315 26.9332C23.7019 27.1986 23.6008 27.4513 23.439 27.6647C23.3164 27.8358 23.1568 27.9774 22.9719 28.0793C22.787 28.1811 22.5815 28.2405 22.3704 28.2532C20.7866 27.9672 19.5865 27.6106 18.3569 27.2451C17.9095 27.1121 17.4578 26.9779 16.8959 26.8225C16.8162 26.8 16.7327 26.7934 16.6503 26.803C16.568 26.8127 16.4883 26.8385 16.416 26.8788C16.3437 26.9192 16.2802 26.9733 16.2291 27.0382C16.1779 27.103 16.1402 27.1773 16.1181 27.2566C16.096 27.336 16.09 27.4189 16.1003 27.5006C16.1106 27.5824 16.1371 27.6612 16.1783 27.7327C16.2195 27.8042 16.2745 27.8669 16.3401 27.9172C16.4058 27.9675 16.4809 28.0044 16.561 28.0258C18.515 28.564 19.8369 29.0662 22.178 29.4861L22.1784 29.4864ZM4.90108 27.5736C6.41277 27.5736 7.17527 29.3971 6.10505 30.4597C5.03484 31.5223 3.19834 30.7649 3.19834 29.2643C3.19831 29.0422 3.24233 28.8224 3.32789 28.6172C3.41345 28.4121 3.53888 28.2257 3.697 28.0687C3.85512 27.9117 4.04284 27.7872 4.24944 27.7022C4.45604 27.6173 4.67747 27.5735 4.90108 27.5736Z" fill="url(#paint0_linear_19851_24865)"/>
<defs>
<linearGradient id="paint0_linear_19851_24865" x1="-2.94084" y1="38" x2="45.4218" y2="1.17373" gradientUnits="userSpaceOnUse">
<stop stop-color="#8B5CF6"/>
<stop offset="1" stop-color="#FACC15"/>
</linearGradient>
</defs>
</svg>
