<svg width="72" height="72" viewBox="0 0 72 72" fill="none" xmlns="http://www.w3.org/2000/svg">
<path fill-rule="evenodd" clip-rule="evenodd" d="M47.76 8.10985C47.7901 8.07992 47.8201 8.04998 47.8545 8.02433C47.5796 7.54112 47.425 6.98522 47.425 6.3951C47.425 4.5478 48.9284 3.05541 50.7797 3.05541C52.6353 3.05541 54.1344 4.55207 54.1344 6.3951C54.1344 8.24239 52.631 9.73478 50.7797 9.73478C50.4403 9.73478 50.1139 9.68347 49.8046 9.58939C49.7488 9.69202 49.6758 9.79465 49.5899 9.88017L43.9672 15.6316C43.7181 15.8881 43.3831 16.0164 43.048 16.0164V16.0207H37.1978V27.7886L41.9613 27.7929L48.1166 21.0451C48.37 20.7672 48.7179 20.6261 49.0658 20.6261H60.2038C60.2768 20.6261 60.3455 20.6303 60.4142 20.6432C60.9383 19.1209 62.3901 18.0262 64.0997 18.0262C66.2516 18.0262 67.9956 19.7623 67.9956 21.9047C67.9956 24.047 66.2517 25.7874 64.0997 25.7874C62.3901 25.7874 60.9383 24.6927 60.4142 23.1705C60.3455 23.1833 60.2768 23.1876 60.2038 23.1876H49.6329L43.4819 29.9267C43.2457 30.179 42.9106 30.3415 42.5326 30.3415L37.2021 30.3329V34.9469H48.8766C48.9496 34.9469 49.0184 34.9511 49.0871 34.964C49.6111 33.4417 51.063 32.347 52.7725 32.347C54.9245 32.347 56.6684 34.0831 56.6684 36.2255C56.6684 38.3679 54.9246 40.104 52.7725 40.104C51.063 40.104 49.6112 39.0093 49.0871 37.487C49.0184 37.4998 48.9496 37.5041 48.8766 37.5041L37.2065 37.5127V41.6648L42.537 41.6605C42.9107 41.6605 43.2501 41.823 43.482 42.0753L49.633 48.8145H60.2082C60.2812 48.8145 60.3499 48.8188 60.4186 48.8316C60.9427 47.3093 62.3945 46.2146 64.1041 46.2146C66.256 46.2146 68 47.9507 68 50.0931C68 52.2354 66.2561 53.9759 64.1041 53.9759C62.3945 53.9759 60.9427 52.8812 60.4186 51.3589C60.3499 51.3717 60.2812 51.376 60.2082 51.376L49.0702 51.3717C48.7223 51.3674 48.3744 51.2263 48.121 50.9527L41.9657 44.2091L37.2022 44.2134V55.9814H43.0524V55.9856C43.3875 55.9856 43.7182 56.1139 43.9716 56.3705L49.5943 62.1219C49.6802 62.2117 49.7532 62.31 49.809 62.4127C50.1183 62.3186 50.4447 62.2673 50.7841 62.2673C52.6397 62.2673 54.1388 63.7639 54.1388 65.6069C54.1388 67.4542 52.6354 68.9466 50.7841 68.9466C48.9285 68.9466 47.4294 67.45 47.4294 65.6069C47.4294 65.0168 47.584 64.4609 47.8546 63.982C47.8246 63.9563 47.7902 63.9264 47.7601 63.8965L42.5198 58.5342H37.2065V65.6412C36.4849 67.5997 35.1705 69.2245 33.5125 70.3364C31.7986 71.491 29.7154 72.0982 27.5462 71.987C25.3728 71.8715 23.3668 71.0505 21.7862 69.7292C20.2055 68.4079 19.0457 66.582 18.5561 64.4695C18.2124 62.9857 18.2339 61.4847 18.5732 60.0652C18.9169 58.6198 19.5869 57.2643 20.5405 56.1182C20.9873 55.5752 20.91 54.7712 20.3644 54.3266C19.8189 53.8819 19.0114 53.9588 18.5647 54.5019C17.362 55.9557 16.5115 57.6662 16.0777 59.4879C16.0434 59.6376 16.009 59.7915 15.9789 59.9411C14.918 59.7273 13.9172 59.3083 13.0323 58.7267C11.8253 57.9313 10.8245 56.8238 10.1544 55.4897C9.48435 54.1512 9.20084 52.6888 9.28676 51.252C9.35119 50.1744 9.63038 49.114 10.1115 48.1219C10.2833 48.1988 10.4551 48.2673 10.6312 48.3357C11.6191 48.712 12.6414 48.9685 13.668 49.0926C14.3724 49.1738 15.0082 48.6735 15.0941 47.9723C15.1757 47.271 14.6731 46.638 13.9687 46.5526C13.1269 46.4499 12.3107 46.249 11.5376 45.9539C11.0995 45.7871 10.67 45.5861 10.2576 45.3552L10.1845 45.3125C9.89675 45.15 9.61326 44.9704 9.33406 44.7779C7.82209 43.7175 6.65376 42.2935 5.91493 40.6771C5.17613 39.0607 4.86257 37.2519 5.05586 35.4175C5.24486 33.5872 5.92782 31.8811 6.98875 30.4485C7.83494 29.3025 8.92593 28.3318 10.2017 27.6178C10.9104 28.6441 11.7695 29.5763 12.7531 30.3801C13.2986 30.8248 14.1062 30.7479 14.5529 30.2048C14.9995 29.6617 14.9223 28.8578 14.3767 28.4131C13.3373 27.5664 12.4739 26.5359 11.8167 25.3899C11.7996 25.3514 11.7781 25.3172 11.7566 25.2787C11.5247 24.8597 11.3185 24.4235 11.1381 23.9745C10.4723 22.2854 10.2275 20.421 10.4895 18.5309C10.8202 16.1278 11.9413 13.9725 13.5864 12.3392C15.2273 10.7057 17.3921 9.58961 19.806 9.26033C20.6007 9.14915 21.391 9.13204 22.1641 9.19191C22.1985 9.19619 22.2329 9.20047 22.2672 9.20047C22.5937 9.2304 22.9158 9.27316 23.238 9.32875C24.3719 9.53401 25.4629 9.91459 26.4724 10.4576C27.0952 10.7911 27.8726 10.5602 28.2077 9.93591C28.5427 9.31587 28.3107 8.54193 27.6879 8.20838C26.4508 7.54558 25.1021 7.07089 23.6933 6.81867L23.5386 6.79301C23.5515 5.275 24.067 3.84676 24.9474 2.69646C26.0127 1.30248 27.6106 0.314631 29.4919 0.0624137C31.3732 -0.189803 33.1816 0.336086 34.5776 1.39224C35.9521 2.42707 36.9314 3.97933 37.2149 5.80516V13.4637H42.5282L47.76 8.10985Z" fill="white"/>
</svg>
