<svg width="40" height="40" viewBox="0 0 40 40" fill="none" xmlns="http://www.w3.org/2000/svg">
<path d="M24.6384 14.334H16.9121C16.0603 14.334 15.3663 15.0265 15.3663 15.8798V16.3956H14.8505C13.9987 16.3956 13.3047 17.0881 13.3047 17.9414V24.1233C13.3047 24.9752 13.9972 25.6692 14.8505 25.6692H24.6386C25.4905 25.6692 26.183 24.9752 26.183 24.1233V15.8812C26.183 15.0293 25.4905 14.3353 24.6371 14.3353L24.6384 14.334ZM14.8504 24.6361C14.5664 24.6361 14.3346 24.4043 14.3346 24.1203V17.9384C14.3346 17.6544 14.565 17.4226 14.8504 17.4226H22.5767C22.8606 17.4226 23.0924 17.6544 23.0924 17.9384V24.1203C23.0924 24.3014 23.1243 24.4738 23.1808 24.6361H14.8504ZM25.1539 24.1203C25.1539 24.4043 24.9236 24.6361 24.6382 24.6361C24.3542 24.6361 24.1224 24.4043 24.1224 24.1203V17.9384C24.1224 17.0865 23.4299 16.3925 22.5766 16.3925H16.3947V15.8768C16.3947 15.5928 16.625 15.361 16.9104 15.361H24.6367C24.9207 15.361 25.1525 15.5928 25.1525 15.8768V24.119L25.1539 24.1203Z" fill="url(#paint0_linear_19954_25588)"/>
<path d="M21.5475 18.9702H17.9415C17.6561 18.9702 17.4258 19.2006 17.4258 19.486C17.4258 19.7699 17.6561 20.0017 17.9415 20.0017H21.5475C21.8329 20.0017 22.0633 19.7714 22.0633 19.486C22.0633 19.202 21.8329 18.9702 21.5475 18.9702Z" fill="url(#paint1_linear_19954_25588)"/>
<path d="M21.549 20.5161H15.8829C15.5975 20.5161 15.3672 20.7465 15.3672 21.0319C15.3672 21.3158 15.5975 21.5476 15.8829 21.5476H21.549C21.8344 21.5476 22.0647 21.3173 22.0647 21.0319C22.0647 20.7479 21.8344 20.5161 21.549 20.5161Z" fill="url(#paint2_linear_19954_25588)"/>
<path d="M21.549 22.0605H15.8829C15.5975 22.0605 15.3672 22.2909 15.3672 22.5763C15.3672 22.8603 15.5975 23.0921 15.8829 23.0921H21.549C21.8344 23.0921 22.0647 22.8617 22.0647 22.5763C22.0647 22.2923 21.8344 22.0605 21.549 22.0605Z" fill="url(#paint3_linear_19954_25588)"/>
<path d="M6.08984 2.875C7.86249 2.875 9.30546 4.3172 9.30566 6.08984C9.30566 6.74532 9.10505 7.35257 8.7666 7.86133L12.7402 11.835C14.6738 10.1137 17.2106 9.05576 19.998 9.05566C22.0807 9.05566 24.0222 9.6504 25.6807 10.6641L27.2549 8.38867C26.8321 7.91212 26.5693 7.29098 26.5693 6.60449C26.5694 5.11571 27.7817 3.90335 29.2705 3.90332C30.7593 3.90332 31.9717 5.11568 31.9717 6.60449C31.9717 8.09331 30.7593 9.30566 29.2705 9.30566C28.9297 9.30566 28.6052 9.23765 28.3047 9.12207L26.7314 11.3955C27.8734 12.2907 28.8406 13.3995 29.5537 14.6738L32.7793 13.1152C32.7628 13.0086 32.752 12.9 32.752 12.7881C32.752 11.5833 33.7317 10.6026 34.9365 10.6025C36.1414 10.6025 37.1221 11.5832 37.1221 12.7881C37.122 13.9929 36.1413 14.9727 34.9365 14.9727C34.3033 14.9726 33.7405 14.6961 33.3428 14.2656L30.1104 15.8281C30.644 17.1148 30.9414 18.5225 30.9414 20C30.9414 21.2347 30.7234 22.4173 30.3438 23.5244L32.2246 24.2881C32.6249 23.7997 33.2263 23.4805 33.9082 23.4805C35.113 23.4806 36.0928 24.4612 36.0928 25.666C36.0927 26.8708 35.113 27.8515 33.9082 27.8516C32.7034 27.8516 31.7227 26.8709 31.7227 25.666C31.7227 25.5996 31.7302 25.5333 31.7383 25.4727L29.8613 24.709C29.4148 25.6395 28.842 26.4954 28.1631 27.2578L33.0234 32.1182C33.4317 31.8693 33.9104 31.7227 34.4238 31.7227V31.7236C35.912 31.7244 37.1229 32.9356 37.123 34.4238C37.123 35.9125 35.9115 37.1248 34.4229 37.125C32.934 37.125 31.7217 35.9126 31.7217 34.4238C31.7217 33.9103 31.8682 33.4318 32.1172 33.0234L27.2559 28.1631C25.3222 29.8844 22.7855 30.9434 19.998 30.9434C16.8967 30.9433 14.1024 29.6364 12.1104 27.5576L8.89941 30.2949C9.15515 30.7548 9.30566 31.2823 9.30566 31.8467C9.30561 33.6194 7.86258 35.0615 6.08984 35.0615C4.31727 35.0613 2.87505 33.6193 2.875 31.8467C2.875 30.074 4.3172 28.632 6.08984 28.6318C6.83673 28.6318 7.5238 28.8899 8.07031 29.3193L11.2783 26.582C9.88929 24.7476 9.05566 22.4715 9.05566 19.998C9.05576 17.2106 10.1137 14.6737 11.835 12.7402L7.86133 8.7666C7.35279 9.10381 6.74551 9.30566 6.08984 9.30566C4.31724 9.30546 2.875 7.86249 2.875 6.08984C2.8752 4.31737 4.31737 2.8752 6.08984 2.875ZM34.4238 33.002C33.6398 33.002 33.0032 33.6392 33.0029 34.4219C33.0029 35.2061 33.6409 35.8427 34.4238 35.8428C35.208 35.8428 35.8447 35.2048 35.8447 34.4219C35.8445 33.6379 35.2066 33.002 34.4238 33.002ZM6.0918 29.9121C5.02506 29.9121 4.1563 30.7809 4.15625 31.8477C4.15625 32.9144 5.02503 33.7832 6.0918 33.7832C7.1586 33.7832 8.02734 32.9145 8.02734 31.8477C8.0273 30.7809 7.15857 29.9121 6.0918 29.9121ZM20 10.3369C14.6724 10.337 10.3369 14.6723 10.3369 20C10.3371 25.3275 14.6725 29.663 20 29.6631C25.3276 29.6631 29.6629 25.3276 29.6631 20C29.6631 14.6723 25.3277 10.3369 20 10.3369ZM33.9062 24.7607C33.5404 24.7609 33.224 24.9802 33.082 25.2949V25.2959C33.0809 25.3018 33.077 25.3084 33.0742 25.3164L33.0762 25.3174C33.0755 25.3195 33.074 25.3213 33.0732 25.3232C33.0719 25.3266 33.0711 25.3305 33.0693 25.334L33.0684 25.333C33.0673 25.3352 33.0664 25.3371 33.0654 25.3389C33.0259 25.4432 33.003 25.553 33.0029 25.666C33.0029 26.1649 33.4093 26.5713 33.9082 26.5713C34.407 26.5712 34.8135 26.1649 34.8135 25.666C34.8134 25.1673 34.407 24.7608 33.9082 24.7607H33.9062ZM34.9385 11.8828C34.4396 11.8828 34.0332 12.2892 34.0332 12.7881C34.0333 13.2869 34.4397 13.6934 34.9385 13.6934C35.4372 13.6932 35.8427 13.2868 35.8428 12.7881C35.8428 12.2893 35.4372 11.883 34.9385 11.8828ZM29.2725 5.18652C28.4882 5.18652 27.8516 5.8245 27.8516 6.60742C27.8516 7.39164 28.4895 8.02832 29.2725 8.02832C30.0566 8.02817 30.6934 7.39025 30.6934 6.60742C30.6934 5.82329 30.0553 5.18668 29.2725 5.18652ZM6.0918 4.15625C5.02503 4.15628 4.15625 5.02502 4.15625 6.0918C4.1564 7.15845 5.02512 8.02633 6.0918 8.02637C7.1585 8.02637 8.02719 7.15847 8.02734 6.0918C8.02734 5.025 7.1586 4.15625 6.0918 4.15625Z" fill="url(#paint4_linear_19954_25588)" stroke="url(#paint5_linear_19954_25588)" stroke-width="0.25"/>
<defs>
<linearGradient id="paint0_linear_19954_25588" x1="11.3645" y1="25.6692" x2="27.0543" y2="11.7079" gradientUnits="userSpaceOnUse">
<stop stop-color="#8B5CF6"/>
<stop offset="1" stop-color="#FACC15"/>
</linearGradient>
<linearGradient id="paint1_linear_19954_25588" x1="16.7271" y1="20.0017" x2="17.4827" y2="17.3413" gradientUnits="userSpaceOnUse">
<stop stop-color="#8B5CF6"/>
<stop offset="1" stop-color="#FACC15"/>
</linearGradient>
<linearGradient id="paint2_linear_19954_25588" x1="14.3582" y1="21.5476" x2="14.9025" y2="18.7796" gradientUnits="userSpaceOnUse">
<stop stop-color="#8B5CF6"/>
<stop offset="1" stop-color="#FACC15"/>
</linearGradient>
<linearGradient id="paint3_linear_19954_25588" x1="14.3582" y1="23.0921" x2="14.9025" y2="20.3241" gradientUnits="userSpaceOnUse">
<stop stop-color="#8B5CF6"/>
<stop offset="1" stop-color="#FACC15"/>
</linearGradient>
<linearGradient id="paint4_linear_19954_25588" x1="-2.12198" y1="37" x2="43.8798" y2="0.97231" gradientUnits="userSpaceOnUse">
<stop stop-color="#8B5CF6"/>
<stop offset="1" stop-color="#FACC15"/>
</linearGradient>
<linearGradient id="paint5_linear_19954_25588" x1="-2.12198" y1="37" x2="43.8798" y2="0.97231" gradientUnits="userSpaceOnUse">
<stop stop-color="#8B5CF6"/>
<stop offset="1" stop-color="#FACC15"/>
</linearGradient>
</defs>
</svg>
