<svg width="72" height="72" viewBox="0 0 72 72" fill="none" xmlns="http://www.w3.org/2000/svg">
<path fill-rule="evenodd" clip-rule="evenodd" d="M3.65786 11.3366V50.7901H27.5237V61.4189C27.5237 61.5111 27.5347 61.6033 27.5566 61.6881C26.861 62.068 26.3888 62.8093 26.3888 63.6649C26.3888 64.904 27.3846 65.9109 28.6183 65.9109C29.8484 65.9109 30.8478 64.9077 30.8478 63.6649C30.8478 62.813 30.3755 62.0717 29.6799 61.6881C29.7019 61.5996 29.7129 61.5111 29.7129 61.4189V50.7939H46.2198C46.8641 49.9014 47.5414 49.0384 48.2736 48.2308L48.3944 48.098L48.409 48.0833L48.5299 47.9542C49.4085 47.0175 50.4628 46.0696 51.6563 45.4906C50.4848 44.1555 49.7746 42.4002 49.7746 40.475C49.7746 37.65 51.3085 35.1865 53.5819 33.8846V11.3364L3.65786 11.3366ZM53.4391 47.1836H61.0173C62.8185 47.497 64.4036 48.3047 65.6044 50.1856L65.6703 50.2778L71.5534 58.0667C71.8499 58.4613 72 58.9297 72 59.3943C72 59.8221 71.8828 60.2499 71.6412 60.6261L65.3993 65.8187C65.2345 65.9441 65.0368 66.0068 64.8428 65.9994C64.6415 65.992 64.4401 65.9072 64.279 65.7486C64.1216 65.59 64.0374 65.3872 64.0301 65.1807V65.118C64.0374 65.0811 64.0374 65.0442 64.0411 65.0037C64.063 64.8672 64.1216 64.7345 64.2095 64.6201L68.317 60.6187C68.749 60.1983 68.7637 59.5049 68.35 59.0661L64.7696 54.7881C64.3816 54.3235 63.6933 54.2645 63.2357 54.6554C62.7744 55.0463 62.7158 55.7396 63.1039 56.2006L66.073 59.7484C64.9381 60.8548 63.6531 62.0127 62.5804 63.1597C62.3973 63.3736 62.2509 63.6023 62.1374 63.8457L51.1253 63.8494V56.9198C51.1253 56.3113 50.6347 55.8171 50.0306 55.8171C49.6536 55.8171 49.3204 56.0088 49.1264 56.3002C48.9068 56.5768 48.6798 56.8829 48.4162 57.2296C47.5485 58.3876 46.3038 60.0472 45.341 60.899C43.3934 62.6139 39.8131 59.3169 37.4664 57.1595C36.9356 56.6727 36.4597 56.2301 36.0679 55.9056C35.8592 55.6585 35.7604 55.3524 35.764 55.05C35.7714 54.7329 35.8958 54.4157 36.1375 54.1686C36.3828 53.9252 36.6976 53.7998 37.0124 53.7924C37.3309 53.7887 37.6531 53.9031 37.9057 54.1391L37.9789 54.2055L42.2915 57.5836C43.0091 58.2474 43.6681 58.0188 44.2831 57.3955C44.5101 57.1669 44.7078 56.8792 44.8908 56.61C45.008 56.4367 45.1214 56.2707 45.1764 56.2154C45.2386 56.1564 45.2898 56.09 45.3338 56.0162L45.85 55.2344C46.9226 53.6043 48.3614 51.41 49.8916 49.7172C49.9795 49.6471 50.0564 49.5623 50.1186 49.4701C51.2206 48.2936 52.3591 47.4012 53.4391 47.1836ZM57.2905 35.1093C60.2338 35.1093 62.6208 37.5139 62.6208 40.479C62.6208 43.444 60.2338 45.8486 57.2905 45.8486C54.3471 45.8486 51.9601 43.444 51.9601 40.479C51.9565 37.5102 54.3434 35.1093 57.2905 35.1093ZM1.55235 9.13111H55.6832C56.1115 9.13111 56.4996 8.95409 56.7815 8.67012C57.0634 8.38615 57.2391 7.99523 57.2391 7.56372C57.2391 7.13223 57.0634 6.73762 56.7851 6.45731C56.5032 6.17334 56.1152 6 55.6868 6H1.55227C1.12394 6 0.73588 6.17702 0.453961 6.45731C0.175725 6.74128 0 7.1322 0 7.56372C0 7.99151 0.175724 8.38244 0.457616 8.67012C0.735852 8.95778 1.12399 9.13111 1.55235 9.13111ZM26.421 26.2063L33.0949 20.4163C33.417 20.136 33.849 20.077 34.2188 20.2282L39.3294 22.3267L44.5609 16.769H44.2973C43.6932 16.769 43.2026 16.2748 43.2026 15.6662C43.2026 15.0577 43.6932 14.5635 44.2973 14.5635H47.1016C47.3944 14.5635 47.658 14.6815 47.8557 14.8659C48.0644 15.0651 48.1962 15.349 48.1962 15.6625V18.4875C48.1962 19.096 47.7056 19.5902 47.1015 19.5902C46.4975 19.5902 46.0069 19.096 46.0069 18.4875V18.4211L40.4386 24.3365C40.1421 24.6906 39.6442 24.827 39.1939 24.6463L34.0101 22.5147L27.8451 27.8623C27.3911 28.2606 26.6991 28.2089 26.3075 27.7516C25.9158 27.298 25.967 26.6047 26.421 26.2063ZM44.8904 37.0268V22.8434H48.112V39.6014H44.8904V37.0268ZM32.1285 39.5973V27.3975H35.3501V39.5973H32.1285ZM38.5095 39.5973V29.2971H41.7312V39.5973H38.5095ZM25.7477 33.4274H28.9693V39.601L25.7477 39.5973V33.4274ZM19.9268 25.2401C19.9268 28.7879 17.0713 31.6645 13.5495 31.6645C12.4365 31.6645 11.3895 31.3769 10.4743 30.8679L15.1384 25.2365H19.9269L19.9268 25.2401ZM7.28586 34.5005H19.8097C20.4137 34.5005 20.9043 34.9947 20.9043 35.6033C20.9043 36.2118 20.4138 36.706 19.8097 36.706H7.28586C6.68181 36.706 6.19121 36.2118 6.19121 35.6033C6.19121 34.9911 6.68178 34.5005 7.28586 34.5005ZM7.28586 38.679H19.8097C20.4137 38.679 20.9043 39.1732 20.9043 39.7817C20.9043 40.3902 20.4138 40.8845 19.8097 40.8845H7.28586C6.68181 40.8845 6.19121 40.3903 6.19121 39.7817C6.19121 39.1732 6.68178 38.679 7.28586 38.679ZM15.3619 16.8681C18.8837 16.8681 21.7393 19.7447 21.7393 23.2962H15.3619V16.8681ZM13.5497 23.7313L8.77582 29.4993C7.77639 28.3634 7.17237 26.8735 7.17237 25.2397C7.17237 21.692 10.0279 18.8117 13.5497 18.8117V23.7313Z" fill="white"/>
</svg>
