<svg width="72" height="72" viewBox="0 0 72 72" fill="none" xmlns="http://www.w3.org/2000/svg">
<path fill-rule="evenodd" clip-rule="evenodd" d="M36.5003 29.4586C42.1555 27.5733 46.4018 24.6524 47.9044 18.7107C48.5992 15.956 48.6807 12.9619 48.6496 10.1377C48.6263 7.82737 48.5176 5.52468 48.4517 3.21438C44.248 3.22984 40.0832 2.13257 36.501 0C32.9184 2.13257 28.7537 3.22981 24.5544 3.21438C24.4884 5.52083 24.3836 7.82737 24.3564 10.1377C24.3254 12.9619 24.403 15.956 25.1017 18.7107C26.5999 24.6526 30.8501 27.5734 36.5018 29.4586H36.5003ZM9.41936 31.0426L1.14803 46.172C0.806461 46.7902 1.06652 47.5551 1.81952 48.0072L10.7546 52.848C11.2281 53.103 11.8104 53.0489 12.2296 52.7399L12.7148 52.1217L20.8541 37.2396C21.2112 36.5867 20.9667 35.7445 20.303 35.3851L11.2786 30.494C10.6227 30.1386 9.77648 30.3859 9.41936 31.0426ZM35.2503 69.1286L32.6652 71.5974C33.2047 72.1383 34.5011 72.0185 34.7534 71.8949L36.4031 70.4693C35.9606 69.9593 35.5763 69.5112 35.2503 69.1286ZM30.6624 65.9143L32.0287 64.2298C32.6613 64.4925 33.0921 64.9098 33.3483 65.3889C33.8257 66.2697 33.62 66.7488 33.6976 67.0966L33.6549 67.452L30.3906 70.5659C29.1253 71.694 27.5805 69.6812 27.3282 68.7192L30.6624 65.9143ZM27.534 60.6677L23.2682 64.3997C22.9577 64.9329 23.8932 67.3977 25.6088 67.1505L29.8163 63.4802C30.9341 61.6489 28.5781 59.9839 27.534 60.6677ZM25.8804 59.0489L21.5837 62.8042C19.6469 63.8705 18.005 61.6607 18.9483 60.3896C19.8216 59.2112 21.7545 57.4573 22.9617 56.8507C25.3798 55.6337 26.16 58.5968 25.8804 59.0489ZM52.2121 36.3514L60.5184 51.5035C60.8794 52.0058 61.6673 52.1912 62.2612 51.8667L71.2855 46.9756C71.9454 46.6202 72.1938 45.778 71.8367 45.1211L63.6002 30.058C63.2431 29.4013 62.397 29.154 61.7372 29.5094L52.6468 34.4392C52.2199 34.6672 51.956 35.2351 52.0064 35.7373L52.2121 36.3514ZM29.867 36.2085L35.0293 34.0565C37.0243 33.3379 39.7762 34.2961 41.5967 35.5788L47.3762 38.8201C47.6867 38.9901 48.0748 39.021 48.4203 38.8626L50.4464 37.9354L57.8988 51.5575C56.5908 52.307 56.2065 53.3926 55.3758 53.8678C53.9979 52.0442 52.2241 50.3713 50.3144 48.8685C51.0441 48.6598 51.7311 48.3199 52.3793 47.8486C53.6097 46.96 52.2473 45.0939 51.0208 45.9825C50.4541 46.3998 49.8524 46.6625 49.2198 46.7668C48.6298 46.8673 48.001 46.8402 47.3334 46.6896L38.9534 40.0831C38.736 39.8899 38.441 39.7778 38.1266 39.7933L34.94 39.9594C34.6567 39.9749 34.3772 40.0908 34.1637 40.311L31.276 43.2858C30.3755 43.9658 29.4051 44.2942 28.5667 44.3057C27.3091 44.3212 26.4397 43.5215 26.9559 42.1963L29.867 36.2085ZM22.3214 39.3688C22.9774 39.6894 24.235 40.4003 25.1898 40.5355L24.7589 41.4666C23.3112 46.3848 28.7724 48.1658 32.7625 45.048L35.5105 42.2354L37.8083 42.1156L46.1729 48.7029L51.7621 53.2308C52.6005 54.0807 54.4675 56.2907 54.875 57.4226C55.1196 58.1026 54.6848 58.9642 54.091 59.4703C53.6601 59.8411 52.8994 59.9493 52.6859 59.8141C51.4477 58.1644 50.2483 56.7349 49.0878 55.5179C47.8341 54.2044 46.6191 53.1381 45.4508 52.3189C44.2087 51.4497 42.8775 53.335 44.1195 54.2043C45.1675 54.9383 46.266 55.9042 47.411 57.1019C48.525 58.2686 49.6817 59.6517 50.881 61.2512C50.9082 61.5718 50.8732 61.8771 50.7723 62.163C50.3531 63.38 48.8626 64.2183 48.4551 63.9749C47.7138 63.0399 46.8482 62.0625 45.8584 61.0503C44.7794 59.9492 43.549 58.7941 42.1632 57.5925C41.0144 56.5957 39.4967 58.3266 40.6418 59.3233C41.9731 60.4785 43.1569 61.5873 44.201 62.6536C45.1442 63.6195 45.967 64.5468 46.6619 65.4276C46.6929 65.7135 46.6696 65.9839 46.5959 66.2273C46.4174 66.8146 45.6023 67.7573 45.0045 67.8693C44.6978 67.9273 44.333 67.8616 43.9137 67.6762C42.955 66.5635 42.0662 65.5744 41.2433 64.709C40.3739 63.7972 39.5704 63.0169 38.8368 62.3678C37.6996 61.3633 36.1664 63.0864 37.3036 64.0909C37.9712 64.6781 38.7242 65.416 39.5626 66.2969C40.3388 67.1121 41.1772 68.0432 42.0855 69.094C42.1011 69.3722 42.0622 69.6195 41.9768 69.8397C41.5887 70.8364 40.3078 71.246 39.8421 70.8983C37.8159 68.5763 36.539 67.0812 35.9995 66.4437C35.8946 66.1926 35.9141 62.9512 32.382 61.8887C32.0559 59.926 30.255 58.23 28.2094 58.1952C28.1046 57.3375 27.6272 56.2712 26.9751 55.5564C24.4833 52.825 21.2617 54.776 19.0725 56.8623C17.5161 55.4985 17.1241 54.2004 14.9931 52.74L22.3214 39.3688ZM34.6218 15.3845L40.669 9.3653C41.3987 8.63898 42.5787 8.63898 43.3083 9.3653C44.0381 10.0916 44.0381 11.2661 43.3083 11.9924L34.6255 20.6388L29.7039 15.74C28.9742 15.0136 28.9742 13.8391 29.7039 13.1129C30.4336 12.3866 31.6136 12.3865 32.3432 13.1129L34.6218 15.3845Z" fill="white"/>
</svg>
