<svg width="72" height="72" viewBox="0 0 72 72" fill="none" xmlns="http://www.w3.org/2000/svg">
<path fill-rule="evenodd" clip-rule="evenodd" d="M24.9071 41.6262C26.8626 42.0884 28.1907 43.9041 28.0439 45.9068H20.4752V41.6262L21.8584 31.4142L16.8688 28.4651C14.6052 26.9575 13.9521 23.924 15.3977 21.6204L19.7048 14.1742C18.7472 13.6606 17.243 13.026 16.1131 14.8381L12.7011 20.7474C12.3269 21.4333 11.6078 21.8625 10.8263 21.8662C10.0449 21.8735 9.3221 21.4553 8.93693 20.773C8.55171 20.0944 8.56271 19.2581 8.96995 18.5905L13.6404 10.8876C14.9941 8.65372 17.8081 7.9348 20.1415 9.08286C22.0345 10.1686 24.8742 11.7166 26.5288 12.9307C28.3559 14.6364 28.6971 16.7199 27.5487 19.1811L23.6928 25.703L25.7033 26.9905C27.6147 28.267 28.3925 30.0643 28.0366 32.3752L24.9071 41.6262ZM53.6084 38.9265V70.9962H72L71.9963 29.0263H53.6085L53.6084 38.9265ZM33.0228 49.9272V70.9972H51.4144V40.0279H33.0228V49.9272ZM30.8289 70.9972V51.024H12.4411V71L30.8289 70.9972ZM57.4273 14.4497C57.2732 15.0329 56.6716 15.3814 56.0882 15.2273C55.5049 15.0732 55.1563 14.4717 55.3141 13.8848L55.7103 12.4102L40.9103 20.9532C40.3893 21.254 39.7216 21.0706 39.4208 20.5497C39.1199 20.0289 39.2997 19.3613 39.8244 19.0605L54.6169 10.5212L53.3401 10.18C52.7568 10.026 52.4083 9.42441 52.566 8.83751C52.7201 8.25428 53.3218 7.90581 53.9051 8.06354L57.7317 9.09065C58.315 9.24471 58.6635 9.84628 58.5058 10.4332L57.4273 14.4497ZM29.5225 2C26.9617 2 24.8815 4.0761 24.8815 6.64013C24.8815 9.20415 26.958 11.2803 29.5225 11.2803C32.087 11.2803 34.1635 9.20415 34.1635 6.64013C34.1635 4.0761 32.087 2 29.5225 2ZM26.4444 23.8653L31.0964 26.5504C32.1861 27.1813 33.5912 26.8035 34.2222 25.7141C34.8533 24.6247 34.4754 23.2198 33.3857 22.5889L28.774 19.9259L26.4444 23.8653ZM16.9425 30.1782L16.1023 29.683L16.0693 29.661C14.7779 28.8026 13.8974 27.5481 13.4791 26.1616C12.705 27.4858 11.7401 28.6558 10.1369 27.9809L7.39261 26.4623L3.74585 24.3422L0 30.6366C1.55927 31.8214 3.77149 31.5756 5.0336 30.0791L10.0855 33.0649C13.2957 34.5689 15.3575 32.6431 16.9425 30.1782Z" fill="white"/>
</svg>
