<svg width="72" height="72" viewBox="0 0 72 72" fill="none" xmlns="http://www.w3.org/2000/svg">
<path fill-rule="evenodd" clip-rule="evenodd" d="M53.1037 31.3256C50.6964 28.2405 47.3382 25.9181 43.482 24.8134C40.2974 27.6205 36.1092 29.3265 31.5208 29.3265C26.9324 29.3265 22.7444 27.6205 19.5596 24.8134C11.7528 27.0492 5.77561 34.2417 6.00647 42.7046L6.25173 51.6819C6.31587 53.9967 8.22138 55.8456 10.5456 55.8456H38.5202C38.3995 55.699 38.2863 55.5374 38.1844 55.3721C37.8561 54.8385 37.6561 54.2748 37.5845 53.6923L37.5807 53.6548C37.5165 53.0836 37.5769 52.5049 37.758 51.9224L38.2183 50.4719C38.3278 50.1299 38.3466 49.7955 38.2863 49.4874C38.2259 49.1792 38.075 48.8786 37.8448 48.6081L37.226 47.8753C36.8223 47.398 36.5393 46.8719 36.377 46.3045C36.2148 45.7371 36.1808 45.1397 36.2714 44.5271C36.3657 43.9145 36.577 43.3546 36.9015 42.8586C37.2222 42.3663 37.6524 41.9454 38.1806 41.6109L39.4672 40.7917C39.7653 40.6039 39.9955 40.3596 40.1502 40.0815C40.3049 39.8035 40.3841 39.4765 40.3841 39.1195L40.3803 38.1613C40.3803 37.5375 40.5011 36.9513 40.7426 36.4177L40.7728 36.3538C41.0142 35.839 41.3651 35.3805 41.8104 34.9897C42.2745 34.5838 42.7989 34.2907 43.3725 34.1141C43.9385 33.9412 44.5346 33.8962 45.1535 33.9751L46.6665 34.1742C47.0174 34.2193 47.3495 34.1818 47.6475 34.0653C47.9494 33.9488 48.2211 33.7534 48.4437 33.4828L49.0587 32.7463C49.4625 32.2653 49.9341 31.8933 50.4623 31.6378C50.9906 31.3822 51.5754 31.247 52.2056 31.2319H52.2659C52.5527 31.2319 52.832 31.2655 53.1037 31.3256ZM49.2701 66.4722V62.4889C48.9946 62.5791 48.7116 62.6355 48.4249 62.6655C47.84 62.7257 47.2438 62.6543 46.6515 62.4551C46.0553 62.2559 45.5384 61.9515 45.1082 61.5532C44.6743 61.1511 44.3347 60.6551 44.0932 60.0802L43.5083 58.6748C43.3725 58.3441 43.1725 58.0773 42.9273 57.8857C42.8329 57.8105 42.7348 57.7467 42.6254 57.6903L42.5349 66.4835V72L45.1045 69.4409C45.5459 69.0012 46.259 69.0012 46.7005 69.4409L49.2662 71.9962V66.4722L49.2701 66.4722ZM61.9258 66.4797L61.8352 57.6864C61.7258 57.7428 61.6239 57.8067 61.5334 57.8781C61.2881 58.0735 61.0881 58.3441 60.9523 58.6747L60.3675 60.0801C60.1298 60.6551 59.7864 61.1474 59.3525 61.5531C58.9223 61.9515 58.4054 62.2558 57.8092 62.455C57.2168 62.6542 56.6244 62.7218 56.0358 62.6654C55.749 62.6354 55.4661 62.579 55.1906 62.4888V66.4721H55.1944V71.9961L57.7601 69.4408C58.2016 69.0011 58.9147 69.0011 59.3561 69.4408L61.9257 71.9999L61.9258 66.4797ZM62.0616 55.2772C61.3372 55.4012 60.6844 55.6943 60.1335 56.1302C59.5864 56.5661 59.1525 57.1374 58.8733 57.8137L58.2884 59.2191C58.1714 59.4972 58.0167 59.7302 57.8205 59.9106C57.6243 60.0947 57.3791 60.2375 57.0961 60.3314C56.8093 60.4291 56.5263 60.463 56.2584 60.4366C55.9943 60.4103 55.7302 60.3202 55.466 60.1661L54.6359 59.6851C53.9417 59.283 53.0814 59.0801 52.2362 59.0801C51.391 59.0801 50.5307 59.283 49.8364 59.6851L49.0063 60.1661C48.7421 60.3202 48.478 60.4066 48.2139 60.4366C47.946 60.463 47.663 60.4291 47.3762 60.3314C47.0932 60.2375 46.8518 60.0947 46.6518 59.9106C46.4556 59.7302 46.3009 59.4972 46.1839 59.2191L45.5991 57.8137C45.3161 57.1373 44.8859 56.5699 44.335 56.1302C43.7917 55.6943 43.1389 55.4012 42.4107 55.2772L41.4636 55.1156C41.1617 55.063 40.9014 54.9616 40.6826 54.815C40.4637 54.6685 40.2713 54.4618 40.1128 54.2025C39.9581 53.9507 39.8638 53.6839 39.8298 53.4171L39.826 53.3946C39.7996 53.1315 39.8298 52.8609 39.9166 52.5829L40.3769 51.1324C40.5958 50.4334 40.6335 49.7232 40.4977 49.0393C40.3581 48.3553 40.0487 47.7128 39.5732 47.1529L38.9544 46.4201C38.762 46.1909 38.6262 45.9466 38.5545 45.6911C38.4828 45.4356 38.4677 45.1537 38.513 44.8531C38.5583 44.5525 38.6564 44.2894 38.7997 44.0715C38.9469 43.846 39.1506 43.6506 39.3997 43.489L40.6863 42.6698C41.3127 42.2715 41.7994 41.7529 42.1352 41.1442C42.4673 40.5354 42.6446 39.8477 42.6408 39.1112L42.6371 38.153C42.6371 37.8523 42.6937 37.578 42.8031 37.33L42.8219 37.2849C42.9276 37.0632 43.0936 36.8528 43.3087 36.6649C43.5389 36.462 43.7841 36.3229 44.0331 36.2478C44.2897 36.1689 44.5727 36.1501 44.8708 36.1876L46.3839 36.3868C47.1196 36.4845 47.829 36.3981 48.478 36.1463C49.1232 35.8945 49.7043 35.4774 50.1797 34.9062L50.7947 34.1697C50.9834 33.9404 51.206 33.7676 51.4513 33.6511C51.689 33.5384 51.9531 33.4745 52.2436 33.4632C52.5304 33.4745 52.7983 33.5384 53.036 33.6511C53.2813 33.7676 53.5001 33.9442 53.6926 34.1697L54.3076 34.9062C54.783 35.4774 55.3641 35.8945 56.0093 36.1463C56.6583 36.3981 57.3676 36.4845 58.1034 36.3868L59.6165 36.1876C59.9184 36.1501 60.1976 36.1689 60.4542 36.2478C60.7032 36.3229 60.9484 36.4657 61.1786 36.6649C61.4088 36.8678 61.5786 37.0895 61.6842 37.3263V37.33C61.7974 37.578 61.8502 37.8523 61.8502 38.153L61.8465 39.1112C61.8427 39.844 62.02 40.5354 62.3521 41.1442C62.6841 41.753 63.1746 42.2753 63.801 42.6698L65.0876 43.489C65.3404 43.6506 65.5404 43.846 65.6876 44.0715C65.8309 44.2932 65.929 44.5562 65.9743 44.8531C66.0196 45.1537 66.0045 45.4356 65.9328 45.6911C65.8611 45.9466 65.7253 46.1909 65.5329 46.4201L64.9027 47.1529C64.4273 47.7128 64.1141 48.3554 63.9783 49.0393C63.8387 49.7232 63.8764 50.4334 64.0991 51.1324L64.5556 52.5829C64.6462 52.8685 64.6764 53.1503 64.6424 53.4171C64.6084 53.6877 64.5141 53.9507 64.3594 54.2025C64.2009 54.4618 64.0085 54.6685 63.7897 54.815C63.5708 54.9616 63.3067 55.063 63.0086 55.1156L62.0616 55.2772ZM56.4093 49.0619L57.613 53.9545C57.6847 54.2438 57.579 54.5332 57.3375 54.706C57.0961 54.8826 56.7867 54.8939 56.5339 54.7361L52.2324 52.0831L47.931 54.7361C47.6744 54.8939 47.3688 54.8826 47.1273 54.706C46.8858 54.5294 46.7802 54.2401 46.8481 53.9545L48.0518 49.0619L44.188 45.8076C43.9578 45.616 43.8748 45.3191 43.9691 45.0373C44.0597 44.7517 44.305 44.5638 44.603 44.5412L49.6479 44.1692L51.5609 39.5057C51.6741 39.2277 51.9307 39.0586 52.2288 39.0586C52.5268 39.0586 52.7834 39.2314 52.8966 39.5057L54.8097 44.1692L59.8545 44.5412C60.1526 44.5638 60.3978 44.7517 60.4884 45.0373C60.5789 45.3228 60.4959 45.616 60.2695 45.8076L56.4093 49.0619ZM31.5171 0C38.4522 0 44.0781 5.59911 44.0781 12.5098C44.0781 19.4167 38.4561 25.0196 31.5171 25.0196C24.5819 25.0159 18.956 19.4168 18.956 12.5098C18.956 5.59921 24.5818 0 31.5171 0Z" fill="white"/>
</svg>
