<svg width="40" height="40" viewBox="0 0 40 40" fill="none" xmlns="http://www.w3.org/2000/svg">
<path d="M22.768 27.515C22.4115 27.515 22.1199 27.8066 22.1199 28.163V32.3232C22.1199 33.2823 21.3423 34.0599 20.3832 34.0599H12.114C12.114 34.0599 12.0816 34.0664 12.0621 34.0729C12.0297 34.0729 11.9973 34.0859 11.9649 34.0923C11.9131 34.1053 11.8612 34.1183 11.8158 34.1442C11.8029 34.1442 11.7964 34.1442 11.7834 34.1571L8.34885 36.2049V34.7144C8.34885 34.358 8.05723 34.0664 7.7008 34.0664C6.7417 34.0664 5.96405 33.2888 5.96405 32.3297V24.6442C5.96405 23.6851 6.7417 22.901 7.7008 22.901H12.5027C12.8592 22.901 13.1508 22.6094 13.1508 22.253C13.1508 21.8966 12.8592 21.605 12.5027 21.605H7.7008C6.02888 21.605 4.66797 22.9658 4.66797 24.6442V32.3297C4.66797 33.7813 5.6919 34.9931 7.05276 35.2912V37.3519C7.05276 37.5852 7.17589 37.799 7.38327 37.9157C7.48047 37.974 7.59064 37.9999 7.7008 37.9999C7.81097 37.9999 7.92762 37.9675 8.03131 37.9092L12.302 35.369H20.3895C22.0614 35.369 23.4224 34.0081 23.4224 32.3362V28.176C23.4224 27.8196 23.1307 27.5279 22.7743 27.5279L22.768 27.515Z" fill="url(#paint0_linear_19954_25610)"/>
<path d="M14.2627 27.5928C13.9062 27.5928 13.6211 27.8844 13.6211 28.2408C13.6211 28.5972 13.9127 28.8888 14.2691 28.8888C14.6256 28.8888 14.9172 28.5972 14.9172 28.2408C14.9172 27.8844 14.6256 27.5928 14.2691 27.5928H14.2627Z" fill="url(#paint1_linear_19954_25610)"/>
<path d="M11.2822 27.5928C10.9258 27.5928 10.6406 27.8844 10.6406 28.2408C10.6406 28.5972 10.9322 28.8888 11.2887 28.8888C11.6451 28.8888 11.9367 28.5972 11.9367 28.2408C11.9367 27.8844 11.6451 27.5928 11.2887 27.5928H11.2822Z" fill="url(#paint2_linear_19954_25610)"/>
<path d="M17.9094 28.2408C17.9094 27.8844 17.6178 27.5928 17.2613 27.5928H17.2549C16.8984 27.5928 16.6133 27.8844 16.6133 28.2408C16.6133 28.5972 16.9049 28.8888 17.2613 28.8888C17.6177 28.8888 17.9094 28.5972 17.9094 28.2408Z" fill="url(#paint3_linear_19954_25610)"/>
<path d="M31.8791 12.0467H24.9578C24.6013 12.0467 24.3097 12.3383 24.3097 12.6947C24.3097 13.0511 24.6013 13.3427 24.9578 13.3427H31.8791C32.8382 13.3427 33.6158 14.1204 33.6158 15.0794V22.7716C33.6158 23.7177 32.8511 24.5018 31.905 24.5147C31.8142 24.5147 31.7235 24.5342 31.6458 24.5731C31.6328 24.5731 31.6263 24.586 31.6134 24.5925C31.5486 24.6249 31.4902 24.6638 31.4384 24.7091C31.406 24.7415 31.393 24.7804 31.3671 24.8128C31.3477 24.8452 31.3153 24.8776 31.3023 24.91C31.2764 24.9748 31.2634 25.0526 31.2569 25.1304V25.1628V25.1692V26.6467L27.8223 24.599C27.8223 24.599 27.7899 24.5925 27.777 24.5795C27.7446 24.5601 27.7057 24.5536 27.6733 24.5407C27.6214 24.5277 27.5761 24.5147 27.5307 24.5083C27.5177 24.5083 27.5048 24.5018 27.4983 24.5018H19.2034C18.2443 24.5018 17.4601 23.7177 17.4601 22.7586V22.1883C17.4601 21.8319 17.1685 21.5403 16.8121 21.5403C16.4557 21.5403 16.1641 21.8319 16.1641 22.1883V22.7586C16.1641 24.437 17.5249 25.7978 19.2034 25.7978H27.3233L31.5811 28.3381C31.6848 28.3964 31.7949 28.4288 31.9116 28.4288C32.0282 28.4288 32.1319 28.4029 32.2291 28.3446C32.43 28.2279 32.5596 28.0141 32.5596 27.7808V25.72C33.9075 25.409 34.925 24.1972 34.925 22.7586V15.0665C34.925 13.3946 33.5641 12.0337 31.8921 12.0337L31.8791 12.0467Z" fill="url(#paint4_linear_19954_25610)"/>
<path d="M26.1945 18.9293C26.1945 18.5729 25.9029 18.2812 25.5465 18.2812H25.54C25.1836 18.2812 24.8984 18.5729 24.8984 18.9293C24.8984 19.2857 25.1901 19.5773 25.5465 19.5773C25.9029 19.5773 26.1945 19.2857 26.1945 18.9293Z" fill="url(#paint5_linear_19954_25610)"/>
<path d="M22.5556 18.2808C22.1992 18.2808 21.9141 18.5724 21.9141 18.9288C21.9141 19.2852 22.2057 19.5768 22.5621 19.5768C22.9185 19.5768 23.2101 19.2852 23.2101 18.9288C23.2101 18.5724 22.9185 18.2808 22.5621 18.2808H22.5556Z" fill="url(#paint6_linear_19954_25610)"/>
<path d="M29.175 18.9293C29.175 18.5729 28.8834 18.2812 28.527 18.2812H28.5205C28.1641 18.2812 27.8789 18.5729 27.8789 18.9293C27.8789 19.2857 28.1705 19.5773 28.5269 19.5773C28.8834 19.5773 29.175 19.2857 29.175 18.9293Z" fill="url(#paint7_linear_19954_25610)"/>
<path d="M14.2917 20.4579C19.1065 20.4579 23.0208 16.5438 23.0208 11.729C23.0208 6.91408 19.1067 3 14.2917 3C9.47667 3 5.5625 6.91408 5.5625 11.729C5.5625 16.5438 9.47667 20.4579 14.2917 20.4579ZM12.354 7.08267C13.0798 6.49295 14.0195 6.26613 14.9462 6.46056C16.1062 6.70033 17.0523 7.64646 17.2921 8.81291C17.5643 10.0895 17.0264 11.3661 15.9312 12.0595C15.3091 12.4548 14.9397 13.0834 14.9397 13.7444V13.9064C14.9397 14.2628 14.6481 14.5544 14.2917 14.5544C13.9352 14.5544 13.6436 14.2628 13.6436 13.9064V13.7444C13.6436 12.6362 14.2398 11.5994 15.2378 10.9644C15.8729 10.5626 16.184 9.82383 16.0284 9.07212C15.8859 8.41111 15.348 7.86681 14.6805 7.73069C14.1297 7.61405 13.5983 7.74365 13.1706 8.08711C12.7558 8.42408 12.5161 8.92952 12.5161 9.46092C12.5161 9.82382 12.2244 10.1089 11.868 10.1089C11.5116 10.1089 11.22 9.82382 11.22 9.46092C11.22 8.53424 11.6347 7.66591 12.354 7.08267ZM14.2917 17.0621C13.8834 17.0621 13.5529 16.7316 13.5529 16.3298C13.5529 15.928 13.8834 15.5911 14.2917 15.5911C14.6999 15.5911 15.0304 15.9216 15.0304 16.3298C15.0304 16.738 14.6999 17.0621 14.2917 17.0621Z" fill="url(#paint8_linear_19954_25610)"/>
<defs>
<linearGradient id="paint0_linear_19954_25610" x1="1.84256" y1="37.9999" x2="24.5533" y2="17.6527" gradientUnits="userSpaceOnUse">
<stop stop-color="#8B5CF6"/>
<stop offset="1" stop-color="#FACC15"/>
</linearGradient>
<linearGradient id="paint1_linear_19954_25610" x1="13.4258" y1="28.8888" x2="15.1794" y2="27.5154" gradientUnits="userSpaceOnUse">
<stop stop-color="#8B5CF6"/>
<stop offset="1" stop-color="#FACC15"/>
</linearGradient>
<linearGradient id="paint2_linear_19954_25610" x1="10.4454" y1="28.8888" x2="12.1989" y2="27.5154" gradientUnits="userSpaceOnUse">
<stop stop-color="#8B5CF6"/>
<stop offset="1" stop-color="#FACC15"/>
</linearGradient>
<linearGradient id="paint3_linear_19954_25610" x1="16.418" y1="28.8888" x2="18.1716" y2="27.5153" gradientUnits="userSpaceOnUse">
<stop stop-color="#8B5CF6"/>
<stop offset="1" stop-color="#FACC15"/>
</linearGradient>
<linearGradient id="paint4_linear_19954_25610" x1="13.3377" y1="28.4288" x2="36.0495" y2="8.07373" gradientUnits="userSpaceOnUse">
<stop stop-color="#8B5CF6"/>
<stop offset="1" stop-color="#FACC15"/>
</linearGradient>
<linearGradient id="paint5_linear_19954_25610" x1="24.7032" y1="19.5773" x2="26.4568" y2="18.2038" gradientUnits="userSpaceOnUse">
<stop stop-color="#8B5CF6"/>
<stop offset="1" stop-color="#FACC15"/>
</linearGradient>
<linearGradient id="paint6_linear_19954_25610" x1="21.7188" y1="19.5768" x2="23.4724" y2="18.2033" gradientUnits="userSpaceOnUse">
<stop stop-color="#8B5CF6"/>
<stop offset="1" stop-color="#FACC15"/>
</linearGradient>
<linearGradient id="paint7_linear_19954_25610" x1="27.6836" y1="19.5773" x2="29.4372" y2="18.2038" gradientUnits="userSpaceOnUse">
<stop stop-color="#8B5CF6"/>
<stop offset="1" stop-color="#FACC15"/>
</linearGradient>
<linearGradient id="paint8_linear_19954_25610" x1="2.93234" y1="20.4579" x2="26.5532" y2="1.9572" gradientUnits="userSpaceOnUse">
<stop stop-color="#8B5CF6"/>
<stop offset="1" stop-color="#FACC15"/>
</linearGradient>
</defs>
</svg>
