<svg width="29" height="29" viewBox="0 0 29 29" fill="none" xmlns="http://www.w3.org/2000/svg">
<path d="M10.084 19.417C11.2173 20.257 12.5973 20.7503 14.084 20.7503C15.5707 20.7503 16.9507 20.257 18.084 19.417" stroke="#22C55E" stroke-width="1.5" stroke-linecap="round"/>
<path d="M18.0833 14.083C18.8197 14.083 19.4167 13.1876 19.4167 12.083C19.4167 10.9784 18.8197 10.083 18.0833 10.083C17.347 10.083 16.75 10.9784 16.75 12.083C16.75 13.1876 17.347 14.083 18.0833 14.083Z" fill="#22C55E"/>
<path d="M10.0833 14.083C10.8197 14.083 11.4167 13.1876 11.4167 12.083C11.4167 10.9784 10.8197 10.083 10.0833 10.083C9.34695 10.083 8.75 10.9784 8.75 12.083C8.75 13.1876 9.34695 14.083 10.0833 14.083Z" fill="#22C55E"/>
<path d="M18.0833 27.4167H14.0833C7.798 27.4167 4.65533 27.4167 2.702 25.4633C0.75 23.5127 0.75 20.3687 0.75 14.0833C0.75 7.798 0.75 4.65533 2.702 2.702C4.65667 0.75 7.798 0.75 14.0833 0.75C20.3687 0.75 23.5113 0.75 25.4633 2.702C27.4167 4.65667 27.4167 7.798 27.4167 14.0833V18.0833M18.0833 27.4167C20.5587 27.4167 22.9327 26.4333 24.683 24.683C26.4333 22.9327 27.4167 20.5587 27.4167 18.0833M18.0833 27.4167C18.0833 24.9353 18.0833 23.694 18.41 22.69C18.7351 21.6895 19.2924 20.7801 20.0363 20.0363C20.7801 19.2924 21.6895 18.7351 22.69 18.41C23.694 18.0833 24.9353 18.0833 27.4167 18.0833" stroke="#22C55E" stroke-width="1.5"/>
</svg>
