<svg width="24" height="28" viewBox="0 0 24 28" fill="none" xmlns="http://www.w3.org/2000/svg">
<path d="M23.3733 3.45388V17.512C22.5795 22.1277 17.9397 25.2951 13.9484 27.1107C13.5503 27.2919 11.9608 28.0154 11.651 27.9998C11.3124 27.9827 9.84003 27.2996 9.42481 27.1107C5.72006 25.4254 0.387917 21.8518 0 17.4078V3.45388C0.10185 2.90531 1.5456 1.96194 2.05345 1.70224C6.55656 -0.600408 17.5866 -0.647892 21.9036 2.05679C22.4711 2.41228 23.078 2.83846 23.3731 3.45388H23.3733Z" fill="#4ADE80"/>
<path d="M11.7902 5.22395C11.8097 5.24297 11.8887 5.62155 11.949 5.74358C12.6665 7.19457 13.4114 8.63389 14.1145 10.0909L19.6173 10.9523L15.7102 14.7983L16.5909 20.2184L11.6522 17.743L6.7837 20.2184L7.66441 14.7983C7.29633 14.2681 3.80531 11.2714 3.86201 11.0047L4.22566 10.8459L9.26042 10.0912C10.1151 8.56937 10.7276 6.88587 11.5586 5.35637C11.6102 5.26152 11.6389 5.0766 11.7902 5.22395Z" fill="#FEFEFE"/>
</svg>
