<svg width="28" height="28" viewBox="0 0 28 28" fill="none" xmlns="http://www.w3.org/2000/svg">
<path d="M12.7079 0.373861C13.3494 0.966773 12.2246 2.20078 11.9385 2.82624C8.22161 10.9521 16.4817 19.4028 24.7083 15.9212C26.2373 15.274 27.8497 13.4082 27.7447 16.5112C27.4829 24.245 24.1017 27.4246 16.4658 27.7956C11.5701 28.0335 4.36169 28.1046 1.67074 23.2368C-0.647357 19.0433 -0.686906 7.45497 2.3979 3.62542C4.41349 1.12323 9.00699 -0.0148798 12.1093 0.15884C12.2247 0.165257 12.6294 0.30141 12.7079 0.373861Z" fill="#4ADE80"/>
<path d="M20.1637 0.0451671C25.9635 -0.583795 29.9717 5.47961 26.9875 10.5315C24.5463 14.6645 18.5358 14.9825 15.5816 11.2257C12.2957 7.0467 14.8487 0.621512 20.1637 0.0451671Z" fill="#4ADE80"/>
</svg>
