<svg width="26" height="26" viewBox="0 0 26 26" fill="none" xmlns="http://www.w3.org/2000/svg">
<path d="M10.5372 17.8697C9.61871 17.7904 8.68908 17.75 7.75 17.75H6.75C3.43629 17.75 0.75 15.0637 0.75 11.75C0.75 8.43629 3.43629 5.75 6.75 5.75H7.75C8.68908 5.75 9.61871 5.70955 10.5372 5.63029M10.5372 17.8697C10.8744 19.152 11.315 20.3923 11.8495 21.5812C12.1795 22.3151 11.929 23.1937 11.2321 23.596L10.3571 24.1012C9.62187 24.5257 8.67746 24.2574 8.32121 23.4869C7.48573 21.6798 6.83721 19.7685 6.40047 17.7779M10.5372 17.8697C10.0236 15.916 9.75 13.8649 9.75 11.75C9.75 9.63505 10.0236 7.584 10.5372 5.63029M10.5372 17.8697C14.75 18.2332 18.7293 19.4129 22.3163 21.2499M10.5372 5.63029C14.75 5.2668 18.7293 4.0871 22.3163 2.25012M22.3163 2.25012C22.1594 1.74459 21.9902 1.24444 21.8092 0.75M22.3163 2.25012C23.0296 4.5477 23.491 6.95616 23.6681 9.44322M22.3163 21.2499C22.1594 21.7554 21.9902 22.2556 21.8092 22.75M22.3163 21.2499C23.0296 18.9523 23.491 16.5438 23.6681 14.0568M23.6681 9.44322C24.3292 9.99352 24.75 10.8226 24.75 11.75C24.75 12.6774 24.3292 13.5065 23.6681 14.0568M23.6681 9.44322C23.7224 10.2051 23.75 10.9743 23.75 11.75C23.75 12.5257 23.7224 13.2949 23.6681 14.0568" stroke="#22C55E" stroke-width="1.5" stroke-linecap="round" stroke-linejoin="round"/>
</svg>
