<svg width="22" height="28" viewBox="0 0 22 28" fill="none" xmlns="http://www.w3.org/2000/svg">
<path d="M6.39648 0.75H15.5791C16.9805 0.750218 18.1162 1.8867 18.1162 3.28809V6.05664H3.85938V3.28809C3.85938 1.88624 4.99537 0.75 6.39648 0.75Z" stroke="#22C55E" stroke-width="1.5"/>
<path d="M18.1172 13.9385V24.7119C18.1172 26.1134 16.9804 27.2498 15.5791 27.25H6.39648C4.99527 27.25 3.85938 26.1138 3.85938 24.7119V13.9385H18.1172Z" stroke="#22C55E" stroke-width="1.5"/>
<path d="M19.9984 5.92188H1.98621C1.37827 5.92188 0.884766 6.41538 0.884766 7.02334V12.9712C0.884766 13.5791 1.37827 14.0715 1.98621 14.0715H19.9985C20.6064 14.0715 21.0988 13.5791 21.0988 12.9712V7.02334C21.0988 6.41538 20.6064 5.92188 19.9985 5.92188H19.9984ZM20.2156 12.7127C20.2156 12.9748 20.0019 13.1884 19.7387 13.1884H2.24475C1.98143 13.1884 1.76781 12.9747 1.76781 12.7127V7.28304C1.76781 7.01972 1.98155 6.8061 2.24475 6.8061H19.7387C20.002 6.8061 20.2156 7.01984 20.2156 7.28304V12.7127Z" fill="white"/>
<path d="M19.7382 5.03809H2.24431C1.00707 5.03809 0 6.04516 0 7.28243V12.712C0 13.9493 1.00707 14.9552 2.24431 14.9552H19.7382C20.9755 14.9552 21.9825 13.9493 21.9825 12.712V7.28243C21.9825 6.04516 20.9755 5.03809 19.7382 5.03809ZM20.2152 12.712C20.2152 12.9742 20.0014 13.1878 19.7382 13.1878H2.24431C1.981 13.1878 1.76738 12.9741 1.76738 12.712V7.28243C1.76738 7.01911 1.98111 6.80549 2.24431 6.80549H19.7382C20.0015 6.80549 20.2152 7.01923 20.2152 7.28243V12.712Z" fill="#22C55E"/>
<path d="M13.2403 24.125H8.73917C8.41939 24.125 8.16016 24.3842 8.16016 24.704V24.7041C8.16016 25.0239 8.41939 25.2832 8.73917 25.2832H13.2403C13.5601 25.2832 13.8193 25.0239 13.8193 24.7041V24.704C13.8193 24.3842 13.5601 24.125 13.2403 24.125Z" fill="#22C55E"/>
<path d="M7.31641 1.5H14.6659V2.24924C14.6659 2.74135 14.2663 3.14094 13.7743 3.14094H8.20809C7.71599 3.14094 7.31641 2.74135 7.31641 2.24924V1.5Z" fill="#22C55E"/>
</svg>
