<svg width="28" height="26" viewBox="0 0 28 26" fill="none" xmlns="http://www.w3.org/2000/svg">
<path d="M17.75 22.2534C18.8606 22.5767 20.035 22.75 21.2499 22.75C23.2216 22.75 25.0867 22.2935 26.7452 21.4804C26.7483 21.404 26.7499 21.3272 26.7499 21.25C26.7499 18.2124 24.2875 15.75 21.2499 15.75C19.3592 15.75 17.6914 16.704 16.7014 18.1569M17.75 22.2534V22.25C17.75 20.7661 17.3698 19.3711 16.7014 18.1569M17.75 22.2534C17.75 22.3009 17.7496 22.3484 17.7488 22.3958C15.2665 23.8903 12.3586 24.75 9.25 24.75C6.14137 24.75 3.23352 23.8903 0.751227 22.3958C0.750412 22.3473 0.75 22.2987 0.75 22.25C0.75 17.5556 4.55558 13.75 9.25 13.75C12.4606 13.75 15.2554 15.53 16.7014 18.1569M13.75 5.25C13.75 7.73528 11.7353 9.75 9.25 9.75C6.76472 9.75 4.75 7.73528 4.75 5.25C4.75 2.76472 6.76472 0.75 9.25 0.75C11.7353 0.75 13.75 2.76472 13.75 5.25ZM24.75 8.25C24.75 10.183 23.183 11.75 21.25 11.75C19.317 11.75 17.75 10.183 17.75 8.25C17.75 6.317 19.317 4.75 21.25 4.75C23.183 4.75 24.75 6.317 24.75 8.25Z" stroke="#22C55E" stroke-width="1.5" stroke-linecap="round" stroke-linejoin="round"/>
</svg>
