<svg width="28" height="28" viewBox="0 0 28 28" fill="none" xmlns="http://www.w3.org/2000/svg">
<path d="M22.0267 0H5.97333C2.67435 0 0 2.67435 0 5.97333V22.0267C0 25.3256 2.67435 28 5.97333 28H22.0267C25.3256 28 28 25.3256 28 22.0267V5.97333C28 2.67435 25.3256 0 22.0267 0Z" fill="#4ADE80"/>
<path d="M14.0194 5.25586C13.5273 5.25586 13.0353 5.27324 12.5445 5.30801C9.6066 5.51638 7.82767 6.07031 7.0019 6.39663C6.66683 6.52904 6.44727 6.85268 6.44727 7.21283V15.5429C6.44727 19.7912 12.2664 22.3192 13.7021 22.8782C13.9062 22.9577 14.1324 22.9577 14.3366 22.8782C15.7723 22.3192 21.5914 19.7912 21.5914 15.5429V7.21283C21.5914 6.85256 21.3718 6.52893 21.0368 6.39663C20.211 6.07031 18.432 5.51638 15.4941 5.30801C15.0034 5.27324 14.5115 5.25586 14.0193 5.25586H14.0194Z" fill="white"/>
<path d="M16.1633 15.0854H13.2449V9.78613C13.2449 9.62163 13.1113 9.48828 12.9466 9.48828H11.8725C11.7078 9.48828 11.5742 9.62163 11.5742 9.78613V16.4583C11.5742 16.5383 11.606 16.6109 11.6575 16.6644C11.6589 16.6658 11.6602 16.6675 11.6616 16.6689C11.663 16.6703 11.6646 16.6716 11.666 16.673C11.7196 16.7244 11.792 16.7563 11.8722 16.7563H16.1634C16.3279 16.7563 16.4613 16.6227 16.4613 16.4579V15.3839C16.4613 15.2192 16.3279 15.0856 16.1634 15.0856L16.1633 15.0854Z" fill="#4ADE80"/>
</svg>
