<svg width="28" height="28" viewBox="0 0 28 28" fill="none" xmlns="http://www.w3.org/2000/svg">
<path fill-rule="evenodd" clip-rule="evenodd" d="M13.5591 1.86919C13.8316 1.71027 14.1684 1.71027 14.4409 1.86919L17.0659 3.40044C17.4833 3.64394 17.6243 4.17972 17.3808 4.59714C17.1373 5.01456 16.6015 5.15555 16.1841 4.91206L14 3.63799L11.8159 4.91206C11.3985 5.15555 10.8627 5.01456 10.6192 4.59714C10.3757 4.17972 10.5167 3.64394 10.9341 3.40044L13.5591 1.86919ZM6.88081 6.77786C7.1243 7.19528 6.98331 7.73106 6.56589 7.97456L5.23656 8.75L6.56589 9.52544C6.98331 9.76894 7.1243 10.3047 6.88081 10.7221C6.63731 11.1396 6.10153 11.2806 5.68411 11.0371L4.375 10.2734V11.375C4.375 11.8582 3.98325 12.25 3.5 12.25C3.01675 12.25 2.625 11.8582 2.625 11.375V8.75C2.625 8.43879 2.7903 8.151 3.05911 7.99419L5.68411 6.46294C6.10153 6.21945 6.63731 6.36044 6.88081 6.77786ZM21.1192 6.77786C21.3627 6.36044 21.8985 6.21945 22.3159 6.46294L24.9409 7.99419C25.2097 8.151 25.375 8.43879 25.375 8.75V11.375C25.375 11.8582 24.9832 12.25 24.5 12.25C24.0168 12.25 23.625 11.8582 23.625 11.375V10.2734L22.3159 11.0371C21.8985 11.2806 21.3627 11.1396 21.1192 10.7221C20.8757 10.3047 21.0167 9.76894 21.4341 9.52544L22.7634 8.75L21.4341 7.97456C21.0167 7.73106 20.8757 7.19528 21.1192 6.77786ZM10.6192 12.9029C10.8627 12.4854 11.3985 12.3444 11.8159 12.5879L14 13.862L16.1841 12.5879C16.6015 12.3444 17.1373 12.4854 17.3808 12.9029C17.6243 13.3203 17.4833 13.8561 17.0659 14.0996L14.875 15.3776V17.5C14.875 17.9832 14.4832 18.375 14 18.375C13.5168 18.375 13.125 17.9832 13.125 17.5V15.3776L10.9341 14.0996C10.5167 13.8561 10.3757 13.3203 10.6192 12.9029ZM3.5 15.75C3.98325 15.75 4.375 16.1418 4.375 16.625V18.7474L6.56589 20.0254C6.98331 20.2689 7.1243 20.8047 6.88081 21.2221C6.63731 21.6396 6.10153 21.7806 5.68411 21.5371L3.05911 20.0058C2.7903 19.849 2.625 19.5612 2.625 19.25V16.625C2.625 16.1418 3.01675 15.75 3.5 15.75ZM24.5 15.75C24.9832 15.75 25.375 16.1418 25.375 16.625V19.25C25.375 19.5612 25.2097 19.849 24.9409 20.0058L22.3159 21.5371C21.8985 21.7806 21.3627 21.6396 21.1192 21.2221C20.8757 20.8047 21.0167 20.2689 21.4341 20.0254L23.625 18.7474V16.625C23.625 16.1418 24.0168 15.75 24.5 15.75ZM14 21.875C14.4832 21.875 14.875 22.2668 14.875 22.75V23.8516L16.1841 23.0879C16.6015 22.8444 17.1373 22.9854 17.3808 23.4029C17.6243 23.8203 17.4833 24.3561 17.0659 24.5996L14.4409 26.1308C14.1684 26.2897 13.8316 26.2897 13.5591 26.1308L10.9341 24.5996C10.5167 24.3561 10.3757 23.8203 10.6192 23.4029C10.8627 22.9854 11.3985 22.8444 11.8159 23.0879L13.125 23.8516V22.75C13.125 22.2668 13.5168 21.875 14 21.875Z" fill="#8B5CF6"/>
</svg>
