<svg width="28" height="28" viewBox="0 0 28 28" fill="none" xmlns="http://www.w3.org/2000/svg">
<path fill-rule="evenodd" clip-rule="evenodd" d="M14.7018 3.9789L18.0584 7.73823C18.2729 7.97855 18.6417 7.99942 18.882 7.78485C19.1223 7.57029 19.1432 7.20153 18.9286 6.96121L14.7277 2.25615C14.403 1.89248 13.834 1.89248 13.5093 2.25615L9.30837 6.96121C9.0938 7.20153 9.11467 7.57029 9.35499 7.78485C9.5953 7.99942 9.96406 7.97855 10.1786 7.73823L13.5352 3.97892V11.6664C13.5352 14.2437 15.6245 16.3331 18.2018 16.3331H18.7245C18.9965 17.7292 20.2261 18.7831 21.7018 18.7831C23.3771 18.7831 24.7352 17.425 24.7352 15.7497C24.7352 14.0745 23.3771 12.7164 21.7018 12.7164C20.2261 12.7164 18.9965 13.7702 18.7245 15.1664H18.2018C16.2688 15.1664 14.7018 13.5994 14.7018 11.6664V3.9789ZM21.7018 17.6164C22.7328 17.6164 23.5685 16.7807 23.5685 15.7497C23.5685 14.7188 22.7328 13.8831 21.7018 13.8831C20.6709 13.8831 19.8352 14.7188 19.8352 15.7497C19.8352 16.7807 20.6709 17.6164 21.7018 17.6164Z" fill="#8B5CF6" stroke="#8B5CF6" stroke-width="0.25"/>
<path fill-rule="evenodd" clip-rule="evenodd" d="M12.7077 13.9247C12.0657 14.6844 11.1058 15.1668 10.0333 15.1668H9.51063C9.23866 13.7706 8.00907 12.7168 6.53333 12.7168C4.85807 12.7168 3.5 14.0749 3.5 15.7501C3.5 17.4254 4.85807 18.7835 6.53333 18.7835C8.00907 18.7835 9.23866 17.7296 9.51063 16.3335H10.0333C11.2893 16.3335 12.4294 15.8373 13.2682 15.0303C13.0419 14.6868 12.8531 14.3163 12.7077 13.9247ZM4.66667 15.7501C4.66667 16.7811 5.5024 17.6168 6.53333 17.6168C7.56426 17.6168 8.4 16.7811 8.4 15.7501C8.4 14.7192 7.56426 13.8835 6.53333 13.8835C5.5024 13.8835 4.66667 14.7192 4.66667 15.7501Z" fill="#8B5CF6"/>
<path fill-rule="evenodd" clip-rule="evenodd" d="M13.5333 15.3985V19.5395C12.1372 19.8115 11.0833 21.0411 11.0833 22.5168C11.0833 24.1921 12.4414 25.5501 14.1167 25.5501C15.7919 25.5501 17.15 24.1921 17.15 22.5168C17.15 21.0411 16.0962 19.8115 14.7 19.5395V16.5056C14.2589 16.1955 13.8656 15.8221 13.5333 15.3985ZM12.25 22.5168C12.25 23.5477 13.0857 24.3835 14.1167 24.3835C15.1476 24.3835 15.9833 23.5477 15.9833 22.5168C15.9833 21.4859 15.1476 20.6501 14.1167 20.6501C13.0857 20.6501 12.25 21.4859 12.25 22.5168Z" fill="#8B5CF6"/>
<path fill-rule="evenodd" clip-rule="evenodd" d="M12.7077 13.9247C12.0657 14.6844 11.1058 15.1668 10.0333 15.1668H9.51063C9.23866 13.7706 8.00907 12.7168 6.53333 12.7168C4.85807 12.7168 3.5 14.0749 3.5 15.7501C3.5 17.4254 4.85807 18.7835 6.53333 18.7835C8.00907 18.7835 9.23866 17.7296 9.51063 16.3335H10.0333C11.2893 16.3335 12.4294 15.8373 13.2682 15.0303C13.0419 14.6868 12.8531 14.3163 12.7077 13.9247ZM4.66667 15.7501C4.66667 16.7811 5.5024 17.6168 6.53333 17.6168C7.56426 17.6168 8.4 16.7811 8.4 15.7501C8.4 14.7192 7.56426 13.8835 6.53333 13.8835C5.5024 13.8835 4.66667 14.7192 4.66667 15.7501Z" stroke="#8B5CF6" stroke-width="0.25" stroke-linecap="round"/>
<path fill-rule="evenodd" clip-rule="evenodd" d="M13.5333 15.3985V19.5395C12.1372 19.8115 11.0833 21.0411 11.0833 22.5168C11.0833 24.1921 12.4414 25.5501 14.1167 25.5501C15.7919 25.5501 17.15 24.1921 17.15 22.5168C17.15 21.0411 16.0962 19.8115 14.7 19.5395V16.5056C14.2589 16.1955 13.8656 15.8221 13.5333 15.3985ZM12.25 22.5168C12.25 23.5477 13.0857 24.3835 14.1167 24.3835C15.1476 24.3835 15.9833 23.5477 15.9833 22.5168C15.9833 21.4859 15.1476 20.6501 14.1167 20.6501C13.0857 20.6501 12.25 21.4859 12.25 22.5168Z" stroke="#8B5CF6" stroke-width="0.25" stroke-linecap="round"/>
</svg>
