<svg width="32" height="32" viewBox="0 0 32 32" fill="none" xmlns="http://www.w3.org/2000/svg">
<path d="M16 28C21.5901 28 26.2874 24.1776 27.6209 19.0039M16 28C10.4099 28 5.71256 24.1776 4.37906 19.0039M16 28C19.3137 28 22 22.6274 22 16C22 9.37258 19.3137 4 16 4M16 28C12.6863 28 10 22.6274 10 16C10 9.37258 12.6863 4 16 4M16 4C20.4869 4 24.3987 6.46259 26.4574 10.1099M16 4C11.5131 4 7.60132 6.46259 5.54257 10.1099M26.4574 10.1099C23.653 12.5339 19.9977 14 16 14C12.0023 14 8.34703 12.5339 5.54257 10.1099M26.4574 10.1099C27.4396 11.8499 28 13.8595 28 16C28 17.0373 27.8684 18.0439 27.6209 19.0039M27.6209 19.0039C24.1778 20.913 20.2159 22 16 22C11.7841 22 7.82216 20.913 4.37906 19.0039M4.37906 19.0039C4.13162 18.0439 4 17.0373 4 16C4 13.8595 4.56043 11.8499 5.54257 10.1099" stroke="#8B5CF6" stroke-width="1.5" stroke-linecap="round" stroke-linejoin="round"/>
</svg>
