<svg width="24" height="24" viewBox="0 0 24 24" fill="none" xmlns="http://www.w3.org/2000/svg">
<path d="M4.85714 7.71429C4.85714 7.33541 5.00765 6.97204 5.27556 6.70413C5.54347 6.43622 5.90683 6.28571 6.28571 6.28571H17.7143C18.0932 6.28571 18.4565 6.43622 18.7244 6.70413C18.9923 6.97204 19.1429 7.33541 19.1429 7.71429V10.5714C19.1429 10.9503 18.9923 11.3137 18.7244 11.5816C18.4565 11.8495 18.0932 12 17.7143 12H6.28571C5.90683 12 5.54347 11.8495 5.27556 11.5816C5.00765 11.3137 4.85714 10.9503 4.85714 10.5714V7.71429ZM17.7143 7.71429H6.28571V10.5714H17.7143V7.71429ZM14.8571 13.4286C14.4783 13.4286 14.1149 13.5791 13.847 13.847C13.5791 14.1149 13.4286 14.4783 13.4286 14.8571V16.2857C13.4286 16.6646 13.5791 17.028 13.847 17.2959C14.1149 17.5638 14.4783 17.7143 14.8571 17.7143H17.7143C18.0932 17.7143 18.4565 17.5638 18.7244 17.2959C18.9923 17.028 19.1429 16.6646 19.1429 16.2857V14.8571C19.1429 14.4783 18.9923 14.1149 18.7244 13.847C18.4565 13.5791 18.0932 13.4286 17.7143 13.4286H14.8571ZM14.8571 14.8571H17.7143V16.2857H14.8571V14.8571ZM4.85714 14.1429C4.85714 13.9534 4.9324 13.7717 5.06635 13.6378C5.20031 13.5038 5.38199 13.4286 5.57143 13.4286H11.2857C11.4752 13.4286 11.6568 13.5038 11.7908 13.6378C11.9247 13.7717 12 13.9534 12 14.1429C12 14.3323 11.9247 14.514 11.7908 14.6479C11.6568 14.7819 11.4752 14.8571 11.2857 14.8571H5.57143C5.38199 14.8571 5.20031 14.7819 5.06635 14.6479C4.9324 14.514 4.85714 14.3323 4.85714 14.1429ZM5.57143 16.2857C5.38199 16.2857 5.20031 16.361 5.06635 16.4949C4.9324 16.6289 4.85714 16.8106 4.85714 17C4.85714 17.1894 4.9324 17.3711 5.06635 17.5051C5.20031 17.639 5.38199 17.7143 5.57143 17.7143H11.2857C11.4752 17.7143 11.6568 17.639 11.7908 17.5051C11.9247 17.3711 12 17.1894 12 17C12 16.8106 11.9247 16.6289 11.7908 16.4949C11.6568 16.361 11.4752 16.2857 11.2857 16.2857H5.57143ZM2 6.28571C2 5.14907 2.45153 4.05898 3.25526 3.25526C4.05898 2.45153 5.14907 2 6.28571 2H17.7143C18.8509 2 19.941 2.45153 20.7447 3.25526C21.5485 4.05898 22 5.14907 22 6.28571V17.7143C22 18.8509 21.5485 19.941 20.7447 20.7447C19.941 21.5485 18.8509 22 17.7143 22H6.28571C5.14907 22 4.05898 21.5485 3.25526 20.7447C2.45153 19.941 2 18.8509 2 17.7143V6.28571ZM6.28571 3.42857C5.52795 3.42857 4.80123 3.72959 4.26541 4.26541C3.72959 4.80123 3.42857 5.52795 3.42857 6.28571V17.7143C3.42857 18.472 3.72959 19.1988 4.26541 19.7346C4.80123 20.2704 5.52795 20.5714 6.28571 20.5714H17.7143C18.472 20.5714 19.1988 20.2704 19.7346 19.7346C20.2704 19.1988 20.5714 18.472 20.5714 17.7143V6.28571C20.5714 5.52795 20.2704 4.80123 19.7346 4.26541C19.1988 3.72959 18.472 3.42857 17.7143 3.42857H6.28571Z" fill="#22C55E"/>
</svg>
