<svg width="24" height="24" viewBox="0 0 24 24" fill="none" xmlns="http://www.w3.org/2000/svg">
<path d="M17 12C17 12.9889 16.7068 13.9556 16.1574 14.7779C15.6079 15.6001 14.827 16.241 13.9134 16.6194C12.9998 16.9978 11.9945 17.0969 11.0246 16.9039C10.0546 16.711 9.16373 16.2348 8.46447 15.5355C7.76521 14.8363 7.289 13.9454 7.09608 12.9755C6.90315 12.0055 7.00217 11.0002 7.3806 10.0866C7.75904 9.17295 8.39991 8.39206 9.22215 7.84265C10.0444 7.29324 11.0111 7 12 7" stroke="#22C55E" stroke-width="1.5" stroke-linecap="round" stroke-linejoin="round"/>
<path d="M14 2.2C13.3533 2.068 12.6867 2.00133 12 2C6.477 2 2 6.477 2 12C2 17.523 6.477 22 12 22C17.523 22 22 17.523 22 12C21.9987 11.3133 21.932 10.6467 21.8 10" stroke="#22C55E" stroke-width="1.5" stroke-linecap="round" stroke-linejoin="round"/>
<path d="M12.03 11.962L16.583 7.40896M19.74 4.34496L19.187 2.35696C19.1649 2.28123 19.1245 2.21211 19.0693 2.15573C19.0141 2.09934 18.9459 2.05743 18.8706 2.0337C18.7954 2.00997 18.7155 2.00515 18.6379 2.01968C18.5604 2.0342 18.4876 2.06761 18.426 2.11696C16.99 3.28996 15.426 4.87096 16.703 7.36396C19.277 8.56396 20.747 6.94596 21.873 5.58496C21.924 5.52228 21.9585 5.44788 21.9734 5.36851C21.9884 5.28914 21.9833 5.20729 21.9587 5.13036C21.9341 5.05343 21.8907 4.98385 21.8324 4.92791C21.7742 4.87197 21.7029 4.83143 21.625 4.80996L19.74 4.34496Z" stroke="#22C55E" stroke-width="1.5" stroke-linecap="round" stroke-linejoin="round"/>
</svg>
