<svg width="24" height="24" viewBox="0 0 24 24" fill="none" xmlns="http://www.w3.org/2000/svg">
<mask id="path-1-inside-1_11092_2660" fill="white">
<path d="M11.2275 20.4319C11.187 20.5941 11.0933 20.7382 10.9615 20.8411C10.8297 20.944 10.6673 21 10.5 21C10.4368 21.0003 10.3738 20.9927 10.3125 20.9775L7.31251 20.2275C7.22899 20.2065 7.14971 20.1713 7.07814 20.1234L4.82814 18.6234C4.66267 18.513 4.54783 18.3414 4.50889 18.1463C4.46994 17.9513 4.51009 17.7487 4.62048 17.5833C4.73088 17.4178 4.90249 17.303 5.09755 17.264C5.29262 17.2251 5.49517 17.2652 5.66064 17.3756L7.80189 18.8034L10.6763 19.5225C10.7723 19.5458 10.8628 19.5878 10.9425 19.6462C11.0223 19.7045 11.0897 19.7781 11.1409 19.8626C11.1921 19.9471 11.2262 20.0409 11.241 20.1386C11.2559 20.2363 11.2513 20.3359 11.2275 20.4319ZM23.6672 11.3887C23.6057 11.5757 23.5077 11.7485 23.379 11.8974C23.2502 12.0462 23.0933 12.1681 22.9172 12.2559L20.6972 13.3659L15.5335 18.5306C15.4418 18.6222 15.328 18.6884 15.2031 18.7229C15.0783 18.7574 14.9466 18.759 14.8209 18.7275L8.82095 17.2275C8.72971 17.2046 8.64354 17.1648 8.56689 17.1103L3.36189 13.394L1.08564 12.2559C0.72989 12.0781 0.459333 11.7662 0.333457 11.389C0.207581 11.0117 0.236691 10.5999 0.414388 10.244L2.74408 5.58561C2.92191 5.22986 3.23375 4.9593 3.61103 4.83343C3.98831 4.70755 4.40013 4.73666 4.75595 4.91436L6.82408 5.94561L11.7928 4.52623C11.9276 4.48768 12.0705 4.48768 12.2053 4.52623L17.1741 5.94561L19.2422 4.91436C19.598 4.73666 20.0098 4.70755 20.3871 4.83343C20.7644 4.9593 21.0762 5.22986 21.2541 5.58561L23.5838 10.244C23.6726 10.4199 23.7257 10.6116 23.7401 10.808C23.7544 11.0045 23.7296 11.2019 23.6672 11.3887ZM19.3378 12.6019L16.7869 7.49998H13.8038L9.75001 11.4375C10.9369 12.1959 12.7978 12.405 14.4675 10.7222C14.5979 10.5907 14.7723 10.5122 14.9572 10.5016C15.142 10.4911 15.3242 10.5492 15.4688 10.665L18.6947 13.2497L19.3378 12.6019ZM1.75595 10.9144L3.41439 11.744L5.74408 7.08561L4.08564 6.25592L1.75595 10.9144ZM17.625 14.3119L15.0272 12.2315C13.1953 13.7315 10.8694 13.9294 8.94189 12.7003C8.75229 12.5797 8.5922 12.418 8.47347 12.2272C8.35473 12.0365 8.28038 11.8214 8.2559 11.5981C8.23142 11.3747 8.25744 11.1487 8.33204 10.9367C8.40664 10.7247 8.52791 10.5322 8.68689 10.3734C8.68915 10.3707 8.69166 10.3682 8.69439 10.3659L12.9 6.28686L12 6.02998L7.27314 7.38092L4.7072 12.5119L9.3197 15.8072L14.7703 17.1694L17.625 14.3119ZM22.2413 10.9144L19.9144 6.25592L18.256 7.08561L20.5856 11.744L22.2413 10.9144Z"/>
</mask>
<path d="M11.2275 20.4319C11.187 20.5941 11.0933 20.7382 10.9615 20.8411C10.8297 20.944 10.6673 21 10.5 21C10.4368 21.0003 10.3738 20.9927 10.3125 20.9775L7.31251 20.2275C7.22899 20.2065 7.14971 20.1713 7.07814 20.1234L4.82814 18.6234C4.66267 18.513 4.54783 18.3414 4.50889 18.1463C4.46994 17.9513 4.51009 17.7487 4.62048 17.5833C4.73088 17.4178 4.90249 17.303 5.09755 17.264C5.29262 17.2251 5.49517 17.2652 5.66064 17.3756L7.80189 18.8034L10.6763 19.5225C10.7723 19.5458 10.8628 19.5878 10.9425 19.6462C11.0223 19.7045 11.0897 19.7781 11.1409 19.8626C11.1921 19.9471 11.2262 20.0409 11.241 20.1386C11.2559 20.2363 11.2513 20.3359 11.2275 20.4319ZM23.6672 11.3887C23.6057 11.5757 23.5077 11.7485 23.379 11.8974C23.2502 12.0462 23.0933 12.1681 22.9172 12.2559L20.6972 13.3659L15.5335 18.5306C15.4418 18.6222 15.328 18.6884 15.2031 18.7229C15.0783 18.7574 14.9466 18.759 14.8209 18.7275L8.82095 17.2275C8.72971 17.2046 8.64354 17.1648 8.56689 17.1103L3.36189 13.394L1.08564 12.2559C0.72989 12.0781 0.459333 11.7662 0.333457 11.389C0.207581 11.0117 0.236691 10.5999 0.414388 10.244L2.74408 5.58561C2.92191 5.22986 3.23375 4.9593 3.61103 4.83343C3.98831 4.70755 4.40013 4.73666 4.75595 4.91436L6.82408 5.94561L11.7928 4.52623C11.9276 4.48768 12.0705 4.48768 12.2053 4.52623L17.1741 5.94561L19.2422 4.91436C19.598 4.73666 20.0098 4.70755 20.3871 4.83343C20.7644 4.9593 21.0762 5.22986 21.2541 5.58561L23.5838 10.244C23.6726 10.4199 23.7257 10.6116 23.7401 10.808C23.7544 11.0045 23.7296 11.2019 23.6672 11.3887ZM19.3378 12.6019L16.7869 7.49998H13.8038L9.75001 11.4375C10.9369 12.1959 12.7978 12.405 14.4675 10.7222C14.5979 10.5907 14.7723 10.5122 14.9572 10.5016C15.142 10.4911 15.3242 10.5492 15.4688 10.665L18.6947 13.2497L19.3378 12.6019ZM1.75595 10.9144L3.41439 11.744L5.74408 7.08561L4.08564 6.25592L1.75595 10.9144ZM17.625 14.3119L15.0272 12.2315C13.1953 13.7315 10.8694 13.9294 8.94189 12.7003C8.75229 12.5797 8.5922 12.418 8.47347 12.2272C8.35473 12.0365 8.28038 11.8214 8.2559 11.5981C8.23142 11.3747 8.25744 11.1487 8.33204 10.9367C8.40664 10.7247 8.52791 10.5322 8.68689 10.3734C8.68915 10.3707 8.69166 10.3682 8.69439 10.3659L12.9 6.28686L12 6.02998L7.27314 7.38092L4.7072 12.5119L9.3197 15.8072L14.7703 17.1694L17.625 14.3119ZM22.2413 10.9144L19.9144 6.25592L18.256 7.08561L20.5856 11.744L22.2413 10.9144Z" fill="#111827"/>
<path d="M11.2275 20.4319L12.6827 20.7956L12.6834 20.7928L11.2275 20.4319ZM10.5 21L10.4998 19.5L10.4929 19.5L10.5 21ZM10.3125 20.9775L9.94871 22.4327L9.95067 22.4332L10.3125 20.9775ZM7.31251 20.2275L6.94715 21.6823L6.94871 21.6827L7.31251 20.2275ZM7.07814 20.1234L7.91225 18.8767L7.91019 18.8753L7.07814 20.1234ZM4.82814 18.6234L3.99566 19.8712L3.99609 19.8715L4.82814 18.6234ZM5.66064 17.3756L4.82816 18.6234L4.82846 18.6236L5.66064 17.3756ZM7.80189 18.8034L6.96971 20.0514L7.18585 20.1955L7.43786 20.2586L7.80189 18.8034ZM10.6763 19.5225L10.3122 20.9777L10.3228 20.9803L10.6763 19.5225ZM23.6672 11.3887L22.2445 10.9134L22.2424 10.9197L23.6672 11.3887ZM22.9172 12.2559L22.2476 10.9137L22.2464 10.9143L22.9172 12.2559ZM20.6972 13.3659L20.0264 12.0243L19.8086 12.1332L19.6364 12.3054L20.6972 13.3659ZM15.5335 18.5306L16.5936 19.5918L16.5942 19.5912L15.5335 18.5306ZM14.8209 18.7275L15.1858 17.2725L15.1848 17.2723L14.8209 18.7275ZM8.82095 17.2275L8.45571 18.6823L8.45715 18.6827L8.82095 17.2275ZM8.56689 17.1103L7.69528 18.3311L7.69731 18.3325L8.56689 17.1103ZM3.36189 13.394L4.2335 12.1733L4.13784 12.105L4.03271 12.0524L3.36189 13.394ZM1.08564 12.2559L1.75646 10.9143L1.75635 10.9142L1.08564 12.2559ZM0.414388 10.244L-0.927199 9.57311L-0.927573 9.57386L0.414388 10.244ZM2.74408 5.58561L4.08566 6.25653L4.08577 6.25632L2.74408 5.58561ZM4.75595 4.91436L4.08577 6.25632L4.08659 6.25673L4.75595 4.91436ZM6.82408 5.94561L6.15472 7.28798L6.676 7.54791L7.23609 7.38791L6.82408 5.94561ZM11.7928 4.52623L12.2048 5.96854L12.2053 5.9684L11.7928 4.52623ZM12.2053 4.52623L11.7928 5.9684L11.7933 5.96854L12.2053 4.52623ZM17.1741 5.94561L16.7621 7.38791L17.3222 7.54791L17.8434 7.28798L17.1741 5.94561ZM19.2422 4.91436L19.9116 6.25673L19.9124 6.25632L19.2422 4.91436ZM21.2541 5.58561L19.9124 6.25632L19.9125 6.25653L21.2541 5.58561ZM23.5838 10.244L22.2422 10.915L22.245 10.9206L23.5838 10.244ZM19.3378 12.6019L20.4023 13.6587L21.1611 12.8943L20.6795 11.931L19.3378 12.6019ZM16.7869 7.49998L18.1285 6.82916L17.7139 5.99998H16.7869V7.49998ZM13.8038 7.49998V5.99998H13.1952L12.7586 6.42401L13.8038 7.49998ZM9.75001 11.4375L8.70489 10.3615L7.34603 11.6814L8.94231 12.7015L9.75001 11.4375ZM14.4675 10.7222L15.5323 11.7787L15.5324 11.7786L14.4675 10.7222ZM15.4688 10.665L16.4067 9.49438L16.4064 9.49416L15.4688 10.665ZM18.6947 13.2497L17.7568 14.4203L18.8092 15.2634L19.7592 14.3065L18.6947 13.2497ZM1.75595 10.9144L0.414364 10.2434L-0.256467 11.5848L1.08483 12.2558L1.75595 10.9144ZM3.41439 11.744L2.74326 13.0855L4.08495 13.7568L4.75597 12.415L3.41439 11.744ZM5.74408 7.08561L7.08566 7.75654L7.75649 6.41514L6.4152 5.74412L5.74408 7.08561ZM4.08564 6.25592L4.75676 4.91443L3.41508 4.24321L2.74405 5.58499L4.08564 6.25592ZM17.625 14.3119L18.6862 15.372L19.8695 14.1875L18.5626 13.141L17.625 14.3119ZM15.0272 12.2315L15.9648 11.0607L15.0167 10.3014L14.0769 11.071L15.0272 12.2315ZM8.94189 12.7003L9.74835 11.4355L9.74697 11.4347L8.94189 12.7003ZM8.68689 10.3734L9.74697 11.4347L9.7974 11.3843L9.84282 11.3294L8.68689 10.3734ZM8.69439 10.3659L9.65032 11.5219L9.69609 11.484L9.73872 11.4427L8.69439 10.3659ZM12.9 6.28686L13.9443 7.36359L15.8073 5.55673L13.3117 4.84446L12.9 6.28686ZM12 6.02998L12.4117 4.58758L11.9997 4.47L11.5878 4.58773L12 6.02998ZM7.27314 7.38092L6.86094 5.93867L6.22662 6.11995L5.93155 6.71L7.27314 7.38092ZM4.7072 12.5119L3.36561 11.8409L2.79233 12.9873L3.83523 13.7324L4.7072 12.5119ZM9.3197 15.8072L8.44773 17.0277L8.67958 17.1933L8.95602 17.2624L9.3197 15.8072ZM14.7703 17.1694L14.4066 18.6246L15.231 18.8306L15.8315 18.2295L14.7703 17.1694ZM22.2413 10.9144L22.9133 12.2554L24.2526 11.5842L23.5832 10.2441L22.2413 10.9144ZM19.9144 6.25592L21.2563 5.58564L20.5856 4.24288L19.2433 4.91443L19.9144 6.25592ZM18.256 7.08561L17.5848 5.74412L16.2435 6.41514L16.9144 7.75654L18.256 7.08561ZM20.5856 11.744L19.2441 12.415L19.9155 13.7577L21.2577 13.0851L20.5856 11.744ZM9.77229 20.0681C9.81284 19.9058 9.90647 19.7618 10.0383 19.6589L11.8847 22.0233C12.2802 21.7145 12.5611 21.2824 12.6827 20.7956L9.77229 20.0681ZM10.0383 19.6589C10.1701 19.5559 10.3325 19.5 10.4998 19.5L10.5002 22.5C11.002 22.4999 11.4893 22.3321 11.8847 22.0233L10.0383 19.6589ZM10.4929 19.5C10.554 19.4997 10.615 19.507 10.6744 19.5218L9.95067 22.4332C10.1327 22.4784 10.3196 22.5009 10.5072 22.5L10.4929 19.5ZM10.6763 19.5223L7.67632 18.7723L6.94871 21.6827L9.94871 22.4327L10.6763 19.5223ZM7.67788 18.7727C7.7614 18.7936 7.84068 18.8288 7.91225 18.8767L6.24403 21.3701C6.45874 21.5138 6.69659 21.6194 6.94715 21.6823L7.67788 18.7727ZM7.91019 18.8753L5.66019 17.3753L3.99609 19.8715L6.24609 21.3715L7.91019 18.8753ZM5.66062 17.3756C5.82608 17.486 5.94092 17.6576 5.97986 17.8527L3.03791 18.44C3.15474 19.0252 3.49925 19.54 3.99566 19.8712L5.66062 17.3756ZM5.97986 17.8527C6.0188 18.0477 5.97866 18.2503 5.86827 18.4157L3.37269 16.7508C3.04151 17.2472 2.92109 17.8548 3.03791 18.44L5.97986 17.8527ZM5.86827 18.4157C5.75788 18.5812 5.58628 18.696 5.39122 18.735L4.80389 15.793C4.2187 15.9099 3.70388 16.2544 3.37269 16.7508L5.86827 18.4157ZM5.39122 18.735C5.19616 18.7739 4.99362 18.7338 4.82816 18.6234L6.49312 16.1278C5.99672 15.7966 5.38908 15.6762 4.80389 15.793L5.39122 18.735ZM4.82846 18.6236L6.96971 20.0514L8.63406 17.5554L6.49281 16.1276L4.82846 18.6236ZM7.43786 20.2586L10.3122 20.9776L11.0403 18.0673L8.16591 17.3483L7.43786 20.2586ZM10.3228 20.9803C10.2268 20.957 10.1363 20.9149 10.0566 20.8566L11.8285 18.4358C11.5893 18.2607 11.3178 18.1346 11.0297 18.0647L10.3228 20.9803ZM10.0566 20.8566C9.97684 20.7982 9.90942 20.7247 9.85819 20.6402L12.4236 19.085C12.27 18.8315 12.0677 18.6108 11.8285 18.4358L10.0566 20.8566ZM9.85819 20.6402C9.80697 20.5556 9.77295 20.4619 9.75808 20.3642L12.724 19.913C12.6794 19.6199 12.5773 19.3385 12.4236 19.085L9.85819 20.6402ZM9.75808 20.3642C9.74322 20.2665 9.74781 20.1668 9.7716 20.0709L12.6834 20.7928C12.7548 20.5051 12.7685 20.2061 12.724 19.913L9.75808 20.3642ZM22.2424 10.9197C22.2429 10.9184 22.2435 10.9172 22.2444 10.9161L24.5135 12.8786C24.7719 12.5799 24.9685 12.2329 25.092 11.8578L22.2424 10.9197ZM22.2444 10.9161C22.2453 10.9151 22.2464 10.9143 22.2476 10.9137L23.5868 13.5982C23.9402 13.4219 24.2552 13.1773 24.5135 12.8786L22.2444 10.9161ZM22.2464 10.9143L20.0264 12.0243L21.368 14.7076L23.588 13.5976L22.2464 10.9143ZM19.6364 12.3054L14.4727 17.47L16.5942 19.5912L21.758 14.4265L19.6364 12.3054ZM14.4733 17.4694C14.565 17.3779 14.6788 17.3116 14.8036 17.2771L15.6026 20.1687C15.9772 20.0652 16.3186 19.8665 16.5936 19.5918L14.4733 17.4694ZM14.8036 17.2771C14.9285 17.2426 15.0602 17.241 15.1858 17.2725L14.4561 20.1824C14.833 20.277 15.228 20.2722 15.6026 20.1687L14.8036 17.2771ZM15.1848 17.2723L9.18475 15.7723L8.45715 18.6827L14.4571 20.1827L15.1848 17.2723ZM9.18619 15.7726C9.27607 15.7952 9.36095 15.8343 9.43647 15.8881L7.69731 18.3325C7.92613 18.4953 8.18334 18.614 8.45571 18.6823L9.18619 15.7726ZM9.4385 15.8895L4.2335 12.1733L2.49028 14.6148L7.69528 18.3311L9.4385 15.8895ZM4.03271 12.0524L1.75646 10.9143L0.414818 13.5976L2.69107 14.7357L4.03271 12.0524ZM1.75635 10.9142L-1.08944 11.8637C-0.837683 12.6183 -0.296568 13.2419 0.414927 13.5976L1.75635 10.9142ZM1.75635 10.9142L-0.927573 9.57386C-1.28297 10.2855 -1.34119 11.1091 -1.08944 11.8637L1.75635 10.9142ZM1.75597 10.915L4.08566 6.25653L1.40249 4.91468L-0.927199 9.57311L1.75597 10.915ZM4.08577 6.25632V6.25632L3.13629 3.41053C2.38174 3.66229 1.75806 4.2034 1.40238 4.9149L4.08577 6.25632ZM4.08577 6.25632L5.42613 3.5724C4.71449 3.217 3.89085 3.15878 3.13629 3.41053L4.08577 6.25632ZM4.08659 6.25673L6.15472 7.28798L7.49343 4.60324L5.42531 3.57199L4.08659 6.25673ZM7.23609 7.38791L12.2048 5.96854L11.3808 3.08392L6.41207 4.5033L7.23609 7.38791ZM12.2053 5.9684C12.0705 6.00695 11.9276 6.00695 11.7928 5.9684L12.6178 3.08406C12.2134 2.9684 11.7847 2.9684 11.3803 3.08406L12.2053 5.9684ZM11.7933 5.96854L16.7621 7.38791L17.5861 4.5033L12.6173 3.08392L11.7933 5.96854ZM17.8434 7.28798L19.9116 6.25673L18.5728 3.57199L16.5047 4.60324L17.8434 7.28798ZM19.9124 6.25632L20.8619 3.41053C20.1073 3.15878 19.2837 3.217 18.572 3.5724L19.9124 6.25632ZM19.9124 6.25632V6.25632L22.5958 4.9149C22.2401 4.2034 21.6164 3.66228 20.8619 3.41053L19.9124 6.25632ZM19.9125 6.25653L22.2422 10.915L24.9254 9.57311L22.5957 4.91468L19.9125 6.25653ZM22.245 10.9206C22.2445 10.9195 22.2441 10.9183 22.244 10.9171L25.2361 10.699C25.2074 10.3048 25.1008 9.9202 24.9225 9.56746L22.245 10.9206ZM22.244 10.9171C22.2439 10.9158 22.2441 10.9146 22.2445 10.9134L25.0899 11.864C25.2151 11.4892 25.2648 11.0932 25.2361 10.699L22.244 10.9171ZM20.6795 11.931L18.1285 6.82916L15.4452 8.1708L17.9962 13.2727L20.6795 11.931ZM16.7869 5.99998H13.8038V8.99998H16.7869V5.99998ZM12.7586 6.42401L8.70489 10.3615L10.7951 12.5135L14.8489 8.57596L12.7586 6.42401ZM8.94231 12.7015C9.77403 13.2329 10.8557 13.5822 12.0428 13.4909C13.2537 13.3977 14.4656 12.8538 15.5323 11.7787L13.4027 9.66567C12.7998 10.2733 12.2463 10.4663 11.8126 10.4997C11.3551 10.5349 10.9129 10.4005 10.5577 10.1735L8.94231 12.7015ZM15.5324 11.7786C15.402 11.9101 15.2276 11.9886 15.0427 11.9992L14.8716 9.00405C14.3171 9.03573 13.7939 9.27141 13.4027 9.66572L15.5324 11.7786ZM15.0427 11.9992C14.8579 12.0097 14.6756 11.9515 14.5311 11.8358L16.4064 9.49416C15.9729 9.14695 15.4262 8.97238 14.8716 9.00405L15.0427 11.9992ZM14.5308 11.8356L17.7568 14.4203L19.6326 12.0791L16.4067 9.49438L14.5308 11.8356ZM19.7592 14.3065L20.4023 13.6587L18.2733 11.5451L17.6302 12.1929L19.7592 14.3065ZM1.08483 12.2558L2.74326 13.0855L4.08551 10.4026L2.42707 9.57287L1.08483 12.2558ZM4.75597 12.415L7.08566 7.75654L4.40249 6.41468L2.0728 11.0731L4.75597 12.415ZM6.4152 5.74412L4.75676 4.91443L3.41451 7.59741L5.07295 8.4271L6.4152 5.74412ZM2.74405 5.58499L0.414364 10.2434L3.09754 11.5853L5.42722 6.92685L2.74405 5.58499ZM18.5626 13.141L15.9648 11.0607L14.0896 13.4024L16.6874 15.4827L18.5626 13.141ZM14.0769 11.071C12.7081 12.1918 11.0885 12.2901 9.74835 11.4355L8.13542 13.9651C10.6503 15.5686 13.6825 15.2713 15.9775 13.3921L14.0769 11.071ZM9.74697 11.4347L7.19996 13.0198C7.43743 13.4014 7.7576 13.7247 8.1368 13.9659L9.74697 11.4347ZM9.74697 11.4347L6.76482 11.7615C6.81378 12.2082 6.96249 12.6383 7.19996 13.0198L9.74697 11.4347ZM9.74697 11.4347L6.9171 10.4387C6.76791 10.8627 6.71587 11.3147 6.76482 11.7615L9.74697 11.4347ZM9.74697 11.4347H9.74697L7.6268 9.31218C7.30884 9.6298 7.0663 10.0148 6.9171 10.4387L9.74697 11.4347ZM9.84282 11.3294C9.78496 11.3993 9.72052 11.4638 9.65032 11.5219L7.73845 9.20998C7.66279 9.27255 7.59334 9.34205 7.53095 9.41748L9.84282 11.3294ZM9.73872 11.4427L13.9443 7.36359L11.8557 5.21012L7.65005 9.28918L9.73872 11.4427ZM13.3117 4.84446L12.4117 4.58758L11.5883 7.47238L12.4883 7.72926L13.3117 4.84446ZM11.5878 4.58773L6.86094 5.93867L7.68533 8.82317L12.4122 7.47223L11.5878 4.58773ZM5.93155 6.71L3.36561 11.8409L6.04879 13.1828L8.61473 8.05184L5.93155 6.71ZM3.83523 13.7324L8.44773 17.0277L10.1917 14.5867L5.57917 11.2913L3.83523 13.7324ZM8.95602 17.2624L14.4066 18.6246L15.134 15.7141L9.68339 14.3519L8.95602 17.2624ZM15.8315 18.2295L18.6862 15.372L16.5638 13.2517L13.7091 16.1092L15.8315 18.2295ZM23.5832 10.2441L21.2563 5.58564L18.5725 6.9262L20.8994 11.5846L23.5832 10.2441ZM19.2433 4.91443L17.5848 5.74412L18.9271 8.4271L20.5855 7.59741L19.2433 4.91443ZM16.9144 7.75654L19.2441 12.415L21.9272 11.0731L19.5975 6.41468L16.9144 7.75654ZM21.2577 13.0851L22.9133 12.2554L21.5692 9.57332L19.9136 10.403L21.2577 13.0851Z" fill="#22C55E" mask="url(#path-1-inside-1_11092_2660)"/>
</svg>
