<svg width="16" height="16" viewBox="0 0 16 16" fill="none" xmlns="http://www.w3.org/2000/svg">
<g clip-path="url(#clip0_20396_12208)">
<path d="M14 7.5V13C14 13.5523 13.5523 14 13 14H3.5C2.94772 14 2.5 13.5523 2.5 13V7.5M8 3.25C8 2.2835 7.2165 1.5 6.25 1.5C5.2835 1.5 4.5 2.2835 4.5 3.25C4.5 4.2165 5.2835 5 6.25 5C6.73967 5 8 5 8 5M8 3.25C8 3.72683 8 5 8 5M8 3.25C8 2.2835 8.7835 1.5 9.75 1.5C10.7165 1.5 11.5 2.2835 11.5 3.25C11.5 4.2165 10.7165 5 9.75 5C9.26033 5 8 5 8 5M8 5V14M2.25 7.5H14.25C14.6642 7.5 15 7.16421 15 6.75V5.75C15 5.33579 14.6642 5 14.25 5H2.25C1.83579 5 1.5 5.33579 1.5 5.75V6.75C1.5 7.16421 1.83579 7.5 2.25 7.5Z" stroke="#7C3AED" stroke-linecap="round" stroke-linejoin="round"/>
</g>
<defs>
<clipPath id="clip0_20396_12208">
<rect width="16" height="16" fill="white"/>
</clipPath>
</defs>
</svg>
