<svg width="40" height="40" viewBox="0 0 40 40" fill="none" xmlns="http://www.w3.org/2000/svg">
<path d="M25 31.8793C26.3882 32.2833 27.8563 32.5 29.3749 32.5C31.8395 32.5 34.1709 31.9294 36.244 30.913C36.2479 30.8175 36.2499 30.7215 36.2499 30.625C36.2499 26.828 33.1719 23.75 29.3749 23.75C27.0115 23.75 24.9267 24.9425 23.6893 26.7587M25 31.8793V31.875C25 30.0202 24.5247 28.2763 23.6893 26.7587M25 31.8793C25 31.9387 24.9995 31.998 24.9985 32.0572C21.8956 33.9254 18.2608 35 14.375 35C10.4892 35 6.8544 33.9254 3.75153 32.0572C3.75051 31.9966 3.75 31.9359 3.75 31.875C3.75 26.007 8.50697 21.25 14.375 21.25C18.3882 21.25 21.8817 23.475 23.6893 26.7587M20 10.625C20 13.7316 17.4816 16.25 14.375 16.25C11.2684 16.25 8.75 13.7316 8.75 10.625C8.75 7.5184 11.2684 5 14.375 5C17.4816 5 20 7.5184 20 10.625ZM33.75 14.375C33.75 16.7912 31.7912 18.75 29.375 18.75C26.9588 18.75 25 16.7912 25 14.375C25 11.9588 26.9588 10 29.375 10C31.7912 10 33.75 11.9588 33.75 14.375Z" stroke="#8B5CF6" stroke-width="2" stroke-linecap="round" stroke-linejoin="round"/>
</svg>
