<svg width="40" height="40" viewBox="0 0 40 40" fill="none" xmlns="http://www.w3.org/2000/svg">
<path fill-rule="evenodd" clip-rule="evenodd" d="M19.168 11.8571C19.878 11.8571 20.4537 12.4328 20.4537 13.1429V26.8571C20.4537 27.5672 19.878 28.1429 19.168 28.1429C18.4579 28.1429 17.8823 27.5672 17.8823 26.8571V13.1429C17.8823 12.4328 18.4579 11.8571 19.168 11.8571Z" fill="#8B5CF6"/>
<path fill-rule="evenodd" clip-rule="evenodd" d="M12.3108 17C13.0209 17 13.5965 17.5756 13.5965 18.2857V26.8571C13.5965 27.5672 13.0209 28.1429 12.3108 28.1429C11.6007 28.1429 11.0251 27.5672 11.0251 26.8571V18.2857C11.0251 17.5756 11.6007 17 12.3108 17Z" fill="#8B5CF6"/>
<path fill-rule="evenodd" clip-rule="evenodd" d="M26.0251 22.1429C26.7352 22.1429 27.3108 22.7185 27.3108 23.4286V26.8571C27.3108 27.5672 26.7352 28.1429 26.0251 28.1429C25.315 28.1429 24.7394 27.5672 24.7394 26.8571V23.4286C24.7394 22.7185 25.315 22.1429 26.0251 22.1429Z" fill="#8B5CF6"/>
<path fill-rule="evenodd" clip-rule="evenodd" d="M4.16797 8C4.16797 6.34315 5.51112 5 7.16797 5H21.7394C22.4495 5 23.0251 5.57563 23.0251 6.28571C23.0251 6.99579 22.4495 7.57143 21.7394 7.57143H7.16797C6.93128 7.57143 6.7394 7.76331 6.7394 8V32C6.7394 32.2367 6.93128 32.4286 7.16797 32.4286H31.168C31.4047 32.4286 31.5965 32.2367 31.5965 32V17.8588C31.5965 17.1487 32.1722 16.5731 32.8823 16.5731C33.5923 16.5731 34.168 17.1487 34.168 17.8588V32C34.168 33.6569 32.8248 35 31.168 35H7.16797C5.51111 35 4.16797 33.6569 4.16797 32V8Z" fill="#8B5CF6"/>
<path d="M35.6501 8.27089C36.1932 7.76279 36.1932 6.9013 35.6501 6.3932L35.498 6.25088C35.0037 5.7884 34.2355 5.7884 33.7411 6.25088L28.6138 11.0483L26.3659 8.94506C25.8716 8.48257 25.1034 8.48257 24.6091 8.94506L24.457 9.08737C23.9139 9.59548 23.9139 10.457 24.457 10.9651L26.5798 12.9513L26.5764 12.9545L28.3175 14.5836C28.4823 14.7378 28.7384 14.7378 28.9031 14.5836L35.6501 8.27089Z" fill="#8B5CF6"/>
</svg>
