<svg width="24" height="24" viewBox="0 0 24 24" fill="none" xmlns="http://www.w3.org/2000/svg">
<path d="M21 12C21 8.314 20.881 5.7375 20.7685 4.124C20.68 2.849 19.728 1.8545 18.455 1.743C17.0605 1.62 14.9425 1.5 12 1.5C9.0575 1.5 6.94 1.62 5.545 1.743C4.272 1.8545 3.32 2.849 3.2315 4.124C3.119 5.7375 3 8.314 3 12M21 12C21 15.686 20.881 18.2625 20.7685 19.876C20.68 21.151 19.728 22.1455 18.455 22.257C17.06 22.38 14.9425 22.5 12 22.5C9.0575 22.5 6.9395 22.38 5.545 22.257C4.272 22.1455 3.32 21.151 3.2315 19.876C3.119 18.2625 3 15.686 3 12M21 12H3" stroke="#8B5CF6" stroke-width="1.5" stroke-linecap="round" stroke-linejoin="round"/>
<path d="M20.725 20.209C18.6865 18.174 17.2815 17.054 16.403 16.4485C15.693 15.9585 14.817 16.0385 14.1555 16.5935C13.384 17.24 12.1405 18.359 10.25 20.25C9.53523 20.9625 8.8323 21.6868 8.1415 22.4225M6.5 8.5H17.5M6.5 5.25H12.5M9 16.5C9 16.8978 8.84196 17.2794 8.56066 17.5607C8.27936 17.842 7.89782 18 7.5 18C7.10218 18 6.72064 17.842 6.43934 17.5607C6.15804 17.2794 6 16.8978 6 16.5C6 16.1022 6.15804 15.7206 6.43934 15.4393C6.72064 15.158 7.10218 15 7.5 15C7.89782 15 8.27936 15.158 8.56066 15.4393C8.84196 15.7206 9 16.1022 9 16.5Z" stroke="#8B5CF6" stroke-width="1.5" stroke-linecap="round" stroke-linejoin="round"/>
</svg>
