<svg width="32" height="32" viewBox="0 0 32 32" fill="none" xmlns="http://www.w3.org/2000/svg">
<path d="M14.4759 17.5237H6.85682C6.01524 17.5237 5.33301 16.8415 5.33301 15.9999C5.33301 15.1583 6.01524 14.4761 6.85682 14.4761H14.4759L17.5235 14.4764L25.1425 14.4761C25.9841 14.4761 26.6663 15.1583 26.6663 15.9999C26.6663 16.8415 25.9841 17.5237 25.1426 17.5237H17.5235H14.4759Z" fill="#0F225A"/>
<path d="M14.4759 11.0476H6.85682C6.01524 11.0476 5.33301 10.3654 5.33301 9.52381C5.33301 8.68223 6.01524 8 6.85682 8H14.4759L17.5235 8.00028L25.1425 8.00005C25.9841 8.00002 26.6663 8.68225 26.6663 9.52383C26.6663 10.3654 25.9841 11.0476 25.1426 11.0476H17.5235H14.4759Z" fill="#0F225A"/>
<path d="M14.4759 24.3811H6.85682C6.01524 24.3811 5.33301 23.6989 5.33301 22.8573C5.33301 22.0157 6.01524 21.3335 6.85682 21.3335H14.4759L17.5235 21.3338L25.1425 21.3335C25.9841 21.3335 26.6663 22.0157 26.6663 22.8573C26.6663 23.6989 25.9841 24.3811 25.1426 24.3811H17.5235H14.4759Z" fill="#0F225A"/>
</svg>
