<svg width="25" height="25" viewBox="0 0 25 25" fill="none" xmlns="http://www.w3.org/2000/svg">
<g id="mdi:eye">
<path id="Vector" d="M12.0957 9.75C11.3001 9.75 10.537 10.0661 9.97438 10.6287C9.41177 11.1913 9.0957 11.9544 9.0957 12.75C9.0957 13.5456 9.41177 14.3087 9.97438 14.8713C10.537 15.4339 11.3001 15.75 12.0957 15.75C12.8914 15.75 13.6544 15.4339 14.217 14.8713C14.7796 14.3087 15.0957 13.5456 15.0957 12.75C15.0957 11.9544 14.7796 11.1913 14.217 10.6287C13.6544 10.0661 12.8914 9.75 12.0957 9.75ZM12.0957 17.75C10.7696 17.75 9.49785 17.2232 8.56017 16.2855C7.62249 15.3479 7.0957 14.0761 7.0957 12.75C7.0957 11.4239 7.62249 10.1521 8.56017 9.21447C9.49785 8.27678 10.7696 7.75 12.0957 7.75C13.4218 7.75 14.6936 8.27678 15.6312 9.21447C16.5689 10.1521 17.0957 11.4239 17.0957 12.75C17.0957 14.0761 16.5689 15.3479 15.6312 16.2855C14.6936 17.2232 13.4218 17.75 12.0957 17.75ZM12.0957 5.25C7.0957 5.25 2.8257 8.36 1.0957 12.75C2.8257 17.14 7.0957 20.25 12.0957 20.25C17.0957 20.25 21.3657 17.14 23.0957 12.75C21.3657 8.36 17.0957 5.25 12.0957 5.25Z" fill="#94A3B8"/>
</g>
</svg>
