<svg width="25" height="25" viewBox="0 0 25 25" fill="none" xmlns="http://www.w3.org/2000/svg">
<g id="ph:share-bold">
<path id="Vector" d="M18.7949 21.25C18.7949 21.5235 18.6863 21.7858 18.4929 21.9792C18.2995 22.1726 18.0372 22.2813 17.7637 22.2813H4.70117C4.24603 22.279 3.81017 22.0972 3.48833 21.7754C3.16649 21.4535 2.98468 21.0177 2.98242 20.5625V10.25C2.98242 9.97653 3.09107 9.71422 3.28447 9.52083C3.47786 9.32743 3.74017 9.21878 4.01367 9.21878C4.28718 9.21878 4.54948 9.32743 4.74288 9.52083C4.93627 9.71422 5.04492 9.97653 5.04492 10.25V20.2188H17.7637C18.0372 20.2188 18.2995 20.3274 18.4929 20.5208C18.6863 20.7142 18.7949 20.9765 18.7949 21.25ZM21.3129 12.2782L21.3387 12.2352L21.373 12.2008L21.3988 12.1492L21.4246 12.1149L21.4504 12.0633C21.4504 12.0461 21.459 12.0375 21.4676 12.0203C21.4762 12.0032 21.4762 11.986 21.4848 11.9688C21.4934 11.9516 21.4934 11.943 21.502 11.9258C21.5105 11.9086 21.5105 11.8914 21.5105 11.8742C21.5105 11.8571 21.5191 11.8399 21.5277 11.8227C21.5265 11.8051 21.5294 11.7874 21.5363 11.7711V11.7282C21.545 11.6597 21.545 11.5904 21.5363 11.5219V11.4789C21.5294 11.4627 21.5265 11.445 21.5277 11.4274C21.5191 11.4102 21.5191 11.393 21.5105 11.3758C21.502 11.3586 21.502 11.3414 21.502 11.3242C21.502 11.3071 21.4934 11.2899 21.4848 11.2813C21.4762 11.2727 21.4762 11.2469 21.4676 11.2297C21.459 11.2125 21.4504 11.2039 21.4504 11.1867L21.4246 11.1352L21.3988 11.1008L21.373 11.0492L21.3387 11.0149L21.3129 10.9719L21.2527 10.9032H21.2441L17.1191 6.77816C16.9254 6.58442 16.6627 6.47559 16.3887 6.47559C16.1147 6.47559 15.8519 6.58442 15.6582 6.77816C15.4645 6.97189 15.3556 7.23465 15.3556 7.50862C15.3556 7.7826 15.4645 8.04536 15.6582 8.23909L18.0215 10.5938H15.7012C13.6431 10.5932 11.6433 11.2767 10.0161 12.5368C8.38886 13.7969 7.22662 15.562 6.71211 17.5547C6.64417 17.8191 6.68381 18.0996 6.82235 18.3348C6.96088 18.57 7.18701 18.7407 7.45117 18.8094C7.53495 18.8335 7.62182 18.8451 7.70898 18.8438C7.93771 18.8449 8.1602 18.7693 8.34092 18.6291C8.52163 18.4889 8.65012 18.2922 8.70586 18.0703C9.1062 16.5198 10.0107 15.1465 11.2771 14.1663C12.5435 13.1862 14.0998 12.655 15.7012 12.6563H18.0215L15.6582 15.0196C15.5621 15.1154 15.4858 15.2292 15.4337 15.3546C15.3817 15.4799 15.3549 15.6143 15.3549 15.75C15.3549 15.8858 15.3817 16.0201 15.4337 16.1455C15.4858 16.2708 15.5621 16.3847 15.6582 16.4805C15.8528 16.6726 16.1152 16.7803 16.3887 16.7803C16.6621 16.7803 16.9245 16.6726 17.1191 16.4805L21.2441 12.3555H21.2527L21.3129 12.2782Z" fill="#94A3B8"/>
</g>
</svg>
