<svg width="33" height="32" viewBox="0 0 33 32" fill="none" xmlns="http://www.w3.org/2000/svg">
<path d="M28.668 15V26C28.668 27.1046 27.7725 28 26.668 28H7.66797C6.5634 28 5.66797 27.1046 5.66797 26V15M16.668 6.5C16.668 4.567 15.101 3 13.168 3C11.235 3 9.66797 4.567 9.66797 6.5C9.66797 8.433 11.235 10 13.168 10C14.1473 10 16.668 10 16.668 10M16.668 6.5C16.668 7.45365 16.668 10 16.668 10M16.668 6.5C16.668 4.567 18.235 3 20.168 3C22.101 3 23.668 4.567 23.668 6.5C23.668 8.433 22.101 10 20.168 10C19.1886 10 16.668 10 16.668 10M16.668 10V28M5.16797 15H29.168C29.9964 15 30.668 14.3284 30.668 13.5V11.5C30.668 10.6716 29.9964 10 29.168 10H5.16797C4.33954 10 3.66797 10.6716 3.66797 11.5V13.5C3.66797 14.3284 4.33954 15 5.16797 15Z" stroke="#14B8A6" stroke-width="1.5" stroke-linecap="round" stroke-linejoin="round"/>
</svg>
