<svg width="33" height="32" viewBox="0 0 33 32" fill="none" xmlns="http://www.w3.org/2000/svg">
<path d="M15.8007 5.11492C15.7144 5.39469 15.668 5.69192 15.668 6C15.668 6.55228 16.1157 7 16.668 7H22.668C23.2203 7 23.668 6.55228 23.668 6C23.668 5.69192 23.6215 5.39469 23.5353 5.11492M15.8007 5.11492C16.1783 3.89009 17.3192 3 18.668 3H20.668C22.0167 3 23.1576 3.89009 23.5353 5.11492M15.8007 5.11492C15.2998 5.14478 14.8005 5.18039 14.3027 5.2217C12.7946 5.34687 11.668 6.63098 11.668 8.14429V11M23.5353 5.11492C24.0362 5.14478 24.5355 5.18039 25.0332 5.2217C26.5413 5.34687 27.668 6.63098 27.668 8.14429V22C27.668 23.6569 26.3248 25 24.668 25H21.668M11.668 11H7.16797C6.33954 11 5.66797 11.6716 5.66797 12.5V27.5C5.66797 28.3284 6.33954 29 7.16797 29H20.168C20.9964 29 21.668 28.3284 21.668 27.5V25M11.668 11H20.168C20.9964 11 21.668 11.6716 21.668 12.5V25M10.668 21L12.668 23L16.668 18" stroke="#EC5E2A" stroke-width="1.5" stroke-linecap="round" stroke-linejoin="round"/>
</svg>
