<svg width="33" height="32" viewBox="0 0 33 32" fill="none" xmlns="http://www.w3.org/2000/svg">
<path d="M9.62813 18.4382C9.30722 18.4785 8.98716 18.5215 8.66797 18.5671M9.62813 18.4382C11.9341 18.149 14.2836 18 16.668 18C19.0523 18 21.4019 18.149 23.7078 18.4382M9.62813 18.4382L9.12251 24M23.7078 18.4382C24.0287 18.4785 24.3488 18.5215 24.668 18.5671M23.7078 18.4382L24.2134 24M24.2134 24L24.5193 27.3642C24.5991 28.2426 23.9075 29 23.0254 29H10.3105C9.42847 29 8.73682 28.2426 8.81668 27.3642L9.12251 24M24.2134 24H25.668C27.3248 24 28.668 22.6569 28.668 21V12.6076C28.668 11.1663 27.6441 9.92109 26.2187 9.70781C25.3738 9.58138 24.5234 9.47147 23.668 9.37842M9.12251 24H7.66797C6.01111 24 4.66797 22.6569 4.66797 21V12.6076C4.66797 11.1663 5.69184 9.92109 7.11722 9.70781C7.96219 9.58139 8.81255 9.47147 9.66797 9.37842M23.668 9.37842C21.369 9.12833 19.0335 9 16.668 9C14.3025 9 11.9669 9.12833 9.66797 9.37842M23.668 9.37842V4.5C23.668 3.67157 22.9964 3 22.168 3H11.168C10.3395 3 9.66797 3.67157 9.66797 4.5V9.37842M24.668 14H24.678V14.01H24.668V14ZM20.668 14H20.678V14.01H20.668V14Z" stroke="#EC5E2A" stroke-width="1.5" stroke-linecap="round" stroke-linejoin="round"/>
</svg>
