<svg width="33" height="32" viewBox="0 0 33 32" fill="none" xmlns="http://www.w3.org/2000/svg">
<path d="M20.668 25.5034C21.7785 25.8267 22.953 26 24.1679 26C26.1396 26 28.0047 25.5435 29.6632 24.7304C29.6663 24.654 29.6679 24.5772 29.6679 24.5C29.6679 21.4624 27.2055 19 24.1679 19C22.2772 19 20.6093 19.954 19.6194 21.4069M20.668 25.5034V25.5C20.668 24.0161 20.2877 22.6211 19.6194 21.4069M20.668 25.5034C20.6679 25.5509 20.6675 25.5984 20.6667 25.6458C18.1844 27.1403 15.2766 28 12.168 28C9.05934 28 6.15149 27.1403 3.6692 25.6458C3.66838 25.5973 3.66797 25.5487 3.66797 25.5C3.66797 20.8056 7.47355 17 12.168 17C15.3785 17 18.1733 18.78 19.6194 21.4069M16.668 8.5C16.668 10.9853 14.6533 13 12.168 13C9.68269 13 7.66797 10.9853 7.66797 8.5C7.66797 6.01472 9.68269 4 12.168 4C14.6533 4 16.668 6.01472 16.668 8.5ZM27.668 11.5C27.668 13.433 26.101 15 24.168 15C22.235 15 20.668 13.433 20.668 11.5C20.668 9.567 22.235 8 24.168 8C26.101 8 27.668 9.567 27.668 11.5Z" stroke="#6B7280" stroke-width="1.5" stroke-linecap="round" stroke-linejoin="round"/>
</svg>
