<svg width="141" height="44" viewBox="0 0 141 44" fill="none" xmlns="http://www.w3.org/2000/svg">
<path d="M21.4452 19.8594H13.4375L17.4419 23.8627L21.4452 19.8594Z" fill="#09193A"/>
<path d="M17.4414 23.8627L25.6971 32.1184L30.2889 27.4097C30.8296 26.8558 31.1314 26.1129 31.1314 25.3384V19.8594H21.4458L17.4414 23.8637V23.8627Z" fill="#E6EAEE"/>
<path d="M31.1295 12.063C31.1254 11.3709 30.2595 11.0457 29.7696 11.5356L21.4438 19.8614L17.4395 23.8657L25.6951 32.1214L30.2869 27.4127C30.8276 26.8588 31.1295 26.1159 31.1295 25.3415V12.0793C31.1295 12.0742 31.1295 12.0681 31.1295 12.063Z" fill="url(#paint0_linear_10321_23382)"/>
<path d="M13.4367 19.8604H4V25.3384C4 26.1129 4.30287 26.8568 4.84356 27.4107L9.31441 31.9893L17.44 23.8637L13.4356 19.8594L13.4367 19.8604Z" fill="#E6EAEE"/>
<path d="M9.31547 31.9889L13.0383 35.8022C15.5253 38.3491 19.6221 38.3481 22.1071 35.7991L25.6957 32.119L17.44 23.8633L9.31445 31.9889H9.31547Z" fill="#E6EAEE"/>
<path d="M9.31547 31.9889L13.0383 35.8022C15.5253 38.3491 19.6221 38.3481 22.1071 35.7991L25.6957 32.119L17.44 23.8633L9.31445 31.9889H9.31547Z" fill="url(#paint1_linear_10321_23382)"/>
<path d="M17.441 23.8638L13.4367 19.8594L5.16065 11.5834C4.73278 11.1555 4.00102 11.4574 4 12.0631V12.0773V19.8594V25.0549C4 26.0102 4.37401 26.928 5.04174 27.612L9.31543 31.9883L14.3483 37.1422C16.1178 38.9543 19.0316 38.9533 20.799 37.1401L25.218 32.6083C25.4833 32.3369 25.4802 31.9019 25.2119 31.6336L17.441 23.8627V23.8638Z" fill="url(#paint2_linear_10321_23382)"/>
<path d="M31.1318 9.96374C29.8635 9.96374 28.8359 8.96468 28.8359 7.73187C28.8359 7.19321 29.0321 6.69826 29.3594 6.31307C29.4325 6.22668 29.5138 6.14842 29.5982 6.07423C30.0047 5.71851 30.5413 5.5 31.1318 5.5C32.3616 5.5 33.3627 6.44113 33.4227 7.62211C33.4247 7.65869 33.4288 7.69528 33.4288 7.73187C33.4288 7.76846 33.4247 7.80505 33.4227 7.84164C33.3637 9.02363 32.3626 9.96374 31.1318 9.96374Z" fill="url(#paint3_linear_10321_23382)"/>
<path d="M45.1152 27.8872C45.6192 28.4395 46.1735 28.8663 46.7818 29.1695C47.3901 29.4746 48.0448 29.6252 48.7497 29.6252C49.5665 29.6252 50.2328 29.4167 50.7446 28.9976C51.2583 28.5805 51.5151 28.0088 51.5151 27.2866C51.5151 26.659 51.3587 26.1568 51.0439 25.7764C50.731 25.396 50.2637 25.0599 49.6477 24.7645C49.0297 24.4709 48.2746 24.1523 47.3805 23.8105C46.9054 23.6386 46.3589 23.4069 45.7409 23.1114C45.1229 22.8179 44.5397 22.4374 43.9874 21.972C43.4351 21.5066 42.9793 20.9369 42.6182 20.261C42.2571 19.587 42.0775 18.774 42.0775 17.8238C42.0775 16.6845 42.3671 15.6996 42.9465 14.873C43.5258 14.0465 44.3138 13.4092 45.3122 12.9631C46.3106 12.517 47.4268 12.293 48.6608 12.293C49.8948 12.293 51.0304 12.5073 51.9535 12.9341C52.8746 13.3609 53.6452 13.9036 54.2632 14.5582C54.3192 14.6181 54.3752 14.6799 54.4312 14.7398C55.2172 15.6146 54.9912 16.9915 53.9619 17.5612L53.9213 17.5825C53.1798 17.9919 52.2528 17.8393 51.687 17.2078C51.6445 17.1595 51.6001 17.1132 51.5557 17.0649C51.1849 16.6748 50.7619 16.3619 50.2869 16.1244C49.8118 15.8869 49.2691 15.7671 48.6628 15.7671C47.8652 15.7671 47.2665 15.9525 46.8668 16.3233C46.467 16.6941 46.2681 17.1267 46.2681 17.6211C46.2681 18.1155 46.4284 18.548 46.7528 18.9188C47.0753 19.2896 47.5697 19.6411 48.236 19.9732C48.9003 20.3054 49.7365 20.6434 50.7446 20.9852C51.3896 21.2131 52.0133 21.4989 52.612 21.8407C53.2107 22.1825 53.7514 22.5958 54.2361 23.0805C54.7208 23.5652 55.1013 24.1349 55.3755 24.7915C55.6517 25.4481 55.7888 26.2032 55.7888 27.0568C55.7888 28.0262 55.5976 28.8914 55.2191 29.6503C54.8386 30.4112 54.3172 31.0524 53.651 31.5738C52.9847 32.0971 52.2393 32.495 51.4127 32.7711C50.5862 33.0473 49.7172 33.1844 48.8037 33.1844C47.5871 33.1844 46.4516 32.9507 45.3971 32.4853C44.3427 32.0199 43.4254 31.3884 42.6472 30.5889C42.3324 30.2664 42.0446 29.9323 41.7859 29.5886C41.1717 28.7736 41.3707 27.6072 42.2049 27.0182C42.9909 26.4639 44.0801 26.6088 44.6749 27.3658C44.8159 27.5454 44.9626 27.7172 45.1113 27.8814L45.1152 27.8872Z" fill="#09193A"/>
<path d="M77.504 12.543V31.4125C77.504 32.4553 76.66 33.2992 75.6172 33.2992C74.5744 33.2992 73.7305 32.4553 73.7305 31.4125V12.543C73.7305 11.5002 74.5744 10.6562 75.6172 10.6562C76.66 10.6562 77.504 11.5002 77.504 12.543Z" fill="#09193A"/>
<path d="M84.7364 12.543V31.4125C84.7364 32.4553 83.8925 33.2992 82.8496 33.2992C81.8068 33.2992 80.9629 32.4553 80.9629 31.4125V12.543C80.9629 11.5002 81.8068 10.6562 82.8496 10.6562C83.8925 10.6562 84.7364 11.5002 84.7364 12.543Z" fill="#09193A"/>
<path d="M91.0793 29.4109C91.5679 29.7334 92.0333 29.9748 92.4756 30.1312C92.9159 30.2877 93.333 30.3668 93.725 30.3668C94.2349 30.3668 94.625 30.2548 94.9011 30.0289C95.1753 29.8049 95.3125 29.4959 95.3125 29.1039C95.3125 28.7504 95.2005 28.453 94.9745 28.2078C94.7486 27.9625 94.4203 27.7424 93.9896 27.5473C93.5589 27.3523 93.0105 27.1456 92.3442 26.9294C91.7166 26.6937 91.1102 26.4157 90.5232 26.0912C89.9361 25.7687 89.4513 25.3381 89.069 24.7993C88.6866 24.2605 88.4954 23.571 88.4954 22.7271C88.4954 21.8832 88.7117 21.244 89.1424 20.6859C89.573 20.1278 90.1562 19.7068 90.8901 19.4229C91.6239 19.139 92.4427 18.9961 93.3427 18.9961C94.1074 18.9961 94.8219 19.0946 95.4882 19.2896C96.1544 19.4866 96.7705 19.7454 97.3402 20.0679C97.8693 20.3692 98.2556 20.7786 98.2594 21.4332C98.2691 23.0438 96.4943 23.0516 95.4148 22.5186C94.7389 22.1864 94.0784 22.0184 93.4315 22.0184C92.6011 22.0184 91.5119 22.6267 92.352 23.5247C93.0317 24.2508 94.1557 24.4459 95.0479 24.7838C95.7721 25.058 96.4441 25.367 97.0602 25.7088C97.6781 26.0526 98.1725 26.4775 98.5433 26.9873C98.916 27.4971 99.1014 28.1634 99.1014 28.986C99.1014 30.3379 98.6611 31.3904 97.7786 32.1455C96.8979 32.8986 95.6832 33.2771 94.1344 33.2771C93.1746 33.2771 92.2979 33.1497 91.5042 32.8947C90.7105 32.6398 89.9959 32.3019 89.3587 31.8809C89.152 31.7438 88.9512 31.6028 88.7581 31.4599C88.115 30.981 87.9875 30.0675 88.48 29.4341L88.5843 29.3008C89.0651 28.6829 89.9515 28.5805 90.5753 29.0556C90.7472 29.1869 90.9152 29.3047 91.0774 29.4128L91.0793 29.4109Z" fill="#09193A"/>
<path d="M69.5163 28.6751C69.1976 28.6751 68.9041 28.7794 68.655 28.9513C68.6472 28.9571 68.5893 29.0034 68.5024 29.0729C68.4985 29.0768 68.4927 29.0807 68.4869 29.0845C67.4711 30.0269 66.3202 30.3475 64.9336 30.3475C64.2171 30.3475 63.6049 30.1795 63.0951 29.8416C62.5853 29.5036 62.2048 29.017 61.9499 28.3816C61.7896 27.9818 61.6854 27.5203 61.6274 27.0105H70.2887C71.5092 27.0105 71.6792 25.9908 71.6792 25.4134C71.6193 24.1794 71.3605 23.1076 70.9009 22.198C70.3737 21.1551 69.6051 20.3614 68.5951 19.8149C67.587 19.2684 66.3646 18.9961 64.9317 18.9961C63.4987 18.9961 62.255 19.2896 61.1987 19.8748C60.1423 20.4619 59.3274 21.2865 58.7519 22.3486C58.1764 23.4108 57.8887 24.6776 57.8887 26.1472C57.8887 27.6169 58.1764 28.8547 58.7519 29.9169C59.3274 30.979 60.1423 31.8094 61.1987 32.4062C62.255 33.0029 63.4891 33.3003 64.9027 33.3003C66.3163 33.3003 67.9675 33.0724 69.3038 32.4062C70.1246 31.9967 71.0708 31.3305 71.0708 30.3205C71.0708 29.4128 70.3737 28.679 69.5124 28.679L69.5163 28.6751ZM62.8132 22.7522C63.4273 22.2057 64.1862 21.9334 65.0861 21.9334C66.0382 21.9334 66.8435 22.2154 67.502 22.7773C68.1606 23.3412 68.4985 24.0886 68.5159 25.0252H61.6815C61.8205 24.0558 62.1971 23.2968 62.8112 22.7522H62.8132Z" fill="#09193A"/>
<path d="M113.88 20.7689C113.88 19.7898 113.086 18.9941 112.105 18.9941C111.124 18.9941 110.33 19.7878 110.33 20.7689C110.33 20.7824 110.33 20.7959 110.332 20.8094C110.332 20.8191 110.33 20.8287 110.33 20.8384V27.5878C110.33 28.0185 110.22 28.424 110 28.8064C109.78 29.1888 109.492 29.5016 109.133 29.745C108.776 29.9883 108.366 30.11 107.909 30.11C107.451 30.11 107.065 29.9844 106.698 29.7314C106.331 29.4785 106.037 29.1675 105.817 28.7929C105.597 28.4202 105.487 28.0185 105.487 27.5878V20.8654C105.487 20.8519 105.485 20.8403 105.483 20.8268C105.483 20.8075 105.487 20.7862 105.487 20.7669C105.487 19.7878 104.693 18.9922 103.712 18.9922C102.731 18.9922 101.938 19.7859 101.938 20.7669C101.938 20.7882 101.939 20.8075 101.941 20.8268C101.941 20.8403 101.938 20.8519 101.938 20.8654V27.5878C101.938 28.5785 102.208 29.5055 102.749 30.3745C103.289 31.2435 104.014 31.9426 104.921 32.4756C105.829 33.0086 106.833 33.2732 107.932 33.2732C109.031 33.2732 109.981 33.0125 110.888 32.4891C111.796 31.9658 112.52 31.2706 113.061 30.4035C113.602 29.5345 113.872 28.5959 113.872 27.5878V20.8384C113.872 20.8287 113.872 20.8191 113.87 20.8094C113.87 20.7959 113.872 20.7824 113.872 20.7689H113.88Z" fill="#09193A"/>
<path d="M134.252 16.4759C134.862 16.4759 135.384 16.2751 135.812 15.8753C136.241 15.4737 136.455 14.9793 136.455 14.3864C136.455 13.7935 136.241 13.276 135.812 12.8839C135.384 12.4939 134.862 12.2969 134.252 12.2969C133.642 12.2969 133.116 12.4919 132.678 12.8839C132.24 13.276 132.02 13.7761 132.02 14.3864C132.02 14.9966 132.238 15.4737 132.678 15.8753C133.116 16.277 133.642 16.4759 134.252 16.4759Z" fill="url(#paint4_linear_10321_23382)"/>
<path d="M134.224 19.0078C133.142 19.0078 132.266 19.8846 132.266 20.966V31.3422C132.266 32.4237 133.142 33.3004 134.224 33.3004C135.305 33.3004 136.182 32.4237 136.182 31.3422V20.966C136.182 19.8846 135.305 19.0078 134.224 19.0078Z" fill="#09193A"/>
<path d="M121.04 12.6226C121.04 11.5566 120.175 10.6914 119.109 10.6914C118.043 10.6914 117.178 11.5566 117.178 12.6226V31.411C117.178 32.477 118.043 33.3421 119.109 33.3421C120.175 33.3421 121.04 32.477 121.04 31.411V12.6226Z" fill="url(#paint5_linear_10321_23382)"/>
<path d="M129.096 21.1935C129.992 20.2086 129.293 18.6289 127.962 18.6289C127.283 18.6289 126.634 18.9167 126.176 19.4207L121.039 25.0964V26.5371L122.681 28.2326L127.441 23.0069L129.094 21.1916L129.096 21.1935Z" fill="url(#paint6_linear_10321_23382)"/>
<path d="M124.872 25.834L122.682 28.2344L127.15 32.848C127.457 33.1647 127.878 33.3424 128.319 33.3424C129.756 33.3424 130.487 31.614 129.485 30.5827L124.872 25.832" fill="url(#paint7_linear_10321_23382)"/>
<defs>
<linearGradient id="paint0_linear_10321_23382" x1="0.402638" y1="21.7101" x2="52.6056" y2="21.7101" gradientUnits="userSpaceOnUse">
<stop stop-color="#00CFF4"/>
<stop offset="0.41" stop-color="#00BBF4"/>
<stop offset="1" stop-color="#0098F5"/>
</linearGradient>
<linearGradient id="paint1_linear_10321_23382" x1="0.403232" y1="30.7876" x2="52.6062" y2="30.7876" gradientUnits="userSpaceOnUse">
<stop stop-color="#00CFF4"/>
<stop offset="0.41" stop-color="#00BBF4"/>
<stop offset="1" stop-color="#0098F5"/>
</linearGradient>
<linearGradient id="paint2_linear_10321_23382" x1="-31.3491" y1="24.9431" x2="36.8967" y2="24.9431" gradientUnits="userSpaceOnUse">
<stop stop-color="#F5B059"/>
<stop offset="0.14" stop-color="#F4AA55"/>
<stop offset="0.33" stop-color="#F49949"/>
<stop offset="0.53" stop-color="#F37E37"/>
<stop offset="0.75" stop-color="#F35B1F"/>
</linearGradient>
<linearGradient id="paint3_linear_10321_23382" x1="28.8359" y1="7.73187" x2="33.4288" y2="7.73187" gradientUnits="userSpaceOnUse">
<stop stop-color="#00CFF4"/>
<stop offset="0.41" stop-color="#00BBF4"/>
<stop offset="1" stop-color="#0098F5"/>
</linearGradient>
<linearGradient id="paint4_linear_10321_23382" x1="132.02" y1="14.3864" x2="136.455" y2="14.3864" gradientUnits="userSpaceOnUse">
<stop stop-color="#46BFE2"/>
<stop offset="0.44" stop-color="#46ABD6"/>
<stop offset="1" stop-color="#478DC5"/>
</linearGradient>
<linearGradient id="paint5_linear_10321_23382" x1="118.821" y1="5.74181" x2="119.24" y2="29.4199" gradientUnits="userSpaceOnUse">
<stop stop-color="#F4AC5A"/>
<stop offset="0.15" stop-color="#F3A656"/>
<stop offset="0.34" stop-color="#F0954C"/>
<stop offset="0.55" stop-color="#ED7A3B"/>
<stop offset="0.75" stop-color="#E95C28"/>
</linearGradient>
<linearGradient id="paint6_linear_10321_23382" x1="115.004" y1="18.5188" x2="130.37" y2="25.7125" gradientUnits="userSpaceOnUse">
<stop stop-color="#F4AC5A"/>
<stop offset="0.15" stop-color="#F3A656"/>
<stop offset="0.34" stop-color="#F0954C"/>
<stop offset="0.55" stop-color="#ED7A3B"/>
<stop offset="0.75" stop-color="#E95C28"/>
</linearGradient>
<linearGradient id="paint7_linear_10321_23382" x1="122.684" y1="29.5901" x2="129.949" y2="29.5901" gradientUnits="userSpaceOnUse">
<stop stop-color="#46BFE2"/>
<stop offset="0.44" stop-color="#46ABD6"/>
<stop offset="1" stop-color="#478DC5"/>
</linearGradient>
</defs>
</svg>
