<svg width="171" height="43" viewBox="0 0 171 43" fill="none" xmlns="http://www.w3.org/2000/svg">
<path d="M22.7406 18.7112H12.3018L17.5218 23.9277L22.7406 18.7112Z" fill="#09193A"/>
<path d="M17.522 23.9277L28.2841 34.6851L34.27 28.5495C34.9748 27.8278 35.3683 26.8597 35.3683 25.8506V18.7112H22.7421L17.522 23.929V23.9277Z" fill="#E6EAEE"/>
<path d="M35.3669 8.5499C35.3616 7.64804 34.2327 7.22426 33.5941 7.86258L22.7406 18.7114L17.5205 23.9292L28.2826 34.6866L34.2685 28.551C34.9734 27.8293 35.3669 26.8612 35.3669 25.8521V8.57109C35.3669 8.56447 35.3669 8.55652 35.3669 8.5499Z" fill="url(#paint0_linear_3157_3741)"/>
<path d="M12.3017 18.7113H0V25.8493C0 26.8585 0.394819 27.8279 1.09966 28.5496L6.92788 34.5157L17.5204 23.9278L12.3003 18.71L12.3017 18.7113Z" fill="#E6EAEE"/>
<path d="M6.92906 34.5156L11.7822 39.4845C15.0242 42.8032 20.3648 42.8019 23.6042 39.4805L28.2824 34.6851L17.5203 23.9277L6.92773 34.5156H6.92906Z" fill="#E6EAEE"/>
<path d="M6.92906 34.5156L11.7822 39.4845C15.0242 42.8032 20.3648 42.8019 23.6042 39.4805L28.2824 34.6851L17.5203 23.9277L6.92773 34.5156H6.92906Z" fill="url(#paint1_linear_3157_3741)"/>
<path d="M17.5217 23.9278L12.3017 18.71L1.51303 7.92614C0.95525 7.36861 0.0013249 7.76193 0 8.55122V8.56976V18.71V25.4799C0 26.7248 0.487562 27.9206 1.35802 28.8119L6.92921 34.5144L13.4901 41.23C15.7967 43.5913 19.5952 43.5899 21.8992 41.2274L27.6598 35.3222C28.0056 34.9686 28.0017 34.4018 27.6519 34.0522L17.5217 23.9265V23.9278Z" fill="url(#paint2_linear_3157_3741)"/>
<path d="M35.3679 5.81639C33.7145 5.81639 32.375 4.51459 32.375 2.90819C32.375 2.20631 32.6307 1.56137 33.0573 1.05945C33.1527 0.946885 33.2587 0.844912 33.3687 0.748237C33.8986 0.284727 34.5982 0 35.3679 0C36.9711 0 38.2761 1.22632 38.3543 2.76517C38.3569 2.81284 38.3622 2.86052 38.3622 2.90819C38.3622 2.95587 38.3569 3.00355 38.3543 3.05122C38.2774 4.5914 36.9724 5.81639 35.3679 5.81639Z" fill="url(#paint3_linear_3157_3741)"/>
<path d="M51.7733 29.4411C52.4303 30.1608 53.1529 30.7169 53.9459 31.1119C54.7389 31.5095 55.5923 31.7058 56.5112 31.7058C57.5761 31.7058 58.4446 31.434 59.1117 30.888C59.7814 30.3445 60.1162 29.5996 60.1162 28.6585C60.1162 27.8407 59.9123 27.1864 59.5019 26.6907C59.0941 26.1949 58.4849 25.7571 57.6818 25.3721C56.8762 24.9896 55.8919 24.5744 54.7263 24.129C54.107 23.905 53.3945 23.6031 52.589 23.2181C51.7834 22.8356 51.0231 22.3399 50.3031 21.7334C49.5831 21.127 48.989 20.3846 48.5182 19.5039C48.0474 18.6257 47.8133 17.5663 47.8133 16.3282C47.8133 14.8436 48.1909 13.5602 48.9462 12.4832C49.7014 11.4062 50.7285 10.5758 52.0301 9.99452C53.3316 9.41324 54.7867 9.12134 56.3954 9.12134C58.004 9.12134 59.4843 9.40066 60.6877 9.95678C61.8885 10.5129 62.893 11.22 63.6986 12.073C63.7716 12.1511 63.8446 12.2316 63.9176 12.3096C64.9422 13.4495 64.6477 15.2437 63.3059 15.986L63.253 16.0137C62.2863 16.5472 61.0779 16.3484 60.3403 15.5255C60.2849 15.4626 60.227 15.4022 60.1691 15.3393C59.6857 14.831 59.1344 14.4233 58.5151 14.1138C57.8958 13.8043 57.1884 13.6483 56.3979 13.6483C55.3582 13.6483 54.5778 13.8899 54.0566 14.373C53.5355 14.8562 53.2762 15.4198 53.2762 16.064C53.2762 16.7082 53.4852 17.2719 53.9081 17.755C54.3285 18.2382 54.973 18.6961 55.8415 19.129C56.7075 19.5618 57.7976 20.0021 59.1117 20.4475C59.9526 20.7445 60.7657 21.1169 61.5461 21.5623C62.3266 22.0077 63.0315 22.5462 63.6633 23.1778C64.2952 23.8094 64.7912 24.5518 65.1487 25.4073C65.5087 26.2629 65.6874 27.2468 65.6874 28.359C65.6874 29.6222 65.4382 30.7496 64.9447 31.7385C64.4488 32.73 63.7691 33.5654 62.9005 34.2448C62.032 34.9268 61.0603 35.4451 59.9828 35.805C58.9053 36.1648 57.7724 36.3435 56.5817 36.3435C54.9957 36.3435 53.5154 36.039 52.1408 35.4326C50.7663 34.8261 49.5705 34.0033 48.5559 32.9615C48.1456 32.5413 47.7705 32.1059 47.4332 31.658C46.6326 30.5961 46.8919 29.0762 47.9794 28.3087C49.0041 27.5865 50.4239 27.7752 51.1993 28.7617C51.3831 28.9957 51.5744 29.2196 51.7683 29.4335L51.7733 29.4411Z" fill="#09193A"/>
<path d="M93.9963 9.44605V34.0336C93.9963 35.3924 92.8962 36.4921 91.5367 36.4921C90.1773 36.4921 89.0771 35.3924 89.0771 34.0336V9.44605C89.0771 8.08721 90.1773 6.98755 91.5367 6.98755C92.8962 6.98755 93.9963 8.08721 93.9963 9.44605Z" fill="#09193A"/>
<path d="M103.425 9.44605V34.0336C103.425 35.3924 102.324 36.4921 100.965 36.4921C99.6055 36.4921 98.5054 35.3924 98.5054 34.0336V9.44605C98.5054 8.08721 99.6055 6.98755 100.965 6.98755C102.324 6.98755 103.425 8.08721 103.425 9.44605Z" fill="#09193A"/>
<path d="M111.692 31.4268C112.329 31.847 112.935 32.1616 113.512 32.3654C114.086 32.5692 114.629 32.6724 115.141 32.6724C115.805 32.6724 116.314 32.5264 116.674 32.232C117.031 31.9401 117.21 31.5375 117.21 31.0267C117.21 30.5662 117.064 30.1787 116.769 29.8591C116.475 29.5395 116.047 29.2526 115.485 28.9985C114.924 28.7443 114.209 28.4751 113.341 28.1932C112.522 27.8862 111.732 27.5239 110.967 27.1011C110.201 26.6809 109.569 26.1197 109.071 25.4177C108.572 24.7156 108.323 23.8173 108.323 22.7176C108.323 21.6179 108.605 20.785 109.167 20.0578C109.728 19.3306 110.488 18.782 111.445 18.4121C112.402 18.0422 113.469 17.856 114.642 17.856C115.639 17.856 116.57 17.9843 117.439 18.2385C118.308 18.4951 119.111 18.8323 119.853 19.2526C120.543 19.6451 121.047 20.1786 121.052 21.0316C121.064 23.1303 118.751 23.1404 117.343 22.4458C116.462 22.013 115.601 21.7941 114.758 21.7941C113.675 21.7941 112.256 22.5867 113.351 23.7569C114.237 24.703 115.702 24.9572 116.865 25.3975C117.809 25.7549 118.685 26.1575 119.488 26.6029C120.294 27.0508 120.938 27.6044 121.422 28.2687C121.908 28.933 122.149 29.8012 122.149 30.8732C122.149 32.6346 121.575 34.0061 120.425 34.99C119.277 35.9714 117.693 36.4646 115.674 36.4646C114.423 36.4646 113.28 36.2985 112.245 35.9663C111.211 35.6342 110.279 35.1938 109.449 34.6452C109.179 34.4666 108.917 34.2829 108.666 34.0967C107.827 33.4726 107.661 32.2823 108.303 31.457L108.439 31.2833C109.066 30.4781 110.221 30.3447 111.035 30.9638C111.259 31.1349 111.478 31.2884 111.689 31.4293L111.692 31.4268Z" fill="#09193A"/>
<path d="M83.5816 30.468C83.1662 30.468 82.7835 30.6039 82.4588 30.8279C82.4487 30.8354 82.3732 30.8958 82.2599 30.9864C82.2549 30.9914 82.2473 30.9965 82.2398 31.0015C80.9156 32.2295 79.4151 32.6472 77.6076 32.6472C76.6736 32.6472 75.8756 32.4283 75.211 31.9879C74.5463 31.5476 74.0504 30.9134 73.7181 30.0856C73.5091 29.5647 73.3732 28.9632 73.2977 28.2989H84.5886C86.1796 28.2989 86.4012 26.9703 86.4012 26.2179C86.3231 24.6099 85.9858 23.2133 85.3866 22.0281C84.6993 20.6693 83.6974 19.635 82.3807 18.9229C81.0666 18.2108 79.473 17.856 77.6051 17.856C75.7371 17.856 74.1158 18.2385 72.7388 19.0009C71.3617 19.7659 70.2994 20.8404 69.5491 22.2244C68.7989 23.6084 68.4238 25.2591 68.4238 27.1741C68.4238 29.0891 68.7989 30.7021 69.5491 32.0861C70.2994 33.4701 71.3617 34.5521 72.7388 35.3297C74.1158 36.1072 75.7245 36.4948 77.5673 36.4948C79.4101 36.4948 81.5626 36.1978 83.3047 35.3297C84.3746 34.7962 85.6081 33.9281 85.6081 32.612C85.6081 31.4293 84.6993 30.4731 83.5765 30.4731L83.5816 30.468ZM74.8434 22.7503C75.644 22.0382 76.6333 21.6834 77.8065 21.6834C79.0476 21.6834 80.0974 22.0508 80.9558 22.783C81.8143 23.5178 82.2549 24.4916 82.2775 25.7121H73.3682C73.5494 24.4489 74.0403 23.4599 74.8409 22.7503H74.8434Z" fill="#09193A"/>
<path d="M141.416 20.1632C141.416 18.8874 140.381 17.8507 139.102 17.8507C137.823 17.8507 136.789 18.8849 136.789 20.1632C136.789 20.1808 136.789 20.1984 136.791 20.2161C136.791 20.2286 136.789 20.2412 136.789 20.2538V29.0485C136.789 29.6097 136.645 30.1381 136.358 30.6364C136.071 31.1346 135.696 31.5423 135.228 31.8593C134.762 32.1764 134.228 32.3349 133.632 32.3349C133.035 32.3349 132.532 32.1714 132.053 31.8417C131.575 31.5121 131.192 31.1069 130.905 30.6188C130.618 30.1331 130.475 29.6097 130.475 29.0485V20.289C130.475 20.2714 130.472 20.2563 130.47 20.2387C130.47 20.2135 130.475 20.1859 130.475 20.1607C130.475 18.8849 129.44 17.8481 128.161 17.8481C126.882 17.8481 125.848 18.8824 125.848 20.1607C125.848 20.1884 125.85 20.2135 125.853 20.2387C125.853 20.2563 125.848 20.2714 125.848 20.289V29.0485C125.848 30.3394 126.2 31.5473 126.905 32.6797C127.61 33.812 128.554 34.723 129.737 35.4175C130.92 36.112 132.229 36.4567 133.662 36.4567C135.094 36.4567 136.333 36.117 137.516 35.4351C138.699 34.7532 139.643 33.8473 140.348 32.7174C141.053 31.585 141.406 30.3621 141.406 29.0485V20.2538C141.406 20.2412 141.406 20.2286 141.403 20.2161C141.403 20.1984 141.406 20.1808 141.406 20.1632H141.416Z" fill="#09193A"/>
<path d="M167.973 14.5695C168.768 14.5695 169.448 14.3078 170.007 13.7869C170.566 13.2635 170.845 12.6193 170.845 11.8467C170.845 11.0742 170.566 10.3998 170.007 9.889C169.448 9.38069 168.768 9.12402 167.973 9.12402C167.177 9.12402 166.492 9.37817 165.921 9.889C165.349 10.3998 165.062 11.0516 165.062 11.8467C165.062 12.6419 165.347 13.2635 165.921 13.7869C166.492 14.3103 167.177 14.5695 167.973 14.5695Z" fill="url(#paint4_linear_3157_3741)"/>
<path d="M167.935 17.8684C166.525 17.8684 165.382 19.0108 165.382 20.42V33.9405C165.382 35.3497 166.525 36.4921 167.935 36.4921C169.345 36.4921 170.488 35.3497 170.488 33.9405V20.42C170.488 19.0108 169.345 17.8684 167.935 17.8684Z" fill="#09193A"/>
<path d="M150.748 9.55178C150.748 8.16274 149.62 7.0354 148.23 7.0354C146.841 7.0354 145.713 8.16274 145.713 9.55178V34.0336C145.713 35.4226 146.841 36.55 148.23 36.55C149.62 36.55 150.748 35.4226 150.748 34.0336V9.55178Z" fill="url(#paint5_linear_3157_3741)"/>
<path d="M161.251 20.7194C162.419 19.4361 161.508 17.3777 159.773 17.3777C158.887 17.3777 158.041 17.7526 157.445 18.4094L150.748 25.805V27.6822L152.888 29.8916L159.094 23.0823L161.248 20.7169L161.251 20.7194Z" fill="url(#paint6_linear_3157_3741)"/>
<path d="M155.743 26.7637L152.888 29.8916L158.713 35.9032C159.113 36.3159 159.662 36.5474 160.236 36.5474C162.109 36.5474 163.063 34.2953 161.757 32.9515L155.743 26.7612" fill="url(#paint7_linear_3157_3741)"/>
<defs>
<linearGradient id="paint0_linear_3157_3741" x1="-4.68872" y1="21.1203" x2="63.3632" y2="21.1203" gradientUnits="userSpaceOnUse">
<stop stop-color="#00CFF4"/>
<stop offset="0.41" stop-color="#00BBF4"/>
<stop offset="1" stop-color="#0098F5"/>
</linearGradient>
<linearGradient id="paint1_linear_3157_3741" x1="-4.68895" y1="32.9503" x2="63.363" y2="32.9503" gradientUnits="userSpaceOnUse">
<stop stop-color="#00CFF4"/>
<stop offset="0.41" stop-color="#00BBF4"/>
<stop offset="1" stop-color="#0098F5"/>
</linearGradient>
<linearGradient id="paint2_linear_3157_3741" x1="-46.0812" y1="25.3343" x2="42.8842" y2="25.3343" gradientUnits="userSpaceOnUse">
<stop stop-color="#F5B059"/>
<stop offset="0.14" stop-color="#F4AA55"/>
<stop offset="0.33" stop-color="#F49949"/>
<stop offset="0.53" stop-color="#F37E37"/>
<stop offset="0.75" stop-color="#F35B1F"/>
</linearGradient>
<linearGradient id="paint3_linear_3157_3741" x1="32.375" y1="2.9082" x2="38.3622" y2="2.9082" gradientUnits="userSpaceOnUse">
<stop stop-color="#00CFF4"/>
<stop offset="0.41" stop-color="#00BBF4"/>
<stop offset="1" stop-color="#0098F5"/>
</linearGradient>
<linearGradient id="paint4_linear_3157_3741" x1="165.062" y1="11.8467" x2="170.845" y2="11.8467" gradientUnits="userSpaceOnUse">
<stop stop-color="#46BFE2"/>
<stop offset="0.44" stop-color="#46ABD6"/>
<stop offset="1" stop-color="#478DC5"/>
</linearGradient>
<linearGradient id="paint5_linear_3157_3741" x1="147.855" y1="0.585928" x2="148.401" y2="31.4392" gradientUnits="userSpaceOnUse">
<stop stop-color="#F4AC5A"/>
<stop offset="0.15" stop-color="#F3A656"/>
<stop offset="0.34" stop-color="#F0954C"/>
<stop offset="0.55" stop-color="#ED7A3B"/>
<stop offset="0.75" stop-color="#E95C28"/>
</linearGradient>
<linearGradient id="paint6_linear_3157_3741" x1="142.881" y1="17.2343" x2="162.909" y2="26.6145" gradientUnits="userSpaceOnUse">
<stop stop-color="#F4AC5A"/>
<stop offset="0.15" stop-color="#F3A656"/>
<stop offset="0.34" stop-color="#F0954C"/>
<stop offset="0.55" stop-color="#ED7A3B"/>
<stop offset="0.75" stop-color="#E95C28"/>
</linearGradient>
<linearGradient id="paint7_linear_3157_3741" x1="152.89" y1="31.6581" x2="162.361" y2="31.6581" gradientUnits="userSpaceOnUse">
<stop stop-color="#46BFE2"/>
<stop offset="0.44" stop-color="#46ABD6"/>
<stop offset="1" stop-color="#478DC5"/>
</linearGradient>
</defs>
</svg>
