<svg width="24" height="25" viewBox="0 0 24 25" fill="none" xmlns="http://www.w3.org/2000/svg">
<path d="M10.05 4.94219C10.05 4.07234 9.34486 3.36719 8.47501 3.36719C7.60516 3.36719 6.90001 4.07234 6.90001 4.94219L6.9 7.94219M10.05 4.94219L10.05 3.44219C10.05 2.57234 10.7552 1.86719 11.625 1.86719C12.4949 1.86719 13.2 2.57234 13.2 3.44219L13.2 4.94219M10.05 4.94219L10.125 10.8672M13.2 11.6172V4.94219M13.2 4.94219C13.2 4.07234 13.9052 3.36719 14.775 3.36719C15.6449 3.36719 16.35 4.07234 16.35 4.94219V15.3672M6.9 7.94219C6.9 7.07234 6.19485 6.36719 5.325 6.36719C4.45515 6.36719 3.75 7.07234 3.75 7.94219V16.1172C3.75 19.8451 6.77208 22.8672 10.5 22.8672H12.5179C13.9103 22.8672 15.2456 22.3141 16.2302 21.3295L17.9623 19.5974C18.9469 18.6128 19.5 17.2775 19.5 15.8851L19.5031 13.8612C19.5046 13.6881 19.5701 13.5205 19.7007 13.3899C20.3158 12.7748 20.3158 11.7776 19.7007 11.1625C19.0857 10.5474 18.0884 10.5474 17.4733 11.1625C16.7315 11.9043 16.3578 12.8783 16.3531 13.8487M6.9 7.94219V12.3672M13.17 16.6852C13.5599 16.2953 14.0035 15.9919 14.477 15.7751C15.0701 15.5034 15.71 15.3675 16.35 15.3672M16.3519 15.3672H16.35" stroke="white" stroke-width="1.5" stroke-linecap="round" stroke-linejoin="round"/>
</svg>
