<svg width="24" height="24" viewBox="0 0 24 24" fill="none" xmlns="http://www.w3.org/2000/svg">
<g clip-path="url(#clip0_11109_26772)">
<path d="M14.672 14.7307L14.9499 13.5569C15.015 13.2816 15.0171 12.995 14.9557 12.7188C14.8944 12.4425 14.7714 12.1837 14.5958 11.9618C14.4203 11.7399 14.1968 11.5605 13.9421 11.4373C13.6874 11.314 13.4081 11.25 13.1251 11.25M14.672 14.7307L13.125 11.25H13.1251M14.672 14.7307L13.5043 14.9993C13.5041 14.9993 13.5038 14.9994 13.5036 14.9994C13.5018 14.9998 13.5 15 13.4982 15H13.125C13.6223 15 14.0992 14.8025 14.4508 14.4508C14.8025 14.0992 15 13.6223 15 13.125C15 12.6277 14.8025 12.1508 14.4508 11.7992C14.0992 11.4476 13.6223 11.25 13.1251 11.25M14.672 14.7307L13.1251 11.25M6.84182 11.9076L6.84076 11.9087L5.50553 13.2445L6.83912 11.9115C6.83952 11.9111 6.83991 11.9107 6.8403 11.9103C7.04885 11.7004 7.29697 11.5339 7.57029 11.4206C7.84134 11.3082 8.13183 11.2502 8.42521 11.25M6.84182 11.9076L8.42521 11.25M6.84182 11.9076C7.04998 11.6985 7.29751 11.5327 7.5701 11.4199C7.84122 11.3076 8.1318 11.2499 8.42521 11.25M6.84182 11.9076L8.42521 11.25M21.6406 14.4827C21.544 14.2388 21.3881 14.0252 21.1893 13.8597L21.2126 13.8776C21.3893 14.0296 21.53 14.2197 21.6237 14.434C21.7296 14.6761 21.7721 14.9411 21.7472 15.2041C21.7223 15.4671 21.6309 15.7195 21.4816 15.9374C21.3346 16.1519 21.1362 16.3261 20.9046 16.4441L20.8854 16.4528L17.2498 17.9999L17.2498 17.9998L17.2491 18.0001L11.25 19.4999L11.2495 19.5H11.2486L11.3382 19.4776L17.191 18.0142L17.2484 17.9998L17.3029 17.9766L20.8654 16.4597L20.8236 16.2547L20.9175 16.4336C21.2576 16.255 21.5196 15.9569 21.6531 15.5968C21.7865 15.2366 21.7821 14.8398 21.6406 14.4827ZM20.4977 13.5289C20.6375 13.5568 20.7722 13.6038 20.8983 13.6683C20.8944 13.6663 20.8905 13.6644 20.8866 13.6624C20.6213 13.5305 20.3255 13.4779 20.0342 13.5079C20.1884 13.4915 20.3447 13.4985 20.4977 13.5289ZM16.8227 9.13601C16.9418 9.35339 17.0917 9.55399 17.2688 9.73116C17.636 10.0983 18.1037 10.3483 18.6129 10.4496C19.1221 10.5508 19.6499 10.4989 20.1295 10.3002C20.6092 10.1015 21.0192 9.76505 21.3076 9.33337C21.5961 8.90169 21.75 8.39418 21.75 7.875C21.75 7.4324 21.6382 7.00133 21.4303 6.61952C21.6286 6.98239 21.7389 7.38813 21.7507 7.80388C21.7649 8.30496 21.6353 8.79963 21.3772 9.2294C21.1192 9.65917 20.7435 10.0061 20.2945 10.2291C19.8456 10.4521 19.3422 10.5419 18.8438 10.4879C18.3454 10.4338 17.8729 10.2382 17.4822 9.92418C17.2114 9.70654 16.9878 9.43831 16.8227 9.13601ZM16.6195 8.65794L16.4354 8.11119L15.8061 8.215C15.6639 8.23846 15.52 8.25016 15.3758 8.25L15.3772 8.25C15.5636 8.24945 15.7495 8.22933 15.9317 8.18998L16.4509 8.07786L16.5175 7.55088C16.5633 7.18845 16.6842 6.83957 16.8726 6.52656C16.8881 6.50069 16.9041 6.47512 16.9206 6.44985C16.8348 6.58249 16.7608 6.72319 16.6998 6.87046C16.5011 7.35011 16.4492 7.87791 16.5504 8.38711L17.286 8.2408L16.5504 8.38711C16.5687 8.47885 16.5918 8.56924 16.6195 8.65794ZM18.5641 5.31063C18.2594 5.37729 17.9676 5.49803 17.703 5.66849L18.0448 5.42803L17.9019 4.91756C17.7476 4.3661 17.4172 3.88023 16.961 3.53403C16.5049 3.18783 15.948 3.00029 15.3754 3H15.375C15.3554 3 15.3358 3.00022 15.3162 3.00066C15.4658 2.99731 15.6161 3.00675 15.7654 3.02919C16.2429 3.10102 16.6914 3.30321 17.0615 3.61351C17.4316 3.9238 17.7089 4.33018 17.8629 4.78792L18.0666 5.39326L18.5641 5.31063ZM14.3547 3.2064C14.4678 3.15866 14.5838 3.11909 14.7017 3.08781C14.2581 3.20555 13.849 3.43869 13.5188 3.76885C13.0266 4.26113 12.75 4.92881 12.75 5.625C12.75 6.32119 13.0266 6.98887 13.5188 7.48116C13.8397 7.80197 14.235 8.03117 14.6641 8.15192C14.4338 8.08714 14.2124 7.99088 14.0063 7.86498C13.5942 7.61318 13.2596 7.25257 13.0392 6.82283C12.8188 6.39309 12.7212 5.91088 12.7573 5.42928C12.7933 4.94767 12.9614 4.48533 13.2433 4.09314C13.5251 3.70095 13.9097 3.39412 14.3547 3.2064Z" fill="#111827" stroke="#22C55E" stroke-width="1.5"/>
</g>
<defs>
<clipPath id="clip0_11109_26772">
<rect width="24" height="24" fill="white"/>
</clipPath>
</defs>
</svg>
