<svg width="299" height="40" viewBox="0 0 299 40" fill="none" xmlns="http://www.w3.org/2000/svg">
<path d="M19.4959 18.0527H12.2155L15.8547 21.692L19.4959 18.0527Z" fill="white"/>
<path d="M15.8547 21.692L23.3598 29.1971L27.5333 24.916C28.0241 24.412 28.2996 23.7363 28.2996 23.0341V18.0527H19.494L15.8547 21.692Z" fill="white"/>
<path d="M28.3016 10.9629C28.2978 10.3324 27.5107 10.038 27.0652 10.4835L19.496 18.0527L15.8567 21.692L23.3618 29.1971L27.5352 24.916C28.026 24.412 28.3016 23.7362 28.3016 23.0341V10.978C28.3016 10.978 28.3016 10.9686 28.3016 10.9629Z" fill="white"/>
<path d="M12.2155 18.0527H3.63635V23.0341C3.63635 23.7382 3.91194 24.4139 4.4046 24.9179L8.46859 29.0801L15.8566 21.692L12.2174 18.0527H12.2155Z" fill="white"/>
<path d="M8.46863 29.0801L11.8531 32.5457C14.1144 34.8618 17.8386 34.8599 20.0981 32.5438L23.3617 29.1971L15.8567 21.692L8.46863 29.0801Z" fill="white"/>
<path d="M8.46863 29.0801L11.8531 32.5457C14.1144 34.8618 17.8386 34.8599 20.0981 32.5438L23.3617 29.1971L15.8567 21.692L8.46863 29.0801Z" fill="white"/>
<path d="M15.8547 21.6919L12.2155 18.0527L4.69152 10.5287C4.30267 10.1399 3.63824 10.4136 3.63635 10.9647V10.978V18.0527V22.7754C3.63635 23.6437 3.97612 24.478 4.58392 25.1009L8.46859 29.08L13.0441 33.765C14.6523 35.4129 17.3025 35.411 18.9089 33.7631L22.9257 29.6425C23.1673 29.3952 23.1635 29.0007 22.92 28.7572L15.8547 21.6919Z" fill="white"/>
<path d="M28.3015 9.05644C27.1482 9.05644 26.2139 8.14851 26.2139 7.02728C26.2139 6.5365 26.3932 6.08725 26.6895 5.73805C26.7556 5.66066 26.8292 5.58893 26.9066 5.52098C27.2766 5.1982 27.7636 5 28.2997 5C29.4171 5 30.3288 5.85508 30.3817 6.92912C30.3817 6.9631 30.3873 6.99519 30.3873 7.02916C30.3873 7.06314 30.3836 7.09523 30.3817 7.1292C30.3269 8.20325 29.4171 9.05833 28.2997 9.05833L28.3015 9.05644Z" fill="white"/>
<path d="M134.322 13.5341C133.839 13.5341 133.45 13.9268 133.45 14.4096V31.3219C133.45 31.8047 133.839 32.1974 134.322 32.1974C134.805 32.1974 135.194 31.8047 135.194 31.3219V14.4096C135.194 13.9268 134.805 13.5341 134.322 13.5341Z" fill="white"/>
<path d="M159.193 13.5376H161.852C162.191 13.5376 162.464 13.8114 162.464 14.1501V30.7454C162.464 31.0841 162.191 31.3615 161.848 31.3615H159.189C158.851 31.3615 158.577 31.0877 158.577 30.749V14.1537C158.577 13.815 158.851 13.5376 159.193 13.5376Z" fill="white"/>
<path d="M166.006 31.3617H168.669C169.007 31.3617 169.281 31.0842 169.281 30.7456V20.3005L177.193 31.095C177.237 31.1563 177.287 31.2067 177.348 31.25L177.467 31.3148C177.503 31.3256 177.514 31.3328 177.528 31.3364C177.593 31.3545 177.644 31.3617 177.694 31.3617H180.252C180.591 31.3617 180.865 31.0842 180.865 30.7456V14.1503C180.865 13.8116 180.591 13.5342 180.252 13.5342H177.59C177.251 13.5342 176.977 13.8116 176.977 14.1503V24.4944L169.076 13.8152C169.058 13.79 169.04 13.7684 169.025 13.7468C169.011 13.7287 168.997 13.7179 168.986 13.7035C168.964 13.6819 168.953 13.6747 168.942 13.6639C168.917 13.6459 168.906 13.6387 168.896 13.6315L168.734 13.5594L168.618 13.5378H168.586H166.006C165.667 13.5378 165.394 13.8152 165.394 14.1539V30.7492C165.394 31.0878 165.667 31.3653 166.006 31.3653V31.3617Z" fill="white"/>
<path d="M144.806 31.3615H155.435C155.774 31.3615 156.047 31.0841 156.047 30.7454V28.0756C156.047 27.7369 155.774 27.4595 155.435 27.4595H148.081V14.1537C148.081 13.815 147.804 13.5376 147.465 13.5376H144.806C144.468 13.5376 144.194 13.815 144.194 14.1537V30.749C144.194 30.9075 144.255 31.0588 144.367 31.1741C144.5 31.3038 144.651 31.3651 144.806 31.3651V31.3615Z" fill="white"/>
<path d="M183.992 31.1962C184.1 31.3007 184.252 31.3619 184.41 31.3619H195.042C195.381 31.3619 195.655 31.0845 195.655 30.7458V28.076C195.655 27.7373 195.381 27.4599 195.042 27.4599H187.689V24.4046H195.042C195.381 24.4046 195.655 24.1271 195.655 23.7885V21.1187C195.655 20.78 195.381 20.5026 195.042 20.5026H187.689V17.4436H195.042C195.381 17.4436 195.655 17.1662 195.655 16.8275V14.1577C195.655 13.8191 195.381 13.5416 195.042 13.5416H184.414C184.252 13.5416 184.1 13.6029 183.989 13.7146C183.862 13.8479 183.801 13.9992 183.801 14.1577V30.753C183.801 30.9115 183.862 31.0629 183.974 31.1782L183.996 31.1998L183.992 31.1962Z" fill="white"/>
<path d="M214.322 30.8861C214.12 30.3132 213.814 29.4485 213.407 28.2955H207.019C206.817 28.8684 206.511 29.7331 206.104 30.8861C206.053 31.0266 205.963 31.1419 205.837 31.2319C205.718 31.322 205.581 31.3653 205.426 31.3653H202.864C202.616 31.3653 202.425 31.268 202.284 31.0698C202.191 30.9437 202.14 30.8068 202.14 30.6699C202.147 30.587 202.162 30.5042 202.187 30.4213C203.481 26.7751 205.419 21.313 208.002 14.0278C208.053 13.8873 208.139 13.772 208.258 13.6819C208.384 13.5918 208.525 13.5486 208.676 13.5486H211.742C211.894 13.5486 212.034 13.5918 212.16 13.6819C212.279 13.772 212.365 13.8873 212.416 14.0278C213.709 17.674 215.648 23.1361 218.231 30.4213C218.256 30.5042 218.271 30.5834 218.271 30.6591C218.271 30.7996 218.228 30.9365 218.137 31.0698C217.997 31.268 217.802 31.3653 217.557 31.3653H214.996C214.848 31.3653 214.715 31.322 214.585 31.2319C214.459 31.1419 214.365 31.0266 214.307 30.8861H214.322ZM211.962 24.1954C211.576 23.1073 210.996 21.4715 210.229 19.2917C209.836 20.3798 209.253 22.0156 208.478 24.1954H211.962Z" fill="white"/>
<path d="M226.763 21.756H231.731C231.922 21.756 232.085 21.8244 232.218 21.9577C232.351 22.091 232.416 22.2532 232.416 22.4441V24.9878C232.398 26.1336 232.106 27.182 231.54 28.1332C230.982 29.088 230.251 29.8482 229.343 30.4067C228.853 30.7057 228.323 30.9399 227.754 31.1057C227.188 31.2714 226.597 31.3543 225.985 31.3543H225.203C224.046 31.3543 222.987 31.0732 222.025 30.5148C221.067 29.9599 220.303 29.2213 219.73 28.2954C219.424 27.8054 219.189 27.2721 219.024 26.6992C218.851 26.1192 218.768 25.5175 218.768 24.8942V20.0013C218.768 19.378 218.854 18.7763 219.024 18.2034C219.189 17.6234 219.424 17.0901 219.73 16.5965C220.303 15.6778 221.067 14.9392 222.025 14.3771C222.991 13.815 224.05 13.5376 225.203 13.5376H225.985C226.961 13.5376 227.876 13.743 228.727 14.1573C229.577 14.5644 230.297 15.1193 230.888 15.8219C231.205 16.1966 231.479 16.6109 231.706 17.0541C231.933 17.5009 232.11 17.9692 232.229 18.4593C232.286 18.6754 232.243 18.8736 232.106 19.0537C231.973 19.2267 231.796 19.3132 231.573 19.3132H228.755C228.629 19.3132 228.507 19.2843 228.395 19.2267C228.287 19.169 228.204 19.0862 228.146 18.9781C227.905 18.5277 227.559 18.1602 227.109 17.8792C226.666 17.6053 226.172 17.4648 225.632 17.4576C225.347 17.4504 225.07 17.4901 224.803 17.5729C224.544 17.6486 224.299 17.7567 224.072 17.8972C223.654 18.1638 223.311 18.5241 223.052 18.9781C222.8 19.4321 222.67 19.9257 222.67 20.4589V24.5014C222.67 24.7897 222.71 25.0635 222.785 25.3229C222.861 25.5859 222.969 25.8273 223.11 26.0507C223.362 26.465 223.708 26.8001 224.147 27.0559C224.587 27.3117 225.066 27.4379 225.596 27.4379C226.269 27.4379 226.86 27.2361 227.375 26.8362C227.894 26.429 228.24 25.9138 228.413 25.2869H226.767C226.576 25.2869 226.413 25.2184 226.28 25.0851C226.147 24.9518 226.082 24.7897 226.082 24.5987V22.4477C226.082 22.2568 226.147 22.0946 226.28 21.9613C226.413 21.828 226.576 21.7596 226.767 21.7596L226.763 21.756Z" fill="white"/>
<path d="M246.078 17.6376H238.937V20.4083H245.152C245.354 20.4083 245.524 20.4768 245.657 20.6101C245.797 20.7506 245.866 20.9236 245.866 21.1253V23.7807C245.866 23.9861 245.797 24.1518 245.657 24.2887C245.524 24.4292 245.354 24.4977 245.152 24.4977H238.937V27.2684H246.078C246.277 27.2684 246.442 27.3368 246.583 27.4701C246.723 27.6107 246.792 27.7836 246.792 27.9854V30.6444C246.792 30.8497 246.723 31.0155 246.583 31.1524C246.442 31.2929 246.273 31.3614 246.078 31.3614H235.569C235.37 31.3614 235.205 31.2929 235.064 31.1524C234.924 31.0191 234.855 30.8497 234.855 30.6444V14.2617C234.855 14.0563 234.924 13.8906 235.064 13.7537C235.205 13.6131 235.37 13.5447 235.569 13.5447H246.078C246.277 13.5447 246.442 13.6131 246.583 13.7537C246.723 13.887 246.792 14.0563 246.792 14.2617V16.9171C246.792 17.1224 246.723 17.2918 246.583 17.4323C246.442 17.5656 246.273 17.634 246.078 17.634V17.6376Z" fill="white"/>
<path d="M260.548 13.5452H263.203C263.401 13.5452 263.567 13.6137 263.708 13.7542C263.848 13.8875 263.917 14.0569 263.917 14.2622V30.6449C263.917 30.8503 263.848 31.016 263.708 31.1529C263.567 31.2934 263.401 31.3619 263.203 31.3619H259.853C259.719 31.3619 259.6 31.3295 259.492 31.2646C259.377 31.1998 259.29 31.1133 259.226 31.0052C257.911 28.7065 255.94 25.2621 253.313 20.6719V30.6413C253.313 30.8467 253.245 31.0124 253.104 31.1493C252.964 31.2898 252.794 31.3583 252.6 31.3583H249.944C249.746 31.3583 249.58 31.2898 249.44 31.1493C249.299 31.016 249.231 30.8467 249.231 30.6413V14.2586C249.231 14.0532 249.299 13.8875 249.44 13.7506C249.58 13.6101 249.746 13.5416 249.944 13.5416H253.306C253.432 13.5416 253.555 13.5741 253.666 13.6389C253.774 13.7038 253.861 13.7902 253.922 13.8983C255.237 16.197 257.204 19.6414 259.834 24.2316V14.2622C259.834 14.0569 259.903 13.8911 260.043 13.7542C260.184 13.6137 260.35 13.5452 260.548 13.5452Z" fill="white"/>
<path d="M275.579 25.9246C275.637 25.8237 275.72 25.7409 275.828 25.676C275.936 25.6111 276.051 25.5787 276.17 25.5787H278.959C279.182 25.5787 279.363 25.6652 279.503 25.8381C279.597 25.9642 279.647 26.1011 279.647 26.2489C279.647 26.3065 279.64 26.3678 279.629 26.429C279.406 27.3478 279.006 28.1729 278.419 28.9043C277.835 29.6357 277.132 30.2121 276.314 30.6337C275.875 30.8643 275.41 31.0372 274.917 31.1597C274.423 31.2858 273.908 31.3507 273.374 31.3507H272.794C271.638 31.3507 270.579 31.0696 269.617 30.5112C268.658 29.9491 267.894 29.2105 267.321 28.2918C267.015 27.8017 266.781 27.2685 266.615 26.6956C266.442 26.1156 266.359 25.5139 266.359 24.8906V19.9977C266.359 18.8376 266.641 17.7747 267.195 16.8055C267.747 15.8435 268.485 15.0761 269.404 14.5032C269.894 14.1969 270.424 13.9627 270.993 13.797C271.569 13.6241 272.171 13.5376 272.791 13.5376H273.371C274.354 13.5376 275.273 13.743 276.124 14.1573C276.974 14.5644 277.694 15.1193 278.285 15.8219C278.602 16.1966 278.876 16.6109 279.103 17.0541C279.33 17.4937 279.507 17.962 279.626 18.4593C279.676 18.6754 279.636 18.8736 279.503 19.0537C279.363 19.2267 279.182 19.3132 278.959 19.3132H276.17C276.048 19.3132 275.936 19.2807 275.828 19.2159C275.72 19.151 275.637 19.0646 275.579 18.9565C275.338 18.5097 274.996 18.1458 274.553 17.8684C274.113 17.5945 273.627 17.4576 273.086 17.4576C272.805 17.4576 272.542 17.4937 272.297 17.5621C272.045 17.6378 271.807 17.7423 271.595 17.8756C271.195 18.1314 270.87 18.4701 270.622 18.888C270.38 19.3132 270.261 19.7815 270.261 20.2932V24.5951C270.261 24.8689 270.298 25.1356 270.366 25.3878C270.442 25.6436 270.546 25.8778 270.679 26.0939C270.932 26.4939 271.27 26.8217 271.688 27.0703C272.113 27.3117 272.578 27.4342 273.086 27.4342C273.627 27.4342 274.113 27.2973 274.553 27.0235C274.996 26.7425 275.338 26.3786 275.579 25.9246Z" fill="white"/>
<path d="M291.728 13.5452H294.383C294.657 13.5452 294.863 13.6605 295.003 13.8911C295.072 14.0064 295.108 14.1253 295.108 14.2442C295.108 14.3631 295.075 14.4784 295.014 14.5973C293.847 16.7951 292.096 20.0954 289.761 24.4983V30.6449C289.761 30.8503 289.692 31.016 289.552 31.1529C289.411 31.2934 289.246 31.3619 289.047 31.3619H286.19C285.988 31.3619 285.819 31.2934 285.686 31.1529C285.545 31.0196 285.477 30.8503 285.477 30.6449V24.4983C284.31 22.3004 282.558 19.0001 280.22 14.5973C280.155 14.482 280.126 14.3667 280.126 14.2514C280.126 14.1289 280.166 14.01 280.242 13.8875C280.382 13.6569 280.584 13.5416 280.851 13.5416H283.517C283.65 13.5416 283.773 13.5741 283.888 13.6389C284.003 13.7074 284.09 13.801 284.155 13.9163C284.929 15.3755 286.086 17.5589 287.628 20.4629C288.395 19.0109 289.552 16.8275 291.094 13.9163C291.159 13.801 291.245 13.711 291.361 13.6389C291.476 13.5741 291.598 13.5416 291.732 13.5416L291.728 13.5452Z" fill="white"/>
<path d="M41.0376 26.6503C41.4988 27.1547 42.0032 27.5438 42.5617 27.8213C43.1165 28.0987 43.7146 28.2392 44.3595 28.2392C45.1053 28.2392 45.7142 28.0483 46.1826 27.6664C46.651 27.2844 46.8852 26.7656 46.8852 26.1027C46.8852 25.5298 46.7411 25.0686 46.4565 24.7227C46.1718 24.3768 45.7431 24.067 45.181 23.7968C44.6153 23.5265 43.9272 23.2383 43.1129 22.9248C42.6805 22.7699 42.1797 22.5573 41.6177 22.2871C41.052 22.0169 40.5188 21.671 40.018 21.2459C39.5135 20.8207 39.0992 20.3019 38.7677 19.6822C38.4362 19.0661 38.2741 18.3239 38.2741 17.4555C38.2741 16.4143 38.5371 15.5171 39.0668 14.7605C39.5964 14.0039 40.317 13.4238 41.2285 13.0167C42.1401 12.6095 43.1597 12.4042 44.2875 12.4042C45.4152 12.4042 46.4529 12.5987 47.2923 12.9915C48.1354 13.3806 48.838 13.8778 49.4001 14.4759C49.4505 14.5299 49.5046 14.5876 49.5514 14.6416C50.2684 15.4415 50.063 16.6989 49.1227 17.2177L49.0866 17.2394C48.4093 17.6141 47.5626 17.4736 47.0473 16.8971C47.0077 16.8538 46.9681 16.8106 46.9284 16.7674C46.5898 16.4107 46.2042 16.126 45.7683 15.9099C45.3359 15.6937 44.8387 15.5856 44.2839 15.5856C43.5561 15.5856 43.0084 15.7549 42.6445 16.0936C42.2806 16.4323 42.0969 16.8286 42.0969 17.279C42.0969 17.7294 42.2446 18.1257 42.54 18.4644C42.8355 18.803 43.2858 19.1237 43.8947 19.4264C44.5036 19.729 45.2639 20.0389 46.1862 20.3523C46.7771 20.5613 47.3464 20.8207 47.8904 21.1342C48.4381 21.4476 48.9317 21.8223 49.3749 22.2655C49.818 22.7087 50.1639 23.2275 50.4161 23.8292C50.6683 24.4273 50.7944 25.1191 50.7944 25.8973C50.7944 26.7836 50.6215 27.5727 50.272 28.2644C49.9261 28.9598 49.4469 29.5435 48.8416 30.0227C48.2327 30.5019 47.5518 30.8658 46.7987 31.1144C46.0421 31.3666 45.2495 31.4927 44.4172 31.4927C43.3075 31.4927 42.2698 31.2801 41.3078 30.855C40.3458 30.4298 39.5063 29.8533 38.7965 29.1255C38.5083 28.8301 38.2453 28.5275 38.0111 28.214C37.449 27.4682 37.6328 26.4053 38.393 25.8685C39.11 25.3604 40.1044 25.4938 40.6485 26.1855C40.7782 26.3513 40.9115 26.5062 41.0484 26.6575L41.0376 26.6503Z" fill="white"/>
<path d="M70.6179 12.6348V29.8678C70.6179 30.819 69.8469 31.59 68.8957 31.59C67.9445 31.59 67.1735 30.819 67.1735 29.8678V12.6348C67.1735 11.6836 67.9445 10.9126 68.8957 10.9126C69.8469 10.9126 70.6179 11.6836 70.6179 12.6348Z" fill="white"/>
<path d="M77.2221 12.6348V29.8678C77.2221 30.819 76.4511 31.59 75.4999 31.59C74.5487 31.59 73.7777 30.819 73.7777 29.8678V12.6348C73.7777 11.6836 74.5487 10.9126 75.4999 10.9126C76.4511 10.9126 77.2221 11.6836 77.2221 12.6348Z" fill="white"/>
<path d="M83.0121 28.0409C83.4589 28.3364 83.884 28.5562 84.2876 28.6967C84.6911 28.8408 85.0694 28.9129 85.4297 28.9129C85.8945 28.9129 86.2512 28.8084 86.5034 28.603C86.752 28.3976 86.8781 28.1166 86.8781 27.7563C86.8781 27.4357 86.7736 27.1618 86.5683 26.9384C86.3629 26.7151 86.0638 26.5133 85.6675 26.3331C85.2748 26.153 84.774 25.9656 84.1651 25.7711C83.5922 25.5549 83.0373 25.3027 82.5005 25.0073C81.9637 24.7118 81.5205 24.3191 81.171 23.8255C80.8215 23.3319 80.6486 22.7014 80.6486 21.9339C80.6486 21.1665 80.8467 20.5792 81.2395 20.0676C81.6322 19.556 82.1654 19.174 82.8356 18.9146C83.5057 18.6552 84.2515 18.5255 85.0766 18.5255C85.7756 18.5255 86.4277 18.6156 87.0366 18.7921C87.6455 18.9723 88.2076 19.2065 88.7264 19.5019C89.2092 19.7757 89.5623 20.1505 89.5659 20.7485C89.5731 22.2186 87.9518 22.2258 86.9682 21.7394C86.3521 21.4367 85.7468 21.2818 85.1559 21.2818C84.3957 21.2818 83.4012 21.8366 84.1687 22.6581C84.7884 23.3211 85.8152 23.4976 86.6295 23.8075C87.2924 24.0597 87.905 24.3407 88.467 24.6542C89.0291 24.9676 89.4831 25.3567 89.8217 25.8215C90.1604 26.2863 90.3333 26.8952 90.3333 27.6446C90.3333 28.8804 89.9298 29.8424 89.1264 30.5306C88.3229 31.2188 87.2132 31.5647 85.7972 31.5647C84.9217 31.5647 84.1182 31.4494 83.394 31.2152C82.6698 30.9846 82.0177 30.6747 81.434 30.2892C81.2467 30.1631 81.0629 30.037 80.8864 29.9037C80.2991 29.4677 80.1838 28.6318 80.6342 28.0554L80.7278 27.9329C81.1674 27.3672 81.9745 27.2771 82.5473 27.7095C82.7059 27.8284 82.8572 27.9365 83.0049 28.0373L83.0121 28.0409Z" fill="white"/>
<path d="M124.201 20.327C124.201 19.34 123.401 18.5399 122.414 18.5399C121.427 18.5399 120.627 19.34 120.627 20.327V29.8028C120.627 30.7898 121.427 31.5899 122.414 31.5899C123.401 31.5899 124.201 30.7898 124.201 29.8028V20.327Z" fill="white"/>
<path d="M63.3219 27.371C63.0301 27.371 62.7635 27.4647 62.5365 27.6232C62.5293 27.6268 62.4752 27.6701 62.396 27.7349C62.3924 27.7385 62.3851 27.7421 62.3815 27.7458C61.452 28.6069 60.4035 28.8987 59.1353 28.8987C58.4795 28.8987 57.9211 28.7438 57.4563 28.4375C56.9915 28.1277 56.642 27.6845 56.4114 27.1044C56.2637 26.7405 56.17 26.319 56.116 25.8542H64.0281C65.1414 25.8542 65.3 24.9246 65.3 24.395C65.2459 23.2673 65.0081 22.2872 64.5902 21.4586C64.1074 20.5074 63.4048 19.7796 62.486 19.2824C61.5637 18.7852 60.4504 18.533 59.1425 18.533C57.8346 18.533 56.6961 18.7996 55.7341 19.3364C54.7685 19.8733 54.0263 20.6263 53.5002 21.5955C52.9742 22.5647 52.7112 23.7212 52.7112 25.0651C52.7112 26.409 52.9742 27.5368 53.5002 28.506C54.0263 29.4752 54.7685 30.2354 55.7341 30.7794C56.6997 31.3235 57.8274 31.5973 59.1173 31.5973C60.4071 31.5973 61.9168 31.3884 63.1382 30.7794C63.8876 30.4047 64.7523 29.7994 64.7523 28.8735C64.7523 28.0448 64.1146 27.3746 63.3291 27.3746L63.3219 27.371ZM57.2005 21.963C57.7625 21.4658 58.4543 21.2172 59.2758 21.2172C60.1441 21.2172 60.8827 21.473 61.4844 21.9882C62.0861 22.5034 62.3923 23.188 62.4104 24.0419H56.17C56.2961 23.1556 56.642 22.4638 57.2041 21.9666L57.2005 21.963Z" fill="white"/>
<path d="M103.837 20.1468C103.837 19.2533 103.113 18.5255 102.216 18.5255C101.319 18.5255 100.595 19.2497 100.595 20.1468C100.595 20.1613 100.595 20.1721 100.595 20.1865C100.595 20.1937 100.595 20.2045 100.595 20.2117V26.3764C100.595 26.7691 100.494 27.1402 100.292 27.4897C100.09 27.8392 99.8272 28.1238 99.4993 28.3472C99.1714 28.5706 98.8003 28.6787 98.3824 28.6787C97.9644 28.6787 97.6114 28.5634 97.2763 28.3328C96.9412 28.1022 96.6746 27.8176 96.4728 27.4753C96.271 27.133 96.1702 26.7691 96.1702 26.3764V20.2369C96.1702 20.2369 96.1702 20.2117 96.1702 20.2009C96.1702 20.1829 96.1702 20.1649 96.1702 20.1468C96.1702 19.2533 95.446 18.5255 94.5488 18.5255C93.6517 18.5255 92.9275 19.2497 92.9275 20.1468C92.9275 20.1649 92.9275 20.1829 92.9275 20.2009C92.9275 20.2117 92.9275 20.2225 92.9275 20.2369V26.3764C92.9275 27.2807 93.1761 28.1274 93.6697 28.9201C94.1633 29.7127 94.8263 30.3541 95.6549 30.8368C96.4836 31.3232 97.4024 31.5647 98.404 31.5647C99.4056 31.5647 100.274 31.3269 101.103 30.8477C101.931 30.3721 102.594 29.7343 103.088 28.9417C103.581 28.149 103.83 27.2915 103.83 26.3728V20.2081C103.83 20.2081 103.83 20.1901 103.83 20.1829C103.83 20.1721 103.83 20.1577 103.83 20.1468H103.837Z" fill="white"/>
<path d="M122.439 16.1875C122.998 16.1875 123.473 16.0037 123.863 15.6398C124.255 15.2723 124.45 14.822 124.45 14.2815C124.45 13.7411 124.255 13.2655 123.863 12.9088C123.47 12.5521 122.994 12.3719 122.439 12.3719C121.885 12.3719 121.402 12.5521 121.002 12.9088C120.602 13.2655 120.4 13.7231 120.4 14.2815C120.4 14.84 120.602 15.2759 121.002 15.6398C121.402 16.0073 121.881 16.1875 122.439 16.1875Z" fill="white"/>
<path d="M110.373 12.6709C110.373 11.6981 109.584 10.9091 108.611 10.9091C107.638 10.9091 106.849 11.6981 106.849 12.6709V29.8282C106.849 30.801 107.638 31.5901 108.611 31.5901C109.584 31.5901 110.373 30.801 110.373 29.8282V12.6709Z" fill="white"/>
<path d="M117.73 20.5003C118.548 19.6031 117.91 18.1583 116.696 18.1583C116.077 18.1583 115.482 18.4213 115.064 18.8825L110.373 24.0636V25.3787L111.872 26.928L116.221 22.1576L117.73 20.5003Z" fill="white"/>
<path d="M113.875 24.7372L111.875 26.9314L115.958 31.1433C116.239 31.4315 116.624 31.5936 117.024 31.5936C118.336 31.5936 119.006 30.0155 118.091 29.0752L113.875 24.7372Z" fill="white"/>
</svg>
