<svg width="189" height="54" viewBox="0 0 189 54" fill="none" xmlns="http://www.w3.org/2000/svg">
<path d="M21.4442 19.8599H13.4365L17.4409 23.8632L21.4442 19.8599Z" fill="#09193A"/>
<path d="M17.4414 23.8632L25.6971 32.1189L30.2889 27.4102C30.8296 26.8563 31.1314 26.1134 31.1314 25.3389V19.8599H21.4458L17.4414 23.8642V23.8632Z" fill="#E6EAEE"/>
<path d="M31.1305 12.0613C31.1264 11.3692 30.2605 11.044 29.7706 11.5339L21.4448 19.8597L17.4404 23.864L25.6961 32.1197L30.2879 27.411C30.8286 26.8571 31.1305 26.1142 31.1305 25.3397V12.0776C31.1305 12.0725 31.1305 12.0664 31.1305 12.0613Z" fill="url(#paint0_linear_6219_18929)"/>
<path d="M13.4367 19.8599H4V25.3379C4 26.1124 4.30287 26.8563 4.84356 27.4103L9.31441 31.9888L17.44 23.8632L13.4356 19.8589L13.4367 19.8599Z" fill="#E6EAEE"/>
<path d="M9.31547 31.9886L13.0383 35.8019C15.5253 38.3488 19.6221 38.3478 22.1071 35.7989L25.6957 32.1187L17.44 23.863L9.31445 31.9886H9.31547Z" fill="#E6EAEE"/>
<path d="M9.31547 31.9886L13.0383 35.8019C15.5253 38.3488 19.6221 38.3478 22.1071 35.7989L25.6957 32.1187L17.44 23.863L9.31445 31.9886H9.31547Z" fill="url(#paint1_linear_6219_18929)"/>
<path d="M17.441 23.863L13.4367 19.8587L5.16065 11.5826C4.73278 11.1548 4.00102 11.4566 4 12.0624V12.0766V19.8587V25.0542C4 26.0095 4.37401 26.9273 5.04174 27.6113L9.31543 31.9876L14.3483 37.1414C16.1178 38.9535 19.0316 38.9525 20.799 37.1394L25.218 32.6076C25.4833 32.3362 25.4802 31.9012 25.2119 31.6329L17.441 23.862V23.863Z" fill="url(#paint2_linear_6219_18929)"/>
<path d="M31.1309 9.96374C29.8625 9.96374 28.835 8.96468 28.835 7.73187C28.835 7.19321 29.0311 6.69826 29.3584 6.31307C29.4316 6.22668 29.5129 6.14842 29.5972 6.07423C30.0037 5.71851 30.5404 5.5 31.1309 5.5C32.3606 5.5 33.3617 6.44113 33.4217 7.62211C33.4237 7.65869 33.4278 7.69528 33.4278 7.73187C33.4278 7.76846 33.4237 7.80505 33.4217 7.84164C33.3627 9.02363 32.3616 9.96374 31.1309 9.96374Z" fill="url(#paint3_linear_6219_18929)"/>
<path d="M45.1152 27.8882C45.6192 28.4405 46.1735 28.8673 46.7818 29.1705C47.3901 29.4756 48.0448 29.6262 48.7497 29.6262C49.5665 29.6262 50.2328 29.4177 50.7446 28.9986C51.2583 28.5815 51.5151 28.0098 51.5151 27.2876C51.5151 26.6599 51.3587 26.1578 51.0439 25.7774C50.731 25.3969 50.2637 25.0609 49.6477 24.7655C49.0297 24.4719 48.2746 24.1533 47.3805 23.8115C46.9054 23.6396 46.3589 23.4078 45.7409 23.1124C45.1229 22.8188 44.5397 22.4384 43.9874 21.973C43.4351 21.5076 42.9793 20.9379 42.6182 20.262C42.2571 19.588 42.0775 18.775 42.0775 17.8248C42.0775 16.6854 42.3671 15.7005 42.9465 14.874C43.5258 14.0475 44.3138 13.4102 45.3122 12.9641C46.3106 12.518 47.4268 12.2939 48.6608 12.2939C49.8948 12.2939 51.0304 12.5083 51.9535 12.9351C52.8746 13.3619 53.6452 13.9045 54.2632 14.5592C54.3192 14.6191 54.3752 14.6809 54.4312 14.7407C55.2172 15.6156 54.9912 16.9925 53.9619 17.5622L53.9213 17.5834C53.1798 17.9928 52.2528 17.8403 51.687 17.2088C51.6445 17.1605 51.6001 17.1141 51.5557 17.0659C51.1849 16.6758 50.7619 16.3629 50.2869 16.1254C49.8118 15.8879 49.2691 15.7681 48.6628 15.7681C47.8652 15.7681 47.2665 15.9535 46.8668 16.3243C46.467 16.6951 46.2681 17.1277 46.2681 17.622C46.2681 18.1164 46.4284 18.549 46.7528 18.9198C47.0753 19.2906 47.5697 19.6421 48.236 19.9742C48.9003 20.3064 49.7365 20.6443 50.7446 20.9862C51.3896 21.214 52.0133 21.4998 52.612 21.8417C53.2107 22.1835 53.7514 22.5968 54.2361 23.0815C54.7208 23.5662 55.1013 24.1359 55.3755 24.7925C55.6517 25.4491 55.7888 26.2042 55.7888 27.0578C55.7888 28.0272 55.5976 28.8924 55.2191 29.6513C54.8386 30.4122 54.3172 31.0534 53.651 31.5748C52.9847 32.0981 52.2393 32.4959 51.4127 32.7721C50.5862 33.0483 49.7172 33.1854 48.8037 33.1854C47.5871 33.1854 46.4516 32.9517 45.3971 32.4863C44.3427 32.0209 43.4254 31.3894 42.6472 30.5899C42.3324 30.2674 42.0446 29.9333 41.7859 29.5895C41.1717 28.7746 41.3707 27.6081 42.2049 27.0191C42.9909 26.4649 44.0801 26.6097 44.6749 27.3667C44.8159 27.5463 44.9626 27.7182 45.1113 27.8824L45.1152 27.8882Z" fill="#09193A"/>
<path d="M77.505 12.543V31.4125C77.505 32.4553 76.661 33.2992 75.6182 33.2992C74.5754 33.2992 73.7314 32.4553 73.7314 31.4125V12.543C73.7314 11.5002 74.5754 10.6562 75.6182 10.6562C76.661 10.6562 77.505 11.5002 77.505 12.543Z" fill="#09193A"/>
<path d="M84.7374 12.543V31.4125C84.7374 32.4553 83.8934 33.2992 82.8506 33.2992C81.8078 33.2992 80.9639 32.4553 80.9639 31.4125V12.543C80.9639 11.5002 81.8078 10.6562 82.8506 10.6562C83.8934 10.6562 84.7374 11.5002 84.7374 12.543Z" fill="#09193A"/>
<path d="M91.0793 29.4121C91.5679 29.7346 92.0333 29.976 92.4756 30.1325C92.9159 30.2889 93.333 30.3681 93.725 30.3681C94.2349 30.3681 94.625 30.256 94.9011 30.0301C95.1753 29.8061 95.3125 29.4971 95.3125 29.1051C95.3125 28.7517 95.2005 28.4543 94.9745 28.209C94.7486 27.9637 94.4203 27.7436 93.9896 27.5486C93.5589 27.3535 93.0105 27.1469 92.3442 26.9306C91.7166 26.695 91.1102 26.4169 90.5232 26.0924C89.9361 25.7699 89.4513 25.3393 89.069 24.8005C88.6866 24.2617 88.4954 23.5723 88.4954 22.7283C88.4954 21.8844 88.7117 21.2452 89.1424 20.6871C89.573 20.129 90.1562 19.708 90.8901 19.4241C91.6239 19.1402 92.4427 18.9973 93.3427 18.9973C94.1074 18.9973 94.8219 19.0958 95.4882 19.2909C96.1544 19.4878 96.7705 19.7466 97.3402 20.0691C97.8693 20.3704 98.2556 20.7798 98.2594 21.4345C98.2691 23.0451 96.4943 23.0528 95.4148 22.5198C94.7389 22.1876 94.0784 22.0196 93.4315 22.0196C92.6011 22.0196 91.5119 22.6279 92.352 23.5259C93.0317 24.252 94.1557 24.4471 95.0479 24.785C95.7721 25.0593 96.4441 25.3683 97.0602 25.7101C97.6781 26.0538 98.1725 26.4787 98.5433 26.9885C98.916 27.4983 99.1014 28.1646 99.1014 28.9873C99.1014 30.3391 98.6611 31.3916 97.7786 32.1467C96.8979 32.8998 95.6832 33.2783 94.1344 33.2783C93.1746 33.2783 92.2979 33.1509 91.5042 32.896C90.7105 32.6411 89.9959 32.3031 89.3587 31.8821C89.152 31.745 88.9512 31.604 88.7581 31.4611C88.115 30.9822 87.9875 30.0687 88.48 29.4353L88.5843 29.302C89.0651 28.6841 89.9515 28.5817 90.5753 29.0568C90.7472 29.1881 90.9152 29.3059 91.0774 29.4141L91.0793 29.4121Z" fill="#09193A"/>
<path d="M69.5153 28.6763C69.1966 28.6763 68.9031 28.7806 68.654 28.9525C68.6462 28.9583 68.5883 29.0046 68.5014 29.0742C68.4976 29.078 68.4918 29.0819 68.486 29.0858C67.4702 30.0282 66.3192 30.3488 64.9326 30.3488C64.2161 30.3488 63.604 30.1807 63.0941 29.8428C62.5843 29.5048 62.2039 29.0182 61.9489 28.3828C61.7887 27.9831 61.6844 27.5215 61.6264 27.0117H70.2877C71.5082 27.0117 71.6782 25.992 71.6782 25.4146C71.6183 24.1806 71.3595 23.1088 70.8999 22.1992C70.3727 21.1564 69.6041 20.3627 68.5941 19.8161C67.586 19.2696 66.3636 18.9973 64.9307 18.9973C63.4978 18.9973 62.2541 19.2909 61.1977 19.876C60.1414 20.4631 59.3264 21.2877 58.7509 22.3498C58.1754 23.412 57.8877 24.6788 57.8877 26.1485C57.8877 27.6181 58.1754 28.8559 58.7509 29.9181C59.3264 30.9802 60.1414 31.8106 61.1977 32.4074C62.2541 33.0041 63.4881 33.3015 64.9017 33.3015C66.3153 33.3015 67.9665 33.0736 69.3029 32.4074C70.1236 31.998 71.0699 31.3317 71.0699 30.3217C71.0699 29.4141 70.3727 28.6802 69.5114 28.6802L69.5153 28.6763ZM62.8122 22.7534C63.4263 22.2069 64.1852 21.9346 65.0852 21.9346C66.0372 21.9346 66.8425 22.2166 67.5011 22.7786C68.1596 23.3425 68.4976 24.0898 68.5149 25.0264H61.6805C61.8196 24.057 62.1961 23.298 62.8103 22.7534H62.8122Z" fill="#09193A"/>
<path d="M113.881 20.7676C113.881 19.7885 113.087 18.9929 112.106 18.9929C111.125 18.9929 110.331 19.7866 110.331 20.7676C110.331 20.7812 110.331 20.7947 110.333 20.8082C110.333 20.8179 110.331 20.8275 110.331 20.8372V27.5866C110.331 28.0173 110.221 28.4228 110.001 28.8052C109.781 29.1876 109.493 29.5004 109.134 29.7437C108.777 29.9871 108.367 30.1087 107.91 30.1087C107.452 30.1087 107.066 29.9832 106.699 29.7302C106.332 29.4772 106.038 29.1663 105.818 28.7917C105.598 28.419 105.488 28.0173 105.488 27.5866V20.8642C105.488 20.8507 105.486 20.8391 105.484 20.8256C105.484 20.8063 105.488 20.785 105.488 20.7657C105.488 19.7866 104.694 18.991 103.713 18.991C102.732 18.991 101.938 19.7847 101.938 20.7657C101.938 20.787 101.94 20.8063 101.942 20.8256C101.942 20.8391 101.938 20.8507 101.938 20.8642V27.5866C101.938 28.5773 102.209 29.5043 102.75 30.3733C103.29 31.2423 104.014 31.9414 104.922 32.4744C105.83 33.0074 106.834 33.272 107.933 33.272C109.032 33.272 109.982 33.0113 110.889 32.4879C111.797 31.9646 112.521 31.2694 113.062 30.4023C113.603 29.5332 113.873 28.5947 113.873 27.5866V20.8372C113.873 20.8275 113.873 20.8179 113.871 20.8082C113.871 20.7947 113.873 20.7812 113.873 20.7676H113.881Z" fill="#09193A"/>
<path d="M134.252 16.475C134.862 16.475 135.384 16.2741 135.812 15.8744C136.241 15.4727 136.455 14.9783 136.455 14.3854C136.455 13.7926 136.241 13.275 135.812 12.883C135.384 12.4929 134.862 12.2959 134.252 12.2959C133.642 12.2959 133.116 12.4909 132.678 12.883C132.24 13.275 132.02 13.7752 132.02 14.3854C132.02 14.9957 132.238 15.4727 132.678 15.8744C133.116 16.276 133.642 16.475 134.252 16.475Z" fill="url(#paint4_linear_6219_18929)"/>
<path d="M134.224 19.0068C133.142 19.0068 132.266 19.8836 132.266 20.965V31.3412C132.266 32.4227 133.142 33.2994 134.224 33.2994C135.305 33.2994 136.182 32.4227 136.182 31.3412V20.965C136.182 19.8836 135.305 19.0068 134.224 19.0068Z" fill="#09193A"/>
<path d="M121.039 12.624C121.039 11.558 120.174 10.6929 119.108 10.6929C118.042 10.6929 117.177 11.558 117.177 12.624V31.4124C117.177 32.4784 118.042 33.3436 119.108 33.3436C120.174 33.3436 121.039 32.4784 121.039 31.4124V12.624Z" fill="url(#paint5_linear_6219_18929)"/>
<path d="M129.096 21.1947C129.992 20.2098 129.293 18.6301 127.962 18.6301C127.283 18.6301 126.634 18.9179 126.176 19.4219L121.039 25.0976V26.5383L122.681 28.2338L127.441 23.0081L129.094 21.1928L129.096 21.1947Z" fill="url(#paint6_linear_6219_18929)"/>
<path d="M124.871 25.8332L122.681 28.2337L127.149 32.8473C127.456 33.164 127.877 33.3416 128.318 33.3416C129.755 33.3416 130.486 31.6132 129.484 30.582L124.871 25.8313" fill="url(#paint7_linear_6219_18929)"/>
<path d="M156.072 33H150.788C150.125 33 149.585 32.4736 149.585 31.8242V20.8115C149.585 20.1621 150.125 19.6357 150.788 19.6357H155.32C157.761 19.6357 160.017 20.3877 160.017 23.2314C160.017 24.1885 159.463 25.3848 158.205 25.9727C159.709 26.3076 160.728 27.6953 160.728 29.1992C160.728 31.1406 159.374 33 156.072 33ZM151.991 25.1797H155.184C157.029 25.1797 157.617 24.2705 157.624 23.3135C157.638 22.1855 156.715 21.6592 155.32 21.6592H151.991V25.1797ZM151.991 31.0039H156.059C157.515 31.0039 158.342 30.1221 158.335 29.1992C158.328 27.6953 157.2 27.21 155.703 27.21H151.991V31.0039ZM162.703 31.9199V20.415C162.703 19.7041 163.134 19.1982 163.852 19.1982C164.556 19.1982 165 19.7041 165 20.415V31.9199C165 32.6309 164.556 33.1367 163.852 33.1367C163.134 33.1367 162.703 32.6309 162.703 31.9199ZM166.805 28.0439C166.805 25.1045 168.514 22.835 171.87 22.835C175.206 22.835 176.942 25.1045 176.942 28.0439C176.942 30.9561 175.206 33.2256 171.87 33.2256C168.514 33.2256 166.805 30.9561 166.805 28.0439ZM169.156 28.0439C169.156 30.1426 170.359 31.2363 171.87 31.2363C173.326 31.2363 174.557 30.1426 174.557 28.0439C174.557 26 173.326 24.8242 171.87 24.8242C170.359 24.8242 169.156 26 169.156 28.0439ZM180.798 34.1279C181.297 34.7637 182.015 34.9961 182.91 34.9961C184.817 34.9961 185.48 33.5947 185.48 32.2754V31.8037C184.667 32.7061 183.724 33.0068 182.746 33.0068C179.608 33.0068 178.057 30.7852 178.057 28.0713C178.057 25.7744 179.116 22.835 182.814 22.835C183.833 22.835 184.729 23.1631 185.467 23.9971C185.487 23.293 185.863 22.9033 186.561 22.9033C187.306 22.9033 187.661 23.3135 187.661 24.0586V32.166C187.661 34.9961 186.137 37.0195 182.801 37.0195C181.003 37.0195 179.52 36.3086 178.829 35.0986C178.569 34.5586 178.74 33.9023 179.287 33.6426C179.438 33.5742 179.588 33.54 179.731 33.54C180.142 33.54 180.524 33.7861 180.798 34.1279ZM182.828 31.0518C184.763 31.0518 185.542 29.582 185.542 28.0098C185.542 26.5605 184.763 24.8242 182.972 24.8242C181.119 24.8242 180.436 26.2803 180.415 28.0508C180.401 29.4453 181.01 31.0518 182.828 31.0518Z" fill="#F35B1F"/>
<defs>
<linearGradient id="paint0_linear_6219_18929" x1="0.403615" y1="21.7084" x2="52.6066" y2="21.7084" gradientUnits="userSpaceOnUse">
<stop stop-color="#00CFF4"/>
<stop offset="0.41" stop-color="#00BBF4"/>
<stop offset="1" stop-color="#0098F5"/>
</linearGradient>
<linearGradient id="paint1_linear_6219_18929" x1="0.403232" y1="30.7873" x2="52.6062" y2="30.7873" gradientUnits="userSpaceOnUse">
<stop stop-color="#00CFF4"/>
<stop offset="0.41" stop-color="#00BBF4"/>
<stop offset="1" stop-color="#0098F5"/>
</linearGradient>
<linearGradient id="paint2_linear_6219_18929" x1="-31.3491" y1="24.9424" x2="36.8967" y2="24.9424" gradientUnits="userSpaceOnUse">
<stop stop-color="#F5B059"/>
<stop offset="0.14" stop-color="#F4AA55"/>
<stop offset="0.33" stop-color="#F49949"/>
<stop offset="0.53" stop-color="#F37E37"/>
<stop offset="0.75" stop-color="#F35B1F"/>
</linearGradient>
<linearGradient id="paint3_linear_6219_18929" x1="28.835" y1="7.73187" x2="33.4278" y2="7.73187" gradientUnits="userSpaceOnUse">
<stop stop-color="#00CFF4"/>
<stop offset="0.41" stop-color="#00BBF4"/>
<stop offset="1" stop-color="#0098F5"/>
</linearGradient>
<linearGradient id="paint4_linear_6219_18929" x1="132.02" y1="14.3854" x2="136.455" y2="14.3854" gradientUnits="userSpaceOnUse">
<stop stop-color="#46BFE2"/>
<stop offset="0.44" stop-color="#46ABD6"/>
<stop offset="1" stop-color="#478DC5"/>
</linearGradient>
<linearGradient id="paint5_linear_6219_18929" x1="118.82" y1="5.74328" x2="119.239" y2="29.4214" gradientUnits="userSpaceOnUse">
<stop stop-color="#F4AC5A"/>
<stop offset="0.15" stop-color="#F3A656"/>
<stop offset="0.34" stop-color="#F0954C"/>
<stop offset="0.55" stop-color="#ED7A3B"/>
<stop offset="0.75" stop-color="#E95C28"/>
</linearGradient>
<linearGradient id="paint6_linear_6219_18929" x1="115.004" y1="18.5201" x2="130.37" y2="25.7137" gradientUnits="userSpaceOnUse">
<stop stop-color="#F4AC5A"/>
<stop offset="0.15" stop-color="#F3A656"/>
<stop offset="0.34" stop-color="#F0954C"/>
<stop offset="0.55" stop-color="#ED7A3B"/>
<stop offset="0.75" stop-color="#E95C28"/>
</linearGradient>
<linearGradient id="paint7_linear_6219_18929" x1="122.683" y1="29.5894" x2="129.948" y2="29.5894" gradientUnits="userSpaceOnUse">
<stop stop-color="#46BFE2"/>
<stop offset="0.44" stop-color="#46ABD6"/>
<stop offset="1" stop-color="#478DC5"/>
</linearGradient>
</defs>
</svg>
