<svg width="183" height="54" viewBox="0 0 183 54" fill="none" xmlns="http://www.w3.org/2000/svg">
<path d="M21.4442 19.8599H13.4365L17.4409 23.8632L21.4442 19.8599Z" fill="white"/>
<path d="M17.4414 23.8632L25.6971 32.1189L30.2889 27.4102C30.8296 26.8563 31.1314 26.1134 31.1314 25.3389V19.8599H21.4458L17.4414 23.8642V23.8632Z" fill="#E6EAEE"/>
<path d="M31.1305 12.0616C31.1264 11.3695 30.2605 11.0442 29.7706 11.5341L21.4448 19.8599L17.4404 23.8643L25.6961 32.12L30.2879 27.4113C30.8286 26.8574 31.1305 26.1144 31.1305 25.34V12.0778C31.1305 12.0728 31.1305 12.0667 31.1305 12.0616Z" fill="url(#paint0_linear_5443_18022)"/>
<path d="M13.4367 19.8599H4V25.3379C4 26.1124 4.30287 26.8563 4.84356 27.4103L9.31441 31.9888L17.44 23.8632L13.4356 19.8589L13.4367 19.8599Z" fill="#E6EAEE"/>
<path d="M9.31547 31.9889L13.0383 35.8022C15.5253 38.3491 19.6221 38.3481 22.1071 35.7991L25.6957 32.119L17.44 23.8633L9.31445 31.9889H9.31547Z" fill="#E6EAEE"/>
<path d="M9.31547 31.9889L13.0383 35.8022C15.5253 38.3491 19.6221 38.3481 22.1071 35.7991L25.6957 32.119L17.44 23.8633L9.31445 31.9889H9.31547Z" fill="url(#paint1_linear_5443_18022)"/>
<path d="M17.441 23.8633L13.4367 19.8589L5.16065 11.5829C4.73278 11.155 4.00102 11.4569 4 12.0626V12.0768V19.8589V25.0544C4 26.0098 4.37401 26.9275 5.04174 27.6115L9.31543 31.9878L14.3483 37.1417C16.1178 38.9538 19.0316 38.9528 20.799 37.1396L25.218 32.6078C25.4833 32.3364 25.4802 31.9015 25.2119 31.6331L17.441 23.8622V23.8633Z" fill="url(#paint2_linear_5443_18022)"/>
<path d="M31.1309 9.96374C29.8625 9.96374 28.835 8.96468 28.835 7.73187C28.835 7.19321 29.0311 6.69826 29.3584 6.31307C29.4316 6.22668 29.5129 6.14842 29.5972 6.07423C30.0037 5.71851 30.5404 5.5 31.1309 5.5C32.3606 5.5 33.3617 6.44113 33.4217 7.62211C33.4237 7.65869 33.4278 7.69528 33.4278 7.73187C33.4278 7.76846 33.4237 7.80505 33.4217 7.84164C33.3627 9.02363 32.3616 9.96374 31.1309 9.96374Z" fill="url(#paint3_linear_5443_18022)"/>
<path d="M45.1152 27.8882C45.6192 28.4405 46.1735 28.8673 46.7818 29.1705C47.3901 29.4756 48.0448 29.6262 48.7497 29.6262C49.5665 29.6262 50.2328 29.4177 50.7446 28.9986C51.2583 28.5815 51.5151 28.0098 51.5151 27.2876C51.5151 26.6599 51.3587 26.1578 51.0439 25.7774C50.731 25.3969 50.2637 25.0609 49.6477 24.7655C49.0297 24.4719 48.2746 24.1533 47.3805 23.8115C46.9054 23.6396 46.3589 23.4078 45.7409 23.1124C45.1229 22.8188 44.5397 22.4384 43.9874 21.973C43.4351 21.5076 42.9793 20.9379 42.6182 20.262C42.2571 19.588 42.0775 18.775 42.0775 17.8248C42.0775 16.6854 42.3671 15.7005 42.9465 14.874C43.5258 14.0475 44.3138 13.4102 45.3122 12.9641C46.3106 12.518 47.4268 12.2939 48.6608 12.2939C49.8948 12.2939 51.0304 12.5083 51.9535 12.9351C52.8746 13.3619 53.6452 13.9045 54.2632 14.5592C54.3192 14.6191 54.3752 14.6809 54.4312 14.7407C55.2172 15.6156 54.9912 16.9925 53.9619 17.5622L53.9213 17.5834C53.1798 17.9928 52.2528 17.8403 51.687 17.2088C51.6445 17.1605 51.6001 17.1141 51.5557 17.0659C51.1849 16.6758 50.7619 16.3629 50.2869 16.1254C49.8118 15.8879 49.2691 15.7681 48.6628 15.7681C47.8652 15.7681 47.2665 15.9535 46.8668 16.3243C46.467 16.6951 46.2681 17.1277 46.2681 17.622C46.2681 18.1164 46.4284 18.549 46.7528 18.9198C47.0753 19.2906 47.5697 19.6421 48.236 19.9742C48.9003 20.3064 49.7365 20.6443 50.7446 20.9862C51.3896 21.214 52.0133 21.4998 52.612 21.8417C53.2107 22.1835 53.7514 22.5968 54.2361 23.0815C54.7208 23.5662 55.1013 24.1359 55.3755 24.7925C55.6517 25.4491 55.7888 26.2042 55.7888 27.0578C55.7888 28.0272 55.5976 28.8924 55.2191 29.6513C54.8386 30.4122 54.3172 31.0534 53.651 31.5748C52.9847 32.0981 52.2393 32.4959 51.4127 32.7721C50.5862 33.0483 49.7172 33.1854 48.8037 33.1854C47.5871 33.1854 46.4516 32.9517 45.3971 32.4863C44.3427 32.0209 43.4254 31.3894 42.6472 30.5899C42.3324 30.2674 42.0446 29.9333 41.7859 29.5895C41.1717 28.7746 41.3707 27.6081 42.2049 27.0191C42.9909 26.4649 44.0801 26.6097 44.6749 27.3667C44.8159 27.5463 44.9626 27.7182 45.1113 27.8824L45.1152 27.8882Z" fill="white"/>
<path d="M77.505 12.543V31.4125C77.505 32.4553 76.661 33.2992 75.6182 33.2992C74.5754 33.2992 73.7314 32.4553 73.7314 31.4125V12.543C73.7314 11.5002 74.5754 10.6562 75.6182 10.6562C76.661 10.6562 77.505 11.5002 77.505 12.543Z" fill="white"/>
<path d="M84.7374 12.543V31.4125C84.7374 32.4553 83.8934 33.2992 82.8506 33.2992C81.8078 33.2992 80.9639 32.4553 80.9639 31.4125V12.543C80.9639 11.5002 81.8078 10.6562 82.8506 10.6562C83.8934 10.6562 84.7374 11.5002 84.7374 12.543Z" fill="white"/>
<path d="M91.0793 29.4119C91.5679 29.7344 92.0333 29.9758 92.4756 30.1322C92.9159 30.2886 93.333 30.3678 93.725 30.3678C94.2349 30.3678 94.625 30.2558 94.9011 30.0299C95.1753 29.8058 95.3125 29.4969 95.3125 29.1048C95.3125 28.7514 95.2005 28.454 94.9745 28.2088C94.7486 27.9635 94.4203 27.7434 93.9896 27.5483C93.5589 27.3533 93.0105 27.1466 92.3442 26.9303C91.7166 26.6947 91.1102 26.4166 90.5232 26.0922C89.9361 25.7697 89.4513 25.339 89.069 24.8002C88.6866 24.2614 88.4954 23.572 88.4954 22.7281C88.4954 21.8842 88.7117 21.245 89.1424 20.6868C89.573 20.1287 90.1562 19.7077 90.8901 19.4239C91.6239 19.14 92.4427 18.9971 93.3427 18.9971C94.1074 18.9971 94.8219 19.0956 95.4882 19.2906C96.1544 19.4876 96.7705 19.7464 97.3402 20.0689C97.8693 20.3701 98.2556 20.7795 98.2594 21.4342C98.2691 23.0448 96.4943 23.0525 95.4148 22.5195C94.7389 22.1874 94.0784 22.0194 93.4315 22.0194C92.6011 22.0194 91.5119 22.6277 92.352 23.5257C93.0317 24.2518 94.1557 24.4468 95.0479 24.7848C95.7721 25.059 96.4441 25.368 97.0602 25.7098C97.6781 26.0536 98.1725 26.4784 98.5433 26.9883C98.916 27.4981 99.1014 28.1643 99.1014 28.987C99.1014 30.3388 98.6611 31.3913 97.7786 32.1464C96.8979 32.8996 95.6832 33.2781 94.1344 33.2781C93.1746 33.2781 92.2979 33.1506 91.5042 32.8957C90.7105 32.6408 89.9959 32.3029 89.3587 31.8819C89.152 31.7447 88.9512 31.6038 88.7581 31.4609C88.115 30.9819 87.9875 30.0685 88.48 29.4351L88.5843 29.3018C89.0651 28.6838 89.9515 28.5815 90.5753 29.0566C90.7472 29.1879 90.9152 29.3057 91.0774 29.4138L91.0793 29.4119Z" fill="white"/>
<path d="M69.5153 28.6761C69.1966 28.6761 68.9031 28.7804 68.654 28.9523C68.6462 28.9581 68.5883 29.0044 68.5014 29.0739C68.4976 29.0778 68.4918 29.0816 68.486 29.0855C67.4702 30.0279 66.3192 30.3485 64.9326 30.3485C64.2161 30.3485 63.604 30.1805 63.0941 29.8425C62.5843 29.5046 62.2039 29.0179 61.9489 28.3826C61.7887 27.9828 61.6844 27.5213 61.6264 27.0114H70.2877C71.5083 27.0114 71.6782 25.9918 71.6782 25.4144C71.6183 24.1803 71.3595 23.1085 70.8999 22.199C70.3727 21.1561 69.6041 20.3624 68.5941 19.8159C67.586 19.2694 66.3636 18.9971 64.9307 18.9971C63.4978 18.9971 62.2541 19.2906 61.1977 19.8758C60.1414 20.4628 59.3264 21.2874 58.7509 22.3496C58.1754 23.4117 57.8877 24.6786 57.8877 26.1482C57.8877 27.6178 58.1754 28.8557 58.7509 29.9178C59.3264 30.98 60.1414 31.8104 61.1977 32.4071C62.2541 33.0039 63.4881 33.3013 64.9017 33.3013C66.3153 33.3013 67.9665 33.0734 69.3029 32.4071C70.1236 31.9977 71.0699 31.3315 71.0699 30.3215C71.0699 29.4138 70.3727 28.68 69.5114 28.68L69.5153 28.6761ZM62.8122 22.7532C63.4263 22.2067 64.1852 21.9344 65.0852 21.9344C66.0372 21.9344 66.8425 22.2163 67.5011 22.7783C68.1596 23.3422 68.4976 24.0896 68.5149 25.0262H61.6805C61.8196 24.0567 62.1961 23.2978 62.8103 22.7532H62.8122Z" fill="white"/>
<path d="M113.881 20.7679C113.881 19.7888 113.087 18.9931 112.106 18.9931C111.125 18.9931 110.331 19.7869 110.331 20.7679C110.331 20.7814 110.331 20.7949 110.333 20.8084C110.333 20.8181 110.331 20.8278 110.331 20.8374V27.5869C110.331 28.0175 110.221 28.4231 110.001 28.8054C109.781 29.1878 109.493 29.5007 109.134 29.744C108.777 29.9873 108.367 30.109 107.91 30.109C107.452 30.109 107.066 29.9834 106.699 29.7305C106.332 29.4775 106.038 29.1666 105.818 28.7919C105.598 28.4192 105.488 28.0175 105.488 27.5869V20.8645C105.488 20.8509 105.486 20.8393 105.484 20.8258C105.484 20.8065 105.488 20.7853 105.488 20.766C105.488 19.7869 104.694 18.9912 103.713 18.9912C102.732 18.9912 101.938 19.7849 101.938 20.766C101.938 20.7872 101.94 20.8065 101.942 20.8258C101.942 20.8393 101.938 20.8509 101.938 20.8645V27.5869C101.938 28.5775 102.209 29.5045 102.75 30.3735C103.29 31.2426 104.014 31.9417 104.922 32.4747C105.83 33.0077 106.834 33.2722 107.933 33.2722C109.032 33.2722 109.982 33.0115 110.889 32.4882C111.797 31.9648 112.521 31.2696 113.062 30.4025C113.603 29.5335 113.873 28.5949 113.873 27.5869V20.8374C113.873 20.8278 113.873 20.8181 113.871 20.8084C113.871 20.7949 113.873 20.7814 113.873 20.7679H113.881Z" fill="white"/>
<path d="M134.252 16.475C134.862 16.475 135.384 16.2741 135.812 15.8744C136.241 15.4727 136.455 14.9783 136.455 14.3854C136.455 13.7926 136.241 13.275 135.812 12.883C135.384 12.4929 134.862 12.2959 134.252 12.2959C133.642 12.2959 133.116 12.4909 132.678 12.883C132.24 13.275 132.02 13.7752 132.02 14.3854C132.02 14.9957 132.238 15.4727 132.678 15.8744C133.116 16.276 133.642 16.475 134.252 16.475Z" fill="url(#paint4_linear_5443_18022)"/>
<path d="M134.224 19.0068C133.142 19.0068 132.266 19.8836 132.266 20.965V31.3412C132.266 32.4227 133.142 33.2994 134.224 33.2994C135.305 33.2994 136.182 32.4227 136.182 31.3412V20.965C136.182 19.8836 135.305 19.0068 134.224 19.0068Z" fill="white"/>
<path d="M121.039 12.624C121.039 11.558 120.174 10.6929 119.108 10.6929C118.042 10.6929 117.177 11.558 117.177 12.624V31.4124C117.177 32.4784 118.042 33.3436 119.108 33.3436C120.174 33.3436 121.039 32.4784 121.039 31.4124V12.624Z" fill="url(#paint5_linear_5443_18022)"/>
<path d="M129.096 21.195C129.992 20.2101 129.293 18.6304 127.962 18.6304C127.283 18.6304 126.634 18.9181 126.176 19.4222L121.039 25.0979V26.5385L122.681 28.2341L127.441 23.0083L129.094 21.193L129.096 21.195Z" fill="url(#paint6_linear_5443_18022)"/>
<path d="M124.871 25.8335L122.681 28.2339L127.149 32.8475C127.456 33.1642 127.877 33.3419 128.318 33.3419C129.755 33.3419 130.486 31.6135 129.484 30.5822L124.871 25.8315" fill="url(#paint7_linear_5443_18022)"/>
<path d="M154.086 26.2969C154.48 26.2969 154.811 26.252 155.076 26.1621C155.346 26.0723 155.561 25.9531 155.721 25.8047C155.885 25.6562 156.002 25.4863 156.072 25.2949C156.143 25.1035 156.178 24.9043 156.178 24.6973C156.182 24.4551 156.137 24.2461 156.043 24.0703C155.949 23.8906 155.814 23.7422 155.639 23.625C155.467 23.5078 155.258 23.4219 155.012 23.3672C154.77 23.3086 154.5 23.2793 154.203 23.2793H151.35V26.2969H154.086ZM150.318 33C150.178 33 150.045 32.9746 149.92 32.9238C149.795 32.8691 149.686 32.7969 149.592 32.707C149.498 32.6133 149.424 32.5059 149.369 32.3848C149.314 32.2637 149.287 32.1328 149.287 31.9922V22.5527C149.287 22.4121 149.314 22.2812 149.369 22.1602C149.424 22.0391 149.498 21.9336 149.592 21.8438C149.686 21.75 149.795 21.6777 149.92 21.627C150.045 21.5723 150.178 21.5449 150.318 21.5449H154.203C154.551 21.5449 154.891 21.5645 155.223 21.6035C155.559 21.6426 155.875 21.709 156.172 21.8027C156.473 21.8965 156.748 22.0195 156.998 22.1719C157.252 22.3242 157.469 22.5156 157.648 22.7461C157.832 22.9727 157.975 23.2422 158.076 23.5547C158.178 23.8633 158.229 24.2207 158.229 24.627C158.229 24.834 158.197 25.0488 158.135 25.2715C158.076 25.4941 157.982 25.7109 157.854 25.9219C157.729 26.1328 157.568 26.3301 157.373 26.5137C157.178 26.6973 156.945 26.8516 156.676 26.9766C156.996 27.0469 157.289 27.1719 157.555 27.3516C157.82 27.5273 158.049 27.7383 158.24 27.9844C158.432 28.2305 158.578 28.5059 158.68 28.8105C158.785 29.1113 158.838 29.4219 158.838 29.7422C158.838 30.1602 158.762 30.5645 158.609 30.9551C158.461 31.3457 158.225 31.6934 157.9 31.998C157.58 32.2988 157.168 32.541 156.664 32.7246C156.16 32.9082 155.555 33 154.848 33H150.318ZM154.836 31.2891C155.148 31.2891 155.426 31.2461 155.668 31.1602C155.91 31.0703 156.113 30.9551 156.277 30.8145C156.445 30.6699 156.572 30.5059 156.658 30.3223C156.744 30.1348 156.787 29.9414 156.787 29.7422C156.787 29.4219 156.729 29.1523 156.611 28.9336C156.498 28.7148 156.34 28.5391 156.137 28.4062C155.938 28.2734 155.699 28.1797 155.422 28.125C155.148 28.0664 154.852 28.0371 154.531 28.0371H151.35V31.2891H154.836ZM160.531 22.2129C160.531 22.0605 160.553 21.9219 160.596 21.7969C160.643 21.668 160.707 21.5566 160.789 21.4629C160.875 21.3691 160.979 21.2969 161.1 21.2461C161.225 21.1953 161.363 21.1699 161.516 21.1699C161.668 21.1699 161.805 21.1953 161.926 21.2461C162.047 21.2969 162.148 21.3691 162.23 21.4629C162.316 21.5566 162.383 21.668 162.43 21.7969C162.477 21.9219 162.5 22.0605 162.5 22.2129V32.0742C162.5 32.2266 162.477 32.3672 162.43 32.4961C162.383 32.6211 162.316 32.7305 162.23 32.8242C162.148 32.918 162.047 32.9902 161.926 33.041C161.805 33.0918 161.668 33.1172 161.516 33.1172C161.363 33.1172 161.225 33.0918 161.1 33.041C160.979 32.9902 160.875 32.918 160.789 32.8242C160.707 32.7305 160.643 32.6211 160.596 32.4961C160.553 32.3672 160.531 32.2266 160.531 32.0742V22.2129ZM166.062 28.752C166.062 29.2012 166.123 29.5977 166.244 29.9414C166.365 30.2812 166.529 30.5664 166.736 30.7969C166.947 31.0234 167.193 31.1953 167.475 31.3125C167.76 31.4297 168.064 31.4883 168.389 31.4883C168.701 31.4883 168.996 31.4297 169.273 31.3125C169.555 31.1953 169.799 31.0234 170.006 30.7969C170.217 30.5664 170.383 30.2812 170.504 29.9414C170.629 29.5977 170.691 29.2012 170.691 28.752C170.691 28.3145 170.629 27.9258 170.504 27.5859C170.383 27.2422 170.217 26.9531 170.006 26.7188C169.799 26.4805 169.555 26.3008 169.273 26.1797C168.996 26.0547 168.701 25.9922 168.389 25.9922C168.064 25.9922 167.76 26.0547 167.475 26.1797C167.193 26.3008 166.947 26.4805 166.736 26.7188C166.529 26.9531 166.365 27.2422 166.244 27.5859C166.123 27.9258 166.062 28.3145 166.062 28.752ZM164.047 28.752C164.047 28.123 164.137 27.5371 164.316 26.9941C164.5 26.4473 164.773 25.9746 165.137 25.5762C165.5 25.1738 165.953 24.8594 166.496 24.6328C167.039 24.4023 167.67 24.2871 168.389 24.2871C169.104 24.2871 169.732 24.4023 170.275 24.6328C170.818 24.8594 171.271 25.1738 171.635 25.5762C171.998 25.9746 172.271 26.4473 172.455 26.9941C172.643 27.5371 172.736 28.123 172.736 28.752C172.736 29.377 172.643 29.9609 172.455 30.5039C172.271 31.043 171.998 31.5117 171.635 31.9102C171.271 32.3086 170.818 32.623 170.275 32.8535C169.732 33.0801 169.104 33.1934 168.389 33.1934C167.67 33.1934 167.039 33.0801 166.496 32.8535C165.953 32.623 165.5 32.3086 165.137 31.9102C164.773 31.5117 164.5 31.043 164.316 30.5039C164.137 29.9609 164.047 29.377 164.047 28.752ZM176.041 33.9668C176.256 34.2402 176.514 34.4316 176.814 34.541C177.119 34.6543 177.465 34.7109 177.852 34.7109C178.262 34.7109 178.605 34.6426 178.883 34.5059C179.164 34.3691 179.391 34.1895 179.562 33.9668C179.738 33.748 179.863 33.498 179.938 33.2168C180.016 32.9395 180.055 32.6602 180.055 32.3789V31.9746C179.879 32.1699 179.697 32.334 179.51 32.4668C179.322 32.5957 179.131 32.7012 178.936 32.7832C178.74 32.8613 178.539 32.918 178.332 32.9531C178.129 32.9883 177.922 33.0059 177.711 33.0059C177.039 33.0059 176.451 32.8945 175.947 32.6719C175.443 32.4492 175.023 32.1465 174.688 31.7637C174.355 31.3809 174.105 30.9336 173.938 30.4219C173.773 29.9062 173.691 29.3574 173.691 28.7754C173.691 28.4473 173.719 28.1094 173.773 27.7617C173.828 27.4102 173.918 27.0684 174.043 26.7363C174.168 26.4043 174.334 26.0898 174.541 25.793C174.748 25.4961 175.002 25.2363 175.303 25.0137C175.604 24.791 175.957 24.6152 176.363 24.4863C176.773 24.3535 177.242 24.2871 177.77 24.2871C178.207 24.2871 178.615 24.3633 178.994 24.5156C179.377 24.668 179.727 24.9238 180.043 25.2832C180.051 24.9785 180.133 24.7461 180.289 24.5859C180.449 24.4258 180.68 24.3457 180.98 24.3457C181.301 24.3457 181.537 24.4316 181.689 24.6035C181.846 24.7715 181.924 25.0156 181.924 25.3359V32.2852C181.924 32.8906 181.84 33.4473 181.672 33.9551C181.508 34.4668 181.254 34.9062 180.91 35.2734C180.57 35.6445 180.139 35.9316 179.615 36.1348C179.092 36.3418 178.473 36.4453 177.758 36.4453C177.371 36.4453 177.004 36.4082 176.656 36.334C176.312 36.2598 175.994 36.1523 175.701 36.0117C175.408 35.8711 175.146 35.6973 174.916 35.4902C174.689 35.2871 174.502 35.0566 174.354 34.7988C174.299 34.6816 174.266 34.5605 174.254 34.4355C174.246 34.3145 174.258 34.1973 174.289 34.084C174.324 33.9707 174.379 33.8672 174.453 33.7734C174.531 33.6797 174.629 33.6055 174.746 33.5508C174.867 33.4922 174.986 33.4629 175.104 33.4629C175.225 33.4629 175.342 33.4824 175.455 33.5215C175.568 33.5645 175.674 33.625 175.771 33.7031C175.873 33.7812 175.963 33.8691 176.041 33.9668ZM177.781 31.3301C178.195 31.3301 178.549 31.2578 178.842 31.1133C179.139 30.9688 179.381 30.7754 179.568 30.5332C179.756 30.291 179.893 30.0137 179.979 29.7012C180.064 29.3848 180.107 29.0586 180.107 28.7227C180.107 28.5156 180.088 28.3047 180.049 28.0898C180.014 27.875 179.957 27.666 179.879 27.4629C179.801 27.2598 179.701 27.0703 179.58 26.8945C179.463 26.7148 179.322 26.5586 179.158 26.4258C178.994 26.293 178.807 26.1875 178.596 26.1094C178.389 26.0312 178.158 25.9922 177.904 25.9922C177.506 25.9922 177.168 26.0664 176.891 26.2148C176.617 26.3594 176.393 26.5566 176.217 26.8066C176.045 27.0566 175.918 27.3496 175.836 27.6855C175.758 28.0215 175.717 28.3789 175.713 28.7578C175.709 29.0586 175.742 29.3613 175.812 29.666C175.883 29.9707 175.998 30.2461 176.158 30.4922C176.318 30.7383 176.531 30.9395 176.797 31.0957C177.062 31.252 177.391 31.3301 177.781 31.3301Z" fill="#F35B1F"/>
<defs>
<linearGradient id="paint0_linear_5443_18022" x1="0.403615" y1="21.7086" x2="52.6066" y2="21.7086" gradientUnits="userSpaceOnUse">
<stop stop-color="#00CFF4"/>
<stop offset="0.41" stop-color="#00BBF4"/>
<stop offset="1" stop-color="#0098F5"/>
</linearGradient>
<linearGradient id="paint1_linear_5443_18022" x1="0.403232" y1="30.7876" x2="52.6062" y2="30.7876" gradientUnits="userSpaceOnUse">
<stop stop-color="#00CFF4"/>
<stop offset="0.41" stop-color="#00BBF4"/>
<stop offset="1" stop-color="#0098F5"/>
</linearGradient>
<linearGradient id="paint2_linear_5443_18022" x1="-31.3491" y1="24.9426" x2="36.8967" y2="24.9426" gradientUnits="userSpaceOnUse">
<stop stop-color="#F5B059"/>
<stop offset="0.14" stop-color="#F4AA55"/>
<stop offset="0.33" stop-color="#F49949"/>
<stop offset="0.53" stop-color="#F37E37"/>
<stop offset="0.75" stop-color="#F35B1F"/>
</linearGradient>
<linearGradient id="paint3_linear_5443_18022" x1="28.835" y1="7.73187" x2="33.4278" y2="7.73187" gradientUnits="userSpaceOnUse">
<stop stop-color="#00CFF4"/>
<stop offset="0.41" stop-color="#00BBF4"/>
<stop offset="1" stop-color="#0098F5"/>
</linearGradient>
<linearGradient id="paint4_linear_5443_18022" x1="132.02" y1="14.3854" x2="136.455" y2="14.3854" gradientUnits="userSpaceOnUse">
<stop stop-color="#46BFE2"/>
<stop offset="0.44" stop-color="#46ABD6"/>
<stop offset="1" stop-color="#478DC5"/>
</linearGradient>
<linearGradient id="paint5_linear_5443_18022" x1="118.82" y1="5.74328" x2="119.239" y2="29.4214" gradientUnits="userSpaceOnUse">
<stop stop-color="#F4AC5A"/>
<stop offset="0.15" stop-color="#F3A656"/>
<stop offset="0.34" stop-color="#F0954C"/>
<stop offset="0.55" stop-color="#ED7A3B"/>
<stop offset="0.75" stop-color="#E95C28"/>
</linearGradient>
<linearGradient id="paint6_linear_5443_18022" x1="115.004" y1="18.5203" x2="130.37" y2="25.7139" gradientUnits="userSpaceOnUse">
<stop stop-color="#F4AC5A"/>
<stop offset="0.15" stop-color="#F3A656"/>
<stop offset="0.34" stop-color="#F0954C"/>
<stop offset="0.55" stop-color="#ED7A3B"/>
<stop offset="0.75" stop-color="#E95C28"/>
</linearGradient>
<linearGradient id="paint7_linear_5443_18022" x1="122.683" y1="29.5896" x2="129.948" y2="29.5896" gradientUnits="userSpaceOnUse">
<stop stop-color="#46BFE2"/>
<stop offset="0.44" stop-color="#46ABD6"/>
<stop offset="1" stop-color="#478DC5"/>
</linearGradient>
</defs>
</svg>
