<svg width="235" height="106" viewBox="0 0 235 106" fill="none" xmlns="http://www.w3.org/2000/svg">
<g id="Frame">
<g id="Group">
<path id="Vector" d="M99.976 60.7583C100.719 61.5777 101.545 62.2092 102.438 62.6603C103.338 63.1113 104.306 63.3369 105.342 63.3369C106.55 63.3369 107.534 63.0286 108.292 62.4047C109.05 61.7882 109.432 60.9387 109.432 59.8712C109.432 58.939 109.2 58.1947 108.734 57.6309C108.269 57.0671 107.579 56.5709 106.671 56.1349C105.755 55.6989 104.644 55.2252 103.323 54.7216C102.618 54.466 101.815 54.1277 100.899 53.6841C99.9835 53.2481 99.1204 52.6842 98.3098 51.9926C97.4918 51.301 96.8238 50.459 96.2834 49.4591C95.7506 48.4593 95.4804 47.2564 95.4804 45.8506C95.4804 44.1591 95.9082 42.7082 96.7638 41.4828C97.6193 40.2574 98.7826 39.3177 100.261 38.6562C101.74 37.9946 103.383 37.6638 105.215 37.6638C107.046 37.6638 108.719 37.9796 110.078 38.6111C111.444 39.2425 112.577 40.0469 113.493 41.0167C113.575 41.1069 113.658 41.1972 113.74 41.2874C114.904 42.5804 114.566 44.6177 113.05 45.4672L112.99 45.4973C111.894 46.1062 110.521 45.8807 109.688 44.941C109.628 44.8733 109.56 44.7981 109.492 44.7305C108.945 44.1516 108.322 43.693 107.616 43.3397C106.911 42.9864 106.115 42.8135 105.215 42.8135C104.036 42.8135 103.151 43.0841 102.558 43.6329C101.965 44.1817 101.672 44.8207 101.672 45.5499C101.672 46.2791 101.912 46.9181 102.385 47.4669C102.865 48.0157 103.593 48.5345 104.577 49.0306C105.56 49.5268 106.798 50.023 108.284 50.5267C109.237 50.865 110.16 51.2859 111.046 51.7896C111.932 52.2933 112.735 52.9098 113.448 53.624C114.161 54.3381 114.723 55.1876 115.136 56.1574C115.542 57.1272 115.744 58.2474 115.744 59.5103C115.744 60.9462 115.467 62.2242 114.904 63.3519C114.341 64.4796 113.568 65.4268 112.585 66.2011C111.601 66.9755 110.498 67.5694 109.275 67.9753C108.051 68.3813 106.768 68.5842 105.417 68.5842C103.616 68.5842 101.942 68.2384 100.381 67.5468C98.8202 66.8552 97.4692 65.923 96.3135 64.7427C95.8481 64.2616 95.4203 63.7729 95.0376 63.2617C94.1295 62.0513 94.4222 60.3298 95.6605 59.4577C96.8238 58.6383 98.4299 58.8488 99.3155 59.9689C99.5256 60.232 99.7433 60.4876 99.9609 60.7282L99.976 60.7583Z" fill="white"/>
<path id="Vector_2" d="M147.858 38.0396V65.9755C147.858 67.5167 146.612 68.7721 145.066 68.7721C143.528 68.7721 142.274 67.5242 142.274 65.9755V38.0396C142.274 36.4985 143.52 35.243 145.066 35.243C146.605 35.243 147.858 36.491 147.858 38.0396Z" fill="white"/>
<path id="Vector_3" d="M158.546 38.0396V65.9755C158.546 67.5167 157.3 68.7721 155.754 68.7721C154.215 68.7721 152.962 67.5242 152.962 65.9755V38.0396C152.962 36.4985 154.208 35.243 155.754 35.243C157.292 35.243 158.546 36.491 158.546 38.0396Z" fill="white"/>
<path id="Vector_4" d="M167.92 63.0136C168.64 63.4947 169.331 63.8481 169.984 64.0811C170.636 64.3142 171.252 64.4269 171.83 64.4269C172.58 64.4269 173.158 64.2616 173.571 63.9233C173.976 63.5925 174.179 63.1339 174.179 62.555C174.179 62.0363 174.014 61.5928 173.676 61.2244C173.346 60.8635 172.858 60.5328 172.22 60.2471C171.582 59.9539 170.772 59.6532 169.788 59.3299C168.858 58.9841 167.965 58.5706 167.094 58.0895C166.223 57.6084 165.511 56.9769 164.948 56.1725C164.385 55.3756 164.1 54.3532 164.1 53.1052C164.1 51.8573 164.415 50.9101 165.053 50.0831C165.691 49.2562 166.554 48.6322 167.634 48.2112C168.723 47.7902 169.931 47.5797 171.259 47.5797C172.385 47.5797 173.443 47.7225 174.427 48.0157C175.41 48.3089 176.325 48.6923 177.166 49.166C177.946 49.6095 178.517 50.2184 178.524 51.1882C178.539 53.5713 175.913 53.5864 174.322 52.797C173.323 52.3008 172.348 52.0603 171.387 52.0603C170.156 52.0603 168.55 52.9624 169.788 54.293C170.794 55.3681 172.453 55.6538 173.774 56.1574C174.847 56.5634 175.838 57.022 176.746 57.5257C177.661 58.0369 178.389 58.6608 178.937 59.4201C179.485 60.1719 179.763 61.1643 179.763 62.3821C179.763 64.3818 179.11 65.9455 177.811 67.0581C176.505 68.1708 174.712 68.7346 172.423 68.7346C171.004 68.7346 169.706 68.5467 168.535 68.1708C167.364 67.7949 166.306 67.2912 165.368 66.6672C165.06 66.4643 164.768 66.2538 164.482 66.0433C163.529 65.3366 163.342 63.9834 164.07 63.0437L164.22 62.8482C164.933 61.9311 166.238 61.7807 167.162 62.4874C167.417 62.6828 167.664 62.8557 167.905 63.0136H167.92Z" fill="white"/>
<path id="Vector_5" d="M136.045 61.931C135.572 61.931 135.137 62.0889 134.769 62.337C134.762 62.337 134.672 62.4122 134.544 62.5174C134.544 62.5174 134.529 62.5249 134.522 62.5325C133.021 63.9308 131.317 64.4044 129.268 64.4044C128.21 64.4044 127.302 64.1563 126.551 63.6526C125.801 63.1564 125.238 62.4347 124.855 61.4875C124.615 60.8936 124.465 60.2095 124.375 59.4577H137.178C138.98 59.4577 139.235 57.9466 139.235 57.0971C139.145 55.2703 138.762 53.6841 138.086 52.3384C137.306 50.7973 136.173 49.617 134.679 48.8051C133.186 47.9932 131.384 47.5947 129.268 47.5947C127.152 47.5947 125.313 48.0308 123.752 48.8953C122.191 49.7598 120.982 50.9852 120.134 52.5564C119.286 54.1276 118.858 56.0071 118.858 58.1797C118.858 60.3523 119.286 62.1866 120.134 63.7578C120.982 65.329 122.191 66.562 123.752 67.4415C125.313 68.3211 127.137 68.7647 129.23 68.7647C131.324 68.7647 133.764 68.4264 135.737 67.4415C136.953 66.8326 138.349 65.8478 138.349 64.3517C138.349 63.0061 137.321 61.9235 136.045 61.9235V61.931ZM126.138 53.1578C127.046 52.3534 128.165 51.9475 129.501 51.9475C130.912 51.9475 132.097 52.361 133.073 53.1954C134.049 54.0299 134.544 55.135 134.574 56.5258H124.472C124.675 55.0899 125.23 53.9698 126.146 53.1578H126.138Z" fill="white"/>
<path id="Vector_6" d="M201.625 50.2184C201.625 48.7675 200.454 47.5947 199.006 47.5947C197.557 47.5947 196.387 48.7675 196.387 50.2184C196.387 50.241 196.387 50.256 196.387 50.2786C196.387 50.2936 196.387 50.3086 196.387 50.3237V60.3222C196.387 60.9612 196.221 61.5627 195.899 62.1265C195.576 62.6903 195.148 63.1564 194.615 63.5173C194.09 63.8781 193.482 64.0586 192.807 64.0586C192.131 64.0586 191.561 63.8706 191.02 63.5022C190.48 63.1264 190.045 62.6678 189.722 62.1115C189.399 61.5552 189.234 60.9613 189.234 60.3298V50.3763C189.234 50.3763 189.234 50.3387 189.234 50.3161C189.234 50.2861 189.234 50.256 189.234 50.2259C189.234 48.775 188.063 47.6022 186.615 47.6022C185.166 47.6022 183.996 48.775 183.996 50.2259C183.996 50.256 183.996 50.2861 183.996 50.3161C183.996 50.3312 183.996 50.3537 183.996 50.3688V60.3222C183.996 61.7882 184.393 63.1639 185.196 64.4495C185.999 65.735 187.065 66.7725 188.409 67.5618C189.752 68.3512 191.231 68.7421 192.859 68.7421C194.488 68.7421 195.891 68.3587 197.227 67.5844C198.571 66.81 199.636 65.7801 200.439 64.4946C201.235 63.2091 201.64 61.8183 201.64 60.3298V50.3312C201.64 50.3312 201.64 50.3011 201.64 50.2861C201.64 50.2635 201.64 50.2485 201.64 50.2259L201.625 50.2184Z" fill="white"/>
<g id="Group_2" filter="url(#filter0_d_905_9380)">
<g id="Group_3">
<path id="Vector_7" d="M53.0539 44.0087H30.561L41.8037 55.2702L53.0539 44.0087Z" fill="#E8EBEF"/>
<path id="Vector_8" d="M41.8037 55.2702L64.9945 78.5L77.8883 65.2538C79.4043 63.6976 80.2524 61.6077 80.2524 59.4275V44.0087H53.0464L41.8037 55.2702Z" fill="#E8EBEF"/>
<path id="Vector_9" d="M80.2524 22.0645C80.2449 20.1174 77.8057 19.2002 76.4323 20.5835L53.0464 44.0087L41.8037 55.2703L64.9945 78.5001L77.8883 65.2538C79.4043 63.6977 80.2524 61.6077 80.2524 59.4276V22.1096C80.2524 22.1096 80.2524 22.0795 80.2524 22.0645Z" fill="url(#paint0_linear_905_9380)"/>
<path id="Vector_10" d="M30.5608 44.0087H4.05273V59.42C4.05273 61.6002 4.90081 63.6901 6.42435 65.2538L18.9804 78.1392L41.8034 55.2777L30.5608 44.0162V44.0087Z" fill="#E8EBEF"/>
<path id="Vector_11" d="M18.9806 78.1317L29.4353 88.8595C36.4225 96.0239 47.9279 96.0239 54.9076 88.852L64.987 78.5L41.7962 55.2703L18.9731 78.1317H18.9806Z" fill="#E8EBEF"/>
<path id="Vector_12" d="M18.9806 78.1317L29.4353 88.8595C36.4225 96.0239 47.9279 96.0239 54.9076 88.852L64.987 78.5L41.7962 55.2703L18.9731 78.1317H18.9806Z" fill="url(#paint1_linear_905_9380)"/>
<path id="Vector_13" d="M41.8036 55.2703L30.561 44.0087L7.31013 20.7263C6.10932 19.5235 4.05292 20.373 4.04541 22.072V22.1096V44.0087V58.6307C4.04541 61.3221 5.09613 63.9007 6.9724 65.8252L18.9731 78.1392L33.1052 92.6409C38.0736 97.738 46.2617 97.738 51.2225 92.6409L63.636 79.8909C64.379 79.1241 64.3715 77.9062 63.621 77.1469L41.7961 55.2853L41.8036 55.2703Z" fill="url(#paint2_linear_905_9380)"/>
</g>
<path id="Vector_14" d="M80.2599 16.1631C76.695 16.1631 73.813 13.3514 73.813 9.88577C73.813 8.36719 74.3684 6.97641 75.284 5.89386C75.4866 5.65329 75.7193 5.42776 75.9595 5.21726C77.1002 4.21741 78.6088 3.60095 80.2674 3.60095C83.7197 3.60095 86.5341 6.24719 86.6993 9.57003C86.6993 9.67528 86.7143 9.77301 86.7143 9.87826C86.7143 9.98351 86.7068 10.0812 86.6993 10.1865C86.5341 13.5093 83.7197 16.1556 80.2674 16.1556L80.2599 16.1631Z" fill="url(#paint3_linear_905_9380)"/>
</g>
</g>
<g id="Group_4">
<path id="Vector_15" d="M231.452 43.8585C232.352 43.8585 233.125 43.5653 233.756 42.9714C234.394 42.3775 234.709 41.6407 234.709 40.7687C234.709 39.8966 234.394 39.1223 233.756 38.5434C233.118 37.9646 232.352 37.6714 231.452 37.6714C230.551 37.6714 229.771 37.9646 229.125 38.5434C228.472 39.1223 228.149 39.8666 228.149 40.7687C228.149 41.6708 228.472 42.3775 229.125 42.9714C229.771 43.5653 230.551 43.8585 231.452 43.8585Z" fill="url(#paint4_linear_905_9380)"/>
<path id="Vector_16" d="M231.407 47.6099C229.808 47.6099 228.51 48.9104 228.51 50.5117V65.8779C228.51 67.4792 229.808 68.7798 231.407 68.7798C233.005 68.7798 234.304 67.4792 234.304 65.8779V50.5117C234.304 48.9104 233.005 47.6099 231.407 47.6099Z" fill="white"/>
<g id="Group_5">
<path id="Vector_17" d="M211.916 38.1601C211.916 36.5814 210.64 35.3033 209.064 35.3033C207.488 35.3033 206.212 36.5814 206.212 38.1601V65.9832C206.212 67.5619 207.488 68.8399 209.064 68.8399C210.64 68.8399 211.916 67.5619 211.916 65.9832V38.1601Z" fill="url(#paint5_linear_905_9380)"/>
<g id="Group_6">
<path id="Vector_18" d="M223.827 50.85C225.148 49.3916 224.119 47.0536 222.153 47.0536C221.147 47.0536 220.187 47.4821 219.511 48.2264L211.916 56.6312V58.7662L214.34 61.2771L221.38 53.5414L223.819 50.8576L223.827 50.85Z" fill="url(#paint6_linear_905_9380)"/>
<path id="Vector_19" d="M217.582 57.7213L214.348 61.2772L220.952 68.1108C221.402 68.5769 222.025 68.84 222.678 68.84C224.802 68.84 225.883 66.284 224.405 64.7503L217.582 57.7137" fill="url(#paint7_linear_905_9380)"/>
</g>
</g>
</g>
</g>
<defs>
<filter id="filter0_d_905_9380" x="2.17541" y="1.73095" width="93.9489" height="104.143" filterUnits="userSpaceOnUse" color-interpolation-filters="sRGB">
<feFlood flood-opacity="0" result="BackgroundImageFix"/>
<feColorMatrix in="SourceAlpha" type="matrix" values="0 0 0 0 0 0 0 0 0 0 0 0 0 0 0 0 0 0 127 0" result="hardAlpha"/>
<feOffset dx="3.77" dy="3.77"/>
<feGaussianBlur stdDeviation="2.82"/>
<feColorMatrix type="matrix" values="0 0 0 0 0 0 0 0 0 0 0 0 0 0 0 0 0 0 0.1 0"/>
<feBlend mode="normal" in2="BackgroundImageFix" result="effect1_dropShadow_905_9380"/>
<feBlend mode="normal" in="SourceGraphic" in2="effect1_dropShadow_905_9380" result="shape"/>
</filter>
<linearGradient id="paint0_linear_905_9380" x1="-6.04887" y1="49.211" x2="140.578" y2="49.211" gradientUnits="userSpaceOnUse">
<stop stop-color="#5DCDF1"/>
<stop offset="0.41" stop-color="#51B9F0"/>
<stop offset="1" stop-color="#3E97EF"/>
</linearGradient>
<linearGradient id="paint1_linear_905_9380" x1="-6.04889" y1="74.7562" x2="140.578" y2="74.7562" gradientUnits="userSpaceOnUse">
<stop stop-color="#5DCDF1"/>
<stop offset="0.41" stop-color="#51B9F0"/>
<stop offset="1" stop-color="#3E97EF"/>
</linearGradient>
<linearGradient id="paint2_linear_905_9380" x1="-95.2397" y1="58.3075" x2="96.4558" y2="58.3075" gradientUnits="userSpaceOnUse">
<stop stop-color="#ECB468"/>
<stop offset="0.15" stop-color="#EBAE64"/>
<stop offset="0.34" stop-color="#E99D59"/>
<stop offset="0.56" stop-color="#E58248"/>
<stop offset="0.75" stop-color="#E26535"/>
</linearGradient>
<linearGradient id="paint3_linear_905_9380" x1="73.813" y1="9.88577" x2="86.7068" y2="9.88577" gradientUnits="userSpaceOnUse">
<stop stop-color="#5DCDF1"/>
<stop offset="0.41" stop-color="#51B9F0"/>
<stop offset="1" stop-color="#3E97EF"/>
</linearGradient>
<linearGradient id="paint4_linear_905_9380" x1="228.149" y1="40.7687" x2="234.709" y2="40.7687" gradientUnits="userSpaceOnUse">
<stop stop-color="#6ABDDF"/>
<stop offset="0.45" stop-color="#63A9D3"/>
<stop offset="1" stop-color="#598CC1"/>
</linearGradient>
<linearGradient id="paint5_linear_905_9380" x1="208.636" y1="27.9736" x2="209.261" y2="63.0287" gradientUnits="userSpaceOnUse">
<stop stop-color="#EAB068"/>
<stop offset="0.15" stop-color="#E8AA64"/>
<stop offset="0.35" stop-color="#E4995A"/>
<stop offset="0.58" stop-color="#DE7E49"/>
<stop offset="0.75" stop-color="#D96539"/>
</linearGradient>
<linearGradient id="paint6_linear_905_9380" x1="203" y1="46.8882" x2="225.724" y2="57.5115" gradientUnits="userSpaceOnUse">
<stop stop-color="#EAB068"/>
<stop offset="0.15" stop-color="#E8AA64"/>
<stop offset="0.35" stop-color="#E4995A"/>
<stop offset="0.58" stop-color="#DE7E49"/>
<stop offset="0.75" stop-color="#D96539"/>
</linearGradient>
<linearGradient id="paint7_linear_905_9380" x1="214.348" y1="63.2769" x2="225.087" y2="63.2769" gradientUnits="userSpaceOnUse">
<stop stop-color="#6ABDDF"/>
<stop offset="0.45" stop-color="#63A9D3"/>
<stop offset="1" stop-color="#598CC1"/>
</linearGradient>
</defs>
</svg>
