<svg width="24" height="24" viewBox="0 0 24 24" fill="none" xmlns="http://www.w3.org/2000/svg">
<path d="M8.43066 11H13.125C13.4456 11 13.7622 11.0723 14.0508 11.2119C14.3395 11.3516 14.593 11.5551 14.792 11.8066C14.9909 12.0582 15.1307 12.352 15.2002 12.665C15.2695 12.9779 15.2671 13.3024 15.1934 13.6143L15.0078 14.3975L15.792 14.2168L19.7139 13.3154L19.7236 13.3135L19.7324 13.3105C19.9981 13.2392 20.2771 13.2304 20.5469 13.2842C20.8166 13.338 21.0701 13.4534 21.2881 13.6211L21.3262 13.6494C21.5541 13.832 21.7354 14.066 21.8525 14.334C21.9754 14.6149 22.0249 14.9223 21.9961 15.2275C21.9672 15.5328 21.8608 15.8262 21.6875 16.0791C21.5159 16.3294 21.2834 16.531 21.0127 16.668L20.9775 16.6846L17.3477 18.2295L17.3418 18.2324C17.3336 18.236 17.3251 18.2391 17.3164 18.2412L17.3105 18.2422L11.3105 19.7422H11.3096C11.2901 19.7471 11.2701 19.75 11.25 19.75H1.5C1.23478 19.75 0.980505 19.6446 0.792969 19.457C0.605432 19.2695 0.5 19.0152 0.5 18.75V15C0.500001 14.7348 0.605433 14.4805 0.792969 14.293C0.980505 14.1054 1.23478 14 1.5 14H4.39648L4.54297 13.8535L6.66406 11.7314H6.66504C6.89649 11.499 7.17153 11.314 7.47461 11.1885C7.77765 11.063 8.10269 10.9992 8.43066 11ZM1 19.25H4.25V14.5H1V19.25ZM8.43164 11.5C8.16895 11.4994 7.90868 11.5507 7.66602 11.6514C7.42355 11.7519 7.20364 11.8998 7.01855 12.0859L4.89648 14.207L4.75 14.3535V19.25H11.2178L11.2773 19.2354L17.1299 17.7715L17.1689 17.7617L17.2051 17.7471L20.7676 16.2295L20.7393 16.0947L20.8018 16.2119C21.0869 16.0619 21.307 15.8119 21.4189 15.5098C21.5309 15.2076 21.5268 14.8748 21.4082 14.5752C21.2895 14.2755 21.064 14.0303 20.7754 13.8867C20.5228 13.7612 20.2374 13.7208 19.9619 13.7705L19.8447 13.7969L19.8369 13.7988L13.5586 15.2432C13.539 15.2475 13.5191 15.2499 13.499 15.25H10.5C10.4337 15.25 10.3701 15.2236 10.3232 15.1768C10.2764 15.1299 10.25 15.0663 10.25 15C10.25 14.9337 10.2764 14.8701 10.3232 14.8232C10.3701 14.7764 10.4337 14.75 10.5 14.75H13.125C13.556 14.75 13.9697 14.5792 14.2744 14.2744C14.5792 13.9697 14.75 13.556 14.75 13.125C14.75 12.694 14.5792 12.2803 14.2744 11.9756C13.9697 11.6708 13.556 11.5 13.125 11.5H8.43164ZM14.2578 2.97559C14.745 2.77014 15.2798 2.70358 15.8027 2.78223C16.3256 2.8609 16.8165 3.08222 17.2217 3.42188C17.6269 3.76167 17.9309 4.20677 18.0996 4.70801L18.2354 5.11133L18.6553 5.04199C19.1968 4.95204 19.7531 5.01934 20.2578 5.23535C20.7624 5.45135 21.1951 5.80691 21.5039 6.26074C21.8127 6.7147 21.9854 7.24807 22.001 7.79688C22.0165 8.34565 21.8744 8.88772 21.5918 9.3584C21.3092 9.82904 20.8969 10.2089 20.4053 10.4531C19.9137 10.6972 19.3621 10.7955 18.8164 10.7363C18.2707 10.6771 17.753 10.463 17.3252 10.1191C16.8975 9.77532 16.5775 9.31594 16.4023 8.7959L16.2666 8.39258L15.8467 8.46191C15.6911 8.48757 15.5337 8.50016 15.376 8.5H15.375C14.8461 8.50001 14.3273 8.35391 13.876 8.07812C13.4247 7.80235 13.0578 7.40716 12.8164 6.93652C12.5752 6.46597 12.4684 5.93747 12.5078 5.41016C12.5473 4.8829 12.7315 4.37665 13.04 3.94727C13.3487 3.51773 13.7705 3.18118 14.2578 2.97559ZM19.125 5.5C18.6553 5.5 18.1962 5.63944 17.8057 5.90039C17.4152 6.16131 17.1104 6.53194 16.9307 6.96582C16.751 7.39968 16.7044 7.87731 16.7959 8.33789C16.8875 8.7986 17.1132 9.22254 17.4453 9.55469C17.7775 9.88684 18.2014 10.1125 18.6621 10.2041C19.1227 10.2956 19.6003 10.249 20.0342 10.0693C20.4681 9.88957 20.8387 9.58484 21.0996 9.19434C21.3606 8.80378 21.5 8.34471 21.5 7.875C21.5 7.24511 21.2501 6.64071 20.8047 6.19531C20.3593 5.74991 19.7549 5.5 19.125 5.5ZM15.375 3.25C14.7451 3.25 14.1407 3.49991 13.6953 3.94531C13.2499 4.39071 13 4.99511 13 5.625C13 6.25489 13.2499 6.85929 13.6953 7.30469C14.1407 7.75009 14.7451 8 15.375 8H15.377C15.5457 7.99947 15.7139 7.98094 15.8789 7.94531L16.2256 7.87109L16.2695 7.51953C16.3197 7.12259 16.4519 6.74028 16.6582 6.39746C16.8645 6.05467 17.1406 5.75854 17.4678 5.52832L17.7568 5.3252L17.6611 4.98535C17.5215 4.48641 17.2223 4.04663 16.8096 3.7334C16.3969 3.42021 15.8931 3.25026 15.375 3.25Z" fill="#111827" stroke="#6B7280"/>
</svg>
