<svg width="32" height="32" viewBox="0 0 32 32" fill="none" xmlns="http://www.w3.org/2000/svg">
<path fill-rule="evenodd" clip-rule="evenodd" d="M2 6C2 3.79086 3.79086 2 6 2H7.82884C8.976 2 9.97596 2.78074 10.2542 3.89366L11.7286 9.79124C11.9725 10.7671 11.6079 11.7941 10.8032 12.3976L9.0784 13.6912C8.89929 13.8255 8.86036 14.0222 8.91067 14.1596C10.4247 18.2926 13.7074 21.5753 17.8404 23.0893C17.9778 23.1396 18.1745 23.1007 18.3088 22.9216L19.6024 21.1968C20.2059 20.3921 21.2329 20.0275 22.2088 20.2714L28.1063 21.7458C29.2193 22.024 30 23.024 30 24.1712V26C30 28.2091 28.2091 30 26 30H23C11.402 30 2 20.598 2 9V6Z" fill="url(#paint0_linear_18994_379)"/>
<defs>
<linearGradient id="paint0_linear_18994_379" x1="2" y1="2" x2="27.4378" y2="11.6345" gradientUnits="userSpaceOnUse">
<stop stop-color="#58C6FF"/>
<stop offset="1" stop-color="#01B1F5"/>
</linearGradient>
</defs>
</svg>
