<svg width="40" height="40" viewBox="0 0 40 40" fill="none" xmlns="http://www.w3.org/2000/svg">
<path fill-rule="evenodd" clip-rule="evenodd" d="M16.6654 4.99967C16.6654 4.55765 16.4898 4.13372 16.1772 3.82116C15.8646 3.5086 15.4407 3.33301 14.9987 3.33301C14.5567 3.33301 14.1327 3.5086 13.8202 3.82116C13.5076 4.13372 13.332 4.55765 13.332 4.99967V8.33301C13.332 8.77504 13.5076 9.19896 13.8202 9.51152C14.1327 9.82408 14.5567 9.99967 14.9987 9.99967C15.4407 9.99967 15.8646 9.82408 16.1772 9.51152C16.4898 9.19896 16.6654 8.77504 16.6654 8.33301V4.99967ZM9.10537 6.74968C8.95162 6.59049 8.76771 6.46352 8.56437 6.37617C8.36103 6.28882 8.14233 6.24285 7.92103 6.24092C7.69973 6.239 7.48027 6.28117 7.27544 6.36497C7.07061 6.44877 6.88453 6.57253 6.72804 6.72902C6.57155 6.8855 6.4478 7.07159 6.364 7.27642C6.28019 7.48125 6.23802 7.70071 6.23995 7.92201C6.24187 8.14331 6.28785 8.36201 6.3752 8.56535C6.46254 8.76869 6.58951 8.9526 6.7487 9.10634L9.10537 11.4663C9.26032 11.6213 9.44429 11.7442 9.64675 11.8281C9.84922 11.9119 10.0662 11.9551 10.2854 11.9551C10.5045 11.9551 10.7215 11.9119 10.924 11.8281C11.1264 11.7442 11.3104 11.6213 11.4654 11.4663C11.6203 11.3114 11.7432 11.1274 11.8271 10.925C11.911 10.7225 11.9541 10.5055 11.9541 10.2863C11.9541 10.0672 11.911 9.85019 11.8271 9.64773C11.7432 9.44527 11.6203 9.2613 11.4654 9.10634L9.10537 6.74968ZM16.317 13.683C14.687 13.1397 13.1387 14.688 13.6804 16.3163L19.5687 33.9797C20.1637 35.7663 22.6354 35.9097 23.4337 34.203L26.8587 26.8597L34.202 23.4347C35.9087 22.638 35.7654 20.1647 33.9787 19.5697L16.317 13.683ZM23.2487 6.74968C23.5611 7.06222 23.7367 7.48607 23.7367 7.92801C23.7367 8.36995 23.5611 8.7938 23.2487 9.10634L20.892 11.4663C20.7372 11.6212 20.5533 11.744 20.351 11.8278C20.1487 11.9116 19.9319 11.9548 19.7129 11.9548C19.4939 11.9548 19.277 11.9116 19.0747 11.8278C18.8724 11.744 18.6885 11.6212 18.5337 11.4663C18.3788 11.3115 18.256 11.1277 18.1722 10.9253C18.0884 10.723 18.0453 10.5062 18.0453 10.2872C18.0453 10.0682 18.0884 9.85134 18.1722 9.64901C18.256 9.44669 18.3788 9.26286 18.5337 9.10801L20.892 6.75134C21.2046 6.43889 21.6284 6.26336 22.0704 6.26336C22.5123 6.26336 22.9362 6.43722 23.2487 6.74968ZM3.33203 14.9997C3.33203 14.5576 3.50763 14.1337 3.82019 13.8212C4.13275 13.5086 4.55667 13.333 4.9987 13.333H8.33203C8.77406 13.333 9.19798 13.5086 9.51054 13.8212C9.8231 14.1337 9.9987 14.5576 9.9987 14.9997C9.9987 15.4417 9.8231 15.8656 9.51054 16.1782C9.19798 16.4907 8.77406 16.6663 8.33203 16.6663H4.9987C4.55667 16.6663 4.13275 16.4907 3.82019 16.1782C3.50763 15.8656 3.33203 15.4417 3.33203 14.9997ZM11.4637 20.893C11.6185 20.7382 11.7414 20.5543 11.8252 20.352C11.909 20.1497 11.9521 19.9328 11.9521 19.7138C11.9521 19.4949 11.909 19.278 11.8252 19.0757C11.7414 18.8734 11.6185 18.6895 11.4637 18.5347C11.3088 18.3798 11.125 18.257 10.9227 18.1732C10.7204 18.0894 10.5035 18.0462 10.2845 18.0462C10.0655 18.0462 9.84869 18.0894 9.64637 18.1732C9.44405 18.257 9.26022 18.3798 9.10537 18.5347L6.7487 20.893C6.58951 21.0468 6.46254 21.2307 6.3752 21.434C6.28785 21.6373 6.24187 21.856 6.23995 22.0773C6.23802 22.2986 6.28019 22.5181 6.364 22.7229C6.4478 22.9278 6.57155 23.1138 6.72804 23.2703C6.88453 23.4268 7.07061 23.5506 7.27544 23.6344C7.48027 23.7182 7.69973 23.7603 7.92103 23.7584C8.14233 23.7565 8.36103 23.7105 8.56437 23.6232C8.76771 23.5358 8.95162 23.4089 9.10537 23.2497L11.4637 20.893Z" fill="#F97316"/>
</svg>
