<svg width="24" height="24" viewBox="0 0 24 24" fill="none" xmlns="http://www.w3.org/2000/svg">
<path d="M12 23.5C5.64873 23.5 0.5 18.3513 0.499999 12C0.499999 5.64873 5.64873 0.500002 12 0.500001C18.3513 0.500001 23.5 5.64873 23.5 12C23.5 18.3513 18.3513 23.5 12 23.5Z" fill="white"/>
<path d="M12 23.5C5.64873 23.5 0.5 18.3513 0.499999 12C0.499999 5.64873 5.64873 0.500002 12 0.500001C18.3513 0.500001 23.5 5.64873 23.5 12C23.5 18.3513 18.3513 23.5 12 23.5Z" stroke="#E5E7EB"/>
<path fill-rule="evenodd" clip-rule="evenodd" d="M15.3484 6.2762C15.6929 6.6345 15.6817 7.20424 15.3234 7.54875L10.5981 12L15.3234 16.4513C15.6817 16.7958 15.6929 17.3655 15.3484 17.7238C15.0038 18.0821 14.4341 18.0933 14.0758 17.7487L8.67581 12.6488C8.49934 12.4791 8.39961 12.2448 8.39961 12C8.39961 11.7552 8.49934 11.5209 8.67581 11.3513L14.0758 6.25125C14.4341 5.90674 15.0038 5.91791 15.3484 6.2762Z" fill="#9CA3AF"/>
</svg>
