<svg width="24" height="24" viewBox="0 0 24 24" fill="none" xmlns="http://www.w3.org/2000/svg">
<path d="M12 0.499999C18.3513 0.5 23.5 5.64873 23.5 12C23.5 18.3513 18.3513 23.5 12 23.5C5.64872 23.5 0.499999 18.3513 0.499999 12C0.5 5.64872 5.64873 0.499999 12 0.499999Z" fill="white"/>
<path d="M12 0.499999C18.3513 0.5 23.5 5.64873 23.5 12C23.5 18.3513 18.3513 23.5 12 23.5C5.64872 23.5 0.499999 18.3513 0.499999 12C0.5 5.64872 5.64873 0.499999 12 0.499999Z" stroke="#E5E7EB"/>
<path fill-rule="evenodd" clip-rule="evenodd" d="M8.65164 17.7238C8.30713 17.3655 8.3183 16.7958 8.67659 16.4512L13.4019 12L8.67659 7.54875C8.3183 7.20424 8.30713 6.6345 8.65164 6.2762C8.99616 5.91791 9.56589 5.90674 9.92419 6.25125L15.3242 11.3512C15.5007 11.5209 15.6004 11.7552 15.6004 12C15.6004 12.2448 15.5007 12.4791 15.3242 12.6487L9.92419 17.7487C9.5659 18.0933 8.99616 18.0821 8.65164 17.7238Z" fill="#9CA3AF"/>
</svg>
