<svg width="20" height="15" viewBox="0 0 20 15" fill="none" xmlns="http://www.w3.org/2000/svg">
<g id="Group">
<g id="Group_2">
<path id="Vector" d="M19.5831 2.83842C19.4698 2.43442 19.2492 2.06866 18.9447 1.78002C18.6316 1.48251 18.2478 1.26969 17.8296 1.16165C16.2646 0.749128 9.99417 0.749128 9.99417 0.749128C7.38012 0.719387 4.76671 0.850196 2.16869 1.14082C1.75049 1.25684 1.36745 1.47441 1.05363 1.77419C0.745273 2.07087 0.521926 2.43673 0.405253 2.83759C0.12498 4.34747 -0.011196 5.88056 -0.00143877 7.4162C-0.0114394 8.95046 0.124402 10.4831 0.405253 11.9948C0.519426 12.394 0.74194 12.7582 1.05113 13.0524C1.36031 13.3466 1.74533 13.5591 2.16869 13.6716C3.75462 14.0833 9.99417 14.0833 9.99417 14.0833C12.6115 14.1131 15.2283 13.9822 17.8296 13.6916C18.2478 13.5835 18.6316 13.3707 18.9447 13.0732C19.2491 12.7846 19.4695 12.4188 19.5823 12.0148C19.8698 10.5055 20.0097 8.97179 19.9998 7.43537C20.0214 5.89244 19.8818 4.35148 19.5831 2.83759V2.83842ZM8.00071 10.2697V4.56353L13.2177 7.41703L8.00071 10.2697Z" fill="white"/>
</g>
</g>
</svg>
