<svg width="16" height="14" viewBox="0 0 16 14" fill="none" xmlns="http://www.w3.org/2000/svg">
<path id="Vector" d="M14.4 0.91626H1.6C0.72 0.91626 0.00799999 1.64751 0.00799999 2.54126L0 12.2913C0 13.185 0.72 13.9163 1.6 13.9163H14.4C15.28 13.9163 16 13.185 16 12.2913V2.54126C16 1.64751 15.28 0.91626 14.4 0.91626ZM14.08 4.36938L8.424 7.96063C8.168 8.12313 7.832 8.12313 7.576 7.96063L1.92 4.36938C1.83978 4.32365 1.76954 4.26186 1.71351 4.18775C1.65749 4.11365 1.61685 4.02877 1.59406 3.93825C1.57127 3.84773 1.5668 3.75346 1.58093 3.66113C1.59505 3.56881 1.62747 3.48036 1.67623 3.40113C1.72498 3.3219 1.78906 3.25354 1.86458 3.20019C1.9401 3.14684 2.0255 3.10961 2.1156 3.09075C2.2057 3.07189 2.29863 3.0718 2.38876 3.09047C2.4789 3.10914 2.56437 3.14619 2.64 3.19938L8 6.60376L13.36 3.19938C13.4356 3.14619 13.5211 3.10914 13.6112 3.09047C13.7014 3.0718 13.7943 3.07189 13.8844 3.09075C13.9745 3.10961 14.0599 3.14684 14.1354 3.20019C14.2109 3.25354 14.275 3.3219 14.3238 3.40113C14.3725 3.48036 14.405 3.56881 14.4191 3.66113C14.4332 3.75346 14.4287 3.84773 14.4059 3.93825C14.3832 4.02877 14.3425 4.11365 14.2865 4.18775C14.2305 4.26186 14.1602 4.32365 14.08 4.36938Z" fill="white"/>
</svg>
