<svg width="20" height="20" viewBox="0 0 20 20" fill="none" xmlns="http://www.w3.org/2000/svg">
<path id="Vector" d="M10 0.888062C15.5138 0.888062 20 4.52806 20 9.00306C20 10.7943 19.3062 12.4068 17.8563 13.9956C15.7587 16.4106 11.0675 19.3518 10 19.8018C8.9625 20.2393 9.0825 19.5556 9.13 19.2856L9.13375 19.2631L9.27625 18.4068C9.31 18.1518 9.345 17.7556 9.24375 17.5031C9.13125 17.2243 8.68875 17.0793 8.36375 17.0093C3.5575 16.3756 0 13.0143 0 9.00306C0 4.52806 4.4875 0.888062 10 0.888062ZM6.2775 10.4956H4.37125V7.03556C4.37125 6.98406 4.35088 6.93465 4.31458 6.89812C4.27828 6.86158 4.229 6.84089 4.1775 6.84056H3.475C3.44939 6.84056 3.42404 6.84561 3.40038 6.8554C3.37672 6.8652 3.35522 6.87957 3.33711 6.89768C3.31901 6.91578 3.30464 6.93728 3.29484 6.96094C3.28504 6.9846 3.28 7.00995 3.28 7.03556V11.3931C3.28 11.4443 3.30125 11.4931 3.335 11.5268V11.5281L3.3375 11.5306L3.34 11.5331C3.37625 11.5679 3.42471 11.5872 3.475 11.5868H6.2775C6.385 11.5868 6.47125 11.4993 6.47125 11.3918V10.6918C6.47141 10.6662 6.46653 10.6408 6.45689 10.6171C6.44724 10.5934 6.43301 10.5718 6.41502 10.5536C6.39703 10.5353 6.37562 10.5208 6.35203 10.5109C6.32843 10.5009 6.30311 10.4957 6.2775 10.4956ZM7.26625 6.84056C7.21453 6.84056 7.16493 6.86111 7.12836 6.89768C7.09179 6.93425 7.07125 6.98384 7.07125 7.03556V11.3931C7.07125 11.5006 7.15875 11.5868 7.26625 11.5868H7.96875C8.07625 11.5868 8.1625 11.4993 8.1625 11.3931V7.03556C8.1625 6.98406 8.14213 6.93465 8.10583 6.89812C8.06953 6.86158 8.02025 6.84089 7.96875 6.84056H7.26625ZM12.095 6.84056C12.0433 6.84056 11.9937 6.86111 11.9571 6.89768C11.9205 6.93425 11.9 6.98384 11.9 7.03556V9.62306L9.90375 6.92806C9.8987 6.9215 9.89328 6.91524 9.8875 6.90931V6.90806C9.88355 6.90369 9.87938 6.89951 9.875 6.89556L9.87125 6.89181C9.86696 6.88771 9.86237 6.88395 9.8575 6.88056H9.85625L9.85 6.87556L9.84625 6.87306C9.8443 6.8716 9.8422 6.87035 9.84 6.86931L9.83 6.86306H9.8275L9.82375 6.86056L9.81125 6.85556L9.80625 6.85306C9.80216 6.85158 9.79798 6.85033 9.79375 6.84931H9.79125L9.7875 6.84806L9.77625 6.84556H9.76875L9.765 6.84431H9.76L9.7575 6.84306H9.04C8.9885 6.84306 8.93909 6.86343 8.90255 6.89973C8.86602 6.93603 8.84533 6.98531 8.845 7.03681V11.3943C8.845 11.5018 8.9325 11.5881 9.04 11.5881H9.74C9.84875 11.5881 9.93625 11.5006 9.93625 11.3943V8.80681L11.9362 11.5068C11.9495 11.5254 11.9661 11.5415 11.985 11.5543L11.9862 11.5556L11.9987 11.5631L12.0037 11.5656C12.007 11.5675 12.0103 11.5691 12.0138 11.5706L12.0225 11.5743L12.0288 11.5768C12.0329 11.5782 12.037 11.5794 12.0413 11.5806H12.045C12.0613 11.5852 12.0781 11.5878 12.095 11.5881H12.795C12.9038 11.5881 12.9912 11.5006 12.9912 11.3943V7.03556C12.9912 6.98384 12.9707 6.93425 12.9341 6.89768C12.8976 6.86111 12.848 6.84056 12.7963 6.84056H12.095ZM16.8638 7.73681V7.03681C16.8639 7.0112 16.859 6.98581 16.8494 6.96209C16.8397 6.93837 16.8255 6.91678 16.8075 6.89856C16.7895 6.88033 16.7681 6.86583 16.7445 6.85588C16.7209 6.84593 16.6956 6.84073 16.67 6.84056H13.8675C13.8171 6.84062 13.7686 6.86035 13.7325 6.89556H13.7312L13.73 6.89806L13.7275 6.90181C13.6926 6.93763 13.6729 6.98555 13.6725 7.03556V11.3931C13.6725 11.4443 13.6938 11.4931 13.7275 11.5268L13.73 11.5306L13.7325 11.5331C13.7688 11.5678 13.8172 11.5871 13.8675 11.5868H16.67C16.7775 11.5868 16.8638 11.4993 16.8638 11.3918V10.6918C16.8639 10.6662 16.859 10.6408 16.8494 10.6171C16.8397 10.5934 16.8255 10.5718 16.8075 10.5536C16.7895 10.5353 16.7681 10.5208 16.7445 10.5109C16.7209 10.5009 16.6956 10.4957 16.67 10.4956H14.7625V9.75931H16.6688C16.7763 9.75931 16.8625 9.67181 16.8625 9.56431V8.86431C16.8627 8.8387 16.8578 8.81331 16.8481 8.78959C16.8385 8.76587 16.8243 8.74428 16.8063 8.72606C16.7883 8.70784 16.7669 8.69333 16.7433 8.68338C16.7197 8.67343 16.6944 8.66823 16.6688 8.66806H14.7625V7.93181H16.6688C16.7763 7.93181 16.8625 7.84431 16.8625 7.73681H16.8638Z" fill="white"/>
</svg>
