<svg width="29" height="29" viewBox="0 0 29 29" fill="none" xmlns="http://www.w3.org/2000/svg">
<path id="Vector" d="M27.2074 15.2508C27.798 14.4703 28.125 13.5141 28.125 12.5192C28.125 10.9407 27.2426 9.44651 25.8223 8.61331C25.4566 8.39884 25.0403 8.28596 24.6164 8.28635H16.1859L16.3969 3.96565C16.4461 2.92151 16.077 1.9301 15.3598 1.17424C15.0078 0.801687 14.5832 0.505267 14.1121 0.303302C13.6411 0.101337 13.1336 -0.00188091 12.6211 2.59459e-05C10.793 2.59459e-05 9.17578 1.23049 8.69063 2.99182L5.6707 13.9254H5.66016V28.9723H22.2645C22.5879 28.9723 22.9043 28.909 23.1961 28.7824C24.8695 28.0688 25.9488 26.434 25.9488 24.6199C25.9488 24.177 25.8855 23.741 25.759 23.3192C26.3496 22.5387 26.6766 21.5824 26.6766 20.5875C26.6766 20.1446 26.6133 19.7086 26.4867 19.2867C27.0773 18.5063 27.4043 17.55 27.4043 16.5551C27.3973 16.1121 27.334 15.6727 27.2074 15.2508ZM0 15.0504V27.8473C0 28.4696 0.502734 28.9723 1.125 28.9723H3.41016V13.9254H1.125C0.502734 13.9254 0 14.4282 0 15.0504Z" fill="#009DFC"/>
</svg>
