<svg width="29" height="29" viewBox="0 0 29 29" fill="none" xmlns="http://www.w3.org/2000/svg">
<path id="Vector" d="M27.4336 15.2508C28.0242 14.4703 28.3511 13.5141 28.3511 12.5192C28.3511 10.9407 27.4687 9.44651 26.0484 8.61331C25.6828 8.39884 25.2664 8.28596 24.8425 8.28635H16.4121L16.623 3.96565C16.6722 2.92151 16.3031 1.9301 15.5859 1.17424C15.2339 0.801687 14.8093 0.505267 14.3383 0.303302C13.8672 0.101337 13.3597 -0.00188091 12.8472 2.59459e-05C11.0191 2.59459e-05 9.40192 1.23049 8.91676 2.99182L5.89684 13.9254H5.88629V28.9723H22.4906C22.814 28.9723 23.1304 28.909 23.4222 28.7824C25.0957 28.0688 26.175 26.434 26.175 24.6199C26.175 24.177 26.1117 23.741 25.9851 23.3192C26.5757 22.5387 26.9027 21.5824 26.9027 20.5875C26.9027 20.1446 26.8394 19.7086 26.7129 19.2867C27.3035 18.5063 27.6304 17.55 27.6304 16.5551C27.6234 16.1121 27.5601 15.6727 27.4336 15.2508ZM0.226135 15.0504V27.8473C0.226135 28.4696 0.72887 28.9723 1.35114 28.9723H3.63629V13.9254H1.35114C0.72887 13.9254 0.226135 14.4282 0.226135 15.0504Z" fill="#8F97A8"/>
</svg>
