<svg width="24" height="25" viewBox="0 0 24 25" fill="none" xmlns="http://www.w3.org/2000/svg">
<g id="ic:round-navigate-next">
<path id="Vector" d="M9.31002 7.68195C9.21732 7.77446 9.14377 7.88435 9.09359 8.00532C9.04341 8.12629 9.01758 8.25598 9.01758 8.38695C9.01758 8.51791 9.04341 8.6476 9.09359 8.76857C9.14377 8.88954 9.21732 8.99943 9.31002 9.09195L13.19 12.9719L9.31002 16.8519C9.12304 17.0389 9.018 17.2925 9.018 17.5569C9.018 17.8214 9.12304 18.075 9.31002 18.2619C9.497 18.4489 9.7506 18.554 10.015 18.554C10.2794 18.554 10.533 18.4489 10.72 18.2619L15.31 13.6719C15.4027 13.5794 15.4763 13.4695 15.5265 13.3486C15.5766 13.2276 15.6025 13.0979 15.6025 12.9669C15.6025 12.836 15.5766 12.7063 15.5265 12.5853C15.4763 12.4643 15.4027 12.3545 15.31 12.2619L10.72 7.67195C10.34 7.29195 9.70002 7.29195 9.31002 7.68195Z" fill="#6B7280"/>
</g>
</svg>
