<svg width="24" height="25" viewBox="0 0 24 25" fill="none" xmlns="http://www.w3.org/2000/svg">
<g id="ic:round-navigate-next">
<path id="Vector" d="M14.69 18.2624C14.7827 18.1699 14.8562 18.06 14.9064 17.939C14.9566 17.818 14.9824 17.6884 14.9824 17.5574C14.9824 17.4264 14.9566 17.2967 14.9064 17.1758C14.8562 17.0548 14.7827 16.9449 14.69 16.8524L10.81 12.9724L14.69 9.09239C14.877 8.90541 14.982 8.65182 14.982 8.38739C14.982 8.12296 14.877 7.86937 14.69 7.68239C14.503 7.49541 14.2494 7.39037 13.985 7.39037C13.7206 7.39037 13.467 7.49541 13.28 7.68239L8.68998 12.2724C8.59727 12.3649 8.52373 12.4748 8.47355 12.5958C8.42336 12.7167 8.39753 12.8464 8.39753 12.9774C8.39753 13.1084 8.42336 13.238 8.47355 13.359C8.52373 13.48 8.59727 13.5899 8.68998 13.6824L13.28 18.2724C13.66 18.6524 14.3 18.6524 14.69 18.2624Z" fill="#6B7280"/>
</g>
</svg>
