<svg width="28" height="28" viewBox="0 0 28 28" fill="none" xmlns="http://www.w3.org/2000/svg">
<path d="M7 15.75L7 4.375M7 15.75C7.9665 15.75 8.75 16.5335 8.75 17.5C8.75 18.4665 7.9665 19.25 7 19.25M7 15.75C6.0335 15.75 5.25 16.5335 5.25 17.5C5.25 18.4665 6.0335 19.25 7 19.25M7 23.625L7 19.25M21 15.75V4.375M21 15.75C21.9665 15.75 22.75 16.5335 22.75 17.5C22.75 18.4665 21.9665 19.25 21 19.25M21 15.75C20.0335 15.75 19.25 16.5335 19.25 17.5C19.25 18.4665 20.0335 19.25 21 19.25M21 23.625L21 19.25M14 8.75V4.375M14 8.75C14.9665 8.75 15.75 9.5335 15.75 10.5C15.75 11.4665 14.9665 12.25 14 12.25M14 8.75C13.0335 8.75 12.25 9.5335 12.25 10.5C12.25 11.4665 13.0335 12.25 14 12.25M14 23.625V12.25" stroke="#8B5CF6" stroke-width="2" stroke-linecap="round" stroke-linejoin="round"/>
</svg>
