<svg width="28" height="28" viewBox="0 0 28 28" fill="none" xmlns="http://www.w3.org/2000/svg">
<path d="M4.375 3.5V16.625C4.375 18.0747 5.55025 19.25 7 19.25H9.625M4.375 3.5H2.625M4.375 3.5H23.625M23.625 3.5H25.375M23.625 3.5V16.625C23.625 18.0747 22.4497 19.25 21 19.25H18.375M9.625 19.25H18.375M9.625 19.25L8.45833 22.75M18.375 19.25L19.5417 22.75M19.5417 22.75L20.125 24.5M19.5417 22.75H8.45833M8.45833 22.75L7.875 24.5M10.5 13.125V14.875M14 10.5V14.875M17.5 7.875V14.875" stroke="#8B5CF6" stroke-width="2" stroke-linecap="round" stroke-linejoin="round"/>
</svg>
