<svg width="152" height="72" viewBox="0 0 152 72" fill="none" xmlns="http://www.w3.org/2000/svg">
<path d="M6.45672 41.3434C7.25652 42.2198 8.136 42.897 9.10128 43.3781C10.0666 43.8623 11.1054 44.1013 12.2239 44.1013C13.5201 44.1013 14.5773 43.7703 15.3894 43.1054C16.2045 42.4435 16.6121 41.5364 16.6121 40.3903C16.6121 39.3944 16.3639 38.5977 15.8644 37.994C15.3679 37.3903 14.6264 36.8571 13.6488 36.3883C12.6682 35.9225 11.47 35.4169 10.0512 34.8745C9.2974 34.6018 8.43018 34.234 7.44958 33.7652C6.46898 33.2994 5.54353 32.6957 4.66712 31.9572C3.79071 31.2187 3.06751 30.3147 2.49447 29.2422C1.92144 28.1727 1.63645 26.8826 1.63645 25.375C1.63645 23.567 2.09611 22.0042 3.01542 20.6926C3.93474 19.3811 5.185 18.3698 6.76929 17.662C8.35357 16.9541 10.1248 16.5986 12.0829 16.5986C14.0411 16.5986 15.8429 16.9388 17.3077 17.616C18.7694 18.2932 19.9921 19.1543 20.9727 20.1931C21.0616 20.2881 21.1504 20.3862 21.2393 20.4812C22.4865 21.8693 22.128 24.0542 20.4946 24.9582L20.4303 24.9919C19.2536 25.6416 17.7827 25.3995 16.8848 24.3974C16.8174 24.3208 16.7469 24.2473 16.6764 24.1707C16.0881 23.5517 15.417 23.0552 14.6631 22.6783C13.9093 22.3014 13.0482 22.1114 12.086 22.1114C10.8204 22.1114 9.87044 22.4056 9.23611 22.994C8.60178 23.5823 8.28615 24.2687 8.28615 25.0532C8.28615 25.8377 8.5405 26.5241 9.05531 27.1125C9.56706 27.7008 10.3515 28.2585 11.4088 28.7856C12.4629 29.3127 13.7898 29.8489 15.3894 30.3913C16.4129 30.7529 17.4027 31.2064 18.3526 31.7488C19.3026 32.2912 20.1606 32.947 20.9298 33.7162C21.6989 34.4853 22.3026 35.3893 22.7378 36.4312C23.176 37.4731 23.3935 38.6712 23.3935 40.0257C23.3935 41.564 23.0902 42.9368 22.4896 44.1411C21.8859 45.3485 21.0585 46.3658 20.0013 47.1932C18.9441 48.0237 17.7612 48.6549 16.4497 49.0931C15.1381 49.5313 13.7591 49.7489 12.3097 49.7489C10.3791 49.7489 8.57727 49.3781 6.90412 48.6396C5.23097 47.9011 3.77538 46.899 2.54044 45.6304C2.04094 45.1187 1.58435 44.5885 1.17373 44.0431C0.199255 42.7499 0.51489 40.899 1.8387 39.9644C3.0859 39.0849 4.81421 39.3148 5.75804 40.516C5.98174 40.801 6.21463 41.0737 6.45059 41.3342L6.45672 41.3434Z" fill="#1F2937"/>
<path d="M57.855 16.9939V46.9358C57.855 48.5905 56.5158 49.9296 54.8611 49.9296C53.2063 49.9296 51.8672 48.5905 51.8672 46.9358V16.9939C51.8672 15.3391 53.2063 14 54.8611 14C56.5158 14 57.855 15.3391 57.855 16.9939Z" fill="#1F2937"/>
<path d="M69.3237 16.9939V46.9358C69.3237 48.5905 67.9846 49.9296 66.3298 49.9296C64.6751 49.9296 63.3359 48.5905 63.3359 46.9358V16.9939C63.3359 15.3391 64.6751 14 66.3298 14C67.9846 14 69.3237 15.3391 69.3237 16.9939Z" fill="#1F2937"/>
<path d="M79.3941 43.7615C80.1694 44.2732 80.9079 44.6563 81.6097 44.9045C82.3083 45.1527 82.9702 45.2783 83.5923 45.2783C84.4013 45.2783 85.0203 45.1006 85.4585 44.7421C85.8937 44.3866 86.1112 43.8963 86.1112 43.2742C86.1112 42.7134 85.9335 42.2415 85.575 41.8524C85.2164 41.4632 84.6955 41.1139 84.0121 40.8044C83.3288 40.4949 82.4585 40.167 81.4013 39.8238C80.4054 39.4499 79.4431 39.0086 78.5116 38.4938C77.58 37.9821 76.8108 37.2987 76.2041 36.4438C75.5973 35.5888 75.294 34.4948 75.294 33.1557C75.294 31.8166 75.6372 30.8023 76.3205 29.9167C77.0039 29.0311 77.9293 28.363 79.0938 27.9126C80.2583 27.4621 81.5576 27.2354 82.9856 27.2354C84.1991 27.2354 85.3329 27.3916 86.3901 27.7011C87.4473 28.0137 88.4248 28.4243 89.3288 28.9361C90.1685 29.4141 90.7814 30.0638 90.7875 31.1026C90.8028 33.6583 87.9866 33.6705 86.2736 32.8248C85.2011 32.2977 84.1531 32.0311 83.1265 32.0311C81.8088 32.0311 80.0805 32.9964 81.4135 34.4213C82.4922 35.5735 84.2757 35.883 85.6914 36.4193C86.8406 36.8544 87.907 37.3447 88.8845 37.8871C89.8651 38.4325 90.6496 39.1067 91.2379 39.9157C91.8294 40.7247 92.1235 41.7819 92.1235 43.0873C92.1235 45.2323 91.4249 46.9024 90.0244 48.1006C88.6271 49.2957 86.6996 49.8963 84.242 49.8963C82.719 49.8963 81.3277 49.6941 80.0683 49.2896C78.8088 48.8851 77.675 48.3488 76.6637 47.6808C76.3359 47.4632 76.0172 47.2395 75.7107 47.0128C74.6903 46.2528 74.488 44.8033 75.2695 43.7982L75.4349 43.5868C76.198 42.6062 77.6045 42.4438 78.5943 43.1976C78.867 43.406 79.1336 43.5929 79.3911 43.7645L79.3941 43.7615Z" fill="#1F2937"/>
<path d="M45.1811 42.5939C44.6755 42.5939 44.2097 42.7594 43.8144 43.0321C43.8021 43.0413 43.7102 43.1149 43.5723 43.2252C43.5662 43.2313 43.557 43.2374 43.5478 43.2436C41.9359 44.739 40.1096 45.2477 37.9093 45.2477C36.7724 45.2477 35.801 44.9811 34.992 44.4448C34.183 43.9086 33.5794 43.1363 33.1749 42.1282C32.9205 41.4938 32.755 40.7614 32.6631 39.9525H46.4068C48.3435 39.9525 48.6132 38.3345 48.6132 37.4182C48.5182 35.4601 48.1076 33.7594 47.3782 32.3161C46.5417 30.6613 45.322 29.4019 43.7194 28.5346C42.1198 27.6674 40.18 27.2354 37.9063 27.2354C35.6325 27.2354 33.659 27.7011 31.9828 28.6296C30.3066 29.5612 29.0134 30.8697 28.1002 32.5551C27.1871 34.2405 26.7305 36.2507 26.7305 38.5827C26.7305 40.9147 27.1871 42.8789 28.1002 44.5643C29.0134 46.2497 30.3066 47.5674 31.9828 48.5143C33.659 49.4612 35.6172 49.9331 37.8603 49.9331C40.1034 49.9331 42.7235 49.5715 44.844 48.5143C46.1464 47.8646 47.6479 46.8074 47.6479 45.2048C47.6479 43.7645 46.5417 42.6001 45.175 42.6001L45.1811 42.5939ZM34.5446 33.1955C35.5191 32.3283 36.7234 31.8963 38.1514 31.8963C39.6621 31.8963 40.94 32.3436 41.9849 33.2354C43.0299 34.1302 43.5662 35.3161 43.5937 36.8023H32.7489C32.9695 35.264 33.5671 34.0597 34.5416 33.1955H34.5446Z" fill="#1F2937"/>
<path d="M115.575 30.0448C115.575 28.4912 114.316 27.2287 112.759 27.2287C111.202 27.2287 109.943 28.4881 109.943 30.0448C109.943 30.0663 109.943 30.0877 109.946 30.1092C109.946 30.1245 109.943 30.1398 109.943 30.1551V40.8651C109.943 41.5484 109.768 42.1919 109.419 42.7987C109.069 43.4054 108.613 43.9018 108.043 44.288C107.476 44.6741 106.826 44.8671 106.1 44.8671C105.374 44.8671 104.761 44.6679 104.179 44.2665C103.596 43.8651 103.131 43.3717 102.781 42.7772C102.432 42.1858 102.257 41.5484 102.257 40.8651V30.198C102.257 30.1766 102.254 30.1582 102.251 30.1367C102.251 30.1061 102.257 30.0724 102.257 30.0417C102.257 28.4881 100.998 27.2256 99.4412 27.2256C97.8845 27.2256 96.625 28.485 96.625 30.0417C96.625 30.0754 96.6281 30.1061 96.6311 30.1367C96.6311 30.1582 96.625 30.1766 96.625 30.198V40.8651C96.625 42.4371 97.054 43.908 97.912 45.2869C98.7701 46.6659 99.9192 47.7752 101.359 48.621C102.8 49.4667 104.393 49.8865 106.137 49.8865C107.88 49.8865 109.388 49.4728 110.828 48.6424C112.269 47.812 113.418 46.7088 114.276 45.3329C115.134 43.9539 115.563 42.4646 115.563 40.8651V30.1551C115.563 30.1398 115.563 30.1245 115.56 30.1092C115.56 30.0877 115.563 30.0663 115.563 30.0448H115.575Z" fill="#1F2937"/>
<path d="M147.894 23.2328C148.862 23.2328 149.69 22.9141 150.37 22.2798C151.05 21.6424 151.39 20.858 151.39 19.9172C151.39 18.9764 151.05 18.1552 150.37 17.5331C149.69 16.9141 148.862 16.6016 147.894 16.6016C146.926 16.6016 146.092 16.9111 145.397 17.5331C144.701 18.1552 144.352 18.9489 144.352 19.9172C144.352 20.8855 144.698 21.6424 145.397 22.2798C146.092 22.9172 146.926 23.2328 147.894 23.2328Z" fill="url(#paint0_linear_18015_25955)"/>
<path d="M147.853 27.251C146.137 27.251 144.746 28.6422 144.746 30.3582V46.823C144.746 48.5391 146.137 49.9303 147.853 49.9303C149.569 49.9303 150.961 48.5391 150.961 46.823V30.3582C150.961 28.6422 149.569 27.251 147.853 27.251Z" fill="#1F2937"/>
<path d="M126.933 17.122C126.933 15.4305 125.561 14.0576 123.869 14.0576C122.178 14.0576 120.805 15.4305 120.805 17.122V46.9352C120.805 48.6267 122.178 49.9995 123.869 49.9995C125.561 49.9995 126.933 48.6267 126.933 46.9352V17.122Z" fill="url(#paint1_linear_18015_25955)"/>
<path d="M139.718 30.7218C141.14 29.159 140.031 26.6523 137.919 26.6523C136.841 26.6523 135.811 27.1089 135.085 27.9087L126.934 36.9149V39.2009L129.538 41.8914L137.092 33.5993L139.715 30.7187L139.718 30.7218Z" fill="url(#paint2_linear_18015_25955)"/>
<path d="M133.01 38.0822L129.535 41.8912L136.626 49.2119C137.113 49.7145 137.781 49.9964 138.48 49.9964C140.76 49.9964 141.921 47.2538 140.331 45.6174L133.01 38.0791" fill="url(#paint3_linear_18015_25955)"/>
<defs>
<linearGradient id="paint0_linear_18015_25955" x1="144.352" y1="19.9172" x2="151.39" y2="19.9172" gradientUnits="userSpaceOnUse">
<stop stop-color="#46BFE2"/>
<stop offset="0.44" stop-color="#46ABD6"/>
<stop offset="1" stop-color="#478DC5"/>
</linearGradient>
<linearGradient id="paint1_linear_18015_25955" x1="123.412" y1="6.20366" x2="124.077" y2="43.7758" gradientUnits="userSpaceOnUse">
<stop stop-color="#F4AC5A"/>
<stop offset="0.15" stop-color="#F3A656"/>
<stop offset="0.34" stop-color="#F0954C"/>
<stop offset="0.55" stop-color="#ED7A3B"/>
<stop offset="0.75" stop-color="#E95C28"/>
</linearGradient>
<linearGradient id="paint2_linear_18015_25955" x1="117.357" y1="26.4777" x2="141.741" y2="37.8925" gradientUnits="userSpaceOnUse">
<stop stop-color="#F4AC5A"/>
<stop offset="0.15" stop-color="#F3A656"/>
<stop offset="0.34" stop-color="#F0954C"/>
<stop offset="0.55" stop-color="#ED7A3B"/>
<stop offset="0.75" stop-color="#E95C28"/>
</linearGradient>
<linearGradient id="paint3_linear_18015_25955" x1="129.538" y1="44.0424" x2="141.066" y2="44.0424" gradientUnits="userSpaceOnUse">
<stop stop-color="#46BFE2"/>
<stop offset="0.44" stop-color="#46ABD6"/>
<stop offset="1" stop-color="#478DC5"/>
</linearGradient>
</defs>
</svg>
