<svg width="24" height="24" viewBox="0 0 24 24" fill="none" xmlns="http://www.w3.org/2000/svg">
<g clip-path="url(#clip0_11109_26731)">
<g clip-path="url(#clip1_11109_26731)">
<path d="M14.0929 6.65113C14.0929 7.80707 13.1558 8.74415 11.9999 8.74415C10.8439 8.74415 9.90684 7.80707 9.90684 6.65113C9.90684 5.49518 10.8439 4.55811 11.9999 4.55811C13.1558 4.55811 14.0929 5.49518 14.0929 6.65113Z" stroke="#22C55E" stroke-width="1.5" stroke-linecap="round" stroke-linejoin="round"/>
<path d="M7.81445 14.5311C7.85369 12.2531 9.71254 10.4186 11.9999 10.4186C14.2872 10.4186 16.1461 12.2532 16.1853 14.5312C14.9112 15.1159 13.4937 15.4418 12 15.4418C10.5063 15.4418 9.08866 15.1158 7.81445 14.5311Z" stroke="#22C55E" stroke-width="1.5" stroke-linecap="round" stroke-linejoin="round"/>
</g>
<path fill-rule="evenodd" clip-rule="evenodd" d="M16.5836 16.8623C16.7981 16.6478 17.1488 16.6505 17.3667 16.8685L20.703 20.2048L20.608 18.0892C20.5943 17.7835 20.8309 17.5284 21.1364 17.5195C21.442 17.5106 21.7008 17.7512 21.7145 18.0569L21.8728 21.5822C21.8797 21.7361 21.8222 21.8849 21.7142 21.993C21.6062 22.101 21.4573 22.1585 21.3034 22.1515L17.7782 21.9933C17.4724 21.9795 17.2318 21.7207 17.2407 21.4152C17.2497 21.1096 17.5047 20.8731 17.8104 20.8868L19.926 20.9818L16.5898 17.6455C16.3718 17.4275 16.369 17.0769 16.5836 16.8623Z" fill="#22C55E" stroke="#22C55E" stroke-width="0.25" stroke-linecap="round" stroke-linejoin="round"/>
<path fill-rule="evenodd" clip-rule="evenodd" d="M16.5837 7.48075C16.3691 7.26619 16.3719 6.91555 16.5898 6.69759L19.9261 3.36131L17.8105 3.45629C17.5048 3.47002 17.2497 3.23345 17.2408 2.92791C17.2319 2.62236 17.4725 2.36354 17.7782 2.34982L21.3035 2.19154C21.4574 2.18463 21.6063 2.24208 21.7143 2.35011C21.8223 2.45814 21.8798 2.60699 21.8729 2.76091L21.7146 6.28617C21.7009 6.59189 21.442 6.83251 21.1365 6.82359C20.8309 6.81468 20.5944 6.55962 20.6081 6.25389L20.7031 4.1383L17.3668 7.47458C17.1488 7.69255 16.7982 7.69531 16.5837 7.48075Z" fill="#22C55E" stroke="#22C55E" stroke-width="0.25" stroke-linecap="round" stroke-linejoin="round"/>
<path fill-rule="evenodd" clip-rule="evenodd" d="M7.48172 7.48117C7.26716 7.69573 6.91653 7.69297 6.69856 7.475L3.36228 4.13872L3.45727 6.25431C3.471 6.56003 3.23443 6.8151 2.92889 6.82401C2.62334 6.83292 2.36452 6.59231 2.35079 6.28659L2.19251 2.76133C2.1856 2.60741 2.24306 2.45856 2.35109 2.35053C2.45912 2.2425 2.60796 2.18505 2.76189 2.19196L6.28715 2.35024C6.59287 2.36396 6.83348 2.62278 6.82457 2.92833C6.81566 3.23387 6.56059 3.47044 6.25487 3.45671L4.13928 3.36172L7.47556 6.69801C7.69352 6.91597 7.69628 7.26661 7.48172 7.48117Z" fill="#22C55E" stroke="#22C55E" stroke-width="0.25" stroke-linecap="round" stroke-linejoin="round"/>
<path fill-rule="evenodd" clip-rule="evenodd" d="M7.48166 16.5837C7.69622 16.7983 7.69346 17.1489 7.47549 17.3669L4.13921 20.7031L6.2548 20.6082C6.56052 20.5944 6.81559 20.831 6.8245 21.1365C6.83341 21.4421 6.5928 21.7009 6.28708 21.7146L2.76182 21.8729C2.60789 21.8798 2.45905 21.8224 2.35102 21.7143C2.24299 21.6063 2.18553 21.4575 2.19245 21.3035L2.35072 17.7783C2.36445 17.4726 2.62327 17.2319 2.92882 17.2409C3.23436 17.2498 3.47093 17.5048 3.4572 17.8106L3.36221 19.9262L6.69849 16.5899C6.91646 16.3719 7.26709 16.3691 7.48166 16.5837Z" fill="#22C55E" stroke="#22C55E" stroke-width="0.25" stroke-linecap="round" stroke-linejoin="round"/>
</g>
<defs>
<clipPath id="clip0_11109_26731">
<rect width="24" height="24" fill="white"/>
</clipPath>
<clipPath id="clip1_11109_26731">
<rect width="13.3953" height="13.3953" fill="white" transform="translate(5.30225 3.30225)"/>
</clipPath>
</defs>
</svg>
