<svg width="24" height="24" viewBox="0 0 24 24" fill="none" xmlns="http://www.w3.org/2000/svg">
<g clip-path="url(#clip0_19961_17074)">
<path d="M5.14118 12.0004V7.49181C5.15457 6.60558 5.3427 5.7307 5.69479 4.9173C6.04688 4.1039 6.55601 3.36797 7.19301 2.75168C7.83001 2.13538 8.58235 1.65084 9.40694 1.3258C10.2315 1.00077 11.1121 0.84164 11.9983 0.857528C12.8845 0.84164 13.7651 1.00077 14.5897 1.3258C15.4143 1.65084 16.1666 2.13538 16.8036 2.75168C17.4406 3.36797 17.9498 4.1039 18.3019 4.9173C18.654 5.7307 18.8421 6.60558 18.8555 7.49181V12.0004M15.4269 21.0004C16.3362 21.0004 17.2083 20.6392 17.8513 19.9962C18.4942 19.3532 18.8555 18.4811 18.8555 17.5718V13.7147M15.4269 21.0004C15.4269 21.5687 15.2011 22.1138 14.7993 22.5156C14.3974 22.9175 13.8524 23.1432 13.284 23.1432H10.7126C10.1443 23.1432 9.59925 22.9175 9.19738 22.5156C8.79552 22.1138 8.56975 21.5687 8.56975 21.0004C8.56975 20.4321 8.79552 19.887 9.19738 19.4852C9.59925 19.0833 10.1443 18.8575 10.7126 18.8575H13.284C13.8524 18.8575 14.3974 19.0833 14.7993 19.4852C15.2011 19.887 15.4269 20.4321 15.4269 21.0004ZM2.56975 9.42896H4.28404C4.51137 9.42896 4.72939 9.51926 4.89013 9.68001C5.05088 9.84075 5.14118 10.0588 5.14118 10.2861V15.429C5.14118 15.6563 5.05088 15.8743 4.89013 16.035C4.72939 16.1958 4.51137 16.2861 4.28404 16.2861H2.56975C2.1151 16.2861 1.67906 16.1055 1.35757 15.784C1.03608 15.4625 0.855469 15.0265 0.855469 14.5718V11.1432C0.855469 10.6886 1.03608 10.2526 1.35757 9.93106C1.67906 9.60957 2.1151 9.42896 2.56975 9.42896ZM21.4269 16.2861H19.7126C19.4853 16.2861 19.2673 16.1958 19.1065 16.035C18.9458 15.8743 18.8555 15.6563 18.8555 15.429V10.2861C18.8555 10.0588 18.9458 9.84075 19.1065 9.68001C19.2673 9.51926 19.4853 9.42896 19.7126 9.42896H21.4269C21.8816 9.42896 22.3176 9.60957 22.6391 9.93106C22.9606 10.2526 23.1412 10.6886 23.1412 11.1432V14.5718C23.1412 15.0265 22.9606 15.4625 22.6391 15.784C22.3176 16.1055 21.8816 16.2861 21.4269 16.2861Z" stroke="#8B5CF6" stroke-width="1.5" stroke-linecap="round" stroke-linejoin="round"/>
</g>
<defs>
<clipPath id="clip0_19961_17074">
<rect width="24" height="24" fill="white"/>
</clipPath>
</defs>
</svg>
