<svg width="24" height="24" viewBox="0 0 24 24" fill="none" xmlns="http://www.w3.org/2000/svg">
<path d="M4.5 11.9993C4.5 16.1414 7.85786 19.4993 12 19.4993C16.1421 19.4993 19.5 16.1414 19.5 11.9993M4.5 11.9993C4.5 7.85712 7.85786 4.49925 12 4.49925C16.1421 4.49926 19.5 7.85712 19.5 11.9993M4.5 11.9993L3 11.9993M19.5 11.9993L21 11.9993M19.5 11.9993L12 11.9993M3.54256 15.0774L4.9521 14.5644M19.0475 9.43411L20.457 8.92108M5.10547 17.785L6.25454 16.8208M17.7452 7.17897L18.8943 6.21479M7.4999 19.7943L8.2499 18.4952M15.7499 5.50484L16.4999 4.2058M10.4371 20.8633L10.6975 19.386M13.3023 4.61393L13.5627 3.13672M13.5627 20.8633L13.3023 19.3861M10.6976 4.61397L10.4371 3.13676M16.4999 19.7941L15.7499 18.4951M7.49995 4.20565L12 11.9993M18.8944 17.7843L17.7454 16.8202M6.25469 7.17835L5.10562 6.21417M20.4573 15.0776L19.0477 14.5646M4.95235 9.43426L3.54281 8.92123M12 11.9993L8.25 18.4944" stroke="#8B5CF6" stroke-width="1.5" stroke-linecap="round" stroke-linejoin="round"/>
</svg>
